<svg xmlns="http://www.w3.org/2000/svg" xmlns:xlink="http://www.w3.org/1999/xlink" viewBox="0 0 1920 1080"><defs><style>.cls-1{fill:#1b1464;}.cls-2{fill:none;stroke:#110c11;stroke-miterlimit:10;stroke-width:0.4px;}.cls-3{isolation:isolate;}.cls-4{clip-path:url(#clip-path);}.cls-5{mix-blend-mode:multiply;}.cls-6{fill:#3a8e78;}.cls-7{clip-path:url(#clip-path-2);}.cls-8{fill:#110c11;}</style><clipPath id="clip-path"><path class="cls-1" d="M1787.91,296.74c-13.58,72.83-71.32,126.87-141.49,140.86-71.24,14.21-145.89-17.36-186.15-78.91-39-59.69-38-140.92,2.58-199.24,7.42,17.91,9.9,36.65,9.15,55.84-.47,11.91.31,23.52,4.84,34.9,3.72-1.95,7.91-3.57,4.71-8.32-2.09-3.1-4.57-6.06,0-8,4.21-1.8,5.85,2.49,6.94,5.5a47,47,0,0,1,2.36,10.9c1.45,13.22,2.26,26.76,21.13,25.73,1.2-.06,2.42,1.57,3.74,2.18,6.39,3,12.67,5.35,12.26-5.81-.12-3.27,4.71-5.29,2.16-9-3.83-1-6.61,1.22-9.6,2.62-4.4,2-8.25,2.3-9.44-3.51-1.44-7,5.43-15.31,13-15.62,6.3-.25,13-4,18.72,1.94,2.53-8.26,12.44-10.39,15.29-18.39,4.61-13,12.53-17.38,25.58-13.72,5.84,1.64,7.39-2.8,9-6.15,1.91-4-1-6-4.75-7.1-4.53-1.32-14.07.91-12.17-5.39,2.55-8.48,9,0,13.6,1.23,3,.81,5.88,2.26,8.14-.73,2-2.71,1.5-5.92-.58-8.31-3-3.5-5.3-7.05-5.36-11.93,0-3.31-2.2-6.1-5.55-6-6.18.18-8.19-3.86-10.2-8.39-.9-2-2.21-4.69-4.67-3.83-1.66.58-3.17,3-3.74,5a19.11,19.11,0,0,0-.54,7.79c1.35,9.93-7.62,13.58-13,15.94-7.46,3.26-3-7-6.34-9.76a4.08,4.08,0,0,1-.62-.93c-9.17-14.59-6.38-23.15,9.6-29,5.1-1.88,10.91-4,10.29-10.16-.71-6.91-11.29-9.68-13-8.94-13,5.78-24.73-2.17-36.93-1.71-7.59.29-13.1-2.09-16.88-8.59l9.57-7.32c7.24,8.71,16.41,13.35,27.84,13.3,6.65,0,11.43-2.84,13.49-9.34,1.07-3.37,0-6.81-3.86-6-10,2.15-11.55-5.53-14.78-11.49,2.93-1.47,5.67-3.8,9.34-2.24,6.92,5.29,16.23,4.29,23.62,9.72,4,3,15.65,4.64,17.38-.73,3.6-11.1,15.21-14.13,19.32-23.74a63.06,63.06,0,0,1,23.39-1c-5.89,6.06-11,12.87-20.15,14.9-7.37,1.64-5.39,7.08-1.25,9.6,17.09,10.4,17.41,24.32,9.91,40.45-3.69,7.93-2.37,15.21,3,21.95,4,5,8.51,6.51,9.86-1.14,1.64-9.38,7.26-13.64,15-17.63,13.75-7,26.67-16,25.73-33.77-.5-9.3,1.26-16.73,7.47-23.32,27.66,10,51.9,25,70,48.78-2.73,1.33-5.17,1.38-8.37.54a15,15,0,0,0-15.31,4.23c-8.64,8.67-14,20.37-25.33,26.6-2.08,1.16-4.17,4.18-.57,6.26a27,27,0,0,0,19.47,3.35c6.37-1.36,5.23-7.54,6.57-11.88,1.21-3.89,1.29-8.11,2.19-12.11.46-2,1-4.92,4.09-4.11,2.37.62,3.39,2.83,3.09,5.35-.38,3.3-3.27,7.26-1,9.73,8.53,9.18.39,13.83-4.62,19.29-5.66,6.15-13.64,7.49-21.24,9.25-15.34,3.55-17.91,7.06-14.82,21.71a24.53,24.53,0,0,1-4.38,0c-4.92-.91-9.89-.3-10.61,5.18-.8,6.12,5.18,6.41,9.4,7.39,9.13,2.11,13.25-4.71,18-10.42,9.19-11,26.12-13.38,30.1-3.3,4.44,11.24,12.4,13.64,22.3,14.85,3.16.38,6.55,1.53,6.68,4.89.17,4.6-4.19,4.86-7.41,4.94-6.32.16-13.2-2-18.86-.11-10.65,3.47-18.19,1.17-24-7.88-1.5-2.33-2.92-3-5.44-1.86-16.1,7.59-33.8,12.73-36.93,34.94-1.37,9.75-3.32,17.39,5.37,25.22,7.35,6.62,14.67,5.9,22.81,4.84,15.67-2,27.17,9.7,22.52,25.1-5.07,16.81,2.58,30.07,9.12,43.68,3.89,8.1,15.21,6.69,19.19-1.75.76-1.61.89-3.21,2.55-4.62,13-11.05,16.92-25.54,14.75-41.9-.56-4.16-.32-7.76,3.3-9.87C1774.25,304.22,1779.88,298.3,1787.91,296.74ZM1559.53,364.6c-.33,21.42-.51,42.77,12.41,61.52,1.41,2.05,2.43,5.41,5.69,4.4,4-1.25,1.7-4.25.83-6.44-1.75-4.39.48-8,1.81-11.85,1.19-3.43,3.38-7.16-.91-10.1-5.12-3.51-2.41-6.7,0-10.33,8.41-12.66,20.82-22.13,28.17-35.66,1.61-3,4.78-4.52,8.23-5.45,6.65-1.79,9.61-6.4,10-13.25.22-4.45.62-9.13,2.2-13.22,3.79-9.87-.63-14.05-9.64-15.62-5.83-1-12.17-.37-16.72-5.34-5.9-6.44-13.07-10.32-21.33-13.52-6.29-2.44-13.06-2.75-19.1-5.92-7.22-3.79-11.69-.83-10.56,7,.46,3.19.78,5.68-1.17,8.33-8.56,11.61-9.18,28.8,1.08,37.5C1560,344.77,1561.61,353.65,1559.53,364.6ZM1590,151.87c4.65-4,9.84,4.62,12.65-2.27,2.2-5.36-2.13-8.15-6-10.64-2.6-1.69-2-4.58-2.94-6.88-3.28-7.94-9.77-13.22-17.38-16.31a9.78,9.78,0,0,0-12.46,5c-2.58,5.09,2.74,6.7,5.5,8,8.24,4,11,8.69,6.84,17.76-3.48,7.6,7,9.16,8.67,15.13.59,2.16,4,2.27,5.9.74C1595.44,158.67,1589.19,155.22,1590,151.87Zm-55.16,131c2.3-.37,3.94-1.7,4-3.43.14-3.3-2.65-2.64-4.66-2.53s-3.57.89-3.07,3.29C1531.52,282.33,1533.15,282.89,1534.79,282.87Z"/></clipPath><clipPath id="clip-path-2"><path class="cls-2" d="M1793.33,304.16C1779.75,377,1722,431,1651.84,445c-71.25,14.21-145.89-17.35-186.15-78.91-39-59.69-38-140.91,2.57-199.23,7.42,17.9,9.91,36.64,9.15,55.83-.47,11.91.31,23.52,4.85,34.91,3.72-2,7.91-3.58,4.7-8.33-2.08-3.09-4.56-6,0-8,4.22-1.8,5.86,2.49,7,5.5a47.54,47.54,0,0,1,2.36,10.9c1.45,13.23,2.26,26.77,21.13,25.74,1.2-.07,2.42,1.56,3.74,2.18,6.39,3,12.66,5.34,12.26-5.81-.12-3.27,4.71-5.3,2.16-9-3.83-1-6.61,1.23-9.61,2.62-4.39,2.05-8.24,2.3-9.43-3.51-1.44-7,5.42-15.31,13-15.61,6.3-.26,13-4,18.72,1.94,2.52-8.27,12.44-10.39,15.28-18.4,4.62-13,12.54-17.38,25.59-13.72,5.83,1.64,7.39-2.8,9-6.15,1.9-4-1-6-4.75-7.1-4.53-1.32-14.07.91-12.17-5.39,2.55-8.47,9,0,13.59,1.23,3,.81,5.89,2.27,8.14-.73,2-2.7,1.51-5.92-.57-8.31-3-3.5-5.31-7-5.36-11.93,0-3.31-2.2-6.09-5.55-6-6.18.18-8.19-3.86-10.21-8.39-.9-2-2.21-4.69-4.66-3.83-1.67.59-3.17,3-3.75,5a18.9,18.9,0,0,0-.53,7.78c1.35,9.93-7.62,13.58-13,15.94-7.46,3.27-3-7-6.34-9.76a3.87,3.87,0,0,1-.62-.93c-9.17-14.58-6.38-23.15,9.6-29,5.1-1.87,10.91-4.05,10.29-10.15-.71-6.91-11.29-9.69-13-8.95-13,5.78-24.73-2.17-36.93-1.7-7.59.28-13.1-2.09-16.88-8.59l9.57-7.33c7.23,8.71,16.41,13.36,27.84,13.3,6.64,0,11.42-2.83,13.49-9.33,1.07-3.38,0-6.81-3.86-6-10,2.15-11.56-5.52-14.79-11.49,2.94-1.46,5.68-3.79,9.34-2.23,6.93,5.28,16.23,4.28,23.63,9.71,4,3,15.64,4.64,17.38-.73,3.6-11.1,15.21-14.13,19.32-23.74a63.27,63.27,0,0,1,23.39-1c-5.89,6.06-11,12.87-20.15,14.91-7.37,1.63-5.39,7.08-1.25,9.6,17.08,10.39,17.41,24.31,9.91,40.45-3.69,7.92-2.38,15.2,3,21.94,4,5,8.51,6.52,9.85-1.14,1.65-9.38,7.27-13.64,15.06-17.62,13.75-7,26.67-16,25.73-33.77-.5-9.31,1.26-16.73,7.47-23.33,27.66,10,51.9,25,70,48.78-2.72,1.33-5.16,1.38-8.36.54a15,15,0,0,0-15.32,4.23c-8.63,8.67-14.05,20.38-25.32,26.61-2.08,1.15-4.17,4.18-.57,6.25a27,27,0,0,0,19.47,3.35c6.37-1.36,5.23-7.53,6.57-11.87,1.2-3.9,1.28-8.12,2.19-12.12.46-2,1-4.92,4.09-4.11,2.36.63,3.39,2.83,3.09,5.36-.39,3.29-3.27,7.26-1,9.73,8.53,9.17.39,13.83-4.62,19.28-5.66,6.16-13.65,7.5-21.25,9.26-15.33,3.55-17.9,7-14.81,21.71a24.66,24.66,0,0,1-4.39,0c-4.91-.92-9.88-.3-10.6,5.18-.81,6.11,5.17,6.4,9.39,7.38,9.14,2.11,13.26-4.71,18-10.42,9.18-11,26.12-13.37,30.1-3.3,4.44,11.25,12.4,13.64,22.3,14.85,3.16.39,6.55,1.54,6.68,4.9.17,4.59-4.19,4.86-7.41,4.94-6.32.15-13.2-2-18.86-.12-10.65,3.48-18.19,1.18-24-7.88-1.5-2.33-2.92-3-5.44-1.85-16.1,7.58-33.8,12.72-36.93,34.94-1.37,9.75-3.32,17.39,5.37,25.22,7.34,6.62,14.67,5.89,22.8,4.84,15.68-2,27.17,9.69,22.53,25.09-5.07,16.81,2.57,30.08,9.11,43.69,3.89,8.1,15.21,6.68,19.2-1.76.76-1.61.89-3.21,2.55-4.61,13-11,16.91-25.54,14.74-41.91-.55-4.16-.31-7.75,3.31-9.87C1779.67,311.64,1785.29,305.73,1793.33,304.16ZM1565,372c-.34,21.42-.51,42.77,12.4,61.53,1.41,2,2.43,5.4,5.7,4.39,4-1.25,1.7-4.25.83-6.44-1.75-4.39.48-8,1.81-11.85,1.19-3.43,3.38-7.16-.91-10.1-5.12-3.51-2.41-6.69,0-10.33,8.41-12.65,20.82-22.13,28.17-35.66,1.61-3,4.78-4.52,8.22-5.45,6.65-1.79,9.61-6.39,10-13.25.23-4.45.63-9.12,2.21-13.22,3.79-9.87-.63-14-9.64-15.62-5.83-1-12.17-.37-16.72-5.34-5.9-6.44-13.07-10.32-21.34-13.52-6.29-2.43-13.05-2.75-19.09-5.92-7.22-3.79-11.7-.82-10.56,7,.46,3.19.78,5.67-1.17,8.32-8.56,11.62-9.18,28.81,1.08,37.5C1565.45,352.19,1567,361.07,1565,372Zm30.42-212.73c4.65-4,9.84,4.62,12.65-2.27,2.19-5.36-2.13-8.14-6-10.64-2.6-1.69-2-4.58-2.94-6.87-3.28-7.94-9.78-13.22-17.38-16.32a9.81,9.81,0,0,0-12.47,5c-2.58,5.09,2.74,6.7,5.51,8,8.24,3.95,11,8.69,6.84,17.77-3.48,7.6,7,9.15,8.66,15.12.6,2.16,4,2.27,5.9.75C1600.86,166.09,1594.61,162.65,1595.37,159.29Zm-55.16,131c2.3-.36,3.94-1.69,4-3.43.15-3.29-2.64-2.64-4.65-2.53s-3.57.89-3.07,3.3C1536.94,289.75,1538.57,290.32,1540.21,290.29Z"/></clipPath></defs><g class="cls-3"><g id="Calque_1" data-name="Calque 1"><circle class="cls-1" cx="1609.79" cy="260.65" r="185.79"/><path class="cls-1" d="M1787.91,296.74c-13.58,72.83-71.32,126.87-141.49,140.86-71.24,14.21-145.89-17.36-186.15-78.91-39-59.69-38-140.92,2.58-199.24,7.42,17.91,9.9,36.65,9.15,55.84-.47,11.91.31,23.52,4.84,34.9,3.72-1.95,7.91-3.57,4.71-8.32-2.09-3.1-4.57-6.06,0-8,4.21-1.8,5.85,2.49,6.94,5.5a47,47,0,0,1,2.36,10.9c1.45,13.22,2.26,26.76,21.13,25.73,1.2-.06,2.42,1.57,3.74,2.18,6.39,3,12.67,5.35,12.26-5.81-.12-3.27,4.71-5.29,2.16-9-3.83-1-6.61,1.22-9.6,2.62-4.4,2-8.25,2.3-9.44-3.51-1.44-7,5.43-15.31,13-15.62,6.3-.25,13-4,18.72,1.94,2.53-8.26,12.44-10.39,15.29-18.39,4.61-13,12.53-17.38,25.58-13.72,5.84,1.64,7.39-2.8,9-6.15,1.91-4-1-6-4.75-7.1-4.53-1.32-14.07.91-12.17-5.39,2.55-8.48,9,0,13.6,1.23,3,.81,5.88,2.26,8.14-.73,2-2.71,1.5-5.92-.58-8.31-3-3.5-5.3-7.05-5.36-11.93,0-3.31-2.2-6.1-5.55-6-6.18.18-8.19-3.86-10.2-8.39-.9-2-2.21-4.69-4.67-3.83-1.66.58-3.17,3-3.74,5a19.11,19.11,0,0,0-.54,7.79c1.35,9.93-7.62,13.58-13,15.94-7.46,3.26-3-7-6.34-9.76a4.08,4.08,0,0,1-.62-.93c-9.17-14.59-6.38-23.15,9.6-29,5.1-1.88,10.91-4,10.29-10.16-.71-6.91-11.29-9.68-13-8.94-13,5.78-24.73-2.17-36.93-1.71-7.59.29-13.1-2.09-16.88-8.59l9.57-7.32c7.24,8.71,16.41,13.35,27.84,13.3,6.65,0,11.43-2.84,13.49-9.34,1.07-3.37,0-6.81-3.86-6-10,2.15-11.55-5.53-14.78-11.49,2.93-1.47,5.67-3.8,9.34-2.24,6.92,5.29,16.23,4.29,23.62,9.72,4,3,15.65,4.64,17.38-.73,3.6-11.1,15.21-14.13,19.32-23.74a63.06,63.06,0,0,1,23.39-1c-5.89,6.06-11,12.87-20.15,14.9-7.37,1.64-5.39,7.08-1.25,9.6,17.09,10.4,17.41,24.32,9.91,40.45-3.69,7.93-2.37,15.21,3,21.95,4,5,8.51,6.51,9.86-1.14,1.64-9.38,7.26-13.64,15-17.63,13.75-7,26.67-16,25.73-33.77-.5-9.3,1.26-16.73,7.47-23.32,27.66,10,51.9,25,70,48.78-2.73,1.33-5.17,1.38-8.37.54a15,15,0,0,0-15.31,4.23c-8.64,8.67-14,20.37-25.33,26.6-2.08,1.16-4.17,4.18-.57,6.26a27,27,0,0,0,19.47,3.35c6.37-1.36,5.23-7.54,6.57-11.88,1.21-3.89,1.29-8.11,2.19-12.11.46-2,1-4.92,4.09-4.11,2.37.62,3.39,2.83,3.09,5.35-.38,3.3-3.27,7.26-1,9.73,8.53,9.18.39,13.83-4.62,19.29-5.66,6.15-13.64,7.49-21.24,9.25-15.34,3.55-17.91,7.06-14.82,21.71a24.53,24.53,0,0,1-4.38,0c-4.92-.91-9.89-.3-10.61,5.18-.8,6.12,5.18,6.41,9.4,7.39,9.13,2.11,13.25-4.71,18-10.42,9.19-11,26.12-13.38,30.1-3.3,4.44,11.24,12.4,13.64,22.3,14.85,3.16.38,6.55,1.53,6.68,4.89.17,4.6-4.19,4.86-7.41,4.94-6.32.16-13.2-2-18.86-.11-10.65,3.47-18.19,1.17-24-7.88-1.5-2.33-2.92-3-5.44-1.86-16.1,7.59-33.8,12.73-36.93,34.94-1.37,9.75-3.32,17.39,5.37,25.22,7.35,6.62,14.67,5.9,22.81,4.84,15.67-2,27.17,9.7,22.52,25.1-5.07,16.81,2.58,30.07,9.12,43.68,3.89,8.1,15.21,6.69,19.19-1.75.76-1.61.89-3.21,2.55-4.62,13-11.05,16.92-25.54,14.75-41.9-.56-4.16-.32-7.76,3.3-9.87C1774.25,304.22,1779.88,298.3,1787.91,296.74ZM1559.53,364.6c-.33,21.42-.51,42.77,12.41,61.52,1.41,2.05,2.43,5.41,5.69,4.4,4-1.25,1.7-4.25.83-6.44-1.75-4.39.48-8,1.81-11.85,1.19-3.43,3.38-7.16-.91-10.1-5.12-3.51-2.41-6.7,0-10.33,8.41-12.66,20.82-22.13,28.17-35.66,1.61-3,4.78-4.52,8.23-5.45,6.65-1.79,9.61-6.4,10-13.25.22-4.45.62-9.13,2.2-13.22,3.79-9.87-.63-14.05-9.64-15.62-5.83-1-12.17-.37-16.72-5.34-5.9-6.44-13.07-10.32-21.33-13.52-6.29-2.44-13.06-2.75-19.1-5.92-7.22-3.79-11.69-.83-10.56,7,.46,3.19.78,5.68-1.17,8.33-8.56,11.61-9.18,28.8,1.08,37.5C1560,344.77,1561.61,353.65,1559.53,364.6ZM1590,151.87c4.65-4,9.84,4.62,12.65-2.27,2.2-5.36-2.13-8.15-6-10.64-2.6-1.69-2-4.58-2.94-6.88-3.28-7.94-9.77-13.22-17.38-16.31a9.78,9.78,0,0,0-12.46,5c-2.58,5.09,2.74,6.7,5.5,8,8.24,4,11,8.69,6.84,17.76-3.48,7.6,7,9.16,8.67,15.13.59,2.16,4,2.27,5.9.74C1595.44,158.67,1589.19,155.22,1590,151.87Zm-55.16,131c2.3-.37,3.94-1.7,4-3.43.14-3.3-2.65-2.64-4.66-2.53s-3.57.89-3.07,3.29C1531.52,282.33,1533.15,282.89,1534.79,282.87Z"/><g class="cls-4"><path class="cls-1" d="M1415.21,289c28.43,20.44,58.57,39.18,91.83,50.13s70.07,13.66,103.15,2.17,59.94-36.06,81.18-63.76,37.57-58.77,55.93-88.46c6.69-10.81,15.28-22.52,27.91-24,13.34-1.52,24.86,9.23,32.36,20.36,16.55,24.52,23.76,54.65,23.25,84.24s-8.41,58.69-20,85.91c-23.18,54.5-61.92,102.81-112,134.4s-111.59,45.77-170,36c-32.25-5.42-63.66-18.23-88.49-39.51a151.42,151.42,0,0,1-25.84-201.31"/><path class="cls-1" d="M1414.91,289.5c37.18,26.7,78,51,124,57.86,22.62,3.39,46.08,2.55,68-4.37,19.57-6.17,37.31-17.12,52.77-30.51,34.39-29.8,56.45-70.2,79.43-108.76,5.49-9.21,10.7-19.05,17.85-27.12,6.77-7.65,16.13-13,26.6-10.26,10.31,2.74,18.19,11.49,23.9,20A130.1,130.1,0,0,1,1822,216.05c15.52,45.11,7.09,94.07-10.84,137.13a304.34,304.34,0,0,1-69.68,102.57c-31.06,29.79-68.92,52.06-110.43,63.64-42.59,11.88-88.73,12.55-131-1-21-6.71-40.94-17-57.88-31.16A151.25,151.25,0,0,1,1415,285.45c.44-.64-.6-1.24-1-.6-24.84,36-33.32,82.36-22.23,124.72a154.85,154.85,0,0,0,75.1,95.91c38.66,21.31,84.63,27.73,128.13,22.36A256.22,256.22,0,0,0,1716,479c33.46-24.9,61-57.45,81.16-93.89,22.05-39.84,37.57-86.07,33.76-132.09-1.82-22-8.06-43.79-19.52-62.73-5.17-8.55-11.53-17-20.33-22.08-8-4.64-17.44-5.12-25.55-.39s-13.81,13.08-18.7,21c-6.33,10.21-12.38,20.58-18.49,30.91-12.35,20.88-24.9,41.75-40,60.8-13.24,16.73-28.51,32.12-46.27,44a136.47,136.47,0,0,1-63.4,22.93c-48.39,4.57-94.79-14.57-135-39.9-9.59-6-18.94-12.47-28.15-19.08-.63-.45-1.24.59-.61,1Z"/><g class="cls-5"><path class="cls-1" d="M1416.89,266c35.6,58.52,104.77,93.51,173.26,92.4s134.59-36.4,177.7-89.64c9.16-11.32,17.5-23.54,28.85-32.68s26.66-14.85,40.6-10.62c13.68,4.16,23.26,17.26,26.64,31.15s1.48,28.52-1.56,42.5a265.33,265.33,0,0,1-204.86,203.13c-20.42,4.27-41.65,6.11-62.12,2.1-24.86-4.88-47.35-18.15-67.33-33.73-63-49.13-105.1-124.15-114.26-203.49"/><path class="cls-1" d="M1416.37,266.25c19.81,32.42,49.88,57.76,84.28,73.59a207.28,207.28,0,0,0,112.06,17.52c39.24-4.91,76.79-20.6,108.71-43.82a248.31,248.31,0,0,0,43.23-40c13.71-16.15,25.32-36.12,45.49-45,10-4.41,21.67-5.59,31.71-.64,8.63,4.25,15,12.12,18.82,20.83,9.11,20.95,3,45.83-3.07,66.79a264.55,264.55,0,0,1-168,177.19c-21.17,7.35-43.64,12.56-66.11,13.19A123.82,123.82,0,0,1,1588,502a138.76,138.76,0,0,1-30.9-12.7c-18.51-10.18-35.35-23.55-50.61-38.11a303,303,0,0,1-39-45.51,306.75,306.75,0,0,1-48.18-109.39,294.08,294.08,0,0,1-4.9-29.18c-.09-.76-1.29-.77-1.2,0a306.18,306.18,0,0,0,115.66,204.86c17.22,13.29,36.28,24.84,57.35,30.78,23.07,6.5,47.37,5,70.62.23a265.89,265.89,0,0,0,189.69-153.46c8.65-19.64,15.44-40.62,18.59-61.89,2.93-19.77.84-42.34-15.49-56a34.54,34.54,0,0,0-25.82-8c-9.89,1-19.23,5.49-27,11.57-8.8,6.92-15.8,15.77-22.64,24.54a306.85,306.85,0,0,1-20.38,24c-28.22,29.39-63.78,51.9-102.71,64.07-38.52,12-79.75,13.32-118.69,2.45-37.57-10.48-72.41-31.54-98-61.17a176.42,176.42,0,0,1-17.06-23.41.6.6,0,0,0-1,.61Z"/></g></g><path class="cls-6" d="M1787.91,296.74c-8,1.56-13.66,7.48-20.38,11.4-3.62,2.11-3.86,5.71-3.3,9.87,2.17,16.36-1.75,30.85-14.75,41.9-1.66,1.41-1.79,3-2.55,4.62-4,8.44-15.3,9.85-19.19,1.75-6.54-13.61-14.19-26.87-9.12-43.68,4.65-15.4-6.85-27.12-22.52-25.1-8.14,1.06-15.46,1.78-22.81-4.84-8.69-7.83-6.74-15.47-5.37-25.22,3.13-22.21,20.83-27.35,36.93-34.94,2.52-1.18,3.94-.47,5.44,1.86,5.82,9,13.36,11.35,24,7.88,5.66-1.85,12.54.27,18.86.11,3.22-.08,7.58-.34,7.41-4.94-.13-3.36-3.52-4.51-6.68-4.89-9.9-1.21-17.86-3.61-22.3-14.85-4-10.08-20.91-7.71-30.1,3.3-4.76,5.71-8.88,12.53-18,10.42-4.22-1-10.2-1.27-9.4-7.39.72-5.48,5.69-6.09,10.61-5.18a24.53,24.53,0,0,0,4.38,0c-3.09-14.65-.52-18.16,14.82-21.71,7.6-1.76,15.58-3.1,21.24-9.25,5-5.46,13.15-10.11,4.62-19.29-2.29-2.47.6-6.43,1-9.73.3-2.52-.72-4.73-3.09-5.35-3.07-.81-3.63,2.08-4.09,4.11-.9,4-1,8.22-2.19,12.11-1.34,4.34-.2,10.52-6.57,11.88a27,27,0,0,1-19.47-3.35c-3.6-2.08-1.51-5.1.57-6.26,11.28-6.23,16.69-17.93,25.33-26.6a15,15,0,0,1,15.31-4.23c3.2.84,5.64.79,8.37-.54a20,20,0,0,1,8.5,9.6c-3.85,1.75-11.06,2.3-8.87,7.67,2.47,6,8.68,3.7,13.35.5a4.31,4.31,0,0,0,.76-.83c20.47,26.91,31.92,56.85,31.65,91.08-.06,7.29,2.47,14.6,1.25,22.06-12.31,5.1-21.89,3.72-26.12-10.8-.27-.93-1.53-1.57-2.33-2.33-1.15-1.1-2.76-1.88-3.86-.76a4.94,4.94,0,0,0-.92,4,30.53,30.53,0,0,0,31.24,23.86C1789.73,288.82,1790,292.93,1787.91,296.74Z"/><path class="cls-6" d="M1500,119.64c3.78,6.5,9.29,8.88,16.88,8.59,12.2-.46,23.94,7.49,36.93,1.71,1.67-.74,12.25,2,13,8.94.62,6.11-5.19,8.28-10.29,10.16-16,5.88-18.77,14.44-9.6,29a4.08,4.08,0,0,0,.62.93c3.35,2.75-1.12,13,6.34,9.76,5.39-2.36,14.36-6,13-15.94a19.11,19.11,0,0,1,.54-7.79c.57-1.92,2.08-4.38,3.74-5,2.46-.86,3.77,1.8,4.67,3.83,2,4.53,4,8.57,10.2,8.39,3.35-.1,5.51,2.69,5.55,6,.06,4.88,2.32,8.43,5.36,11.93,2.08,2.39,2.61,5.6.58,8.31-2.26,3-5.16,1.54-8.14.73-4.65-1.26-11-9.71-13.6-1.23-1.9,6.3,7.64,4.07,12.17,5.39,3.72,1.08,6.66,3.1,4.75,7.1-1.6,3.35-3.15,7.79-9,6.15-13-3.66-21,.73-25.58,13.72-2.85,8-12.76,10.13-15.29,18.39-5.68-5.95-12.42-2.19-18.72-1.94-7.53.31-14.4,8.58-13,15.62,1.19,5.81,5,5.55,9.44,3.51,3-1.4,5.77-3.66,9.6-2.62,2.55,3.7-2.28,5.72-2.16,9,.41,11.16-5.87,8.79-12.26,5.81-1.32-.61-2.54-2.24-3.74-2.18-18.87,1-19.68-12.51-21.13-25.73a47,47,0,0,0-2.36-10.9c-1.09-3-2.73-7.3-6.94-5.5-4.61,2-2.13,4.93,0,8,3.2,4.75-1,6.37-4.71,8.32-4.53-11.38-5.31-23-4.84-34.9.75-19.19-1.73-37.93-9.15-55.84C1472.75,143.86,1484.82,130.29,1500,119.64Z"/><path class="cls-6" d="M1674.93,91.87c-6.21,6.59-8,14-7.47,23.32.94,17.76-12,26.73-25.73,33.77-7.79,4-13.41,8.25-15,17.63-1.35,7.65-5.85,6.17-9.86,1.14-5.36-6.74-6.68-14-3-21.95,7.5-16.13,7.18-30-9.91-40.45-4.14-2.52-6.12-8,1.25-9.6,9.17-2,14.26-8.84,20.15-14.9C1642.63,81.05,1659.4,83.66,1674.93,91.87Z"/><path class="cls-6" d="M1601.93,81.82c-4.11,9.61-15.72,12.64-19.32,23.74-1.73,5.37-13.35,3.7-17.38.73-7.39-5.43-16.7-4.43-23.62-9.72C1560.25,85.69,1579.93,79,1601.93,81.82Z"/><path class="cls-6" d="M1532.27,98.81c3.23,6,4.8,13.64,14.78,11.49,3.85-.83,4.93,2.61,3.86,6-2.06,6.5-6.84,9.31-13.49,9.34-11.43,0-20.6-4.59-27.84-13.3A96,96,0,0,1,1532.27,98.81Z"/><path class="cls-1" d="M1789.55,284.7a30.53,30.53,0,0,1-31.24-23.86,4.94,4.94,0,0,1,.92-4c1.1-1.12,2.71-.34,3.86.76.8.76,2.06,1.4,2.33,2.33,4.23,14.52,13.81,15.9,26.12,10.8C1791.77,275.52,1792.14,280.33,1789.55,284.7Z"/><path class="cls-1" d="M1758.64,157.59a4.31,4.31,0,0,1-.76.83c-4.67,3.2-10.88,5.54-13.35-.5-2.19-5.37,5-5.92,8.87-7.67A9.24,9.24,0,0,1,1758.64,157.59Z"/><path class="cls-6" d="M1559.53,364.6c2.08-11,.5-19.83-9-27.93-10.26-8.7-9.64-25.89-1.08-37.5,1.95-2.65,1.63-5.14,1.17-8.33-1.13-7.85,3.34-10.81,10.56-7,6,3.17,12.81,3.48,19.1,5.92,8.26,3.2,15.43,7.08,21.33,13.52,4.55,5,10.89,4.32,16.72,5.34,9,1.57,13.43,5.75,9.64,15.62-1.58,4.09-2,8.77-2.2,13.22-.34,6.85-3.3,11.46-10,13.25-3.45.93-6.62,2.48-8.23,5.45-7.35,13.53-19.76,23-28.17,35.66-2.42,3.63-5.13,6.82,0,10.33,4.29,2.94,2.1,6.67.91,10.1-1.33,3.86-3.56,7.46-1.81,11.85.87,2.19,3.21,5.19-.83,6.44-3.26,1-4.28-2.35-5.69-4.4C1559,407.37,1559.2,386,1559.53,364.6Z"/><path class="cls-6" d="M1590,151.87c-.76,3.35,5.49,6.8.8,10.58-1.89,1.53-5.31,1.42-5.9-.74-1.66-6-12.15-7.53-8.67-15.13,4.16-9.07,1.4-13.81-6.84-17.76-2.76-1.33-8.08-2.94-5.5-8a9.78,9.78,0,0,1,12.46-5c7.61,3.09,14.1,8.37,17.38,16.31,1,2.3.34,5.19,2.94,6.88,3.85,2.49,8.18,5.28,6,10.64C1599.79,156.49,1594.6,147.84,1590,151.87Z"/><path class="cls-6" d="M1534.79,282.87c-1.64,0-3.27-.54-3.71-2.67-.5-2.4,1.13-3.19,3.07-3.29s4.8-.77,4.66,2.53C1538.73,281.17,1537.09,282.5,1534.79,282.87Z"/><circle class="cls-2" cx="1615.21" cy="268.07" r="185.79"/><g class="cls-7"><path class="cls-8" d="M1420.33,296.92c37.18,26.71,78,51,124,57.87,22.63,3.39,46.09,2.54,68-4.37,19.58-6.18,37.32-17.13,52.77-30.52,34.4-29.79,56.45-70.2,79.43-108.76,5.5-9.21,10.71-19,17.85-27.12,6.78-7.65,16.14-13,26.61-10.26,10.3,2.74,18.19,11.49,23.89,20.05a129.15,129.15,0,0,1,14.56,29.67c15.53,45.1,7.09,94.07-10.83,137.12a304.36,304.36,0,0,1-69.69,102.58c-31,29.78-68.91,52.05-110.42,63.63-42.59,11.89-88.73,12.55-131-1-21-6.72-40.94-17-57.88-31.17a151.28,151.28,0,0,1-27.17-201.77c.45-.64-.6-1.24-1-.61-24.84,36-33.32,82.36-22.23,124.72a154.85,154.85,0,0,0,75.09,95.91c38.66,21.31,84.64,27.73,128.14,22.37a256.14,256.14,0,0,0,121-48.87c33.47-24.91,61-57.45,81.17-93.9,22-39.83,37.57-86.07,33.76-132.09-1.82-22-8.07-43.78-19.52-62.73-5.18-8.55-11.53-17-20.33-22.07-8-4.64-17.44-5.12-25.55-.39s-13.81,13.07-18.7,21c-6.33,10.21-12.38,20.58-18.5,30.92-12.34,20.87-24.89,41.75-40,60.8-13.24,16.73-28.51,32.11-46.27,44a136.49,136.49,0,0,1-63.39,22.92c-48.4,4.57-94.8-14.57-135-39.89-9.59-6.05-18.95-12.47-28.16-19.09-.63-.45-1.23.59-.6,1Z"/><g class="cls-5"><path class="cls-8" d="M1421.79,273.68c19.81,32.42,49.88,57.75,84.28,73.58a207.28,207.28,0,0,0,112.06,17.52c39.24-4.9,76.79-20.6,108.7-43.81a248.82,248.82,0,0,0,43.24-40.05c13.71-16.14,25.32-36.12,45.49-45,10-4.4,21.67-5.59,31.71-.64,8.63,4.25,15,12.12,18.82,20.83,9.11,21,3,45.83-3.07,66.79a264.55,264.55,0,0,1-168,177.19c-21.18,7.35-43.64,12.57-66.11,13.19a123.57,123.57,0,0,1-35.46-3.9,138.85,138.85,0,0,1-30.89-12.69c-18.52-10.19-35.35-23.56-50.61-38.12a303.12,303.12,0,0,1-39-45.51,306.73,306.73,0,0,1-48.17-109.39,291.19,291.19,0,0,1-4.9-29.18c-.09-.76-1.3-.77-1.21,0a306.3,306.3,0,0,0,115.67,204.87c17.22,13.29,36.27,24.84,57.34,30.77,23.08,6.51,47.38,5,70.62.24A265.86,265.86,0,0,0,1852,356.9c8.65-19.64,15.44-40.62,18.59-61.89,2.92-19.77.83-42.33-15.49-56a34.59,34.59,0,0,0-25.82-8c-9.89,1-19.23,5.49-27,11.58-8.8,6.91-15.8,15.76-22.64,24.53a309,309,0,0,1-20.38,24c-28.22,29.4-63.78,51.91-102.72,64.08-38.51,12-79.74,13.31-118.68,2.45-37.57-10.48-72.41-31.55-98-61.17a178.57,178.57,0,0,1-17.05-23.41c-.41-.66-1.45-.06-1,.61Z"/></g></g><path class="cls-2" d="M1793.33,304.16C1779.75,377,1722,431,1651.84,445c-71.25,14.21-145.89-17.35-186.15-78.91-39-59.69-38-140.91,2.57-199.23,7.42,17.9,9.91,36.64,9.15,55.83-.47,11.91.31,23.52,4.85,34.91,3.72-2,7.91-3.58,4.7-8.33-2.08-3.09-4.56-6,0-8,4.22-1.8,5.86,2.49,7,5.5a47.54,47.54,0,0,1,2.36,10.9c1.45,13.23,2.26,26.77,21.13,25.74,1.2-.07,2.42,1.56,3.74,2.18,6.39,3,12.66,5.34,12.26-5.81-.12-3.27,4.71-5.3,2.16-9-3.83-1-6.61,1.23-9.61,2.62-4.39,2.05-8.24,2.3-9.43-3.51-1.44-7,5.42-15.31,13-15.61,6.3-.26,13-4,18.72,1.94,2.52-8.27,12.44-10.39,15.28-18.4,4.62-13,12.54-17.38,25.59-13.72,5.83,1.64,7.39-2.8,9-6.15,1.9-4-1-6-4.75-7.1-4.53-1.32-14.07.91-12.17-5.39,2.55-8.47,9,0,13.59,1.23,3,.81,5.89,2.27,8.14-.73,2-2.7,1.51-5.92-.57-8.31-3-3.5-5.31-7-5.36-11.93,0-3.31-2.2-6.09-5.55-6-6.18.18-8.19-3.86-10.21-8.39-.9-2-2.21-4.69-4.66-3.83-1.67.59-3.17,3-3.75,5a18.9,18.9,0,0,0-.53,7.78c1.35,9.93-7.62,13.58-13,15.94-7.46,3.27-3-7-6.34-9.76a3.87,3.87,0,0,1-.62-.93c-9.17-14.58-6.38-23.15,9.6-29,5.1-1.87,10.91-4.05,10.29-10.15-.71-6.91-11.29-9.69-13-8.95-13,5.78-24.73-2.17-36.93-1.7-7.59.28-13.1-2.09-16.88-8.59l9.57-7.33c7.23,8.71,16.41,13.36,27.84,13.3,6.64,0,11.42-2.83,13.49-9.33,1.07-3.38,0-6.81-3.86-6-10,2.15-11.56-5.52-14.79-11.49,2.94-1.46,5.68-3.79,9.34-2.23,6.93,5.28,16.23,4.28,23.63,9.71,4,3,15.64,4.64,17.38-.73,3.6-11.1,15.21-14.13,19.32-23.74a63.27,63.27,0,0,1,23.39-1c-5.89,6.06-11,12.87-20.15,14.91-7.37,1.63-5.39,7.08-1.25,9.6,17.08,10.39,17.41,24.31,9.91,40.45-3.69,7.92-2.38,15.2,3,21.94,4,5,8.51,6.52,9.85-1.14,1.65-9.38,7.27-13.64,15.06-17.62,13.75-7,26.67-16,25.73-33.77-.5-9.31,1.26-16.73,7.47-23.33,27.66,10,51.9,25,70,48.78-2.72,1.33-5.16,1.38-8.36.54a15,15,0,0,0-15.32,4.23c-8.63,8.67-14.05,20.38-25.32,26.61-2.08,1.15-4.17,4.18-.57,6.25a27,27,0,0,0,19.47,3.35c6.37-1.36,5.23-7.53,6.57-11.87,1.2-3.9,1.28-8.12,2.19-12.12.46-2,1-4.92,4.09-4.11,2.36.63,3.39,2.83,3.09,5.36-.39,3.29-3.27,7.26-1,9.73,8.53,9.17.39,13.83-4.62,19.28-5.66,6.16-13.65,7.5-21.25,9.26-15.33,3.55-17.9,7-14.81,21.71a24.66,24.66,0,0,1-4.39,0c-4.91-.92-9.88-.3-10.6,5.18-.81,6.11,5.17,6.4,9.39,7.38,9.14,2.11,13.26-4.71,18-10.42,9.18-11,26.12-13.37,30.1-3.3,4.44,11.25,12.4,13.64,22.3,14.85,3.16.39,6.55,1.54,6.68,4.9.17,4.59-4.19,4.86-7.41,4.94-6.32.15-13.2-2-18.86-.12-10.65,3.48-18.19,1.18-24-7.88-1.5-2.33-2.92-3-5.44-1.85-16.1,7.58-33.8,12.72-36.93,34.94-1.37,9.75-3.32,17.39,5.37,25.22,7.34,6.62,14.67,5.89,22.8,4.84,15.68-2,27.17,9.69,22.53,25.09-5.07,16.81,2.57,30.08,9.11,43.69,3.89,8.1,15.21,6.68,19.2-1.76.76-1.61.89-3.21,2.55-4.61,13-11,16.91-25.54,14.74-41.91-.55-4.16-.31-7.75,3.31-9.87C1779.67,311.64,1785.29,305.73,1793.33,304.16ZM1565,372c-.34,21.42-.51,42.77,12.4,61.53,1.41,2,2.43,5.4,5.7,4.39,4-1.25,1.7-4.25.83-6.44-1.75-4.39.48-8,1.81-11.85,1.19-3.43,3.38-7.16-.91-10.1-5.12-3.51-2.41-6.69,0-10.33,8.41-12.65,20.82-22.13,28.17-35.66,1.61-3,4.78-4.52,8.22-5.45,6.65-1.79,9.61-6.39,10-13.25.23-4.45.63-9.12,2.21-13.22,3.79-9.87-.63-14-9.64-15.62-5.83-1-12.17-.37-16.72-5.34-5.9-6.44-13.07-10.32-21.34-13.52-6.29-2.43-13.05-2.75-19.09-5.92-7.22-3.79-11.7-.82-10.56,7,.46,3.19.78,5.67-1.17,8.32-8.56,11.62-9.18,28.81,1.08,37.5C1565.45,352.19,1567,361.07,1565,372Zm30.42-212.73c4.65-4,9.84,4.62,12.65-2.27,2.19-5.36-2.13-8.14-6-10.64-2.6-1.69-2-4.58-2.94-6.87-3.28-7.94-9.78-13.22-17.38-16.32a9.81,9.81,0,0,0-12.47,5c-2.58,5.09,2.74,6.7,5.51,8,8.24,3.95,11,8.69,6.84,17.77-3.48,7.6,7,9.15,8.66,15.12.6,2.16,4,2.27,5.9.75C1600.86,166.09,1594.61,162.65,1595.37,159.29Zm-55.16,131c2.3-.36,3.94-1.69,4-3.43.15-3.29-2.64-2.64-4.65-2.53s-3.57.89-3.07,3.3C1536.94,289.75,1538.57,290.32,1540.21,290.29Z"/><path class="cls-2" d="M1793.33,304.16c-8,1.57-13.66,7.48-20.38,11.4-3.62,2.12-3.86,5.71-3.31,9.87,2.17,16.37-1.74,30.86-14.74,41.91-1.66,1.4-1.79,3-2.55,4.61-4,8.44-15.31,9.86-19.2,1.76C1726.61,360.1,1719,346.83,1724,330c4.64-15.4-6.85-27.12-22.53-25.09-8.13,1.05-15.46,1.78-22.8-4.84-8.69-7.83-6.74-15.47-5.37-25.22,3.13-22.22,20.83-27.36,36.93-34.94,2.52-1.19,3.94-.48,5.44,1.85,5.82,9.06,13.36,11.36,24,7.88,5.66-1.84,12.54.27,18.86.12,3.22-.08,7.58-.35,7.41-4.94-.13-3.36-3.52-4.51-6.68-4.9-9.9-1.21-17.86-3.6-22.3-14.85-4-10.07-20.92-7.71-30.1,3.3-4.76,5.71-8.88,12.53-18,10.42-4.22-1-10.2-1.27-9.39-7.38.72-5.48,5.69-6.1,10.6-5.18a24.66,24.66,0,0,0,4.39,0c-3.09-14.66-.52-18.16,14.81-21.71,7.6-1.76,15.59-3.1,21.25-9.26,5-5.45,13.15-10.11,4.62-19.28-2.29-2.47.59-6.44,1-9.73.3-2.53-.73-4.73-3.09-5.36-3.08-.81-3.63,2.09-4.09,4.11-.91,4-1,8.22-2.19,12.12-1.34,4.34-.2,10.51-6.57,11.87a27,27,0,0,1-19.47-3.35c-3.6-2.07-1.51-5.1.57-6.25,11.27-6.23,16.69-17.94,25.32-26.61a15,15,0,0,1,15.32-4.23c3.2.84,5.64.79,8.36-.54a20.08,20.08,0,0,1,8.51,9.6c-3.85,1.75-11.06,2.3-8.87,7.67,2.46,6,8.67,3.71,13.35.51a5,5,0,0,0,.76-.83c20.46,26.91,31.92,56.84,31.65,91.07-.06,7.3,2.47,14.61,1.24,22.06-12.3,5.1-21.88,3.72-26.12-10.8-.27-.92-1.52-1.56-2.32-2.33-1.15-1.1-2.76-1.88-3.87-.76a5,5,0,0,0-.92,4A30.55,30.55,0,0,0,1795,292.13C1795.15,296.24,1795.37,300.36,1793.33,304.16Z"/><path class="cls-2" d="M1505.43,127.07c3.78,6.5,9.29,8.87,16.88,8.59,12.2-.47,23.94,7.48,36.93,1.7,1.67-.74,12.25,2,13,8.95.62,6.1-5.19,8.28-10.29,10.15-16,5.88-18.77,14.45-9.6,29a3.87,3.87,0,0,0,.62.93c3.35,2.76-1.12,13,6.34,9.76,5.39-2.36,14.36-6,13-15.94a18.9,18.9,0,0,1,.53-7.78c.58-1.92,2.08-4.38,3.75-5,2.45-.86,3.76,1.8,4.66,3.83,2,4.53,4,8.57,10.21,8.39,3.35-.09,5.51,2.69,5.55,6,0,4.89,2.31,8.43,5.36,11.93,2.08,2.39,2.61,5.61.57,8.31-2.25,3-5.15,1.54-8.14.73-4.64-1.26-11-9.7-13.59-1.23-1.9,6.3,7.64,4.07,12.17,5.39,3.72,1.08,6.65,3.1,4.75,7.1-1.6,3.35-3.16,7.79-9,6.15-13-3.66-21,.73-25.59,13.72-2.84,8-12.76,10.13-15.28,18.4-5.68-5.95-12.42-2.2-18.72-1.94-7.54.3-14.4,8.57-13,15.61,1.19,5.81,5,5.56,9.43,3.51,3-1.39,5.78-3.66,9.61-2.62,2.55,3.7-2.28,5.73-2.16,9,.4,11.15-5.87,8.78-12.26,5.81-1.32-.62-2.54-2.25-3.74-2.18-18.87,1-19.68-12.51-21.13-25.74a47.54,47.54,0,0,0-2.36-10.9c-1.09-3-2.73-7.3-7-5.5-4.6,2-2.12,4.94,0,8,3.21,4.75-1,6.37-4.7,8.33-4.54-11.39-5.32-23-4.85-34.91.76-19.19-1.73-37.93-9.15-55.83C1478.17,151.28,1490.23,137.71,1505.43,127.07Z"/><path class="cls-2" d="M1680.35,99.29c-6.21,6.6-8,14-7.47,23.33.94,17.75-12,26.73-25.73,33.77-7.79,4-13.41,8.24-15.06,17.62-1.34,7.66-5.85,6.18-9.85,1.14-5.37-6.74-6.68-14-3-21.94,7.5-16.14,7.17-30.06-9.91-40.45-4.14-2.52-6.12-8,1.25-9.6,9.17-2,14.26-8.85,20.15-14.91C1648.05,88.47,1664.82,91.08,1680.35,99.29Z"/><path class="cls-2" d="M1607.35,89.24c-4.11,9.61-15.72,12.64-19.32,23.74-1.74,5.37-13.35,3.7-17.38.73-7.4-5.43-16.7-4.43-23.63-9.71C1565.67,93.12,1585.34,86.41,1607.35,89.24Z"/><path class="cls-2" d="M1537.68,106.23c3.23,6,4.8,13.64,14.79,11.49,3.85-.82,4.93,2.61,3.86,6-2.07,6.5-6.85,9.3-13.49,9.33-11.43.06-20.61-4.59-27.84-13.3A96.25,96.25,0,0,1,1537.68,106.23Z"/><path class="cls-2" d="M1795,292.13a30.55,30.55,0,0,1-31.24-23.87,5,5,0,0,1,.92-4c1.11-1.12,2.72-.34,3.87.76.8.77,2,1.41,2.32,2.33,4.24,14.52,13.82,15.9,26.12,10.8C1797.19,283,1797.56,287.75,1795,292.13Z"/><path class="cls-2" d="M1764.06,165a5,5,0,0,1-.76.83c-4.68,3.2-10.89,5.54-13.35-.51-2.19-5.37,5-5.92,8.87-7.67A9.24,9.24,0,0,1,1764.06,165Z"/><path class="cls-2" d="M1565,372c2.08-10.95.5-19.83-9-27.93-10.26-8.69-9.64-25.88-1.08-37.5,2-2.65,1.63-5.13,1.17-8.32-1.14-7.85,3.34-10.82,10.56-7,6,3.17,12.8,3.49,19.09,5.92,8.27,3.2,15.44,7.08,21.34,13.52,4.55,5,10.89,4.32,16.72,5.34,9,1.58,13.43,5.75,9.64,15.62-1.58,4.1-2,8.77-2.21,13.22-.34,6.86-3.3,11.46-10,13.25-3.44.93-6.61,2.49-8.22,5.45-7.35,13.53-19.76,23-28.17,35.66-2.42,3.64-5.13,6.82,0,10.33,4.29,2.94,2.1,6.67.91,10.1-1.33,3.87-3.56,7.46-1.81,11.85.87,2.19,3.2,5.19-.83,6.44-3.27,1-4.29-2.35-5.7-4.39C1564.44,414.79,1564.61,393.44,1565,372Z"/><path class="cls-2" d="M1595.37,159.29c-.76,3.36,5.49,6.8.79,10.59-1.88,1.52-5.3,1.41-5.9-.75-1.65-6-12.14-7.52-8.66-15.12,4.16-9.08,1.4-13.82-6.84-17.77-2.77-1.33-8.09-2.94-5.51-8a9.81,9.81,0,0,1,12.47-5c7.6,3.1,14.1,8.38,17.38,16.32,1,2.29.34,5.18,2.94,6.87,3.85,2.5,8.17,5.28,6,10.64C1605.21,163.91,1600,155.26,1595.37,159.29Z"/><path class="cls-2" d="M1540.21,290.29c-1.64,0-3.27-.54-3.71-2.66-.5-2.41,1.13-3.2,3.07-3.3s4.8-.76,4.65,2.53C1544.15,288.6,1542.51,289.93,1540.21,290.29Z"/></g></g></svg>