<svg id="Calque_1" data-name="Calque 1" xmlns="http://www.w3.org/2000/svg" viewBox="0 0 1920 1080"><defs><style>.cls-1{fill:#2c6b5a;}.cls-2{fill:#3a8e78;}.cls-3{fill:#89bbae;}.cls-4{fill:#006837;}</style></defs><path class="cls-1" d="M-8.89,646.79a91.65,91.65,0,0,1,4.36-83.13C5.28,547,22,533.12,41.27,532.17s39.42,14.94,38.29,34.21a208,208,0,0,1,24.38-54.84c5.65-8.94,12.14-17.6,20.76-23.74s19.69-9.48,30-6.94c19.68,4.86,28.71,29.59,23.75,49.25s-19.67,35.13-33.82,49.65a337.23,337.23,0,0,1,63.18-23.07c9.23-2.35,21.21-3.26,26.09,4.91,4.41,7.38-.47,16.77-6,23.37a115,115,0,0,1-62.25,38.21c8.9-.62,18-1.22,26.58,1.36s16.5,9,18.21,17.8c1.54,7.95-2.39,16.2-8.24,21.8s-13.42,9-20.89,12.17A487.14,487.14,0,0,1,10.8,713.81c-13.47.49-29.31-.79-36.62-12.12-4.24-6.57-4.35-14.88-4.33-22.7l.19-70.3"/><path class="cls-1" d="M-22.72,941.93c-7.79-3.11-5.53-16.27,2.16-19.62s16.63.21,23.61,4.86,13.5,10.56,21.66,12.5C35.77,942.3,48.27,936,52.79,925.6c3.5-8.11,2.38-17.41.7-26.08s-3.87-17.54-2.3-26.23,8.19-17.24,17-17.69c13.59-.7,20.59,15.89,31.86,23.52a26.89,26.89,0,0,0,42-22.23c0-9.19-4.66-17.87-4.9-27.06-.29-11.2,6.51-22.08,16.34-27.46s22.19-5.4,32.42-.83c7.64,3.42,14.06,9.14,21.64,12.7s17.49,4.45,23.6-1.28c10-9.36,3.28-29.18,14.27-37.31,4.63-3.42,10.84-3.38,16.58-3.73a95.72,95.72,0,0,0,60.22-26.56l-10.45,80.91c-1,7.61-2.25,15.82-7.69,21.24-7.34,7.32-19.1,6.7-29.47,6.91s-22.82,3.45-25.68,13.41c-4.89,17,23.61,30.93,17.8,47.68-2.7,7.77-11.83,11.28-20,11.81s-16.65-.88-24.55,1.38a27.2,27.2,0,0,0-3.24,51.14c5.36,2.3,12.08,3.38,14.78,8.56,3,5.74-1.53,13.05-7.49,15.56s-12.73,1.69-19.18,1.15c-9.11-.76-18.69-.78-26.89,3.24s-14.55,13.19-12.58,22.12c3.34,15.16,26.54,20.16,28.1,35.6.85,8.45-5.94,16.17-13.85,19.26s-16.71,2.62-25.19,2.11l-164.46-10c-5.23-.32-10.58-.66-15.38-2.75-12.36-5.37-17.27-20.19-19.2-33.52A170.93,170.93,0,0,1-21.84,932.83"/><path class="cls-2" d="M325.25,1071.42c19.31-22.67,38.8-45.52,62.37-63.72s51.83-31.64,81.59-32.66c20.29-.69,40.29,4.35,60,9.18s39.85,9.54,60.11,8.16,41-9.78,52.63-26.42c-8.79,40.67-38.09,74.75-73.23,97s-75.85,34.06-116.51,42.93c-22.5,4.91-46.09,9-68.36,3.1-22.89-6-41.72-21.88-59.72-37.27"/><path class="cls-3" d="M246.05,1044.92C223.18,1012,220.83,966.08,240.21,931c5.65-10.22,12.93-19.47,18.4-29.79s9.08-22.25,6.58-33.65c10.67,32.79,21.48,66.72,18.21,101a127.51,127.51,0,0,1-37.22,78.11"/><path class="cls-3" d="M317,978.51a147.94,147.94,0,0,1-6.79-119.3c4.2-11,9.73-21.46,13.16-32.7s4.62-23.71.1-34.56c23.35,59.68,19.87,129.29-9.33,186.35"/><path class="cls-3" d="M382.58,896.93a100.32,100.32,0,0,1,74.5-108.66c-12.7,10.23-16.92,27.49-19.71,43.54S432,865.05,421.13,877.2c-10,11.18-25.12,16-39.48,20.27"/><path class="cls-3" d="M337.34,958.32A143.26,143.26,0,0,1,448,919.24c12.07,1.07,24,3.7,36.13,3.82s24.88-2.63,33.81-10.82c-16.42,18.91-33,38-53.08,53S420.72,991,395.68,991s-50.85-12.27-62.87-34.24"/><path class="cls-3" d="M269.75,1025.92c11.61-21.23,39.78-31.66,62.41-23.1,9,3.39,16.78,9.24,25.28,13.68,25.22,13.16,55,13.33,83.4,13.2a279.25,279.25,0,0,1-93.95,26.74c-13.55,1.38-27.92,1.61-40-4.7-14.79-7.71-25.63-24.8-42.3-25.08"/><path class="cls-4" d="M380.34,892.94l-34.76,43.57-34.76,43.58c-10.88,13.65-21.79,27.29-34.54,39.27a297.26,297.26,0,0,1-38.2,29.89c-13.61,9.13-27.71,17.49-41.85,25.74l-5.32,3.11c-3.33,1.94-.32,7.13,3,5.18,14.21-8.28,28.43-16.58,42.21-25.57A332,332,0,0,0,275.67,1028c12.94-11.49,24.1-24.58,34.89-38.06q17.4-21.75,34.74-43.55l34.92-43.77,4.36-5.47a3.09,3.09,0,0,0,0-4.24c-1-1.05-3.22-1.28-4.24,0Z"/><path class="cls-3" d="M-30.5,680.13c12-15,24.16-30.08,38.67-42.71s31.68-22.79,50.59-26.26,39.69.39,54.29,12.92,21.56,34.27,14.32,52.08c-6,14.71-20.12,24.67-35,30.29S61.66,714.12,46.27,718C-3.43,730.37-49,763.88-69.31,810.9"/><path class="cls-3" d="M-22.51,868.31a234.49,234.49,0,0,1,62.23-84.16C52,773.61,66.57,764,82.79,763.82c21.33-.2,40.46,17.77,44.44,38.73s-5.7,43.15-21.88,57.05C90,872.77,70.12,878.94,51.54,886.89a277.43,277.43,0,0,0-96.39,68.88,120.3,120.3,0,0,1,19.67-81.45"/><path class="cls-2" d="M91,395.86,57.48,334.4c-3.93-7.22-7.95-15.76-4.67-23.29,3.54-8.12,14.61-10.76,22.8-7.4s13.78,11.08,17.65,19a84.92,84.92,0,0,1-.3,73.68"/><path class="cls-2" d="M87.65,428.18a277.49,277.49,0,0,1,44.46-63c4.61-4.91,10.86-10.06,17.31-8.13,4.93,1.48,7.8,6.67,9,11.69,3.77,16.23-5.39,33.32-18.6,43.48s-29.79,14.69-46,18.38"/><path class="cls-2" d="M77.52,494.52l41.46-55c3.89-5.16,9.33-10.92,15.61-9.45,3.35.78,5.9,3.53,7.65,6.49,5.92,10,4.54,23.32-1.72,33.13s-16.75,16.36-27.85,19.87S89.8,493.83,78.17,494"/><path class="cls-2" d="M76.52,492.29l-24.26-48.4c-2.42-4.84-5-9.84-9.29-13.11-8.86-6.72-23-3-29,6.33s-4.61,22.26,1.68,31.43S32.25,483.47,43,486.38s22,3.25,33.09,3.57"/><path class="cls-2" d="M88.78,429.83A150.65,150.65,0,0,0,59.58,373c-7-8.51-17.15-16.92-27.85-14.27-10.08,2.5-15.54,15.09-12.08,24.87C21.94,390,27.07,395,32,399.73l17.78,16.9c5.57,5.29,11.24,10.66,18.12,14.08s15.26,4.65,22.22,1.42"/><path class="cls-2" d="M89.11,396a397.22,397.22,0,0,1-6.47,63.15,416,416,0,0,1-16.35,61.7,416.89,416.89,0,0,1-25.43,58.23A418.13,418.13,0,0,1,6.72,633.06,398.83,398.83,0,0,1-35,680.61q-2.88,2.79-5.81,5.53c-2.83,2.64,1.42,6.88,4.24,4.24A404,404,0,0,0,6.87,642.7a421.32,421.32,0,0,0,35.57-53.92A428.68,428.68,0,0,0,69.37,530,417.33,417.33,0,0,0,87,468.18,408.1,408.1,0,0,0,94.85,404q.16-4,.26-8c.08-3.87-5.92-3.87-6,0Z"/><path class="cls-2" d="M-30.75,806.47c50.86,14.42,107.3.47,150.32-30.27s73.47-76.74,92.5-126.07c-4.7,22-24,38.55-45.27,45.92s-44.27,7.09-66.72,6.07-45.24-2.63-67.17,2.3-43.35,17.62-52.86,38c-3.16,6.78-4.9,14.13-6.61,21.41L-37.27,809.3"/><path d="M-10.19,663.68A90.18,90.18,0,0,1-6.9,583.93C-.66,572.7,8.43,562.7,19.88,556.66c10.78-5.7,23.43-7.28,34.79-2.33,11.74,5.11,21.48,16.34,20.8,29.7-.09,1.71,2.49,2,2.94.4a207.26,207.26,0,0,1,21-49.19C107.8,521,118.35,505.78,135,500.7c7.23-2.21,15.22-2.21,22.08,1.2a31,31,0,0,1,12.8,12.41c6.69,11.51,7.35,25.58,3,38-5.35,15.46-16.56,28-27.7,39.63q-2.12,2.2-4.25,4.39a1.51,1.51,0,0,0,1.82,2.36,335,335,0,0,1,40-16.23q10.11-3.35,20.42-6.07c5.16-1.35,10.42-2.52,15.8-2.13,4.75.34,9.48,2.26,11.56,6.82,2.54,5.55-.41,12-3.49,16.66a79.94,79.94,0,0,1-12.45,14,113.87,113.87,0,0,1-52,27.64c-1.62.37-1.3,3.06.4,2.94,12.63-.87,27.19-1.77,37.19,7.5a18.86,18.86,0,0,1,6.43,14.29c-.18,6-3.35,11.79-7.53,16-4.5,4.55-10.23,7.65-16,10.27-6.22,2.83-12.6,5.33-19,7.77q-19.52,7.47-39.63,13.24A485.48,485.48,0,0,1,42,727.55Q31.52,728.68,21,729.33c-6.21.39-12.47.79-18.7.7-9.9-.14-21.61-1.62-28.25-9.86-3.84-4.77-4.89-11-5.16-17-.33-7.07-.08-14.19-.06-21.27l.12-44.59,0-11a1.5,1.5,0,0,0-3,0L-34.19,673l-.06,23.61c0,6.31,0,12.91,2.28,18.89A23.94,23.94,0,0,0-21.6,727.78,40.33,40.33,0,0,0-6,732.5a104.84,104.84,0,0,0,17.18.34q10.92-.45,21.83-1.41a490.68,490.68,0,0,0,85.71-15.27q21.12-5.73,41.65-13.35,10.07-3.73,19.94-7.91c6.2-2.62,12.34-5.49,17.65-9.7,9.4-7.45,15.49-20.66,8.92-31.93-6.69-11.45-20.58-14.59-32.88-14.48-3.65,0-7.3.28-10.94.53l.4,2.95a116.1,116.1,0,0,0,35.86-15c10.75-6.79,20.89-15.41,28.61-25.58,3.73-4.91,7.17-11.22,6.49-17.61a14,14,0,0,0-9.71-11.77c-5-1.72-10.63-1.28-15.76-.36a177.09,177.09,0,0,0-20.35,5.48,340.68,340.68,0,0,0-47.34,18.65l1.82,2.35c11.83-12.13,24.08-24.8,30.86-40.59a53.56,53.56,0,0,0,4.74-21.46,49.18,49.18,0,0,0-4.25-19.74,36.79,36.79,0,0,0-11.85-14.94,30.56,30.56,0,0,0-20.9-5.42c-18.13,1.8-31,15.81-40.39,30.23A207.84,207.84,0,0,0,77.5,577q-1.05,3.3-2,6.64l3,.4c.64-12.49-7.19-23.56-17.56-29.84a40.8,40.8,0,0,0-17.5-5.78,43.21,43.21,0,0,0-19.14,3C11.58,556.27,1.14,565.91-6.3,577.14a90.31,90.31,0,0,0-14.1,40.27,92.24,92.24,0,0,0,5.55,42.87c.64,1.66,1.33,3.29,2.07,4.91s3.38.24,2.59-1.51Z"/><path d="M-24.56,958.28c-6.59-2.82-4.4-12.58.43-16.06,3.92-2.82,9.43-2.39,13.81-1.06,5,1.51,9.29,4.37,13.48,7.36,7.48,5.34,15.31,11.23,25,10.88A27.36,27.36,0,0,0,49.25,948c6-8.52,5.19-19.57,3.45-29.29-1.89-10.47-5.56-22.19-1.12-32.51,3.37-7.84,11.33-13.77,20-10.49,7,2.67,11.83,9.59,16.76,14.89a47.6,47.6,0,0,0,8.85,7.8,28.53,28.53,0,0,0,13.06,4.33,28,28,0,0,0,24.16-10.22c5.87-7.29,7.52-16.24,5.72-25.32-1-5.25-2.88-10.33-3.71-15.63a28.2,28.2,0,0,1,1.36-14.22,30.67,30.67,0,0,1,19.54-18.41c10-3.11,20.68-1.29,29.68,3.87,8.5,4.88,16.18,11.72,26.2,13.16,8,1.15,16.08-1.48,19.9-9,3.43-6.72,3.15-14.53,4.73-21.75.74-3.43,1.92-6.9,4.44-9.44,3.28-3.32,8-4.09,12.47-4.42,4.86-.35,9.68-.59,14.5-1.39a95.49,95.49,0,0,0,14.42-3.56,97,97,0,0,0,37-22.31L318.1,763l-7,53.82-3.45,26.72c-.89,6.85-1.85,14.62-6.72,19.94-9.41,10.28-25.91,5.6-38.09,8-5.48,1.1-11.26,3.34-14.92,7.74a16.27,16.27,0,0,0-3.32,13.88c2,9.79,10.44,17,15.39,25.3,2.28,3.84,4.1,8.31,3,12.84-1.44,6.18-7.18,9.65-12.95,11.18-7.58,2-15.51.65-23.24,1.16-7,.47-13.49,2.71-18.78,7.44a28.55,28.55,0,0,0-6.35,34.71,28.9,28.9,0,0,0,13.94,13.06c5,2.17,13.83,3.45,14.74,10.13.43,3.14-1.21,6.26-3.37,8.44-2.67,2.7-6.3,3.88-10,4.25-7.93.8-15.93-1.09-23.9-.75-7.36.31-14.95,2-20.86,6.6-5.05,4-8.86,9.87-9.22,16.39-.6,11.26,9.6,18.17,17.33,24.42,3.79,3.06,7.76,6.42,9.86,10.93,2.68,5.77.89,12.14-3.33,16.66-5.3,5.7-12.93,7.65-20.48,8-8.5.36-17.1-.6-25.58-1.11l-108.06-6.56L5.91,1094.6l-13.47-.82a87.43,87.43,0,0,1-12.61-1.24c-14-2.92-20-16.31-22.56-29-3-14.92-3.18-30.68-1.65-45.79A171,171,0,0,1-33.17,972a166.11,166.11,0,0,1,10-20.77,1.5,1.5,0,0,0-2.59-1.52,172.91,172.91,0,0,0-22.41,91.43c.5,13.62,1.77,28.87,8.93,40.84a28.26,28.26,0,0,0,13.26,11.94c7.7,3.16,16.77,2.75,24.94,3.25l109.89,6.67,27.65,1.67c8.86.54,17.78,1.41,26.66,1.44,7.48,0,15.42-1,21.71-5.34,5.23-3.63,9.39-9.28,9.69-15.81.5-11.2-10.12-17.89-17.71-24.13-3.86-3.16-7.87-6.74-9.75-11.49-2.52-6.37-.09-13.21,4.46-18,5.52-5.8,13.48-7.9,21.26-8.27,8.18-.39,16.4,1.59,24.54.71,6.65-.71,12.88-4,15.34-10.55,2.32-6.14-1-11.68-6.61-14.38-2.89-1.41-6-2.23-9-3.48a25.39,25.39,0,0,1-8.4-5.83,26.47,26.47,0,0,1-7.42-18.57,26,26,0,0,1,8-17.73c5.58-5.48,12.68-7.4,20.34-7.57s15.38.77,22.77-1.59c5.74-1.83,11.1-5.49,13.16-11.39,3.39-9.75-4.15-18.79-9.6-26.06-5.62-7.5-13.41-18.51-5-27.07,4.21-4.27,10.65-5.94,16.44-6.56,6.66-.72,13.38-.1,20-1s13-3.46,17.13-9,5.19-13.06,6.08-19.89q3.53-27.09,7-54.18L321.1,763c.17-1.37-1.72-1.88-2.56-1.06A94.47,94.47,0,0,1,265,787.54c-8.61,1.07-19.51-.44-25.71,7-4.8,5.77-5,13.79-6.06,20.87-1.18,7.77-3.83,15.67-12.51,17.46-10,2.06-19-4.22-26.89-9.38a60.21,60.21,0,0,0-13.51-7.07,39.73,39.73,0,0,0-14.6-2,34.67,34.67,0,0,0-24.89,11.91,32,32,0,0,0-7.42,25.37c1.48,10.22,6.64,20,3.3,30.38a25.44,25.44,0,0,1-20.42,17.48,26.21,26.21,0,0,1-14.36-2,34.12,34.12,0,0,1-10.16-7.7C86.5,884.39,81.84,877.68,75,874a17.45,17.45,0,0,0-21.35,3.56c-16.37,17.31,1.29,41.15-3.52,61A23.58,23.58,0,0,1,31.5,956c-10,1.94-18.36-4-26.09-9.56s-17.43-11.57-27.3-8.57a14.26,14.26,0,0,0-9.52,16.18,9.21,9.21,0,0,0,5.34,6.8c1.75.76,3.28-1.83,1.51-2.59Z"/><path d="M323.72,1090.12c15.68-18.42,31.44-36.91,49.54-53,17.3-15.42,36.95-28.61,59-36.25a117.42,117.42,0,0,1,33.31-6.6c12.94-.58,25.82,1.25,38.46,3.89,25.06,5.22,49.81,13.71,75.68,13.65,20.43,0,42.16-6.26,56.38-21.68a56.16,56.16,0,0,0,4.6-5.72l-2.74-1.16c-4.87,22.3-16,42.77-30.71,60.08-15.4,18.08-34.44,32.63-55.26,43.93-23.18,12.58-48.26,21.22-73.69,28-12.91,3.42-26,6.47-39.08,9-13.81,2.71-27.94,4.63-42,3.57a89,89,0,0,1-36.78-11.34c-11.07-6.16-21.07-14-30.75-22.16q-3.53-3-7-6c-1.46-1.24-3.6.87-2.13,2.13,19.27,16.47,39.78,33.72,65.34,38.8,13.84,2.75,28.05,2,41.93,0s27.53-5.24,41.11-8.57c26-6.38,51.74-14.46,75.82-26.31,21.92-10.79,42.29-24.85,59.06-42.7,15.85-16.87,28.48-37,35-59.34.8-2.75,1.49-5.52,2.1-8.31a1.51,1.51,0,0,0-2.74-1.16c-12,17-33.32,24.84-53.49,25.8-26,1.23-51.07-7.12-76.16-12.65-12.51-2.76-25.27-4.89-38.11-4.88a117.32,117.32,0,0,0-33.49,5.07c-21.85,6.55-41.67,18.62-59.14,33.14-18.56,15.43-34.62,33.57-50.27,51.87q-2.91,3.39-5.81,6.8c-1.24,1.46.87,3.59,2.13,2.12Z"/><path d="M244.74,1061.8c-13.38-19.32-19.67-43-18.58-66.43a107.73,107.73,0,0,1,7.15-34c4.76-12.23,12.46-22.7,19.36-33.75C260.59,915,267.28,900.1,264,884.85l-2.9.8c8.29,25.46,16.72,51.39,18.44,78.29a131.76,131.76,0,0,1-2.57,36.8,126.08,126.08,0,0,1-34.49,62.59c-1.38,1.36.74,3.48,2.12,2.12a129.36,129.36,0,0,0,34.23-59.56c6.52-25.31,4.2-51.53-1.77-76.72-3.56-15-8.3-29.67-13.06-44.32a1.51,1.51,0,0,0-2.9.8c2.89,13.59-2.94,27.08-9.85,38.49-3.58,5.91-7.56,11.58-11.22,17.44a114.62,114.62,0,0,0-8.79,16.84,112.74,112.74,0,0,0-5.08,68.95,107.06,107.06,0,0,0,16,36c1.1,1.58,3.7.08,2.59-1.52Z"/><path d="M315.67,995.4a146.71,146.71,0,0,1-10.28-107.33c3.68-12.62,9.74-24.25,14.38-36.51,5.06-13.35,8.12-28.67,2.51-42.37-.71-1.75-3.6-1-2.89.8a225.17,225.17,0,0,1,15.1,72.77,231.33,231.33,0,0,1-8.86,73.4,220.21,220.21,0,0,1-15.41,39c-.88,1.72,1.71,3.24,2.59,1.52a227.72,227.72,0,0,0,22.53-71.65,234.93,234.93,0,0,0-1.5-75.12,222.43,222.43,0,0,0-11.56-40.74l-2.89.8c5.05,12.33,2.77,26-1.55,38.16-4.41,12.43-10.68,24.09-14.61,36.7A150.06,150.06,0,0,0,299.51,958a146.28,146.28,0,0,0,13.57,38.95c.89,1.72,3.48.2,2.59-1.51Z"/><path d="M311,995.74a1.5,1.5,0,0,0,0-3,1.5,1.5,0,0,0,0,3Z"/><path d="M381.49,914.58a100.23,100.23,0,0,1,9.85-55.87,99.42,99.42,0,0,1,63.54-51.34l-1.46-2.51c-14.31,11.65-17.8,31-20.78,48.17-1.63,9.37-3.34,18.9-7.09,27.7a46,46,0,0,1-17.53,21c-9,5.75-19.26,8.89-29.37,11.92-1.84.55-1,3.45.8,2.89,9.12-2.73,18.33-5.57,26.7-10.2a49.12,49.12,0,0,0,19.76-19.5c9.09-16.79,8.85-36.49,14.22-54.45,2.88-9.66,7.46-19,15.41-25.43,1.22-1-.11-2.86-1.46-2.51a103.12,103.12,0,0,0-47,27.18,102.25,102.25,0,0,0-28.59,82.93c.21,1.89,3.21,1.92,3,0Z"/><path d="M335.8,977a141.51,141.51,0,0,1,63.56-34.95,139.87,139.87,0,0,1,36.21-4.21c14.07.22,27.82,3.46,41.85,4.2,13.71.72,28.47-1.6,39-11.12l-2.12-2.12c-10.38,11.95-20.79,23.91-32.16,34.94-11.13,10.8-23.21,20.68-36.74,28.34-13,7.34-27.26,12.73-42.12,14.42a80.33,80.33,0,0,1-39.58-5.22c-11.84-4.83-22.61-12.89-29.71-23.61q-1.32-2-2.46-4.08c-.94-1.69-3.53-.18-2.59,1.51,6.39,11.59,16.61,20.68,28.4,26.57a80.94,80.94,0,0,0,39.17,8.35c15.41-.6,30.42-5.15,44.16-12,14.09-7,26.78-16.58,38.37-27.2,12-11,22.75-23.09,33.39-35.3l4-4.58a1.5,1.5,0,0,0-2.12-2.12c-9.2,8.33-22.16,10.65-34.2,10.34-14.26-.36-28.24-3.82-42.5-4.26a145.44,145.44,0,0,0-70.52,16.16,141.94,141.94,0,0,0-33.38,23.83c-1.39,1.35.73,3.47,2.12,2.13Z"/><path d="M265.06,1044a1.5,1.5,0,0,0,0-3,1.5,1.5,0,0,0,0,3Z"/><path d="M268.45,1044.32c10-18.2,32.48-28.36,52.85-24.6,12.81,2.37,22.93,10.83,34.34,16.51,11.76,5.84,24.56,9,37.53,10.73,14.94,2,30,2,45.07,1.89l-.75-2.8a278.94,278.94,0,0,1-76.77,24.36c-6.59,1.08-13.22,1.94-19.87,2.5a98.48,98.48,0,0,1-19,0,47.25,47.25,0,0,1-17.67-5.33,82,82,0,0,1-12.61-9.14c-8.6-7.18-17.69-15.37-29.53-15.65-1.93,0-1.93,3,0,3,10.44.25,18.71,7.49,26.3,13.85a107.28,107.28,0,0,0,12.51,9.47,47.78,47.78,0,0,0,17.21,6.28c12.79,2.12,26,.49,38.73-1.37a280.41,280.41,0,0,0,82.25-25.4c1.37-.66.66-2.8-.76-2.79-26.68.12-54.89.23-79.53-11.46-11.74-5.56-22-14.34-34.95-17.22a53.5,53.5,0,0,0-31.21,2.72c-11.14,4.43-20.87,12.36-26.69,22.92-.94,1.69,1.65,3.2,2.59,1.51Z"/><path d="M378.8,911.64,344,955.22,309.28,998.8c-10.88,13.64-21.79,27.28-34.54,39.26a298.13,298.13,0,0,1-38.5,30.13c-13.61,9.13-27.71,17.49-41.85,25.74l-5.32,3.11a1.5,1.5,0,0,0,1.51,2.59c14.22-8.28,28.43-16.58,42.22-25.57A330.51,330.51,0,0,0,272,1044.62c12.94-11.5,24.1-24.58,34.89-38.06q17.42-21.75,34.74-43.55l34.92-43.78,4.36-5.47c1.2-1.49-.91-3.63-2.12-2.12Z"/><path d="M-32,698.84c11.16-13.91,22.39-27.9,35.59-40,12.13-11.09,26.12-20.58,41.83-25.76,14.85-4.89,31.06-5.58,46-.48,14,4.8,25.84,15,31.39,28.88A45.72,45.72,0,0,1,126,682.25,39.36,39.36,0,0,1,118.48,702c-9.09,12.52-23.86,19.54-38.35,23.7-16.39,4.71-33.39,6.81-49.63,12.13A187.29,187.29,0,0,0-9.14,756.15a174.14,174.14,0,0,0-34.09,27.21A152.59,152.59,0,0,0-68.62,818.2q-2.47,4.71-4.58,9.58c-.76,1.76,1.82,3.29,2.59,1.52a145.5,145.5,0,0,1,23.49-37.24,166.52,166.52,0,0,1,33-29.16,183.14,183.14,0,0,1,39.71-20.21,192.67,192.67,0,0,1,22.08-6.51c8.95-2.08,18-3.7,26.92-5.9,15.5-3.82,31.12-9.86,42.29-21.72a44.64,44.64,0,0,0,10.86-19,45.24,45.24,0,0,0,.2-21.36,52.36,52.36,0,0,0-26-34.13c-13.79-7.59-30.27-9.52-45.66-6.82-16.4,2.88-31.57,10.83-44.68,20.9-14.22,10.93-26.16,24.41-37.47,38.23-2.81,3.43-5.58,6.88-8.36,10.34-1.19,1.49.92,3.63,2.13,2.12Z"/><path d="M-23.81,886.71a233.26,233.26,0,0,1,52.37-75.14c10.93-10.48,23.16-21.22,37.75-26.14a41.5,41.5,0,0,1,21-1.84,43,43,0,0,1,17.41,7.8,47.85,47.85,0,0,1,19,33.2c1.42,14.21-3.22,28.46-11.44,40-8.88,12.45-21.93,20.54-35.63,26.8-14.1,6.44-28.77,11.5-42.67,18.41A279.67,279.67,0,0,0-40.7,964.06q-4,4.07-7.81,8.3l2.56,1.06a119.29,119.29,0,0,1,10.28-64.5,118,118,0,0,1,9.19-16.2c1.09-1.61-1.51-3.11-2.59-1.52a122.27,122.27,0,0,0-20.65,63.19,118.64,118.64,0,0,0,.77,19c.15,1.17,1.6,2.12,2.56,1.06a275.34,275.34,0,0,1,74.61-58.33q10.43-5.56,21.29-10.23c7.32-3.14,14.78-6,22.12-9.07,14.19-6,28.33-13.24,38.68-25C119.91,861,126.23,847,127,832.46A51,51,0,0,0,113,794.8C103.8,785,90.66,779,77.09,780.11c-15.74,1.31-29.37,10.64-41,20.62A232.92,232.92,0,0,0,3.48,835a236.09,236.09,0,0,0-25,39.79q-2.57,5.16-4.86,10.45c-.77,1.75,1.82,3.28,2.59,1.51Z"/><path d="M89.69,412.75,65.81,368.94c-3.91-7.16-8.07-14.24-11.67-21.56-3-6-5.65-13.79-1.49-19.94,2.94-4.34,8.55-6.16,13.6-6,6.13.2,11.46,3.64,15.5,8.06,4.51,4.91,7.66,11.07,10.06,17.24a82.1,82.1,0,0,1,5,20.28,84.16,84.16,0,0,1-5.61,41.5c-.67,1.63-1.4,3.22-2.18,4.8s1.74,3.25,2.59,1.51A86.79,86.79,0,0,0,96,349.49a66.63,66.63,0,0,0-9.66-19.15c-4-5.19-9.31-9.86-15.83-11.35-5.55-1.27-11.92-.41-16.59,3-14.1,10.29-1.36,28.91,4.67,40l25.31,46.42,3.21,5.88c.92,1.7,3.52.19,2.59-1.51Z"/><path d="M86.35,446.58a278.44,278.44,0,0,1,22.88-37q6.47-8.82,13.61-17.1,3.48-4,7.12-7.95a37.94,37.94,0,0,1,7.57-6.63c2.77-1.7,6-2.76,9.22-1.65a11,11,0,0,1,5.78,5.54c2.79,5.27,3.13,11.93,2.16,17.71-2.09,12.44-10.15,23.39-20.31,30.58-12.89,9.13-28.43,13.26-43.62,16.72-1.88.43-1.09,3.32.8,2.89,14.28-3.25,28.83-7.11,41.33-15,11.38-7.19,20.77-18.16,24.07-31.42a35.48,35.48,0,0,0-.24-19.15c-1.89-5.9-6.39-11.6-13.16-11.32-7.2.3-12.7,6.32-17.23,11.26q-7.74,8.43-14.77,17.49A280.77,280.77,0,0,0,86.46,440c-.92,1.7-1.82,3.4-2.7,5.12s1.71,3.23,2.59,1.51Z"/><path d="M76.22,512.92,103,477.47,116.18,460c3.15-4.18,7.06-10,12.69-10.85,5.92-.91,9.77,5.36,11.46,10.13a30,30,0,0,1,.72,16.9c-2.75,11.62-11.54,20.41-21.91,25.78-13.37,6.92-28.77,8-43.57,8.26-1.93,0-1.93,3,0,3,14.33-.25,29-1.32,42.25-7.3,11.28-5.09,21.27-13.93,25.26-25.91a34.48,34.48,0,0,0,1.1-18.18c-1.22-5.55-4.26-12.11-9.65-14.7-5.74-2.75-11.44.5-15.47,4.64a79.27,79.27,0,0,0-6.37,7.91l-7.22,9.56L73.63,511.4c-1.17,1.54,1.44,3,2.59,1.52Z"/><path d="M75.22,509.18,53,464.77c-3-6-5.81-12.82-11.21-17.16a19.83,19.83,0,0,0-15.44-3.84,23.93,23.93,0,0,0-14.26,7.59A25.68,25.68,0,0,0,6,468.05c-.19,13.3,8.06,24.59,19.13,31.21C39.65,508,57,508.61,73.47,509.1c1.93,0,1.93-3,0-3-14-.41-28.62-.79-41.6-6.69-11.07-5-20.49-14-22.54-26.41a25,25,0,0,1,3.09-17.16,20.35,20.35,0,0,1,11.82-8.58A17.75,17.75,0,0,1,38.55,449c5.3,3.39,8,9.67,10.7,15.08l23.38,46.63c.86,1.73,3.45.21,2.59-1.51Z"/><path d="M87.62,447.07A152.32,152.32,0,0,0,69,404.63,124.67,124.67,0,0,0,55.1,386.21C50.23,381,44.1,376.08,37,374.73a17.87,17.87,0,0,0-17,5.63,22.33,22.33,0,0,0-5.4,16.17c.56,7.15,4.95,13,9.81,18,6,6.11,12.37,11.86,18.57,17.76C53.79,442.6,66.54,455.68,83,452.76a22.35,22.35,0,0,0,5.29-1.69c1.75-.79.23-3.38-1.52-2.59-6.52,2.94-14.26,1.73-20.51-1.33-6.69-3.27-12.18-8.4-17.53-13.48l-17.9-17C25.94,412,20.49,407,18.35,400.37c-3.4-10.53,3.94-23.6,15.76-23,6.72.35,12.66,4.78,17.28,9.33a105.48,105.48,0,0,1,13.25,16.73,149.42,149.42,0,0,1,18.62,39.27q.78,2.57,1.47,5.16a1.5,1.5,0,0,0,2.89-.8Z"/><path d="M88,413.67a401.22,401.22,0,0,1-6.52,63.56,415.83,415.83,0,0,1-16.35,61.69,419.82,419.82,0,0,1-25.59,58.6A416.87,416.87,0,0,1,5.42,651.46a401.09,401.09,0,0,1-42,47.85q-2.88,2.81-5.81,5.53c-1.41,1.32.71,3.44,2.12,2.12A402.38,402.38,0,0,0,3.21,659.28a419.23,419.23,0,0,0,35.34-53.62,425.73,425.73,0,0,0,26.77-58.39A417.33,417.33,0,0,0,83,485.43a406.86,406.86,0,0,0,7.8-63.74q.16-4,.26-8c0-1.93-3-1.93-3,0Z"/><path d="M-33.75,825.57a160.33,160.33,0,0,0,62.12,4.57,190.74,190.74,0,0,0,60.12-17.7,209,209,0,0,0,51.34-35.34,258.24,258.24,0,0,0,39.51-47.05,319.38,319.38,0,0,0,28.74-54.74q1.46-3.55,2.84-7.13l-2.89-.8c-4.1,18.81-18.87,33.19-35.74,41.36-20.79,10.06-44.78,10.6-67.41,9.83-24.65-.85-49.67-3.43-74,1.85C12.08,724.48-6.38,734-18,749.6c-6.74,9.06-9.79,19.7-12.35,30.55q-4.39,18.6-8.76,37.2l-2.16,9.19c-.45,1.88,2.45,2.68,2.89.8q4.41-18.75,8.83-37.5c2.68-11.41,4.74-23.42,10.77-33.65,9.84-16.7,27.9-27.08,46.25-31.88,23.88-6.24,48.93-3.9,73.28-2.9,23.05,1,47.25.91,68.88-8.18,17.23-7.25,32.89-20.5,39.42-38.42a51.18,51.18,0,0,0,1.91-6.63,1.5,1.5,0,0,0-2.89-.8,323.74,323.74,0,0,1-27.13,54.69,261.44,261.44,0,0,1-37.69,47.63,210.43,210.43,0,0,1-49.05,36.51A190,190,0,0,1,35.68,826.1a160.17,160.17,0,0,1-61.28-1.55q-3.7-.84-7.35-1.88a1.51,1.51,0,0,0-.8,2.9Z"/><path d="M250.88,827.25q-22.45,30-47.56,58t-52.47,53.44q-27.4,25.55-57,48.59t-61.16,43.4Q1.21,1051-32,1068.38q-4.09,2.14-8.21,4.24c-1.72.88-.2,3.47,1.52,2.59q33.57-17.14,65.52-37.26t61.91-43q29.85-22.76,57.62-48.07t53.2-53q25.44-27.75,48.33-57.7c1.88-2.45,3.73-4.91,5.58-7.38,1.15-1.54-1.45-3-2.59-1.51Z"/><path d="M608.09,1022.53c-20.26,10.55-40.53,21.1-61.14,31a684.1,684.1,0,0,1-63.11,26.87,406.2,406.2,0,0,1-65,17.95,300.69,300.69,0,0,1-66,4.93,230.23,230.23,0,0,1-64.46-11.57q-3.92-1.34-7.77-2.81c-1.8-.69-2.58,2.21-.79,2.89a227,227,0,0,0,64.49,14,293.34,293.34,0,0,0,66.19-3,385.83,385.83,0,0,0,65.76-16.54,635,635,0,0,0,63.6-26c21-9.81,41.58-20.41,62.12-31.09l7.63-4c1.71-.9.2-3.49-1.52-2.59Z"/><path d="M172.59,863.52l1.21,47c0,1.93,3,1.93,3,0l-1.21-47c-.05-1.93-3.05-1.93-3,0Z"/><path d="M84.89,915.57l0,58.16,0,16.4a1.5,1.5,0,0,0,3,0L87.88,932V915.57a1.5,1.5,0,0,0-3,0Z"/><path d="M-5.85,968.67l3.32,55.6.95,15.88c.12,1.92,3.12,1.93,3,0L-1.9,984.56l-1-15.89c-.11-1.91-3.11-1.93-3,0Z"/><path d="M18.29,1046.57a204.48,204.48,0,0,0,40.4,18.26,207,207,0,0,0,43.4,9.18,203.88,203.88,0,0,0,25.2,1c1.93,0,1.93-3,0-3A201.72,201.72,0,0,1,19.8,1044a1.5,1.5,0,0,0-1.51,2.59Z"/><path d="M111.59,983.32l60.2,10.58c1.88.33,2.7-2.56.79-2.9l-60.19-10.57c-1.89-.33-2.7,2.56-.8,2.89Z"/><path d="M176.34,923.57l40.85-2.06c1.92-.09,1.93-3.09,0-3l-40.85,2.06c-1.92.09-1.94,3.09,0,3Z"/><path d="M230.85,861.87a138.27,138.27,0,0,0,45.84-15.42q6-3.3,11.71-7.2c1.58-1.08.08-3.68-1.52-2.59a135.85,135.85,0,0,1-43.57,19.68c-4.37,1.1-8.8,2-13.26,2.64-1.9.28-1.1,3.17.8,2.89Z"/><path d="M-22.4,913.86a543.63,543.63,0,0,1,91.62-63.12q13.78-7.54,28-14.29l-1.82-2.36L40.19,880.26-14.64,926.1l-31.06,26c-1.49,1.23.65,3.35,2.12,2.12L11.63,908l54.83-45.84,31.06-26c1.39-1.16-.38-3-1.82-2.35A545.14,545.14,0,0,0,.1,891.94q-12.58,9.54-24.62,19.8c-1.47,1.25.66,3.36,2.12,2.12Z"/><path d="M-39.75,726.28a344.06,344.06,0,0,1,98.52-59.39q15.18-6,30.9-10.44l-1.16-2.74Q54,671.07,21.34,691.79t-63,44.52q-17.15,13.44-33.52,27.82c-1.46,1.27.67,3.39,2.12,2.12q29-25.44,60.36-47.9t64.76-41.63Q70.75,666,90,656.3c1.53-.77.47-3.21-1.15-2.74A346.48,346.48,0,0,0-15.88,703.82q-13.47,9.54-26,20.34c-1.46,1.26.67,3.38,2.13,2.12Z"/></svg>