<svg xmlns="http://www.w3.org/2000/svg" id="Calque_1" data-name="Calque 1" viewBox="115.1 54.53 435.48 594.82">
    <defs>
        <style>.cls-1{fill:#fce755;}.cls-2{font-size:50px;stroke:#000;font-family:CooperBlack, Cooper
            Black;}.cls-2,.cls-7{fill:none;}.cls-3{fill:#998675;}.cls-4{fill:#8c6239;}.cls-5{fill:#b9212d;}.cls-6{fill:#73a57a;}.cls-7{stroke:#1e1e16;stroke-miterlimit:10;stroke-width:2.19px;}
        </style>
    </defs>
    <path class="cls-1"
          d="M177.07,551.82c8.81-44.16-7.6-83.29-28.52-123.15-16-30.41-40.75-62-31.4-95.06,6.8-24,30.44-39.73,54.46-46.44s49.39-6.52,74-10.62,50.1-13.75,64.15-34.36c14.85-21.79,15.3-53.36,36.41-69.17,20.25-15.16,50.77-7.14,68.85,10.55s27,42.45,36.22,66,20.33,47.9,40.89,62.62c9.83,7,21.33,11.47,31,18.68,21,15.58,31.11,43.86,26.25,69.52s-23.89,47.81-48,57.87c-14.2,5.93-29.86,7.94-43.79,14.49-26.82,12.59-43.33,39.92-55.7,66.84s-22.69,55.71-43.08,77.2c-27.91,29.43-73.67,40.37-111.87,26.77s-66.75-51-69.79-91.44"/>
    <path class="cls-3"
          d="M547,428.67v62.56H124V428.67H547Zm-24.11,31.87a6.58,6.58,0,1,0-6.57,6.58A6.57,6.57,0,0,0,522.89,460.54Zm-361.63,0a6.58,6.58,0,1,0-6.58,6.58A6.57,6.57,0,0,0,161.26,460.54Z"/>
    <path class="cls-3"
          d="M547,342.87v55.21H124V342.87H547Zm-24.11,30a6.58,6.58,0,1,0-6.57,6.58A6.57,6.57,0,0,0,522.89,372.87Zm-361.63,0a6.58,6.58,0,1,0-6.58,6.58A6.57,6.57,0,0,0,161.26,372.87Z"/>
    <rect class="cls-4" x="498.34" y="491.23" width="36.93" height="24.1"/>
    <rect class="cls-4" x="498.34" y="398.08" width="35.44" height="30.59"/>
    <path class="cls-5"
          d="M535,323.56a37.48,37.48,0,0,1-5.74,19.31H418.13s-5.92-30.27,7.23-43.42a27.49,27.49,0,0,1,3.14-2.7C442,286.64,463,288.82,467,292.88c3.27,3.26,5.32,4.1,8.87,3.4a26.54,26.54,0,0,0,2.79-.73c.47-.14,1-.3,1.49-.48,6.58-2.19,26.3-11,37.26-2.19S535,312.6,535,323.56Z"/>
    <path class="cls-4"
          d="M475.33,274.68a118.81,118.81,0,0,1,7-14.68l11,13.15s-6.57,0-11,4.38-3.68,18-3.68,18a26.54,26.54,0,0,1-2.79.73,66.3,66.3,0,0,1-2.19-11.81c-.06-.86-.1-1.71-.1-2.55A23.09,23.09,0,0,1,475.33,274.68Z"/>
    <path class="cls-6"
          d="M473.68,284.47h-.1s-6.58,4-18.85,0a64.69,64.69,0,0,1-20.6-11.33s11-11,24.11-8.77c12.94,2.17,17,10.06,17.09,10.3a23.09,23.09,0,0,0-1.75,7.24C473.58,282.76,473.62,283.61,473.68,284.47Z"/>
    <path class="cls-5"
          d="M428.5,296.75a27.49,27.49,0,0,0-3.14,2.7c-13.15,13.15-7.23,43.42-7.23,43.42H323.45s-4.39-20.41,0-29.17c2.57-5.15,5.9-11.82,10.88-16.88a23.82,23.82,0,0,1,13.22-7.23c13.15-2.19,21.92,4.38,32.9,7.16a11.6,11.6,0,0,0,4.79.28h0c7.2-1.15,10.5-9.62,21.49-9.62C419.88,287.4,428.5,296.75,428.5,296.75Z"/>
    <path class="cls-4"
          d="M387,263.29,398,269.86s-17.52,11-12.72,27.16h0a11.6,11.6,0,0,1-4.79-.28,74.41,74.41,0,0,0-.93-10.49,7.69,7.69,0,0,1,0-2,25.57,25.57,0,0,1,.85-4.11.23.23,0,0,1,0-.07A128.25,128.25,0,0,1,387,263.29Z"/>
    <path class="cls-6"
          d="M367.28,265.48c14.67,2.09,13.24,13.61,13.1,14.61a.23.23,0,0,0,0,.07,25.57,25.57,0,0,0-.85,4.11s-10,5.32-18.78,3.13S341,269.86,341,269.86A43.12,43.12,0,0,1,367.28,265.48Z"/>
    <path class="cls-5"
          d="M334.26,296.75l.07.07c-5,5.06-8.31,11.73-10.88,16.88-4.39,8.76,0,29.17,0,29.17H229.2s-4.38-20.41,0-29.17c2.58-5.15,5.91-11.82,10.88-16.88a23.88,23.88,0,0,1,13.23-7.23c13.15-2.19,21.92,4.38,32.9,7.16A11.6,11.6,0,0,0,291,297h0c7.2-1.15,10.5-9.62,21.49-9.62C325.64,287.4,334.26,296.75,334.26,296.75Z"/>
    <path class="cls-4"
          d="M292.76,263.29l11,6.57S286.2,280.82,291,297h0a11.6,11.6,0,0,1-4.79-.28,74.41,74.41,0,0,0-.93-10.49,7.7,7.7,0,0,1,0-2,24.53,24.53,0,0,1,.85-4.11.23.23,0,0,1,0-.07A127.3,127.3,0,0,1,292.76,263.29Z"/>
    <path class="cls-6"
          d="M273,265.48c14.67,2.09,13.24,13.61,13.1,14.61a.23.23,0,0,0,0,.07,24.53,24.53,0,0,0-.85,4.11s-10,5.32-18.78,3.13-19.75-17.54-19.75-17.54A43.1,43.1,0,0,1,273,265.48Z"/>
    <path class="cls-5"
          d="M240,296.75l.07.07c-5,5.06-8.3,11.73-10.88,16.88-4.38,8.76,0,29.17,0,29.17H135s-4.38-20.41,0-29.17,11-21.92,24.11-24.11S181,294,192,296.75a11.6,11.6,0,0,0,4.79.28h0c7.19-1.15,10.49-9.62,21.48-9.62C231.39,287.4,240,296.75,240,296.75Z"/>
    <path class="cls-4"
          d="M191,284.28a24.82,24.82,0,0,1,.85-4.12.23.23,0,0,1,0-.07,128.25,128.25,0,0,1,6.63-16.8l11,6.57S192,280.82,196.76,297h0a11.6,11.6,0,0,1-4.79-.28,75.37,75.37,0,0,0-.94-10.49A7.62,7.62,0,0,1,191,284.28Z"/>
    <path class="cls-6"
          d="M178.79,265.48c14.67,2.09,13.24,13.61,13.1,14.61a.23.23,0,0,0,0,.07,24.82,24.82,0,0,0-.85,4.12c-.25.13-10.15,5.28-18.78,3.12s-19.75-17.54-19.75-17.54A43.12,43.12,0,0,1,178.79,265.48Z"/>
    <rect class="cls-4" x="137.15" y="491.23" width="35.88" height="24.1"/>
    <rect class="cls-4" x="137.15" y="398.08" width="35.88" height="30.59"/>
    <rect class="cls-7" x="119" y="422.67" width="423" height="62.56"/>
    <polygon class="cls-7" points="119 392.08 130.54 392.08 542 392.08 542 336.87 119 336.87 119 392.08"/>
    <polyline class="cls-7" points="168.03 485.23 168.03 509.33 132.15 509.33 132.15 485.23"/>
    <line class="cls-7" x1="132.15" y1="422.67" x2="132.15" y2="392.08"/>
    <line class="cls-7" x1="168.03" y1="392.08" x2="168.03" y2="422.67"/>
    <polyline class="cls-7" points="530.27 485.23 530.27 509.33 493.34 509.33 493.34 485.23"/>
    <line class="cls-7" x1="528.78" y1="422.67" x2="528.78" y2="392.08"/>
    <line class="cls-7" x1="493.34" y1="422.67" x2="493.34" y2="392.08"/>
    <circle class="cls-7" cx="149.68" cy="366.87" r="6.58"/>
    <circle class="cls-7" cx="511.32" cy="366.87" r="6.58"/>
    <circle class="cls-7" cx="149.68" cy="454.54" r="6.58"/>
    <circle class="cls-7" cx="511.32" cy="454.54" r="6.58"/>
    <path class="cls-7"
          d="M413.13,336.87s-5.92-30.27,7.23-43.42,37.26-11,41.64-6.57,6.58,4.38,13.15,2.19,26.3-11,37.26-2.19S530,306.6,530,317.56a37.48,37.48,0,0,1-5.74,19.31"/>
    <path class="cls-7"
          d="M473.66,289.55s-.7-13.63,3.68-18,11-4.38,11-4.38l-11-13.15s-8.76,15.34-8.76,21.92a60.74,60.74,0,0,0,2.29,14.36"/>
    <path class="cls-7"
          d="M470.33,268.69s-3.94-8.11-17.09-10.31-24.11,8.77-24.11,8.77a64.69,64.69,0,0,0,20.6,11.33c12.27,4,18.85,0,18.85,0"/>
    <path class="cls-7"
          d="M423.5,290.75s-8.62-9.35-21.77-9.35-15.29,12.13-26.28,9.35-19.75-9.35-32.9-7.16-19.72,15.34-24.1,24.11,0,29.17,0,29.17"/>
    <path class="cls-7"
          d="M380.24,291C375.43,274.82,393,263.86,393,263.86L382,257.29s-8.4,17.46-7.49,23a74.41,74.41,0,0,1,.93,10.49"/>
    <path class="cls-7"
          d="M375.36,274.16s2.26-12.49-13.08-14.68a43.12,43.12,0,0,0-26.3,4.38s11,15.34,19.75,17.54,18.78-3.13,18.78-3.13"/>
    <path class="cls-7"
          d="M329.26,290.75s-8.62-9.35-21.77-9.35-15.3,12.13-26.28,9.35-19.75-9.35-32.9-7.16-19.72,15.34-24.11,24.11,0,29.17,0,29.17"/>
    <path class="cls-7"
          d="M286,291c-4.81-16.21,12.72-27.17,12.72-27.17l-11-6.57s-8.39,17.46-7.48,23a74.41,74.41,0,0,1,.93,10.49"/>
    <path class="cls-7"
          d="M281.12,274.16s2.26-12.49-13.08-14.68a43.1,43.1,0,0,0-26.3,4.38s11,15.34,19.75,17.54,18.78-3.13,18.78-3.13"/>
    <path class="cls-7"
          d="M235,290.75s-8.62-9.35-21.77-9.35S198,293.53,187,290.75s-19.75-9.35-32.9-7.16S134.34,298.93,130,307.7s0,29.17,0,29.17"/>
    <path class="cls-7"
          d="M191.76,291c-4.82-16.21,12.72-27.17,12.72-27.17l-11-6.57s-8.4,17.46-7.49,23a75.37,75.37,0,0,1,.94,10.49"/>
    <path class="cls-7"
          d="M186.87,274.16s2.26-12.49-13.08-14.68a43.12,43.12,0,0,0-26.3,4.38s11,15.34,19.75,17.54S186,278.27,186,278.27"/>
</svg>