<svg id="Calque_1" data-name="Calque 1" xmlns="http://www.w3.org/2000/svg" viewBox="0 0 655 698">
    <defs>
        <style>
            .cls-1 {
                fill: #99d5d0;
            }

            .cls-2 {
                font-size: 50px;
                stroke: #000;
                font-family: CooperBlack, Cooper Black;
            }

            .cls-10,
            .cls-2 {
                fill: none;
            }

            .cls-3 {
                letter-spacing: -0.02em;
            }

            .cls-4 {
                letter-spacing: -0.01em;
            }

            .cls-5 {
                letter-spacing: -0.01em;
            }

            .cls-6 {
                letter-spacing: -0.01em;
            }

            .cls-7 {
                fill: #e6e6e6;
            }

            .cls-8 {
                fill: #f2f2f2;
            }

            .cls-9 {
                fill: #c7b299;
            }

            .cls-10 {
                stroke: #1e1e16;
                stroke-miterlimit: 10;
                stroke-width: 1.96px;
            }
        </style>
    </defs>
    <path class="cls-1"
        d="M290.86,169.21c35,37,81.83,47.45,132.31,54.21,38.49,5.15,83.88,3,108.25,33.19,17.71,22,16.76,54.07,7.25,80.63s-26.29,49.84-38.59,75.22S480,467.69,489.83,494.13c10.4,28,39.24,49,40,78.84.75,28.6-26.6,51.52-54.75,56.63s-56.81-2.87-84.59-9.73S333,607.31,306,616.66c-12.91,4.47-24.53,12.19-37.53,16.42-28.07,9.16-60.82,0-81.32-21.23s-28.5-53.32-22-82.13c3.82-17,12.2-32.75,15.27-49.89,5.91-33-8.51-66.09-25.26-95.11s-36.57-57.37-43.07-90.24c-8.9-45,10.91-94.38,48.45-120.75s90.71-28.24,130-4.6" />
    <rect class="cls-1" x="163" y="84" width="333" height="14" /><text class="cls-2"
        transform="translate(158.13 86.03)">
        <tspan class="cls-3">R</tspan>
        <tspan x="38.01" y="0">éf</tspan>
        <tspan class="cls-4" x="85.74" y="0">r</tspan>
        <tspan x="111.94" y="0">égi</tspan>
        <tspan class="cls-5" x="185.18" y="0">r</tspan>
        <tspan x="211.43" y="0">a</tspan>
        <tspan class="cls-6" x="239.77" y="0">t</tspan>
        <tspan x="262.6" y="0">eur</tspan>
    </text>
    <path class="cls-7"
        d="M453.42,350.64V603.29l-194,30.53V350.64ZM303.34,437c2.56-4.19-2.55-27.14-2.55-36.93s7.83-33.29-3.92-37.21a116.17,116.17,0,0,0-15.66,9.79c-7.84,5.88-3.92,19.58-3.92,39.17S300.79,441.16,303.34,437Z" />
    <polygon class="cls-8"
        points="453.42 335.42 453.42 350.64 259.44 350.64 259.44 633.82 251.83 635.02 243.22 629.88 243.22 629.87 243.22 202.26 253.79 196.39 259.44 196.39 259.44 335.42 453.42 335.42" />
    <path class="cls-7"
        d="M453.42,196.39v139h-194v-139ZM303,318.65c.27-3.06-2.22-43.94-2.22-49.81s7.83-17.62-5.88-19.58S279.25,263,279.25,263v42.36c0,9.06,2,12.47,10.94,16S302.75,321.71,303,318.65Z" />
    <path class="cls-9"
        d="M300.79,400c0,9.79,5.11,32.74,2.55,36.93s-26-5.6-26-25.18-3.92-33.29,3.92-39.17a116.17,116.17,0,0,1,15.66-9.79C308.62,366.75,300.79,390.25,300.79,400Z" />
    <path class="cls-9"
        d="M300.79,268.84c0,5.87,2.49,46.75,2.22,49.81s-3.84,6.18-12.82,2.66-10.94-6.93-10.94-16V263s2-15.66,15.66-13.7S300.79,263,300.79,268.84Z" />
    <polygon class="cls-9"
        points="243.22 629.87 243.22 629.88 200.92 604.62 200.92 225.76 243.22 202.26 243.22 629.87" />
    <polygon class="cls-10"
        points="192.5 219.87 245.37 190.5 445 190.5 445 597.4 243.41 629.13 192.5 598.74 192.5 219.87" />
    <line class="cls-10" x1="234.8" y1="196.37" x2="234.8" y2="623.99" />
    <polyline class="cls-10" points="251.02 190.5 251.02 329.53 445 329.53" />
    <polyline class="cls-10" points="445 344.76 251.02 344.76 251.02 627.93" />
    <path class="cls-10"
        d="M288.45,356.94c11.75,3.92,3.92,27.42,3.92,37.21s5.11,32.75,2.55,36.93-26.05-5.6-26.05-25.18-3.92-33.29,3.92-39.16A115.66,115.66,0,0,1,288.45,356.94Z" />
    <path class="cls-10"
        d="M270.83,257.08s2-15.67,15.66-13.71,5.88,13.71,5.88,19.58,2.49,46.75,2.22,49.81-3.84,6.19-12.82,2.67-10.94-6.94-10.94-16Z" />
</svg>