<svg xmlns="http://www.w3.org/2000/svg" id="Calque_1" data-name="Calque 1" viewBox="79.05 54.53 496.13 584.88">
    <defs>
        <style>.cls-1{fill:#5c758d;}.cls-2{font-size:50px;stroke:#000;font-family:CooperBlack, Cooper
            Black;}.cls-2,.cls-6,.cls-7,.cls-8{fill:none;}.cls-3{letter-spacing:-0.01em;}.cls-4{fill:#99d5d0;}.cls-5{fill:#e6e6e6;}.cls-6,.cls-7,.cls-8{stroke:#1e1e16;stroke-miterlimit:10;}.cls-6{stroke-width:1px;}.cls-7{stroke-width:1.15px;}.cls-8{stroke-width:0.98px;}
        </style>
    </defs>
    <path class="cls-1"
          d="M397.2,633.14c-36.45-26.45-78.85-27.88-123.81-25.52-34.3,1.8-73.37,11.11-99.49-11.19-19-16.19-23.38-44.24-19.44-68.88s14.71-47.59,21.26-71.66,8.44-51.26-4.42-72.64c-13.6-22.6-42.09-36.19-47.63-62-5.32-24.73,14.71-49.11,38.34-58.14s49.83-6.77,75.08-5.34,52,1.53,74-11c10.5-6,19.34-14.59,29.94-20.39,22.9-12.54,52.84-10,74.12,5.18s33.47,41.69,32.54,67.78c-.55,15.39-5.26,30.45-5.14,45.84.25,29.63,18.18,56.05,37.47,78.53s41.14,43.89,52.15,71.39c15.08,37.65,5.91,83.8-22.41,112.83s-74.21,39.34-112.23,25.21"/>
    <rect class="cls-1" x="162" y="99" width="333" height="14"/>
    <path class="cls-4"
          d="M307.64,400c-.94-.14-6.25-.92-13.22-1.64l-.15,0a196.63,196.63,0,0,1-21.59-4.45c-20.36-5.49-33.18-13.47-33.18-22.36,0-16.57,44.55-30,99.5-30s99.5,13.43,99.5,30c0,6.9-7.74,13.26-20.73,18.33A118.35,118.35,0,0,1,405,394c-14.16,3.79-31.92,6.38-51.54,7.23-3.26.15-6.58.24-9.94.29q-2.24,0-4.5,0c-8.17,0-16.11-.3-23.71-.86q-3.81-.27-7.5-.65Z"/>
    <path class="cls-5"
          d="M272.68,393.86a196.63,196.63,0,0,0,21.59,4.45A70.75,70.75,0,0,1,282,396.1l15.51,26.4L307.79,400q3.69.38,7.5.65L304.5,427.5l70,28-31-54v0c3.36-.05,6.68-.14,9.94-.29v.32l29.05,48L405,394a118.35,118.35,0,0,0,12.79-4.12L389.5,460.5l36,63-4,4-37-57-30,74-8-3,32-77-70-25,32,52-6,4-36-56-30,73-7-4,32-78Z"/>
    <path class="cls-4" d="M294.42,398.33c7,.72,12.28,1.5,13.22,1.64C303.08,399.52,298.66,399,294.42,398.33Z"/>
    <path class="cls-5"
          d="M533.38,453.3,562,496.15l-7.53,3.35-13-17.74-19.35-6.5-21.16,45-5.19-3.35,5.19-16.08-51.12-16.4-7.37,16.4-5.9-2.95,26.55-62.94L442,408.42l16,5.7,11,13.94,3.56-8.79,6.6,2.35-5.24,13.32,17.72,24.39,26.71,7.57L524,452.63,508.3,432l7.3-2.78L526,445.76l12.81-25.39,9.12-3.47Zm2.46,19L528,461.49,524,470.34Zm-31.47,22.62,11.23-21.21-16.35-4,3.42,6-6.95,2.68L470,441.82l-16.24,36.59Z"/>
    <path class="cls-5"
          d="M220.74,455.71,252,529.88l-6.95,3.48L236.39,514l-60.25,19.32,6.12,18.95-6.12,4-24.94-53-22.79,7.65L113,531.79l-8.88-3.94,33.71-50.5-17.15-42.91,10.75,4.09h0l15.1,29.92L158.83,449l8.6,3.27-18.55,24.33,6.75,16.82,31.47-8.93L208,455.71,201.81,440l7.78-2.77,4.2,10.36,12.89-16.43,18.89-6.72Zm11,51.23-19.14-43.12-30.37,43.12-8.19-3.16,4-7.1-19.26,4.73,13.23,25Zm-82.89-9.51L144.25,487,135,499.75Z"/>
    <polygon class="cls-5" points="128.58 430.8 118.75 433.69 104.16 365.75 113.04 364.21 128.41 430.21 128.58 430.8"/>
    <polygon class="cls-5" points="182.26 352.25 193.48 411.77 185.1 414.22 174.07 353.66 182.26 352.24 182.26 352.25"/>
    <polygon class="cls-5" points="561.99 358.6 549.61 416.26 541.27 413.81 541.42 413.31 554.46 357.3 561.99 358.6"/>
    <polygon class="cls-5" points="502.67 348.35 493.31 399.74 486.2 397.66 495.72 347.15 502.67 348.35"/>
    <polygon class="cls-4"
             points="547.94 416.89 547.94 416.9 538.82 420.37 515.6 429.21 508.3 431.99 479.13 421.62 472.53 419.27 458.02 414.12 442 408.42 433.62 405.44 475.85 394.62 486.2 397.66 493.31 399.74 541.27 413.81 549.61 416.26 547.94 416.89"/>
    <polygon class="cls-4"
             points="575.18 322.83 571.24 360.2 561.99 358.6 554.46 357.3 502.67 348.35 495.72 347.15 491.59 346.44 497.49 313 575.18 322.83"/>
    <polygon class="cls-4"
             points="226.68 431.17 209.59 437.24 201.81 440.01 167.43 452.23 158.83 448.96 131.47 438.54 131.47 438.53 120.72 434.44 118.75 433.69 128.58 430.8 185.1 414.23 185.1 414.22 193.48 411.77 205.67 408.19 255.45 420.94 245.57 424.45 226.68 431.17"/>
    <polygon class="cls-4"
             points="180.18 312 187.13 351.4 182.26 352.24 174.07 353.66 113.04 364.21 104.16 365.75 93.26 367.63 88.62 323.59 180.18 312"/>
    <ellipse class="cls-6" cx="330" cy="368.5" rx="99.5" ry="30"/>
    <polyline class="cls-6"
              points="408.77 386.83 380.5 457.5 416.5 520.5 412.5 524.5 375.5 467.5 345.5 541.5 337.5 538.5 369.5 461.5 299.5 436.5 331.5 488.5 325.5 492.5 289.5 436.5 259.5 509.5 252.5 505.5 284.5 427.5 263.68 390.86"/>
    <polyline class="cls-6" points="272.98 393.09 288.5 419.5 298.79 396.99"/>
    <polyline class="cls-6" points="306.29 397.64 295.5 424.5 365.5 452.5 334.5 398.5"/>
    <polyline class="cls-6" points="344.45 398.5 373.5 446.5 395.98 390.95"/>
    <polygon class="cls-7" points="79.62 320.59 84.25 364.63 178.13 348.4 171.18 309 79.62 320.59"/>
    <polygon class="cls-7" points="109.75 430.69 196.67 405.19 246.45 417.94 158.43 449.23 109.75 430.69"/>
    <line class="cls-7" x1="109.75" y1="430.69" x2="95.16" y2="362.75"/>
    <line class="cls-7" x1="104.04" y1="361.21" x2="119.41" y2="427.21"/>
    <line class="cls-7" x1="184.48" y1="408.77" x2="173.26" y2="349.25"/>
    <line class="cls-7" x1="165.07" y1="350.66" x2="176.1" y2="411.23"/>
    <polyline class="cls-7"
              points="236.57 421.45 211.74 452.71 243.03 526.88 236.08 530.36 227.39 511.04 167.15 530.36 173.26 549.31 167.15 553.25 142.2 500.23 119.41 507.88 104.03 528.79 95.16 524.85 128.88 474.35 111.72 431.44"/>
    <polygon class="cls-7" points="125.98 496.75 139.88 494.43 135.25 484 125.98 496.75"/>
    <polyline class="cls-7" points="149.84 445.96 137.57 465.46 122.47 435.53"/>
    <polyline class="cls-7"
              points="158.43 449.23 139.88 473.56 146.63 490.38 178.1 481.45 198.99 452.71 192.81 437.01"/>
    <polyline class="cls-7" points="200.59 434.24 204.79 444.6 218.44 427.21"/>
    <polygon class="cls-7"
             points="149.84 498.42 169.09 493.68 165.07 500.78 173.26 503.94 203.63 460.82 222.78 503.94 163.06 523.41 149.84 498.42"/>
    <polygon class="cls-8" points="566.18 319.83 562.24 357.2 482.59 343.44 488.49 310 566.18 319.83"/>
    <polygon class="cls-8" points="540.61 413.26 466.85 391.62 424.62 402.44 499.31 428.99 540.61 413.26"/>
    <line class="cls-8" x1="540.61" y1="413.26" x2="552.99" y2="355.6"/>
    <line class="cls-8" x1="545.46" y1="354.3" x2="532.42" y2="410.31"/>
    <line class="cls-8" x1="477.2" y1="394.66" x2="486.72" y2="344.15"/>
    <line class="cls-8" x1="493.67" y1="345.35" x2="484.31" y2="396.74"/>
    <polyline class="cls-8"
              points="433 405.42 454.07 431.94 427.52 494.88 433.42 497.83 440.79 481.44 491.91 497.83 486.72 513.91 491.91 517.25 513.07 472.26 532.42 478.76 545.46 496.5 552.99 493.15 524.38 450.3 538.94 413.89"/>
    <polygon class="cls-8" points="526.84 469.31 515.04 467.34 518.97 458.49 526.84 469.31"/>
    <polyline class="cls-8" points="506.6 426.21 517.01 442.76 529.82 417.37"/>
    <polyline class="cls-8"
              points="499.31 428.99 515.04 449.63 509.32 463.9 482.61 456.33 464.89 431.94 470.13 418.62"/>
    <polyline class="cls-8" points="463.53 416.27 459.97 425.06 448.39 410.31"/>
    <polygon class="cls-8"
             points="506.6 470.72 490.25 466.7 493.67 472.73 486.72 475.41 460.95 438.82 444.71 475.41 495.37 491.93 506.6 470.72"/>
</svg>