<svg xmlns="http://www.w3.org/2000/svg" id="Calque_1" data-name="Calque 1" viewBox="74.52 39.53 493.92 575.25">
    <defs>
        <style>
            .cls-1 {
            fill: #f9bc89;
            }

            .cls-2 {
            fill: #82a9bc;
            }

            .cls-3 {
            fill: #0071bc;
            }

            .cls-4,
            .cls-5 {
            fill: none;
            }

            .cls-4 {
            stroke: #1e1e16;
            stroke-miterlimit: 10;
            stroke-width: 1.32px;
            }

            .cls-5 {
            font-size: 50px;
            stroke: #000;
            font-family: CooperBlack, Cooper Black;
            }

            .cls-6 {
            letter-spacing: -0.01em;
            }

            .cls-7 {
            letter-spacing: -0.01em;
            }
        </style>
    </defs>
    <path class="cls-1"
          d="M132.13,328.68c44.12-9,73.82-39.3,102.45-74.05,21.83-26.51,41.36-61.61,75.44-65.8,24.76-3.05,48.43,12.64,63.93,32.18s25.16,43,38.48,64.09S444.53,326,469,330.91c25.85,5.24,55.12-6.6,77.88,6.74,21.82,12.78,26.27,44,17,67.54s-28.67,41.32-46.78,59-36.26,37.31-41.86,62c-2.67,11.78-2.3,24.11-5.18,35.84-6.23,25.36-28.36,45.69-53.9,51.16s-53.34-3.48-71.95-21.79c-11-10.79-18.9-24.45-30.34-34.75-22-19.83-53.6-24.45-83.21-25.42s-60.15.69-87.87-9.77C104.8,507.11,77,469.18,74.68,428.69s21.13-81.3,57.22-99.78"/>
    <path class="cls-2"
          d="M409,598.8H359.33S351.6,549.18,349,522.71s-23.16-198.89-23.16-198.89-.66,26.2-4,41.42S292.44,598.8,292.44,598.8h-52s2.65-41.68,4.63-96.6c1.6-44.38-5-156.17,8.47-241.43,0,0,25.28,1.91,31.89-4.71s2.06-25.74,2.06-25.74a206.29,206.29,0,0,0,34.34,2.12v61.48s19.18,3.17,20.5-19.33a393.59,393.59,0,0,0,0-43c8.63-.56,15.73-1.3,21.55-2.12,0,0,.29,25.92,2.94,28.57s31.66,3,31.66,3c1.24,7.62,2.22,15.55,2.74,23.49C403.87,324.88,409,598.8,409,598.8Z"/>
    <path class="cls-3"
          d="M389.78,222.23a355.74,355.74,0,0,1,8.7,38.8s-29-.33-31.66-3-2.94-28.57-2.94-28.57C385.75,226.41,389.78,222.23,389.78,222.23Z"/>
    <path class="cls-2"
          d="M342.33,231.6c-3.87.25-8.05.47-12.57.64-2.74.11-5.38.17-7.93.2a206.29,206.29,0,0,1-34.34-2.12c-19.11-3-25.82-8.09-25.82-8.09q2.4-8.62,5.24-16.45s18.52,5.29,57.81,6.05,59.3-8,59.3-8,2.58,7.15,5.76,18.44c0,0-4,4.18-25.9,7.25C358.06,230.3,351,231,342.33,231.6Z"/>
    <path class="cls-3"
          d="M342.33,231.6a393.59,393.59,0,0,1,0,43c-1.32,22.5-20.5,19.33-20.5,19.33V232.44c2.55,0,5.19-.09,7.93-.2C334.28,232.07,338.46,231.85,342.33,231.6Z"/>
    <path class="cls-3"
          d="M287.49,230.32s4.56,19.13-2.06,25.74-31.89,4.71-31.89,4.71a350.21,350.21,0,0,1,8.13-38.54S268.38,227.32,287.49,230.32Z"/>
    <path class="cls-4"
          d="M259,200.48C228.53,283.85,239.12,442,237.13,496.91s-4.63,96.6-4.63,96.6h52s26.08-218.35,29.38-233.57,4-41.41,4-41.41S338.36,491,341,517.42s10.38,76.09,10.38,76.09h49.67s-5.13-273.93-7.78-314.29-17.2-80.72-17.2-80.72-20,8.78-59.3,8S259,200.48,259,200.48Z"/>
    <path class="cls-4" d="M253.73,216.93s15.82,12,68.09,10,60-10,60-10"/>
    <path class="cls-4" d="M245.6,255.47s25.28,1.92,31.89-4.7S279.55,225,279.55,225"/>
    <path class="cls-4" d="M390.54,255.73s-29-.33-31.66-3-2.94-28.57-2.94-28.57"/>
    <path class="cls-4" d="M313.89,227.17v61.46s19.18,3.16,20.5-19.33a392.59,392.59,0,0,0,0-43"/>
    <path class="cls-4" d="M344.32,297.75c31.76-2.65,37.52-13.17,37.52-13.17"/>
    <path class="cls-4" d="M295.36,332.15c-35.07-7.27-46.85-34.4-46.85-34.4"/>
    <path class="cls-4" d="M300.71,315c-20.57-3.31-35.13-19.85-35.13-19.85"/>
    <rect class="cls-1" x="157" y="84" width="333" height="14"/>
</svg>