<svg id="Calque_1" data-name="Calque 1" xmlns="http://www.w3.org/2000/svg" viewBox="0 0 655 698">
    <defs>
        <style>
            .cls-1 {
                fill: #b4b57f;
            }

            .cls-2 {
                font-size: 50px;
                stroke: #000;
                font-family: CooperBlack, Cooper Black;
            }

            .cls-2,
            .cls-7 {
                fill: none;
            }

            .cls-3 {
                letter-spacing: -0.01em;
            }

            .cls-4 {
                letter-spacing: -0.01em;
            }

            .cls-5 {
                fill: #bb6f63;
            }

            .cls-6 {
                fill: #333;
            }

            .cls-7 {
                stroke: #1e1e16;
                stroke-miterlimit: 10;
                stroke-width: 2px;
            }
        </style>
    </defs>
    <path class="cls-1"
        d="M533.5,367c-26.83,36.17-28.71,78.56-26.81,123.54C508.13,524.8,517,564,494.46,589.85c-16.39,18.8-44.49,22.92-69.08,18.73s-47.44-15.2-71.43-22-51.18-9-72.68,3.66c-22.75,13.36-36.63,41.72-62.48,47-24.78,5.06-48.95-15.23-57.74-39s-6.24-49.89-4.56-75.13,2.08-52-10.22-74.1c-5.88-10.55-14.39-19.48-20.08-30.14-12.3-23-9.4-52.95,6-74.07s42-33,68.11-31.82c15.38.7,30.4,5.57,45.79,5.61C275.67,318.68,302.28,301,325,282s44.32-40.68,71.93-51.4c37.81-14.68,83.85-5,112.59,23.58s38.56,74.63,24,112.49" />
    <rect class="cls-1" x="162" y="99" width="333" height="14" /><text class="cls-2"
        transform="translate(53.76 101.03)">Liseuse <tspan class="cls-3" x="196.53" y="0">r</tspan>
        <tspan x="222.73" y="0">ét</tspan>
        <tspan class="cls-4" x="272.39" y="0">r</tspan>
        <tspan x="298.49" y="0">oéclai</tspan>
        <tspan class="cls-3" x="445.85" y="0">r</tspan>
        <tspan x="472.05" y="0">ée</tspan>
    </text>
    <path class="cls-5"
        d="M453,215V591a12,12,0,0,1-12,12H221a12,12,0,0,1-12-12V215a12,12,0,0,1,12-12H441A12,12,0,0,1,453,215ZM431.5,531.5v-268a12,12,0,0,0-12-12h-177a12,12,0,0,0-12,12v268a12,12,0,0,0,12,12h177A12,12,0,0,0,431.5,531.5ZM372.5,227a5.51,5.51,0,0,0-5.5-5.5H295a5.5,5.5,0,0,0,0,11h72a5.5,5.5,0,0,0,5.5-5.5Zm-22,345.5a19,19,0,1,0-19,19A19,19,0,0,0,350.5,572.5Z" />
    <rect class="cls-6" x="259.5" y="502.5" width="141" height="8" />
    <rect class="cls-6" x="259.5" y="480.5" width="141" height="8" />
    <rect class="cls-6" x="259.5" y="458.5" width="141" height="8" />
    <rect class="cls-6" x="259.5" y="436.5" width="141" height="8" />
    <rect class="cls-6" x="259.5" y="384.5" width="141" height="8" />
    <rect class="cls-6" x="259.5" y="362.5" width="141" height="8" />
    <rect class="cls-6" x="259.5" y="340.5" width="141" height="8" />
    <rect class="cls-6" x="259.5" y="318.5" width="141" height="8" />
    <path class="cls-6" d="M367,221.5a5.5,5.5,0,1,1,0,11H295a5.5,5.5,0,1,1,0-11Z" />
    <circle class="cls-6" cx="331.5" cy="572.5" r="19" />
    <rect class="cls-6" x="259.5" y="294.5" width="71" height="10" />
    <rect class="cls-7" x="202" y="197" width="244" height="400" rx="12" />
    <rect class="cls-7" x="223.5" y="245.5" width="201" height="292" rx="12" />
    <rect class="cls-7" x="282.5" y="215.5" width="83" height="11" rx="5.5" />
    <circle class="cls-7" cx="324.5" cy="566.5" r="19" />
    <rect class="cls-7" x="252.5" y="288.5" width="71" height="10" />
    <rect class="cls-7" x="252.5" y="312.5" width="141" height="8" />
    <rect class="cls-7" x="252.5" y="334.5" width="141" height="8" />
    <rect class="cls-7" x="252.5" y="356.5" width="141" height="8" />
    <rect class="cls-7" x="252.5" y="378.5" width="141" height="8" />
    <rect class="cls-7" x="252.5" y="430.5" width="141" height="8" />
    <rect class="cls-7" x="252.5" y="452.5" width="141" height="8" />
    <rect class="cls-7" x="252.5" y="474.5" width="141" height="8" />
    <rect class="cls-7" x="252.5" y="496.5" width="141" height="8" />
</svg>