<svg id="Calque_1" data-name="Calque 1" xmlns="http://www.w3.org/2000/svg" viewBox="0 0 655 698">
    <defs>
        <style>
            .cls-1 {
                fill: #e8cae6;
            }

            .cls-2 {
                font-size: 50px;
                font-family: CooperBlack, Cooper Black;
            }

            .cls-2,
            .cls-7 {
                fill: none;
                stroke: #000;
            }

            .cls-3 {
                letter-spacing: -0.02em;
            }

            .cls-4 {
                letter-spacing: -0.01em;
            }

            .cls-5 {
                fill: #f2f2f2;
            }

            .cls-6 {
                fill: #b9caa4;
            }

            .cls-7 {
                stroke-miterlimit: 10;
                stroke-width: 3.66px;
            }
        </style>
    </defs>
    <path class="cls-1"
        d="M514.28,540.31c-44.86,3.9-77.84,30.59-110.26,61.83-24.73,23.82-48.16,56.46-82.49,56.72-24.95.19-46.66-18.12-59.82-39.3s-20.07-45.6-30.88-68.08-27.21-44.26-50.92-52c-25.08-8.17-55.52.24-76.6-15.62-20.21-15.2-21-46.74-9.12-69.05s33.22-37.75,53.23-53.22,40.31-32.91,48.69-56.78c4-11.39,5-23.68,9.26-35,9.1-24.47,33.41-42.14,59.41-44.64s52.58,9.57,69,29.89c9.66,12,16,26.46,26.15,38,19.59,22.23,50.44,30.44,79.75,34.79s59.84,6.21,86.17,19.78c36.06,18.57,59.36,59.44,57,99.92s-30.3,78.34-68.28,92.57" />
    <rect class="cls-1" x="163" y="99" width="333" height="14" /><text class="cls-2"
        transform="translate(216.47 101.03)">Snea<tspan class="cls-3" x="120.65" y="0">k</tspan>
        <tspan x="156.47" y="0">e</tspan>
        <tspan class="cls-4" x="182.98" y="0">r</tspan>
        <tspan x="209.23" y="0">s</tspan>
    </text>
    <path class="cls-5"
        d="M609.28,445.41c1.52,14.66,5.81,18.33-52.83,29.32S120.35,489.39,116.68,481c-2-4.53-1.82-28.53-1.25-53.67l151.51,3.41,249.2,14.66,33-1.83v9.16h18.33c18.32,0,41-14.89,41-14.89C608.76,440.54,609,443.1,609.28,445.41Z" />
    <path class="cls-6"
        d="M605.52,413.11c.8,6.52,2,16.23,2.94,24.74,0,0-22.69,14.89-41,14.89H549.12V434.42s40.32,3.66,51.31-11C603.35,419.54,605,416.17,605.52,413.11Z" />
    <path class="cls-5"
        d="M605.52,413.1h0c-.54,3.06-2.17,6.43-5.09,10.32-11,14.65-51.31,11-51.31,11l-14.65-33,3.66-18.33s36.65-3.66,51.31,7.33C600.21,398.52,607,404.62,605.52,413.1Z" />
    <path class="cls-5" d="M549.12,434.42v9.16l-33,1.83V419.76c0-7.33-7.33-25.65-7.33-25.65l25.66,7.33Z" />
    <path class="cls-5"
        d="M538.13,383.11l-3.66,18.33-25.66-7.33L341.4,323.61h0l-39.26-16.53,18.38-15.59C374.55,314.51,538.13,383.11,538.13,383.11Z" />
    <path class="cls-6"
        d="M516.14,419.76v25.65l-249.2-14.66s-25.65-25.65-27.56-36.64,100.76-69.78,102-70.5h0l167.41,70.5S516.14,412.43,516.14,419.76Z" />
    <path class="cls-5"
        d="M302.13,307.08l39.26,16.53c-1.25.72-103.91,59.57-102,70.5s27.56,36.64,27.56,36.64l-151.51-3.41c.48-21.32,1.25-43.45,1.25-55.22a72,72,0,0,1,.39-7.44l6.28-1.72c6.67-1.84,11.66-9.17,30-9.17s22,14.66,44,18.33c21.74,3.62,28.84-24.64,29-25.3,35.85.35,55.3-22.34,55.3-22.34Z" />
    <path class="cls-6"
        d="M320.51,291.49l-18.38,15.59-20.53,17.4s-7.33-25.66-7.33-36.65,22-7.33,29.32-3.67C304.7,284.72,310.86,287.38,320.51,291.49Z" />
    <path class="cls-6"
        d="M219.3,346.47c2.39.21,4.73.33,7,.35-.15.66-7.25,28.92-29,25.3-22-3.67-25.65-18.33-44-18.33s-23.31,7.33-30,9.17l-6.28,1.72c2.35-23.64,15-48.49,21.88-57.6,7.6-10.08,25.38-22.92,29-11.92S179,342.8,219.3,346.47Z" />
    <line class="cls-7" x1="519.47" y1="391.44" x2="523.13" y2="373.11" />
    <line class="cls-7" x1="493.81" y1="384.11" x2="287.13" y2="297.08" />
    <path class="cls-7" d="M326.4,313.61s-103.93,59.5-102,70.5,27.56,36.64,27.56,36.64l249.2,14.66" />
    <path class="cls-7"
        d="M266.6,314.48s-22,25.65-62.3,22S156.66,296.15,153,285.16s-21.44,1.84-29,11.92-22.27,39.39-22.27,65S98,462.63,101.68,471s381.14,4.72,439.77-6.28,54.35-14.66,52.83-29.32-4.69-39.76-4.69-39.76" />
    <path class="cls-7" d="M593.46,427.85s-22.69,14.89-41,14.89H534.12V424.42" />
    <path class="cls-7"
        d="M534.12,433.58l-33,1.83V409.76c0-7.33-7.33-25.65-7.33-25.65l25.66,7.33,14.65,33s40.32,3.66,51.31-11,3.67-22-11-33-51.31-7.33-51.31-7.33-227.21-95.28-234.54-98.95-29.32-7.32-29.32,3.67,7.33,36.65,7.33,36.65l38.91-33" />
    <line class="cls-7" x1="251.94" y1="420.75" x2="100.43" y2="417.34" />
    <path class="cls-7" d="M211.31,336.81s-7,29-29,25.31-25.65-18.33-44-18.33-23.31,7.33-30,9.17l-6.67,1.83" />
</svg>