<svg id="Calque_1" data-name="Calque 1" xmlns="http://www.w3.org/2000/svg" viewBox="0 0 655 698">
    <defs>
        <style>
            .cls-1 {
                fill: #c69c6d;
            }

            .cls-2 {
                font-size: 50px;
                stroke: #000;
                font-family: CooperBlack, Cooper Black;
            }

            .cls-2,
            .cls-7 {
                fill: none;
            }

            .cls-3 {
                letter-spacing: -0.01em;
            }

            .cls-4 {
                fill: #333;
            }

            .cls-5 {
                fill: #ccc;
            }

            .cls-6 {
                fill: #c1272d;
            }

            .cls-7 {
                stroke: #1e1e16;
                stroke-miterlimit: 10;
                stroke-width: 1.08px;
            }
        </style>
    </defs>
    <path class="cls-1"
        d="M168.28,274.33c45,.63,80.51-22.63,115.9-50.47,27-21.23,53.57-51.35,87.76-48.17,24.83,2.31,44.6,22.69,55.58,45.09s15.4,47.38,23.91,70.83,22.63,46.76,45.46,56.82c24.13,10.64,55.25,5.33,74.64,23.22,18.59,17.15,16.27,48.62,2.16,69.61s-36.83,34.24-58.29,47.63S472,517.6,461.27,540.5c-5.13,10.94-7.4,23.06-12.72,33.91C437.05,597.85,411.08,613,385,612.88s-51.36-14.79-65.64-36.65c-8.42-12.89-13.24-27.92-22.21-40.43-17.27-24.07-47.15-35.33-75.87-42.6S162.34,481,137.49,464.9c-34-22.09-53.1-65.09-46.68-105.13s38-74.92,77.2-85.27" />
    <rect class="cls-1" x="163" y="84" width="333" height="14" /><text class="cls-2"
        transform="translate(202.84 86.03)">Tél<tspan class="cls-3" x="79.81" y="0">é</tspan>
        <tspan x="105.83" y="0">vision</tspan>
    </text>
    <path class="cls-4"
        d="M565,236.5v278H117.5v-278Zm-8.24,234.27a4.89,4.89,0,1,0-4.88,4.88A4.88,4.88,0,0,0,556.76,470.77Zm0,15.18a4.89,4.89,0,1,0-4.88,4.88A4.89,4.89,0,0,0,556.76,486ZM541,490.83V263.61H145.7V490.83ZM166.85,503.31a4.88,4.88,0,1,0-4.88,4.88A4.88,4.88,0,0,0,166.85,503.31Z" />
    <path class="cls-5" d="M551.88,465.89a4.88,4.88,0,1,1-4.89,4.88A4.88,4.88,0,0,1,551.88,465.89Z" />
    <path class="cls-5" d="M551.88,481.07A4.88,4.88,0,1,1,547,486,4.89,4.89,0,0,1,551.88,481.07Z" />
    <polygon class="cls-4"
        points="438.73 555.91 438.73 570.45 246.02 570.45 246.02 555.91 311.9 555.91 373.24 555.91 438.73 555.91" />
    <path class="cls-4"
        d="M373.24,555.91H311.9s10.59-14.64,11.67-21.69,0-19.7,0-19.7h37.34s-.46,17,2.79,24.58S373.24,555.91,373.24,555.91Z" />
    <circle class="cls-6" cx="161.97" cy="503.31" r="4.88" />
    <polygon class="cls-7"
        points="323.57 514.52 117.5 514.52 117.5 236.5 565 236.5 565 514.52 360.91 514.52 323.57 514.52" />
    <rect class="cls-7" x="145.7" y="263.61" width="395.33" height="227.22" />
    <polygon class="cls-7"
        points="373.24 555.91 438.73 555.91 438.73 570.45 246.02 570.45 246.02 555.91 311.9 555.91 373.24 555.91" />
    <path class="cls-7" d="M311.9,555.91s10.59-14.64,11.67-21.69,0-19.7,0-19.7" />
    <path class="cls-7" d="M360.91,514.52s-.46,17,2.79,24.58,9.54,16.81,9.54,16.81" />
    <circle class="cls-7" cx="161.97" cy="503.31" r="4.88" />
    <path class="cls-7" d="M547,486a4.89,4.89,0,1,1,4.89,4.88A4.89,4.89,0,0,1,547,486Z" />
    <path class="cls-7" d="M547,470.77a4.89,4.89,0,1,1,4.89,4.88A4.88,4.88,0,0,1,547,470.77Z" />
    <rect class="cls-7" x="109.5" y="232.5" width="447.5" height="278.02" />
    <rect class="cls-7" x="137.7" y="259.61" width="395.33" height="227.22" />
    <rect class="cls-7" x="238.02" y="551.91" width="192.7" height="14.54" />
    <path class="cls-7" d="M303.9,551.91s10.59-14.64,11.67-21.69,0-19.7,0-19.7" />
    <path class="cls-7" d="M352.91,510.52s-.46,17,2.79,24.58,9.54,16.81,9.54,16.81" />
    <circle class="cls-7" cx="153.97" cy="499.31" r="4.88" />
    <circle class="cls-7" cx="543.88" cy="481.95" r="4.88" />
    <circle class="cls-7" cx="543.88" cy="466.77" r="4.88" />
</svg>