<svg xmlns="http://www.w3.org/2000/svg" id="Calque_1" data-name="Calque 1" viewBox="85.27 54.53 475.06 579.51">
    <defs>
        <style>.cls-1{fill:#f16e63;}.cls-2{font-size:50px;stroke:#000;font-family:CooperBlack, Cooper
            Black;}.cls-10,.cls-2{fill:none;}.cls-3{letter-spacing:0em;}.cls-4{letter-spacing:-0.01em;}.cls-5{letter-spacing:-0.01em;}.cls-6{fill:#134b6c;}.cls-7{fill:#ebdc21;}.cls-8{fill:#ecf421;}.cls-9{fill:#134b92;}.cls-10{stroke:#1e1e16;stroke-miterlimit:10;stroke-width:0.5px;}
        </style>
    </defs>
    <path class="cls-1"
          d="M120.7,455.71c33.22-30.4,43.12-71.66,49.81-116.18,5.11-34,3.82-74.11,30.89-95.23,19.67-15.33,48-14,71.38-5.25s43.69,23.95,66,35.19,48.54,18.54,72,10.23c24.87-8.8,43.9-34,70.27-34.26,25.3-.25,45.17,24.26,49.28,49.22s-3.35,50.17-9.8,74.63-11.93,50.65-4,74.69c3.76,11.48,10.42,21.86,14,33.4,7.69,25-.84,53.78-19.93,71.59S463,578.17,437.6,572c-15-3.62-28.77-11.26-43.88-14.22-29.07-5.69-58.55,6.58-84.44,21s-51.24,31.51-80.4,36.79c-39.9,7.22-83.27-11-106-44.56s-23.67-80.6-2.21-115"/>
    <rect class="cls-1" x="163" y="99" width="333" height="14"/>
    <path class="cls-6"
          d="M241.25,399.37l0,0c-9.61-12.68-15.62-28.43-18-45.87-4.69-34.72,5.1-76.17,29.81-113.45,43.84-66.16,118-94.17,165.74-62.56s50.82,110.86,7,177c-22.41,33.81-52.75,57.66-83.43,68.68l-.11,0c-.64.18-4.06,1.15-9.25,2.92h0c-14.68,4-29.27,5-42.92,2.69h0c-.57-.16-18.67-5.37-27.78-10.17C253.29,413.88,242,400.22,241.25,399.37ZM305,194.88q-1.9,1.31-3.79,2.72a158.34,158.34,0,0,0-13.39,11.14q-4.9,4.55-9.56,9.61t-9.1,10.75q-4.31,5.51-8.26,11.46-4.31,6.49-7.94,13.17h0c-2.35,4.29-4.48,8.63-6.41,13-1.87,4.19-3.54,8.41-5,12.62s-2.82,8.61-3.92,12.9a145.4,145.4,0,0,0-3.11,15.2c-.54,3.53-.93,7-1.18,10.51-.1,1.3-.17,2.6-.23,3.9a119.64,119.64,0,0,0,.5,17.64c.06.71.14,1.41.23,2.11a101,101,0,0,0,2.61,13.71c.62,2.43,1.35,4.81,2.16,7.13a82.61,82.61,0,0,0,7.95,16.65q1.49,2.35,3.14,4.59a69.94,69.94,0,0,0,17.53,16.73A69.32,69.32,0,0,0,279.74,407a71.16,71.16,0,0,0,14,4c1.33.24,2.68.44,4,.6a82.12,82.12,0,0,0,13.07.55,93.41,93.41,0,0,0,15.49-1.88c1.28-.26,2.56-.54,3.85-.86a113.62,113.62,0,0,0,16-5.19c.94-.38,1.87-.77,2.81-1.18a132.75,132.75,0,0,0,14-7.15q3.6-2.1,7.16-4.47,3.4-2.25,6.74-4.76c3.15-2.35,6.26-4.86,9.3-7.51q5.82-5.07,11.33-10.86c2.83-3,5.6-6.12,8.28-9.39q4.65-5.64,8.93-11.82c.71-1,1.41-2.06,2.1-3.1q2.72-4.1,5.16-8.26,4.05-6.87,7.35-13.87,3-6.37,5.47-12.82c1.76-4.64,3.28-9.3,4.58-13.93a150.73,150.73,0,0,0,3.41-15.26q1.13-6.6,1.61-13.06c.13-1.77.23-3.53.28-5.28a119.55,119.55,0,0,0-.17-12.15,107.85,107.85,0,0,0-1.72-13.55c-.32-1.69-.68-3.36-1.1-5a88.22,88.22,0,0,0-4.31-13.29c-.8-1.93-1.66-3.81-2.6-5.65a72.34,72.34,0,0,0-5.33-9,69.78,69.78,0,0,0-9.37-11.06,67.78,67.78,0,0,0-9.56-7.65l-1.51-1a68.83,68.83,0,0,0-12.82-6.27,72,72,0,0,0-14.35-3.63,79.48,79.48,0,0,0-11.7-.87c-1.13,0-2.28,0-3.43.06A95.22,95.22,0,0,0,349,174.79c-1.07.24-2.14.5-3.21.79a115.54,115.54,0,0,0-16.2,5.58c-.85.36-1.7.73-2.55,1.12a134.71,134.71,0,0,0-13.37,7Q309.29,191.9,305,194.88Z"/>
    <path class="cls-7"
          d="M330.17,500.68l.31.36.15.17,0,.05q.21.24.39.48l.35.45.07.09a.91.91,0,0,1,.11.16,5.6,5.6,0,0,1,.36.49c.11.15.22.31.32.47a.94.94,0,0,1,.12.18l0,.05c.12.18.24.36.35.54l.15.24.09.16.12.2.08.13c.2.35.39.71.58,1.08h0l.15.3.14.3.09.19c.07.14.14.29.2.43s.07.15.1.23l.17.41a2.29,2.29,0,0,1,.1.23c.06.15.11.3.17.44a1.8,1.8,0,0,1,.08.21c.07.19.14.38.2.57a.41.41,0,0,1,0,.08c.1.28.19.56.27.85s.1.32.14.48a2.17,2.17,0,0,1,.07.24c0,.15.07.3.11.44s.12.46.16.7a1.83,1.83,0,0,1,.06.25c0,.17.07.34.1.51l0,.18.12.7s0,.09,0,.14a.41.41,0,0,1,0,.11c.07.48.13,1,.17,1.44,0,.08,0,.15,0,.23s0,.15,0,.22,0,.18,0,.27,0,.33,0,.49a1.93,1.93,0,0,1,0,.24c0,.24,0,.48,0,.72a24.91,24.91,0,0,1-.42,4.6,2,2,0,0,1-.06.34c-.05.25-.1.49-.16.74,0,0,0,.06,0,.09a24.92,24.92,0,0,1-.88,3,.14.14,0,0,1,0,.06c-.14.38-.29.76-.45,1.13h0c-.16.38-.33.76-.51,1.13-.36.74-.75,1.47-1.18,2.17-.1.17-.21.35-.33.52s-.41.63-.63.93-.27.4-.42.59l-.31.41q-.4.53-.84,1a.87.87,0,0,0-.09.11l-.57.62-.16.18-.87.87-.18.16-.62.57a.87.87,0,0,0-.11.09q-.5.44-1,.84l-.41.31c-.19.15-.39.29-.59.42s-.61.43-.93.63-.35.23-.52.33c-.7.43-1.43.82-2.17,1.18-.37.18-.75.35-1.13.51h0c-.37.16-.75.31-1.13.45l-.06,0a24.92,24.92,0,0,1-3,.88l-.09,0-.74.16a2,2,0,0,1-.34.06,25.36,25.36,0,0,1-9.3,0l-.18,0-.81-.17-.08,0a24.42,24.42,0,0,1-2.84-.83l-.17-.06-.29-.11c-.3-.11-.58-.23-.87-.35s-.76-.33-1.13-.51a23.84,23.84,0,0,1-2.17-1.18l-.53-.33-.17-.12c-.2-.12-.4-.25-.59-.39l-.75-.54-.41-.31-.32-.25-.23-.19-.22-.19-.25-.21-.14-.12-.32-.29-.23-.21a2.09,2.09,0,0,1-.22-.2l-.87-.87-.16-.18-.57-.62a.87.87,0,0,0-.09-.11c-.16-.18-.31-.36-.46-.55l-.13-.15-.57-.73c-.24-.33-.48-.67-.71-1s-.45-.68-.66-1c-.43-.7-.82-1.43-1.18-2.17-.18-.37-.35-.75-.51-1.13h0c-.16-.37-.31-.75-.45-1.13a.14.14,0,0,1,0-.06,24.31,24.31,0,0,1-1-3.6c-.09-.42-.16-.84-.23-1.26a26.29,26.29,0,0,1-.29-3.89c0-.42,0-.84,0-1.26v-.11c0-.56.07-1.11.14-1.65s.11-.9.19-1.34.11-.61.18-.92l0-.13a2.38,2.38,0,0,1,.05-.26c0-.13.07-.27.1-.41l.06-.23.12-.47c0-.06,0-.12.05-.17l0-.1c.12-.43.25-.85.4-1.27.08-.23.16-.46.25-.69s.11-.3.17-.45.05-.13.08-.19.17-.41.26-.61l.18-.4.09-.2c.1-.2.19-.4.29-.59s.13-.27.2-.4l.1-.18v0q.3-.57.63-1.11l.31-.5c.09-.15.18-.29.28-.43a1.84,1.84,0,0,1,.17-.25c.23-.34.46-.67.71-1l0,0c.14-.19.29-.38.44-.56l.34-.42.09-.11c.23-.27.46-.54.7-.8a.46.46,0,0,0,.07-.07,3.69,3.69,0,0,1,.34-.35l.12-.13a.32.32,0,0,1,.1-.1l.37-.37.09-.09c.15-.16.31-.3.47-.44l.1-.09c.12-.11.25-.23.38-.33-1.48,23,1,33.88,11.82,37.1,11.66,3.47,20.09-7.19,21.33-12.65,1.19-5.23.33-20.29-1.06-25.66h0c.36.28.71.55,1,.85h0a1.07,1.07,0,0,1,.16.14l0,0,.31.28h0l.16.14.18.17.2.18.13.11.48.48c.17.16.33.32.48.49h0l.1.11,0,0,.33.36A1.07,1.07,0,0,1,330.17,500.68Z"/>
    <path class="cls-8"
          d="M326.34,497.14c1.39,5.37,2.25,20.43,1.06,25.66-1.24,5.46-9.67,16.12-21.33,12.65-10.82-3.22-13.3-14.13-11.82-37.1a25.53,25.53,0,0,1,32.09-1.21Z"/>
    <path class="cls-6"
          d="M333,426.11c-12.84,4.37-36.4,13.6-55,27.62a457.91,457.91,0,0,0-45.86,39.66l-.76.77-17.12-9.92s.09-.46.25-1.22a63.82,63.82,0,0,1,2.23-8c1.49-4,6.7-31,8.93-52.33s-2.35-69.27-2.35-69.27c2.36,17.44,8.37,33.19,18,45.87,0,0,0,20.17-2.23,36.79s-7.44,38.44-7.44,38.44,20.33-20.33,28-26S290,428.8,290,428.8C303.69,431.12,318.28,430.12,333,426.11Z"/>
    <path class="cls-9"
          d="M232.06,493.39a3.23,3.23,0,0,1,1,4c-1,2.73-32.24,61.76-45.63,83.09s-21.08,33-21.33,39.93-2.1,13.39-6,13.51-8.87.87-16.06-3.59-16.37-12.16-15-16.87,2.61-7.44,6.82-8.93,39.08-61.48,42.11-68.43,31.8-52.1,33-52.85,3.47-.22,3.47-.22c-.16.76-.25,1.22-.25,1.22l17.12,9.92Z"/>
    <path class="cls-10"
          d="M319.43,494.11c1.39,5.37,2.26,20.42,1.07,25.66-1.24,5.46-9.68,16.12-21.33,12.65-10.82-3.22-13.31-14.14-11.82-37.12a25.54,25.54,0,1,0,32.08-1.19Z"/>
    <path class="cls-10" d="M282.57,500.85c.36-.56.74-1.11,1.14-1.64C283.31,499.74,282.93,500.29,282.57,500.85Z"/>
    <path class="cls-10" d="M323.27,497.65l.31.35Z"/>
    <path class="cls-10" d="M319.44,494.11l.53.41Z"/>
    <path class="cls-10" d="M320.67,495.09l.36.32Z"/>
    <path class="cls-10" d="M320.11,494.64l.39.32Z"/>
    <path class="cls-10" d="M322.77,497.1l.36.39Z"/>
    <path class="cls-10" d="M325,499.9l.33.47Z"/>
    <path class="cls-10" d="M324.57,499.25c.14.18.28.37.41.56C324.85,499.62,324.71,499.43,324.57,499.25Z"/>
    <path class="cls-10" d="M323.72,498.18c.11.12.21.24.31.37C323.93,498.42,323.83,498.3,323.72,498.18Z"/>
    <path class="cls-10" d="M324.16,498.71l.35.45Z"/>
    <path class="cls-10" d="M321.19,495.55c.13.11.25.23.37.35C321.44,495.78,321.32,495.66,321.19,495.55Z"/>
    <path class="cls-10" d="M285.48,497.1l.35-.36Z"/>
    <path class="cls-10" d="M285,497.59c.11-.13.22-.25.34-.37C285.26,497.34,285.15,497.46,285,497.59Z"/>
    <path class="cls-10" d="M284.6,498.09l.34-.39Z"/>
    <path class="cls-10" d="M283.74,499.17l.36-.47Z"/>
    <path class="cls-10"
          d="M287.35,495.3c-1.49,23,1,33.9,11.82,37.12,11.65,3.47,20.09-7.19,21.33-12.65,1.19-5.24.32-20.29-1.07-25.66a25.56,25.56,0,0,0-32.57,1.62Z"/>
    <path class="cls-10" d="M284.17,498.61l.34-.41Z"/>
    <path class="cls-10" d="M286.39,496.18l.41-.39Z"/>
    <path class="cls-10" d="M286.3,496.26l-.37.37Z"/>
    <path class="cls-10" d="M325.48,500.54l.26.4Z"/>
    <path class="cls-10" d="M282.23,501.4l.31-.5Z"/>
    <path class="cls-10" d="M278.58,514.56c0-.23,0-.46,0-.69C278.59,514.1,278.58,514.33,278.58,514.56Z"/>
    <path class="cls-10" d="M329.27,510c0,.23.08.46.11.7C329.35,510.46,329.31,510.23,329.27,510Z"/>
    <path class="cls-10" d="M329.51,511.65c0,.15,0,.31.05.46C329.54,512,329.52,511.8,329.51,511.65Z"/>
    <path class="cls-10" d="M329.4,510.84c0,.18.06.37.08.56C329.46,511.21,329.43,511,329.4,510.84Z"/>
    <path class="cls-10" d="M329.13,509.31c0,.17.07.34.1.51C329.2,509.65,329.17,509.48,329.13,509.31Z"/>
    <path class="cls-10" d="M329,508.62c0,.15.07.29.1.44C329.05,508.91,329,508.77,329,508.62Z"/>
    <path class="cls-10" d="M329.63,513.11c0,.16,0,.33,0,.49C329.65,513.44,329.64,513.27,329.63,513.11Z"/>
    <path class="cls-10" d="M329.66,513.83c0,.25,0,.49,0,.73C329.67,514.32,329.67,514.08,329.66,513.83Z"/>
    <path class="cls-10" d="M322.67,497c-.32-.34-.65-.66-1-1C322,496.33,322.35,496.65,322.67,497Z"/>
    <path class="cls-10" d="M329.58,512.38l0,.46Z"/>
    <path class="cls-10" d="M325.87,501.14l.24.4Z"/>
    <path class="cls-10" d="M328.8,507.92c0,.15.08.29.11.44C328.88,508.21,328.84,508.07,328.8,507.92Z"/>
    <path class="cls-10" d="M328.59,507.2l.15.48Z"/>
    <path class="cls-10" d="M326.56,502.33l.32.61Z"/>
    <path class="cls-10" d="M326.22,501.73l.25.44Z"/>
    <path class="cls-10" d="M327.27,503.75c.07.14.14.29.2.43C327.41,504,327.34,503.89,327.27,503.75Z"/>
    <path class="cls-10" d="M326.89,503l.3.61Z"/>
    <path class="cls-10" d="M328.33,506.35l.21.66Z"/>
    <path class="cls-10" d="M327.57,504.41l.18.41Z"/>
    <path class="cls-10" d="M328.09,505.7l.21.57Z"/>
    <path class="cls-10" d="M327.84,505.05c.06.15.12.3.17.44C328,505.35,327.9,505.2,327.84,505.05Z"/>
    <path class="cls-10" d="M320.85,533.88c-.47.4-1,.78-1.44,1.15C319.9,534.66,320.38,534.28,320.85,533.88Z"/>
    <path class="cls-10" d="M287.41,533.88c-.31-.27-.61-.54-.91-.83C286.8,533.34,287.1,533.61,287.41,533.88Z"/>
    <path class="cls-10" d="M295.93,538.77c-.59-.21-1.17-.43-1.75-.67C294.76,538.34,295.34,538.56,295.93,538.77Z"/>
    <path class="cls-10" d="M293.05,537.59c-.74-.36-1.47-.75-2.17-1.18C291.58,536.84,292.31,537.23,293.05,537.59Z"/>
    <path class="cls-10" d="M300.24,539.81c-.64-.09-1.26-.21-1.88-.36C299,539.6,299.6,539.72,300.24,539.81Z"/>
    <path class="cls-10" d="M285.64,532.19c-.29-.3-.56-.6-.83-.91C285.08,531.59,285.35,531.89,285.64,532.19Z"/>
    <path class="cls-10" d="M283.66,529.85c-.37-.5-.72-1-1.05-1.52C282.94,528.85,283.29,529.35,283.66,529.85Z"/>
    <path class="cls-10" d="M314.07,538.1c-.57.24-1.16.46-1.75.67C312.91,538.56,313.5,538.34,314.07,538.1Z"/>
    <path class="cls-10" d="M288.84,535c-.49-.37-1-.75-1.43-1.15C287.87,534.28,288.35,534.66,288.84,535Z"/>
    <path class="cls-10" d="M281.9,502l.26-.44Z"/>
    <path class="cls-10" d="M290.36,536.08c-.52-.33-1-.68-1.52-1.05C289.34,535.4,289.84,535.75,290.36,536.08Z"/>
    <path class="cls-10" d="M309.9,539.45c-.62.15-1.25.27-1.88.36C308.65,539.72,309.28,539.6,309.9,539.45Z"/>
    <path class="cls-10" d="M323.44,531.28c-.26.31-.54.61-.82.91C322.9,531.89,323.18,531.59,323.44,531.28Z"/>
    <path class="cls-10" d="M328.33,522.76c-.2.59-.42,1.17-.66,1.75C327.91,523.93,328.13,523.35,328.33,522.76Z"/>
    <path class="cls-10" d="M317.37,536.41a23.84,23.84,0,0,1-2.17,1.18A23.84,23.84,0,0,0,317.37,536.41Z"/>
    <path class="cls-10" d="M329.38,518.45c-.1.64-.22,1.26-.36,1.88C329.16,519.71,329.28,519.09,329.38,518.45Z"/>
    <path class="cls-10" d="M327.15,525.64c-.35.74-.75,1.47-1.17,2.17C326.4,527.11,326.8,526.38,327.15,525.64Z"/>
    <path class="cls-10" d="M321.75,533.05c-.29.29-.6.56-.9.83C321.15,533.61,321.46,533.34,321.75,533.05Z"/>
    <path class="cls-10" d="M319.41,535c-.49.37-1,.72-1.51,1.05C318.42,535.75,318.92,535.4,319.41,535Z"/>
    <path class="cls-10" d="M324.6,529.85c-.37.49-.75,1-1.16,1.43C323.85,530.82,324.23,530.34,324.6,529.85Z"/>
    <path class="cls-10" d="M325.65,528.33c-.33.52-.68,1-1,1.52C325,529.35,325.32,528.85,325.65,528.33Z"/>
    <path class="cls-10" d="M284.81,531.28c-.4-.46-.78-.94-1.15-1.43C284,530.34,284.41,530.82,284.81,531.28Z"/>
    <path class="cls-10" d="M280.22,505.55l.17-.45Z"/>
    <path class="cls-10" d="M280.47,504.91c.06-.14.11-.28.17-.41C280.58,504.63,280.53,504.77,280.47,504.91Z"/>
    <path class="cls-10" d="M280,506.24c.06-.18.12-.35.19-.52C280.09,505.89,280,506.06,280,506.24Z"/>
    <path class="cls-10" d="M279.54,507.61c.12-.43.25-.85.4-1.27C279.79,506.76,279.66,507.18,279.54,507.61Z"/>
    <path class="cls-10" d="M279.37,508.25l.12-.47Z"/>
    <path class="cls-10" d="M281,503.69l.18-.39Z"/>
    <path class="cls-10" d="M282.28,527.81c-.43-.7-.82-1.43-1.18-2.17C281.46,526.38,281.85,527.11,282.28,527.81Z"/>
    <path class="cls-10" d="M281.29,503.11l.21-.4Z"/>
    <path class="cls-10" d="M279.22,508.89l.09-.41Z"/>
    <path class="cls-10" d="M280.73,504.29l.18-.39Z"/>
    <path class="cls-10" d="M281.59,502.53c.07-.14.15-.28.23-.41C281.74,502.25,281.66,502.39,281.59,502.53Z"/>
    <path class="cls-10" d="M279.24,520.33c-.15-.62-.27-1.24-.36-1.88C279,519.09,279.09,519.71,279.24,520.33Z"/>
    <path class="cls-10" d="M278.6,513.65c0-.16,0-.31,0-.46C278.61,513.34,278.61,513.49,278.6,513.65Z"/>
    <path class="cls-10" d="M280.59,524.51c-.24-.58-.46-1.16-.67-1.75C280.13,523.35,280.35,523.93,280.59,524.51Z"/>
    <path class="cls-10" d="M278.64,512.92c0-.14,0-.28,0-.42C278.65,512.64,278.65,512.78,278.64,512.92Z"/>
    <path class="cls-10" d="M278.85,510.87l.06-.39Z"/>
    <path class="cls-10" d="M279.08,509.54c0-.13.05-.26.08-.39C279.13,509.28,279.1,509.41,279.08,509.54Z"/>
    <path class="cls-10" d="M279,510.2c0-.13.05-.26.07-.39C279,509.94,279,510.07,279,510.2Z"/>
    <path class="cls-10" d="M278.76,511.54c0-.13,0-.26.05-.39C278.79,511.28,278.78,511.41,278.76,511.54Z"/>
    <path class="cls-10" d="M278.69,512.22c0-.13,0-.26,0-.39C278.71,512,278.7,512.09,278.69,512.22Z"/>
    <ellipse class="cls-10" cx="331.98" cy="289.2" rx="129.77" ry="93.55"
             transform="translate(-92.47 406.19) rotate(-56.47)"/>
    <path class="cls-10"
          d="M283,425.74c45.09,7.77,100.42-20.79,135.88-74.3,43.84-66.16,40.72-145.42-7-177S290,170.82,246.14,237C209,293,205.56,358.5,234.39,396.41"/>
    <path class="cls-10"
          d="M216.34,350.43s4.58,47.94,2.35,69.27-7.44,48.36-8.93,52.33a66.63,66.63,0,0,0-2.48,9.17l17.11,9.92A451.47,451.47,0,0,1,271,450.7c27-20.34,64.41-30.58,64.41-30.58"/>
    <path class="cls-10"
          d="M234.32,396.3s0,20.17-2.24,36.79-7.44,38.44-7.44,38.44,20.34-20.34,28-26,30.46-19.72,30.46-19.72"/>
    <path class="cls-10"
          d="M225.15,490.36a3.24,3.24,0,0,1,1,4c-1,2.73-32.24,61.75-45.64,83.08s-21.08,33-21.33,39.93-2.09,13.4-6,13.52-8.88.87-16.07-3.6-16.37-12.15-15-16.86,2.6-7.44,6.82-8.93S168,540,171,533.05s31.8-52.09,33-52.84,3.48-.22,3.48-.22"/>
    <line class="cls-10" x1="260.3" y1="397.37" x2="389.33" y2="173.79"/>
    <line class="cls-10" x1="272.83" y1="403.93" x2="402.16" y2="180.06"/>
    <line class="cls-10" x1="286.86" y1="407.9" x2="413.22" y2="188.68"/>
    <line class="cls-10" x1="303.96" y1="409.05" x2="422.6" y2="199.73"/>
    <line class="cls-10" x1="430.52" y1="214.4" x2="319.44" y2="407.17"/>
    <line class="cls-10" x1="342.07" y1="399.94" x2="435.94" y2="232.69"/>
    <line class="cls-10" x1="437.83" y1="258.4" x2="363.28" y2="388.32"/>
    <line class="cls-10" x1="249.31" y1="388.32" x2="374.98" y2="170.15"/>
    <line class="cls-10" x1="359.85" y1="169.36" x2="239.63" y2="376.04"/>
    <line class="cls-10" x1="231.68" y1="359.39" x2="342.07" y2="171.76"/>
    <line class="cls-10" x1="322.67" y1="178.13" x2="226.91" y2="338.57"/>
    <line class="cls-10" x1="226.41" y1="314.92" x2="298.09" y2="191.84"/>
    <line class="cls-10" x1="242.75" y1="380.62" x2="291.83" y2="409.05"/>
    <line class="cls-10" x1="229.5" y1="352.26" x2="324.82" y2="407.17"/>
    <line class="cls-10" x1="339.27" y1="401.12" x2="226.41" y2="336.29"/>
    <line class="cls-10" x1="226.41" y1="318.82" x2="356.13" y2="392.79"/>
    <line class="cls-10" x1="370.02" y1="383.56" x2="227.59" y2="304.39"/>
    <line class="cls-10" x1="230.7" y1="289.2" x2="379.32" y2="376.04"/>
    <line class="cls-10" x1="390.65" y1="365.18" x2="234.62" y2="276.3"/>
    <line class="cls-10" x1="239.63" y1="263.68" x2="398.93" y2="355.8"/>
    <line class="cls-10" x1="407.86" y1="343.98" x2="246.05" y2="250.7"/>
    <line class="cls-10" x1="254" y1="237.53" x2="415.12" y2="332.62"/>
    <line class="cls-10" x1="422.6" y1="318.82" x2="262.25" y2="226.07"/>
    <line class="cls-10" x1="271.35" y1="215.32" x2="427.94" y2="305.93"/>
    <line class="cls-10" x1="432.52" y1="292" x2="280.92" y2="205.7"/>
    <line class="cls-10" x1="294.3" y1="194.57" x2="435.94" y2="276.74"/>
    <line class="cls-10" x1="437.54" y1="263.68" x2="306.75" y2="186.26"/>
    <line class="cls-10" x1="320.11" y1="179.25" x2="437.65" y2="246.25"/>
    <line class="cls-10" x1="434.85" y1="227.69" x2="337.5" y2="171.76"/>
    <line class="cls-10" x1="363.28" y1="169.36" x2="427.94" y2="208.76"/>
</svg>