<?xml version="1.0" encoding="utf-8"?>
<!-- Generator: Adobe Illustrator 27.5.0, SVG Export Plug-In . SVG Version: 6.00 Build 0)  -->
<svg version="1.1" xmlns="http://www.w3.org/2000/svg" xmlns:xlink="http://www.w3.org/1999/xlink" x="0px" y="0px"
	viewBox="0 0 800 800" style="enable-background:new 0 0 800 800;" xml:space="preserve">
	<g id="objetcs">
	</g>
	<g>
		<path style="fill:#CADCC6;"
			d="M698.945,90.88c-8.566-16.244-27.289-24.491-44.88-19.832c-8.551,2.264-16.275,8.593-21.426,15.583
			c-6.13,8.319-9.128,17.292-8.121,27.635c0.154,1.586,0.748,2.95,1.615,4.062c-0.011,2.891,0.48,5.844,1.594,8.821
			c3.484,9.319,12.531,15.361,22.152,16.299c1.403,2.567,3.944,4.588,7.739,5.259c14.926,2.641,30.797-2.324,39.42-15.336
			C705.623,120.418,706.159,104.561,698.945,90.88z M655.898,110.25c-0.327,0.517-0.682,1.034-1.093,1.585
			c-0.032,0.044-0.216,0.246-0.441,0.497c0.013-0.133,0.025-0.334,0.037-0.557C654.933,111.335,655.435,110.829,655.898,110.25z" />
		<path style="fill:#D2F3C8;" d="M694.454,143.755c-1.587-0.63-3.325-0.692-4.966-0.32c-5.646-3.123-14.011,0.963-13.244,8.393
			c0.092,0.895,0.239,1.811,0.421,2.741c-1.105,2.404-1.113,5.339-1.48,8.069c-0.544,4.052-1.054,8.665-3.598,12.01
			c-3.516,4.62-1.171,10.018,2.956,11.914c0.922,6.921,10.001,11.695,16.18,4.948c1.178-1.286,2.193-2.621,3.074-4
			c4.222-5.354,8.621-10.718,10.879-17.179C708.146,160.396,704.975,147.936,694.454,143.755z" />
		<g>
			<g>
				<path style="fill:#3B0F06;" d="M704.53,70.249c-15.942-10.629-42.982-15.533-56.862,1.229c-0.176,0.212-0.242,0.439-0.26,0.663
					c-14.824,9.144-23.29,29.364-24.006,45.781c-0.44,10.101,1.154,23.339,10.271,29.484c8.729,5.884,21.505,1.763,30.857,0.052
					c0.215-0.04,0.431-0.065,0.646-0.102c2.825,6.835,5.526,12.846,2.883,20.536c-1.417,4.118-3.876,8.031-3.537,12.531
					c0.69,9.163,16.807,10.536,23.33,9.022c18.905-4.387,25.988-32.405,9.632-43.401c1.5-0.193,2.995-0.447,4.484-0.787
					c12.142-2.775,21.171-11.097,25.346-22.825C734.614,101.923,721.169,81.342,704.53,70.249z M703.117,170.111
					c-2.232,9.083-10.171,16.495-19.463,17.567c-5.118,0.59-12.502-1.417-15.968-5.315c-3.079-3.462,0.97-10.077,2.247-13.609
					c2.936-8.122,0.442-14.786-3.687-21.567c1.302-0.19,2.607-0.32,3.916-0.421c1.112,3.843,2.934,7.407,3.607,11.399
					c0.783,4.637-1.099,9.002-2.348,13.374c-0.165,0.576,0.688,0.921,1.031,0.477c6.036-7.818,4.011-17.539-0.979-25.329
					c7.429-0.437,14.934,0.206,22.352-0.295c-0.101,0.515,0.034,1.057,0.546,1.419C702.115,153.283,705.418,160.747,703.117,170.111
					z M699.825,142.488c-12.661,2.501-25.648,0.042-38.38,2.508c-5.678,1.1-11.322,2.296-17.131,2.319
					c-8.642,0.034-13.477-5.225-16.176-12.952c-8.609-24.647,7.231-58.301,32.368-65.722c0.64-0.189,0.413-1.225-0.245-1.139
					c-0.289,0.038-0.569,0.096-0.855,0.141c6.539-2.773,13.368-3.861,21.256-2.758c11.668,1.632,22.563,7.812,31.045,15.802
					c8.517,8.022,14.164,19.032,14.176,30.837C725.898,126.878,714.552,139.58,699.825,142.488z" />
				<path style="fill:#3B0F06;" d="M667.426,136.872c-7.479-3.006-15.705-6.083-23.555-8.061c-1.232-0.31-1.911,0.994-1.691,2.001
					c0.452,2.072,0.363,4.155,0.514,6.228c-4.069-2.336-6.892-5.548-8.72-10.214c-0.171-0.436-0.823-0.298-0.797,0.171
					c0.369,6.557,5.521,10.502,10.69,13.746c0.863,0.542,2.101-0.415,1.95-1.366c-0.365-2.309-0.218-4.635-0.394-6.943
					c7.016,2.384,14.267,7.187,21.652,6.425C668.074,138.755,668.431,137.275,667.426,136.872z" />
			</g>
		</g>
	</g>
	</g>
</svg>