<?xml version="1.0" encoding="utf-8"?>
<!-- Generator: Adobe Illustrator 27.5.0, SVG Export Plug-In . SVG Version: 6.00 Build 0)  -->
<svg version="1.1" xmlns="http://www.w3.org/2000/svg" xmlns:xlink="http://www.w3.org/1999/xlink" x="0px" y="0px"
	 viewBox="0 0 800 800" style="enable-background:new 0 0 800 800;" xml:space="preserve">
<g id="objetcs">
	</g>
	<g>
		<path style="fill:#8BD95F;" d="M267.684,697.499c-1.243-8.076-7.225-13.767-13.857-17.852c-1.097-0.675-2.236-1.258-3.399-1.79
			c-8.08-8.106-20.458-12.991-31.926-14.083c-2.107-4.89-5.159-9.372-8.689-13.487c-6.838-9.807-15.371-18.261-26.12-23.137
			c-8.736-12.511-17.294-25.065-30.659-33.385c-9.804-6.103-20.778-7.525-31.945-5.125c-9.261,1.99-15.267,10.506-14.596,19.765
			c0.371,5.121,2.629,10.005,5.528,14.413c0.842,2.253,2.015,4.463,3.399,6.553c5.089,7.681,13.107,13.633,21.004,18.125
			c0.126,0.072,0.259,0.14,0.387,0.211c1.668,1.144,3.389,2.173,5.138,3.138c0.537,3.989,2.433,8.013,5.046,11.679
			c4.763,6.685,11.159,12.521,17.544,17.634c2.442,1.957,5.021,3.736,7.736,5.297c-3.789-2.178,2.204,1.379,3.479,2.119
			c1.773,1.029,3.612,1.94,5.473,2.8c3.066,1.415,6.376,2.671,9.754,3.447c8.021,7.982,16.951,15.35,27.039,20.154
			c12.143,5.784,29.316,7.281,41.24,0.111C264.961,710.657,268.724,704.262,267.684,697.499z"/>
		<path style="fill:#6EAB81;" d="M119.992,569.667c-4.444-1.92-8.511-3.79-13.424-3.924c-2.952-0.08-4.55,2.329-4.704,4.856
			c-0.486,1.511-0.489,3.301-0.534,4.8c-0.054,1.828-0.022,3.711-0.087,5.582c-1.085,2.9-2.614,5.601-4.884,8.008
			c-3.699,3.922,2.094,9.975,6.35,6.88c1.682-1.224,3.331-2.508,4.943-3.844c1.338-0.384,2.544-1.274,3.264-2.765
			c0.021-0.043,0.036-0.087,0.056-0.13c3.987-3.65,7.64-7.673,10.703-12.092C123.375,574.587,123.013,570.973,119.992,569.667z"/>
		<g>
			<g>
				<path style="fill:#3B0F06;" d="M93.248,558.398c-7.39-8.618-20.792-10.394-30.939-5.048
					c-9.782,5.154-13.176,20.027-4.435,27.693c7.718,6.769,14.645-2.244,11.59-10.144c-0.265-0.687-1.19-0.406-1.197,0.269
					c-0.04,3.487,0.649,9.103-4.027,9.813c-3.965,0.601-7.037-3.637-8.244-6.774c-4.761-12.368,7.882-21.049,18.571-21.42
					c3.881-0.135,7.318,0.688,10.285,2.212c1.921,2.765,4.45,4.82,7.363,6.398c2.59,3.534,4.316,7.876,5.064,12.538
					c1.298,8.094-0.21,16.418-1.957,24.436c-0.9,0.5-1.814,0.987-2.759,1.445c-0.726,0.353-0.349,1.436,0.44,1.187
					c0.631-0.198,1.259-0.416,1.882-0.65c-0.215,0.966-0.43,1.929-0.641,2.884c-0.055,0.248,0.314,0.353,0.417,0.13
					c0.525-1.14,1.008-2.319,1.468-3.517c1.492-0.617,2.962-1.316,4.404-2.106c-1.619,15.255,7.069,31.372,15.237,43.365
					c11.768,17.28,27.545,31.845,43.823,44.792c18.127,14.42,37.313,26.784,59.834,33.045c10.654,2.961,21.005,3.529,31.568,0.021
					c9.795-3.253,18.821-8.259,28.622-11.597c0.172,0.535,0.344,1.069,0.497,1.616c0.111,0.395,0.73,0.238,0.692-0.155
					c-0.059-0.601-0.152-1.19-0.249-1.778c0.409-0.134,0.81-0.284,1.222-0.412c1.352-0.418,0.858-2.717-0.55-2.448
					c-0.409,0.078-0.806,0.188-1.212,0.275c-2.636-10.004-10.563-18.021-18.685-24.066c-9.412-7.005-22.163-13.786-34.003-15.284
					c-4.036-9.647-10.307-18.747-17.48-26.2c-6.548-6.804-17.155-16.247-27.443-16.059c-5.098-10.133-12.686-18.602-21.204-26.087
					c-9.009-7.915-22.398-17.678-34.779-18.523c-0.656-0.044-0.976,0.802-0.349,1.121c4.892,2.492,10.254,4.006,15.19,6.482
					c6.134,3.076,11.794,7.058,17.133,11.345c8.99,7.22,16.556,16.18,23.072,25.686c-0.047,0.004-0.095-0.001-0.142,0.003
					c-0.658,0.057-0.822,0.985-0.218,1.259c0.569,0.258,1.142,0.501,1.716,0.734c0.117,0.175,0.24,0.348,0.355,0.523
					c0.136,0.205,0.488,0.021,0.385-0.206c-0.006-0.013-0.013-0.024-0.018-0.037c3.8,1.484,7.665,2.604,11.308,4.655
					c5.053,2.844,9.432,6.849,13.489,10.941c7.167,7.232,12.559,15.879,17.285,24.831c-0.012,0.184,0.067,0.364,0.254,0.487
					c0.457,0.872,0.917,1.744,1.362,2.621c0.4,0.785,1.632,0.383,1.316-0.489c-0.138-0.379-0.306-0.752-0.451-1.131
					c10.422,4.485,20.931,7.674,30.593,14.096c9.039,6.008,16.13,13.686,19.997,23.598c-8.217,2.009-15.694,5.873-23.418,9.312
					c-11.025,4.907-21.625,5.319-33.308,2.488c-22.871-5.543-42.288-18.577-60.526-32.934
					c-15.425-12.142-29.896-25.848-41.604-41.657c-10.364-13.994-16.254-28.632-16.931-45.628
					c9.9-6.157,18.371-15.983,24.192-25.259c0.284-0.454,0.254-0.93,0.07-1.318c0.444,0.139,0.88,0.283,1.307,0.436
					c0.504,0.181,1.057-0.528,0.535-0.857c-5.773-3.627-12.252-4.699-18.888-5.787C103.799,562.524,98.391,561.01,93.248,558.398z
					 M102.855,593.438c-0.003-0.509-0.018-1.011-0.011-1.523c0.009-0.712-0.974-0.622-1.146-0.05
					c-0.292,0.978-0.53,1.962-0.725,2.951c-1.28,0.905-2.6,1.769-3.965,2.589c3.679-10.988,4.379-23.731-0.612-34.134
					c9.021,3.33,20.292,3.689,29.002,5.992c-0.084,0.068-0.171,0.121-0.249,0.221C118.295,578.313,111.518,586.832,102.855,593.438z
					"/>
				<path style="fill:#3B0F06;" d="M168.058,621.169c-1.791,4.616-3.731,8.835-7.512,12.192c-4.057,3.604-8.937,4.677-13.996,6.054
					c-0.572,0.156-0.484,1.115,0.107,1.164c10.563,0.88,22.724-8.12,22.529-19.215C169.175,620.776,168.269,620.626,168.058,621.169
					z"/>
				<path style="fill:#3B0F06;" d="M216.168,664.958c-4.221,2.845-7.551,6.809-11.855,9.629c-5.094,3.337-10.618,4.104-16.564,3.41
					c-0.619-0.072-0.992,0.871-0.34,1.094c10.727,3.674,23.94-4.111,29.638-13.198C217.421,665.296,216.816,664.521,216.168,664.958
					z"/>
				<path style="fill:#3B0F06;" d="M261.181,697.419c-10.61,6.108-20.525,9.129-32.743,6.088c-0.292-0.073-0.423,0.379-0.154,0.495
					c10.845,4.678,25.024,2.522,33.607-5.827C262.348,697.731,261.654,697.148,261.181,697.419z"/>
			</g>
		</g>
	</g>
	
</g>
</svg>
