<?xml version="1.0" encoding="utf-8"?>
<!-- Generator: Adobe Illustrator 27.5.0, SVG Export Plug-In . SVG Version: 6.00 Build 0)  -->
<svg version="1.1" xmlns="http://www.w3.org/2000/svg" xmlns:xlink="http://www.w3.org/1999/xlink" x="0px" y="0px"
	 viewBox="0 0 800 800" style="enable-background:new 0 0 800 800;" xml:space="preserve">
<g id="background">
	<rect style="fill:#FFFFFF;" width="800" height="800"/>
</g>
<g id="objetcs">
	<g>
		<path style="fill:#F4D07C;" d="M177.276,91.494c-4.924-8.89-16.971-12.215-26.258-13.381c-8.887-1.116-17.932-0.69-26.724,0.953
			c-0.862-0.271-1.724-0.543-2.587-0.808c-5.049-1.545-10.86-3.429-16.435-3.507c-0.07-1.851-0.621-3.672-1.625-5.106
			c-1.741-2.487-4.186-3.681-6.774-3.83c-3.262-3.908-10.005-2.08-11.105,3.02c-1.02,0.41-1.936,1.018-2.701,1.864
			c-6.07,1.952-8.415,11.692-1.25,14.223c1.095,0.386,2.066,0.856,2.946,1.392c0.023,2.513,0.115,4.82,0.084,6.593
			c-0.03,1.739-0.023,3.447-0.004,5.127c-3.507,14.772-8.215,29.06-14.387,43.04c-2.277,5.16-0.031,9.481,3.608,11.603
			c1.053,4.501,3.303,8.605,7.154,11.678c0.226,1.947,1.179,3.88,3.103,5.512c12.241,10.384,27.926,12.765,43.615,11.54
			c1.435-0.112,2.897-0.277,4.368-0.471c4.685-0.438,9.333-1.585,13.533-2.958c0.202-0.066,0.378-0.159,0.568-0.238
			c9.26-3.077,17.867-8.143,23.453-15.855c6.645-9.175,9.58-19.935,9.001-30.586C182.902,117.827,183.8,103.273,177.276,91.494z"/>
		<g>
			<g>
				<path style="fill:#3B0F06;" d="M186.257,122.843c4.794-15.525,2.333-33.842-12.864-42.456
					c-12.57-7.125-28.849-5.256-42.689-5.321c-13.429-0.063-30.487-0.912-33.51-17.045c-0.42-2.245-0.478-4.548-0.46-6.824
					c0.007-0.883-1.249-1.208-1.756-0.552c-3.106,4.02-6.732,7.684-9.401,12.017c-1.979-2.367-4.303-4.413-6.153-6.899
					c-0.643-0.864-1.998-0.163-1.668,0.861c1.614,5.012,0.479,10.276,0.826,15.431c0.093,1.375-6.473,3.221-10.729,4.205
					c-1.074-0.214-2.139-0.38-3.169-0.491c-0.792-0.086-1.014,0.929-0.372,1.235c-0.389,0.233-0.25,0.915,0.297,0.914
					c0.814-0.002,1.619-0.072,2.418-0.184c6.351,1.727,12.575,4.27,14.542,11.24c1.861,6.592-1.158,14.3-3.455,20.375
					c-5.652,14.948-14.327,29.297-16.061,45.451c-1.549,14.427,6.397,26.115,20.105,30.492c15.326,4.892,32.592,2.191,48.325,1.464
					c7.654-0.354,15.553-0.517,23.073,1.165c5.179,1.159,8.551,3.654,11.315,7.315c-0.033,1.304,0.002,2.62,0.162,3.959
					c0.168,1.418,2.377,1.238,2.208-0.181c-0.006-0.056-0.006-0.111-0.012-0.168c0.123,0.214,0.247,0.425,0.369,0.644
					c0.352,0.63,1.232,0.165,1.22-0.44c-0.046-2.312-0.631-4.265-1.602-5.925c0.297-3.17,1.011-6.28,1.723-9.444
					c2.28,1.038,4.718,1.62,7.018,2.596c0.69,0.589,1.465,0.951,2.346,0.946c1.295-0.007,1.363-1.749,0.401-2.277
					c-0.51-0.28-1.035-0.52-1.564-0.744c-2.033-2.597-3.685-12.396-3.879-14.54c-0.513-5.663,0.632-11.371,2.134-16.802
					C178.232,142.597,183.116,133.013,186.257,122.843z M171.256,175.213c0.429,1.789,1.165,5.065,2.41,7.748
					c-1.719-0.552-3.438-1.104-5.043-1.986c-0.663-0.364-1.455,0.161-1.595,0.836c-0.62,2.984-1.311,5.899-1.746,8.836
					c-5.74-5.67-17.165-6.57-24.313-6.645c-17.043-0.179-34.046,3.331-51.066,0.904c-7.778-1.109-15.43-3.955-20.603-10.102
					c-5.279-6.273-6.021-14.543-4.86-22.352c2.441-16.424,11.927-30.898,17.141-46.456c2.055-6.132,3.781-13.247,1.283-19.506
					c-2.03-5.085-6.996-8.019-12.202-9.542c3.033-0.849,6.016-2.045,9.061-2.693c0.437-0.093,0.852-0.419,0.784-0.924
					c-0.614-4.555,0.248-9.121-0.221-13.627c1.573,1.7,3.225,3.326,4.61,5.2c0.456,0.618,1.313,0.488,1.668-0.15
					c2.196-3.955,5.331-7.279,8.235-10.741c0.245,5.447,1.537,11.005,5.371,15.068c3.982,4.219,9.47,6.085,15.055,7.083
					c14.716,2.63,29.886,0.069,44.662,2.539c7.344,1.228,14.466,4.098,19.384,9.876c6.536,7.68,7.495,18.295,5.672,27.827
					C181.208,135.941,166.286,154.468,171.256,175.213z"/>
				<path style="fill:#3B0F06;" d="M143.096,174.47c-8.415-0.96-16.374-0.509-24.553-3.299c-7.866-2.684-14.638-7.768-19.34-14.606
					c-6.098-8.868-6.56-19.168-4.954-29.462c1.354-8.674,2.624-17.377-3.428-24.613c-0.108-0.129-0.294,0.004-0.212,0.149
					c6.267,11.2,1.504,22.301,1.025,34.186c-0.343,8.525,3.182,17.203,8.392,23.811c9.115,11.561,28.769,18.741,43.152,14.812
					C143.665,175.314,143.59,174.527,143.096,174.47z"/>
				<path style="fill:#3B0F06;" d="M157.144,135.854c-1.951-8.373-5.481-15.896-11.1-22.437
					c-5.513-6.418-12.402-10.47-20.206-13.439c-8.578-3.264-16.003-6.332-20.581-14.833c-0.306-0.568-1.226-0.069-0.997,0.514
					c2.565,6.501,7.602,10.34,13.802,13.183c7.857,3.603,15.403,5.837,22.09,11.635c7.146,6.196,11.763,14.441,14.271,23.472
					c2.384,8.579,1.367,17.393,3.104,25.983c0.122,0.605,0.988,0.722,1.121,0.052C160.159,152.371,158.889,143.344,157.144,135.854z
					"/>
			</g>
		</g>
	</g>
	<g>
		<path style="fill:#8275AA;" d="M165.837,419.718c-0.781-4.454-1.748-8.974-2.958-13.45c-0.46-4.313-1.12-8.616-2.069-12.909
			c-0.342-1.543-0.733-3.073-1.161-4.592c0.007-0.492-0.019-0.989-0.117-1.491c-2.604-13.345-2.596-27.103-5.337-40.466
			c-3.185-15.526-8.081-32.812-22.504-41.515c-16.622-10.031-37.385,1.819-48.65,14.443c-15.079,16.898-22.503,41.213-26.272,63.091
			c-3.1,17.996-3.277,37.359-1.921,55.533c1.494,20.015,7.379,40.307,20.911,55.569c6.192,6.983,13.413,14.384,22.195,17.994
			c5.041,2.072,10.021,2.383,14.892,1.613c4.375,1.262,9.183,1.278,13.832,0.228c12.492-2.821,21.122-14.783,26.72-25.432
			c2.12-4.031,3.975-8.425,5.403-12.981c2.398-2.012,3.712-5.186,3.726-8.582c0.004-1.05,0.023-2.101,0.039-3.151
			c0.177-0.293,0.348-0.593,0.5-0.912C169.309,449.6,168.276,433.625,165.837,419.718z"/>
		<path style="fill:#6EAB81;" d="M139.008,283.236c-2.092-3.114-4.456-6.034-6.845-8.935c-0.094-0.176-0.191-0.35-0.285-0.525
			c-0.879-1.654-1.724-3.33-2.546-5.017c0.62-9.42,0.077-19.316-3.575-27.662c0.03-2.65-0.073-5.306-0.39-7.972
			c-0.589-4.957-5.451-6.17-8.669-4.288c-3.132-1.804-8.051-0.636-8.715,3.77c-1.167,7.743-2.171,15.5-4.26,23.065
			c-0.996,3.608-2.498,7.119-4.476,10.307c-3.196,2.58-6.544,4.921-10.262,6.659c-7.269,3.44-3.261,15.245,4.24,11.916
			c1.545-0.686,3.028-1.452,4.47-2.274c0.476,0.051,0.962,0.041,1.454-0.057c3.196-0.635,6.288-1.69,9.192-3.104
			c0.943,0.022,1.906-0.13,2.818-0.448c0.838,2.941,2.16,5.781,4.164,8.472c0.717,0.963,1.628,1.661,2.631,2.121
			c0.535,1.005,1.083,2.003,1.637,2.99c0.544,0.972,1.249,1.622,2.032,2.007c1.671,3.24,7.72,2.85,8.342-1.398
			c0.07-0.475,0.126-0.953,0.184-1.429c0.089,0.158,0.178,0.317,0.268,0.475c0.92,1.632,1.835,3.269,2.734,4.914
			c1.631,3.433,2.327,7.123,3.676,10.648c2.246,5.871,9.526,3.998,10.604-0.938c0.062,0.011,0.123,0.022,0.185,0.033
			C148.557,298.068,143.582,290.045,139.008,283.236z"/>
		<g>
			<g>
				<path style="fill:#3B0F06;" d="M130.835,232.287c-9.191,17.336-1.605,32.87,6.912,48.542c5.132,9.446,9.212,19.085,9.267,30.006
					c0.025,5.145-1.741-0.206-2.341-1.409c-0.23-0.462-0.492-0.915-0.751-1.366c-0.013-0.83-0.038-1.658-0.042-2.491
					c-0.005-1.078-1.477-1.371-2.053-0.691c-0.623-0.841-1.266-1.664-1.934-2.445c-3.549-4.147-7.53-7.706-12.106-10.682
					c-0.764-0.496-1.525,0.324-1.567,1.034c-0.156,2.627-0.72,5.175-1.264,7.729c-2.731-9.028-7.108-16.718-16.503-20.763
					c-0.477-0.205-0.937-0.107-1.305,0.251c-2.833,2.757-6.612,4.615-9.328,7.496c-1.331-2.258-3.32-4.048-4.276-6.565
					c-0.206-0.543-0.709-0.775-1.261-0.646c-5.34,1.254-11.152,1.845-15.95,4.64c9.323-8.613,20.078-15.508,27.336-26.14
					c6.949-10.178,10.349-22.336,14.663-33.784c2.857,3.584,7.577,4.719,11.696,6.802c0.88,0.445,1.564-0.714,0.93-1.374
					c-3.646-3.783-9.329-3.29-11.949-8.446c-0.367-0.722-1.623-0.64-1.912,0.107c-4.462,11.532-7.847,23.536-14.278,34.193
					c-3.854,6.384-9.203,11.581-14.92,16.278c-4.678,3.842-9.81,7.448-13.38,12.409c-0.293,0.408-0.064,0.846,0.288,0.958
					c-0.479,0.464,0.078,1.258,0.709,0.917c4.535-2.447,9.658-3.225,14.669-4.124c2.82-0.505,5.496,4.471,6.417,6.959
					c0.255,0.688,1.262,1.034,1.769,0.374c1.944-2.526,4.915-4.214,7.459-6.084c0.879-0.647,1.853-2.169,3.088-1.634
					c2.102,0.91,3.968,2.263,5.703,3.738c5.748,4.887,7.794,12.867,9.467,19.89c0.26,1.091,2.045,0.987,2.185-0.122
					c0.478-3.782,1.504-7.446,1.943-11.224c5.134,3.517,9.758,7.992,13.179,13.218c-2.009,28.374,8.72,56.811,15.358,83.945
					c6.36,25.994,8.416,51.706,0.869,77.631c-5.709,19.612-18.285,42.273-40.66,44.981c-12.769,1.544-25.503-4.585-35.744-11.609
					c-10.013-6.868-17.839-16.346-23.55-26.99c-16.489-30.733-13.247-68.075-8.403-101.29c2.368-16.234,5.544-32.366,10.364-48.061
					c4.431-14.422,10.799-30.586,22.925-40.296c0.501-0.401-0.012-1.24-0.549-0.853c-15.665,11.29-22.488,32.038-27.354,49.858
					c-5.5,20.144-8.775,41.161-10.771,61.934c-2.196,22.862-1.307,46.607,6.458,68.411c7.813,21.935,24.087,39.499,45.74,48.262
					c15.942,6.452,32.387,3.572,44.836-8.251c13.349-12.678,19.768-32.061,22.945-49.711c4.149-23.056,0.298-45.979-5.295-68.452
					c-3.251-13.063-7.023-25.989-9.993-39.123c-2.68-11.852-4.104-23.653-4.537-35.687c0.304,0.645,0.597,1.295,0.863,1.957
					c0.197,0.49,0.645,0.719,1.157,0.592c0.65-0.161,1.3-0.322,1.95-0.483c0.416-0.104,0.598-0.516,0.618-0.9
					c0.72-13.774-4.718-25.495-10.989-37.396c-3.246-6.158-6.409-12.372-8.109-19.159c-2.083-8.319-0.173-16.248,3.316-23.869
					C133.441,231.972,131.513,231.008,130.835,232.287z"/>
			</g>
		</g>
	</g>
	<g>
		<path style="fill:#8BD95F;" d="M286.333,165.48c0.251-4.06-0.092-8.055-1.165-11.783c-0.58-2.017-1.618-3.537-2.927-4.606
			c-0.09-0.315-0.191-0.626-0.29-0.938c-1.729-6.173-3.609-12.217-6.222-18.008c-0.204-2.554-1.385-4.603-3.104-6.067
			c-0.21-0.366-0.4-0.737-0.619-1.101c-5.536-9.206-14.495-15.002-24.612-17.85c-3.401-2.98-9.63-2.058-11.395,2.444
			c-0.246,0.627-0.455,1.271-0.65,1.921c-1.114,1.974-1.673,4.309-1.527,6.61c-1.849,2.977-3.216,6.212-4.152,9.583
			c-3.622,6.733-2.847,16.119,0.173,23.954c-3.906,11.419-1.838,21.6,7.013,30.228c2.984,2.91,6.556,5.197,9.797,7.801
			c0.709,0.569,1.389,1.17,2.065,1.775c0.326,0.298,0.64,0.609,0.955,0.919c0.077,0.091,0.165,0.195,0.271,0.32
			c0.21,0.252,1.108,1.699,1.381,2.031c0.352,1.02,0.871,2.62,0.597,1.223c0.897,4.573,3.507,8.353,8.401,9.216
			c3.788,0.667,7.733-0.948,9.989-3.995c1.233-1.124,2.422-2.349,3.557-3.666c3.329-0.396,6.477-2.227,7.987-5.631
			C285.424,181.821,287.029,173.806,286.333,165.48z"/>
		<path style="fill:#8BD95F;" d="M380.473,191.092c1.061-2.403,1.869-4.708,2.356-6.773c1.493-6.33-4.474-11.982-10.546-11.573
			c-0.5,0.034-0.997,0.093-1.49,0.175c-1.532-2.175-4.105-3.728-6.531-4.285c-3.89-0.893-7.75-0.476-11.365,0.889
			c-3.362-0.461-6.6,0.058-9.663,1.19c3.955-3.207,6.994-7.871,9.473-11.915c5.502-8.977,6.024-18.968,3.803-29.01
			c-0.408-1.845-1.01-3.64-1.772-5.353c0.18-1.393,0.3-2.79,0.335-4.193c0.104-4.242-4.351-9.289-8.653-9.493
			c-1.579-0.075-3.119-0.01-4.625,0.163c-6.977-2.406-16.196,0.433-21.392,4.942c-3.171,2.752-5.62,6.076-7.417,9.732
			c-4.332,2.537-8.011,6.682-10.554,10.445c-3.101,4.588-5.576,9.539-7.434,14.724c-0.397,0.83-0.756,1.674-1.064,2.533
			c-0.65,1.814-1.092,3.771-1.329,5.788c-0.098,0.434-0.208,0.863-0.298,1.299c-2.087,10.164-0.984,22.372,8.954,27.958
			c10.162,5.712,20.495-2.058,27.015-9.444c0.38-0.431,0.734-0.89,1.105-1.33c0.521-0.144,1.042-0.299,1.563-0.487
			c1.909-0.689,3.664-1.661,5.289-2.826c0.143-0.034,0.283-0.06,0.427-0.095c-2.879,1.937-5.524,4.253-7.87,6.552
			c-5.89,5.772-11.071,14.505-10.184,23.033c0.967,9.29,9.167,17.353,18.812,15.757c2.609-0.432,5.073-1.313,7.402-2.499
			c0.896,0.332,1.792,0.575,2.689,0.739c5.45,5.775,14.639,6.563,22.138,2.591c8.67-4.592,15.017-13.441,15.11-23.313
			C384.783,194.126,382.884,192.043,380.473,191.092z"/>
		<path style="fill:#D886B6;" d="M294.251,271.381c-3.544-5.813-9.427-9.155-15.808-10.523c-4.174-5.225-9.305-9.755-15.283-12.279
			c-3.93-1.659-8.785-2.484-13.059-1.39c-0.427-0.093-0.857-0.182-1.297-0.259c-18.465-3.227-31.397,12.347-36.101,28.309
			c-0.024,0.084-0.043,0.17-0.067,0.254c-10.637,11.489-9.803,30.215-0.317,42.953c0.23,3.827,1.917,7.158,4.346,10.052
			c1.316,4.17,3.469,8.114,6.371,11.741c1.251,7.171,9.225,12.621,16.896,7.401c0.894-0.608,1.805-1.177,2.738-1.725
			c0.17-0.098,0.344-0.189,0.515-0.285c-0.043,0.039,1.456-0.745,1.732-0.878c3.135-1.507,6.354-2.842,9.559-4.19
			c7.117-2.993,14.134-6.071,20.965-9.682c11.889-6.284,23.239-17.303,21.934-31.632c0.399-1.273,0.749-2.582,1.036-3.933
			C300.153,287.096,298.598,278.51,294.251,271.381z"/>
		<g>
			<g>
				<path style="fill:#3B0F06;" d="M341.261,98.434c-8.692,2.186-13.846,11.349-18.237,18.362
					c-4.791,7.652-10.674,17.64-21.221,14.751c-0.788-0.216-1.581,0.298-1.64,1.131c-0.22,3.097,0.289,6.109,0.312,9.206
					c0.031,4.158-3.116,4.82-5.997,6.349c-2.719,1.443-5.018,4.043-4.686,7.241c0.435,4.192,2.864,8.356,4.185,12.31
					c2.118,6.335,1.167,13.649,1.898,20.237c0.117,1.057,1.685,0.833,1.778-0.136c0.625-6.441,0.272-12.985-0.829-19.362
					c-0.705-4.084-3.02-7.977-4.2-11.939c-1.71-5.741,5.381-6.393,8.438-9.287c3.155-2.985,1.728-8.822,1.593-12.981
					c12.147,2.284,18.631-9.915,24.303-18.926c3.518-5.59,7.604-11.928,14.133-14.241c9.166-3.247,20.285,3.207,23.163,12.068
					c1.762,5.423,0.79,11.598-2.148,16.382c-2.388,3.888-5.991,6.863-8.389,10.76c-1.83,2.975-2.525,6.771-1.641,10.155
					c0.397,1.518,1.373,2.829,2.263,4.089c0.621,0.879,1.253,1.721,1.759,2.676c1.609,3.037-2.734,5-4.831,5.332
					c-4.189,0.663-8.374-0.248-12.359,1.578c-3.877,1.777-6.281,6.015-8.173,9.592c-2.572,4.864-5.307,8.463-10.639,10.483
					c-5.282,2.002-10.74,3.133-16.109,4.829c-13.106,4.14-22.065,17.695-28.069,29.313c-2.926,5.661-5.184,11.851-7.342,17.839
					c-1.403,3.892-2.949,8.188-2.932,12.424c-2.01-1.151-4.042-2.169-6.075-3.021c5.665-5.879,7.833-15.199,8.644-22.955
					c0.398-3.802,0.51-8.622-0.152-13.259c0.537,0.184,1.247-0.147,1.35-0.843c1.592-10.707,11.381-16.41,17.494-24.46
					c4.67-6.149,2.436-9.542-0.533-15.723c-2.256-4.698-2.784-9.675-2.043-14.771c0.443-3.049,1.107-5.92,0.643-9.01
					c-0.552-3.675-3.367-6.682-5.931-9.121c-3.242-3.083-8.558-3.095-9.971-7.507c1.698-5.777,5.223-11.378,4.8-17.404
					c-0.279-3.978-2.248-4.284-5.339-5.786c-8.332-4.048-16.66-8.23-25.281-11.638c-3.752-1.483-7.952,2.163-9.763,5.251
					c-2.939,5.011-0.078,11.328-2.246,16.583c-2.188,5.303-5.393,10.17-7.362,15.567c-1.968,5.394,0.855,12.567,3.739,17.539
					c-0.303,3.058-0.435,6.105-1.069,9.167c-0.587,2.83-1.182,5.729-0.889,8.634c0.25,2.486,0.494,5.78,2.697,7.399
					c2.508,1.844,5.575,2.699,8.36,4.025c5.994,2.854-2.664,9.349,2.657,13.323c6.867,5.129,15.952,5.63,23.289,10.04
					c0.02,0.012,0.038,0.014,0.058,0.023c0.736,2.223,1.57,4.423,2.108,6.714c1.063,4.517,1.219,9.19,1.028,13.807
					c-0.337,8.188-2.824,15.268-6.827,22.061c-14.713-3.122-30.308-0.295-41.989,9.495c-10.614,8.896-15.253,22.879-14.867,36.409
					c0.216,7.554,2.154,14.92,5.034,21.873c3.456,8.345,9.112,15.52,12.985,23.652c2.986,6.27,0.713,11.27-2.37,17.013
					c-4.322,8.052-8.905,15.533-10.38,24.417c-0.819,2.448-0.987,5.192-0.211,8.374c0.113,0.464,0.899,0.447,0.868-0.066
					c-0.407-6.654,2.27-11.294,7.156-15.573c4.393-3.847,9.021-8.101,14.629-9.858c3.085-0.967,5.785-2.702,6.906-5.849
					c0.596-1.672,0.42-3.693,0.406-5.426c-0.024-2.897,0.372-3.781,2.65-5.61c4.581-3.679,10.949-4.39,16.533-5.367
					c5.268-0.922,10.337-2.33,15.31-4.295c8.052-3.181,15.352-8.283,20.382-15.384c14.656-20.688,0.961-47.656-18.202-62.852
					c7.503-5.881,12.006-14.542,18.15-21.758c8.25-9.688,19.462-13.441,31.773-14.806c11.966-1.328,24.09-0.237,36.095-0.313
					c6.694-0.042,14.049-0.122,18.34-6.034c5.661-7.799,1.91-18.588,9.485-25.178c4.211-3.663,8.947-11.027,1.293-14.219
					c-7.873-3.283-16.509,0.428-24.518-1.491c-7.877-1.888-15.045-5.343-22.543-0.549c-6.888,4.404-11.131,12.295-14.737,19.355
					c-4.645,9.095-8.869,17.874-16.114,25.265c-1.068,1.089,0.432,2.727,1.606,1.743c9.135-7.654,13.229-19.162,18.604-29.439
					c2.817-5.386,6.226-10.407,10.957-14.285c4.554-3.734,9.45-3.239,14.748-1.781c3.643,1.002,7.202,2.169,11.002,2.258
					c4.688,0.11,9.361-0.505,14.056-0.351c5.893,0.194,12.313,3.705,6.528,9.785c-3.015,3.169-5.665,4.925-7.407,9.081
					c-1.806,4.307-1.247,9.514-2.66,14.03c-1.344,4.295-3.811,7.424-8.212,8.701c-4.544,1.318-9.66,0.925-14.332,0.865
					c-6.079-0.078-12.155-0.351-18.235-0.407c-10.824-0.099-21.749,0.614-31.92,4.59c-10.309,4.03-16.771,12.646-22.874,21.433
					c-3.078,4.432-6.136,9.042-10.169,12.662c-1.925-1.467-3.902-2.807-5.904-4.017c0.918-8.739,5.921-17.56,9.193-25.433
					c4.865-11.702,13.933-25.65,25.689-31.189c8.772-4.132,20.017-3.561,27.022-11.097c2.711-2.916,4.124-6.829,6.187-10.18
					c3.75-6.093,9.037-5.939,15.415-6.305c3.615-0.208,6.134-1.476,7.931-4.702c1.527-2.741-0.587-5.446-2.153-7.568
					c-7.148-9.689,6.585-17.165,9.804-25.222c3.229-8.08,1.723-17.646-4.555-23.789C356.423,99.033,348.025,96.732,341.261,98.434z
					 M262.89,196.883c-0.438-0.458-1.284-0.069-1.128,0.581c0.07,0.294,0.151,0.586,0.232,0.878
					c-4.381-4.265-11.018-5.112-16.579-7.382c-2.229-0.91-5.755-2.464-4.915-5.271c0.419-1.399,1.037-2.725,1.439-4.134
					c0.516-1.808,0.26-3.494-0.989-4.86c-1.496-1.637-4.016-2.467-6.009-3.302c-1.483-0.621-2.945-1.23-4.331-2.056
					c-1.916-1.142-2.004-4.962-2.062-6.839c-0.2-6.518,3.336-12.627,1.184-19.151c-0.26-0.788-1.142-0.888-1.572-0.368
					c-1.867-4.875-2.965-10.537-0.78-15.09c2.135-4.449,4.574-8.756,6.619-13.247c1.859-4.081,1.359-8.227,1.489-12.586
					c0.112-3.761,1.98-6.018,5.309-7.636c0.91-0.442,1.632,0.06,2.778,0.539c7.536,3.151,14.955,6.617,22.42,9.933
					c1.282,0.569,2.563,1.14,3.844,1.712c1.767,0.789,0.853,0.21,1.449,2.188c1.938,6.429-4.576,12.704-4.261,19.222
					c0.028,0.579,0.713,0.937,1.147,0.732c0.593,1.091,1.564,1.951,2.998,2.66c4.674,2.309,8.409,4.424,10.942,9.275
					c1.756,3.363,0.622,7.341,0.023,10.839c-0.709,4.143-0.393,8.044,0.74,12.08c0.955,3.4,2.869,6.314,4.313,9.493
					c2.087,4.592-3.948,9.784-6.807,12.519c-4.765,4.558-12.41,10.746-13.071,17.983
					C266.445,202.213,265.045,199.131,262.89,196.883z M290.62,279.889c6.961,14.449,5.922,31.116-6.422,42.206
					c-7.763,6.974-18.265,10.405-28.334,12.24c-5.864,1.068-19.34,2.68-20.905,10.173c-0.916,4.386,1.168,8.791-3.695,11.529
					c-2.032,1.144-4.557,1.517-6.682,2.528c-2.072,0.986-3.809,2.973-5.577,4.395c-3.147,2.53-6.264,5.042-8.569,7.911
					c0.88-2.438,1.892-4.83,3.137-7.153c2.119-3.95,4.492-7.77,6.642-11.706c2.166-3.967,4.208-8.056,3.83-12.684
					c-0.476-5.833-4.838-11.575-7.708-16.41c-4.635-7.806-8.475-15.515-10.348-24.465c-2.944-14.064-0.158-29.36,9.631-40.199
					c9.796-10.846,24.075-13.504,38.019-13.502c0.042,0.047,0.087,0.092,0.152,0.129c1.075,0.607,2.14,1.226,3.199,1.851
					c0.002,0.39,0.453,0.68,0.838,0.503C271.426,255.366,283.543,265.201,290.62,279.889z"/>
				<path style="fill:#3B0F06;" d="M211.729,305.474c-0.244,0.074-0.172,0.42,0.081,0.387c11.165-1.469,21.235-3.33,31.559,2.53
					c0.389,0.221,0.699-0.302,0.365-0.574C234.727,300.499,222.092,302.356,211.729,305.474z"/>
				<path style="fill:#3B0F06;" d="M216.878,295.763c-0.261,0.019-0.295,0.424-0.022,0.416c6.307-0.18,12.458,0.445,18.558,2.096
					c6.742,1.824,12.364,5.665,18.546,8.703c0.296,0.146,0.697-0.226,0.405-0.484C244.219,297.552,229.978,294.81,216.878,295.763z"
					/>
				<path style="fill:#3B0F06;" d="M212.906,289.688c-0.1,0.095,0.014,0.256,0.137,0.196c9.847-4.79,20.411-2.69,29.844,1.63
					c0.487,0.223,0.832-0.473,0.525-0.822C237.249,283.671,219.637,283.303,212.906,289.688z"/>
			</g>
		</g>
	</g>
	<g>
		<path style="fill:#FAC380;" d="M410.815,473.469c-0.806-0.841-1.637-1.629-2.483-2.38c-4.683-7.899-11.065-14.878-18.134-20.521
			c-15.751-12.574-35.159-20.398-55.117-22.628c-7.659-0.856-15.342-1.014-23.032-0.981c-0.489-0.156-0.994-0.277-1.518-0.351
			c-12.978-1.832-26.019-2.924-38.852,0.139c-0.487-0.053-0.98-0.09-1.481-0.1c-30.281-0.622-53.471,16.841-67.08,40.879
			c-8.266,5.984-13.162,16.097-15.812,25.904c-1.527,5.648-2.153,11.629-1.815,17.543c-4.283,17.816-3.373,36.829,6.117,52.905
			c0.575,0.974,1.26,1.775,2.018,2.432c8.015,17.059,30.737,24.029,49.285,25.3c5.506,0.377,11.035,0.475,16.568,0.362
			c0.928,0.689,1.888,1.346,2.877,1.965c8.127,5.085,18.395,5.868,27.732,5.741c12.636-0.173,26.595-2.925,38.989-8.074
			c4.358-0.815,8.71-1.874,13.052-3.237c13.319-4.183,25.93-11.025,37.455-18.824c10.997-7.441,21.667-16.191,29.952-26.619
			c7.449-9.377,13.308-20.865,14.512-32.903C425.438,496.145,420.369,483.445,410.815,473.469z"/>
		<path style="fill:#6EAB81;" d="M329.412,392.547c-2.002,1.114-3.91,2.336-5.728,3.647c-2.376-1.741-5.693-0.295-8.622,1.777
			c-0.668-0.036-1.38,0.083-2.131,0.445c-4.568,2.199-8.434,4.957-11.76,8.21c-1.029,0.236-1.998,0.869-2.751,2.012
			c-0.92,1.394-1.772,2.825-2.599,4.27c-2.232,3.136-4.162,6.58-5.852,10.325c-2.548,5.647,5.925,11.465,9.474,5.952
			c0.264-0.41,0.513-0.828,0.763-1.245c0.005,0.002,0.01,0.004,0.015,0.007c0.016-0.037,0.033-0.073,0.049-0.111
			c0.046-0.078,0.096-0.154,0.143-0.232c1.827,0.854,4.053,0.782,5.767-0.656c1.362,5.193,9.642,5.931,10.972-0.377
			c0.147-0.694,0.272-1.393,0.387-2.094c2.25-10.179,9.42-17.407,18.236-22.841C341.945,397.831,335.542,389.137,329.412,392.547z"
			/>
		<g>
			<g>
				<path style="fill:#3B0F06;" d="M414.673,477.067c-4.638-14.29-13.009-32.944-28.334-38.438
					c-6.472-2.319-13.082-1.734-19.346,0.951c-0.355,0.152-0.571,0.418-0.676,0.714c-4.136-4.573-9.147-8.411-14.734-10.046
					c-7.564-2.213-16.759,2.611-23.672,6.394c-2.403-2.329-5.106-4.292-8.004-5.873c1.189-5.501,0.774-10.744,3.274-16.034
					c3.086-6.531,12.931-10.373,13.821-17.821c0.008-0.064,0.002-0.13-0.01-0.195c0.324-0.207,0.531-0.615,0.539-0.982
					c0.027-1.421-1.474-2.478-2.384-3.436c-0.723-0.761-1.455-1.518-2.213-2.244c0.234-0.349,0.456-0.715,0.647-1.118
					c0.361-0.757-0.493-1.68-1.251-1.16c-0.396,0.272-0.792,0.521-1.187,0.76c-0.621-0.253-1.335,0.179-1.409,0.787
					c-4.207,2.166-8.451,2.792-13.288,4.023c-5.125,1.304-9.827,4.665-13.507,8.357c-3.91,3.921-6.558,9.142-9.323,13.87
					c-3.055,5.226-5.917,10.631-8.184,16.257c-11.827,7.347-17.83,22.498-21.6,35.283c-5.403,18.324-7.033,37.892-7.473,56.916
					c-0.472,20.408,1.394,42.115,10.775,60.57c2.198,4.324,4.961,8.023,8.154,11.093c-6.811,4.855-14.296,7.335-23.625,5.115
					c-3.704-0.881-6.908-2.616-9.701-4.905c0.034-0.029,0.07-0.058,0.104-0.088c0.655-0.591-0.106-1.769-0.915-1.464
					c-0.225,0.084-0.448,0.171-0.672,0.257c-5.953-5.583-9.889-13.716-12.762-21.056c-7.752-19.8-9.211-42.129-8.169-63.201
					c1.403-28.351,9.548-78.352,47.523-76.025c3.595,0.22,7.195,0.846,10.689,1.706c1.353,0.333,1.748-1.639,0.477-2.066
					c-14.453-4.866-29.015-2.552-39.824,8.174c-0.046-0.005-0.081-0.023-0.132-0.022c-41.966,0.606-50.495,49.352-50.996,82.384
					c-0.237,15.605,2.413,31.747,7.338,46.534c4.156,12.477,11.499,27.352,25.424,30.779c6.411,1.577,13.626-0.131,19.151-3.793
					c1.057,0.923,2.166,1.785,3.338,2.569c10.031,6.712,26.578,6.121,35.839-2.225c9.742,7.559,22.623,10.038,35.765,7.122
					c4.372-0.97,9.086-2.87,13.068-5.65c7.19,2.758,15.451,3.608,22.944,2.279c8.715-1.543,15.391-7.875,20.495-14.707
					c15.529-20.788,16.412-48.6,16.494-73.509c0.07-21.55-2.93-44.971-13.818-63.921c-1.575-2.741-3.495-5.549-5.694-8.181
					c0.008-0.003,0.016-0.003,0.024-0.006c18.55-6.982,31.323,7.525,38.809,22.881c7.427,15.235,10.757,32.292,11.326,49.132
					c0.573,16.938-2.58,34.755-9.565,50.218c-3.398,7.52-8.098,14.669-14.636,19.813c-7.346,5.777-15.231,6.221-24.151,6.741
					c-1.475,0.086-1.631,2.111-0.249,2.512c15.8,4.578,30.593-7.582,38.326-20.098c8.934-14.459,12.421-32.401,13.424-49.148
					C421.882,508.04,419.551,492.099,414.673,477.067z M218.585,598.011c-6.951-2.261-11.808-8.826-15.271-14.888
					c-8.289-14.506-11.409-32.375-12.651-48.832c-1.301-17.241,0.581-35.574,5.314-52.178c2.665-9.346,6.986-18.287,13.734-25.366
					c7.148-7.499,16.825-10.925,26.798-12.597c-10.423,11.776-14.91,28.399-17.571,43.506c-2.966,16.841-3.563,34.178-2.049,51.196
					c1.08,12.126,3.388,24.223,7.612,35.66c2.815,7.621,6.755,15.499,12.521,21.437
					C231.029,598.259,225.209,600.166,218.585,598.011z M305.859,402.602c4.622-4.52,10.589-6.491,16.795-7.557
					c3.095-0.532,6.313-1.248,8.64-3.179c0.581,0.728,1.182,1.439,1.776,2.158c0.771,0.934,1.494,2.099,2.575,2.593
					c-2.797,2.461-4.778,5.929-7.517,8.556c-3.055,2.931-5.627,5.821-7.356,9.728c-2.082,4.7-2.257,10.322-1.705,15.42
					c-9.115-4.674-20.081-5.517-30.178-1.277C293.972,419.866,298.39,409.907,305.859,402.602z M372.817,455.039
					c9.157,17.737,11.226,39.291,11.206,58.956c-0.023,22.894-0.945,48.234-13.699,68.08c-4.654,7.243-10.734,13.861-19.219,16.326
					c-6.958,2.021-13.901,0.321-20.796-1.056c2.704-2.529,4.788-5.583,5.744-9.148c0.166-0.62-0.669-1.04-1.089-0.573
					c-3.088,3.438-6.147,6.419-9.512,8.859c-0.108-0.016-0.217-0.034-0.325-0.05c-0.809-0.112-1.431,0.581-1.427,1.247
					c-3.716,2.406-7.844,4.181-12.807,5.197c-10.269,2.103-22.009,0.154-30.52-6.096c-0.084-0.062-0.161-0.131-0.244-0.193
					c1.487-1.696,2.714-3.641,3.582-5.85c0.352-0.896-0.663-1.689-1.396-0.983c-1.647,1.591-3.312,3.08-5.013,4.43
					c-7.572-7.238-11.551-18.009-14.162-27.849c-2.92-11.008-4.182-22.644-4.28-34.019c-0.164-18.9,1.278-37.996,5.352-56.476
					c3.229-14.647,8.619-31.16,20.483-41.03c0.27,0.168,0.707,0.141,0.906-0.174c0.218-0.344,0.428-0.695,0.642-1.044
					c1.695-1.268,3.508-2.41,5.462-3.396c0.183-0.093,0.267-0.245,0.288-0.409c7.857-1.997,15.509-2.569,23.421,0.846
					c4.069,1.757,7.299,4.346,10.141,7.339c-0.556,0.52,0.04,1.527,0.826,1.336c0.106-0.026,0.212-0.06,0.318-0.088
					c3.368,3.802,6.24,8.129,9.425,12.213c0.337,0.433,1.142,0.169,0.937-0.423c-1.681-4.852-4.281-9.11-7.516-12.676
					c6.992-2.525,13.895-7.123,21.429-5.45C360.759,435.06,368.525,446.725,372.817,455.039z"/>
				<path style="fill:#3B0F06;" d="M353.228,514.394c0.234-17.476-2.438-38.576-12.714-53.267c-0.337-0.483-1.197-0.158-0.979,0.441
					c2.825,7.789,5.937,15.248,7.816,23.359c2.122,9.156,2.964,18.57,3.007,27.954c0.044,9.424-1.037,18.831-2.822,28.074
					c-1.641,8.494-5.116,16.636-6.567,25.119c-0.131,0.768,0.817,1.074,1.227,0.456c4.728-7.138,6.548-16.654,8.234-24.907
					C352.259,532.67,353.106,523.525,353.228,514.394z"/>
			</g>
		</g>
	</g>
	<g>
		<path style="fill:#FF4C47;" d="M461.698,276.91c-3.085-3.349-6.913-5.421-11.46-4.165c-0.607-0.239-1.224-0.43-1.845-0.59
			c0.37-1.93,0.447-3.932,0.181-5.941c-0.795-5.978-6.785-9.134-11.843-8.518c-7.143-4.105-17.483-1.397-25.791,3.797
			c-0.961,0.327-1.911,0.687-2.85,1.079c-0.444-0.165-0.895-0.311-1.354-0.417c-4.453-1.019-10.699,0.046-16.164,2.601
			c-1.146,0.228-2.28,0.544-3.39,0.947c-2.237,0.471-4.168,1.574-5.822,3.091c-3.435,2.528-6.049,6.017-6.998,10.148
			c-0.384,1.364-0.519,2.829-0.384,4.286c-0.034,0.144-0.067,0.287-0.099,0.43c-0.528,0.478-1.02,1.064-1.453,1.779
			c-0.097,0.16-0.185,0.323-0.28,0.483c-0.176,0.253-0.354,0.505-0.51,0.774c-0.358,0.615-0.698,1.238-1.021,1.867
			c-2.201,3.914-4.155,7.933-5.786,12.141c-2.613,6.74-1.902,15.457-1.182,22.489c1.429,13.939,6.178,31.541,17.542,41.005
			c0.712,0.796,1.452,1.567,2.222,2.305c3.578,3.431,7.821,4.879,12.025,4.731c4.23,8.191,9.994,15.607,17.852,18.028
			c1.296,3.676,5.208,6.597,9.447,6.692c8.662,0.196,13.787-6.481,16.92-13.948c0.988-0.745,1.814-1.705,2.387-2.868
			c3.37,0.736,7.135-0.074,10.221-3.306c5.199-5.446,9.023-11.887,11.682-18.823c4.151-9.057,6.955-18.804,8.604-28.399
			C475.523,311.292,474.184,290.463,461.698,276.91z"/>
		<path style="fill:#6EAB81;" d="M427.311,268.981c-0.08-0.11-0.161-0.221-0.241-0.331c-1.054-1.45-2.605-2.119-4.259-2.064
			c-1.954-0.29-4.015,0.016-6.051,0.284c-0.093-0.011-0.184-0.021-0.276-0.032c-0.628-0.868-1.343-1.59-2.132-2.167
			c0.863-5.995,1.557-13.093,0.177-18.659c-0.169-2.402-0.596-4.777-1.474-7.101c-0.936-2.474-3.405-2.587-4.957-1.323
			c-3.406-1.286-7.425,2.928-4.781,6.056c2.76,3.265,2.173,8.59,2.063,12.568c-0.065,2.369-0.282,4.71-0.465,7.048
			c-1.481,0.376-2.965,0.968-4.389,1.777c-3.588,2.038-3.067,7.2-0.386,9.63c6.508,5.899,18.579,6.388,25.879,1.643
			C428.394,274.768,428.956,271.242,427.311,268.981z"/>
		<g>
			<g>
				<path style="fill:#3B0F06;" d="M426.649,388.595c-3.238,2.518-6.919,5.255-11.211,3.828c-4.233-1.408-7.218-5.658-9.542-9.21
					c-6.259-9.566-9.872-20.997-13.097-31.875c-2.722-9.18-4.873-18.565-6.564-27.987c-1.328-7.401-2.002-14.956-0.951-22.434
					c1.214-8.644,5.588-13.453,11.846-18.959c0.334-0.294,0.09-0.856-0.368-0.713c-15.015,4.658-14.862,26.243-13.51,38.544
					c1.271,11.565,4.13,23.173,7.368,34.339c3.49,12.04,7.783,25.11,15.758,35.003c6.037,7.488,15.491,9.594,21.706,1.018
					C428.761,389.217,427.646,387.82,426.649,388.595z"/>
				<path style="fill:#3B0F06;" d="M452.64,306.911c-0.298-5.997-2.075-12.866-6.584-17.121
					c-5.034-4.751-12.009-8.498-18.122-11.627c-0.336-0.172-0.61,0.242-0.44,0.527c2.88,4.796,9.141,7.364,13.562,10.521
					c6.504,4.644,8.282,11.905,8.544,19.51c0.348,10.08-2.77,19.946-3.464,29.977c-0.677,9.765-1.174,19.541-2.526,29.244
					c-0.971,6.962-2.056,17.458-8.548,21.75c-0.874,0.578-0.3,1.857,0.659,1.827c7.318-0.23,9.203-12.122,10.271-17.504
					c2.2-11.091,2.613-22.519,3.345-33.775C450.063,329.072,453.196,318.145,452.64,306.911z"/>
				<path style="fill:#3B0F06;" d="M400.159,255.299c-13.334-3.774-30.397,4.1-28.387,19.348
					c-7.73,1.512-15.539,4.491-19.122,10.572c-5.671,9.627-1.564,21.376-0.143,31.603c2.047,14.737,3.696,29.488,10.688,42.88
					c4.875,9.339,14.353,16.199,24.271,19.41c1.555,0.503,2.512-1.484,1.066-2.319c-8.853-5.11-16.729-8.388-22.246-17.558
					c-6.917-11.498-8.671-25.841-10.372-38.885c-1.256-9.628-4.767-20.086-2.551-29.763c2.911-12.711,20.836-12.693,30.637-16.281
					c0.608-0.223,0.403-1.133-0.235-1.095c-2.879,0.176-6.266,0.471-9.755,1.036c1.118-5.586,2.091-10.615,7.364-14.135
					c5.523-3.687,12.47-2.875,18.722-3.453C400.917,256.585,400.882,255.503,400.159,255.299z"/>
				<path style="fill:#3B0F06;" d="M410.922,232.856c0.324-0.839,0.519-1.727,0.56-2.613c0.023-0.489-0.575-0.988-1.052-0.892
					c-3.502,0.706-6.607,2.895-7.052,6.673c-0.001,0.011,0.006,0.016,0.006,0.026c-0.427,0.167-0.825,0.383-1.162,0.719
					c-0.226,0.225-0.134,0.603,0.076,0.794c0.297,0.273,0.641,0.44,1.012,0.529c-0.583,4.26,0.001,8.79,0.279,12.987
					c0.415,6.252-0.345,12.331-0.398,18.549c-0.005,0.547,0.767,0.602,0.982,0.173c2.347-4.667,2.087-10.079,1.864-15.178
					c-0.238-5.432-0.496-11.098-1.14-16.563c1.326-0.289,2.697-1.115,3.53-1.768c0.602-0.472,1.117-1.046,1.555-1.677
					c0.97,3.822,1.946,7.546,2.25,11.549c0.406,5.337-0.991,10.207-1.436,15.434c-0.077,0.902,1.007,1.212,1.463,0.457
					C416.831,254.493,415.831,240.346,410.922,232.856z M406.9,234.766c-0.683,0.515-1.505,0.714-2.313,0.919
					c-0.014-0.097-0.025-0.196-0.04-0.293c1.212-1.778,2.556-3.12,4.559-3.758C408.67,232.851,408.049,233.9,406.9,234.766z"/>
				<path style="fill:#3B0F06;" d="M423.049,262.521c-0.791,0.43-0.346,1.561,0.383,1.727c2.52,0.571,5.683,0.449,5.297,3.887
					c-0.285,2.537-2.4,4.777-4.301,6.254c-3.381,2.627-8.39,2.683-12.458,2.657c-3.97-0.025-8.117-0.332-12.023-1.021
					c-1.754-0.31-5.933-1.197-4.809-4.096c0.89-2.298,3.621-3.959,5.328-5.654c0.39-0.387-0.124-1.077-0.611-0.872
					c-3.106,1.302-10.525,6.215-6.337,10.325c4.836,4.746,15.14,4.067,21.431,3.982c6.579-0.088,14.455-2.937,16.344-10.018
					C432.724,264.322,428.386,259.619,423.049,262.521z"/>
				<path style="fill:#3B0F06;" d="M472.461,278.365c-7.329-11.825-21.982-8.727-32.8-4.005c-0.483,0.211-0.374,1.042,0.205,0.952
					c5.785-0.906,11.263-2.848,17.183-2.974c7.649-0.163,12.34,5.554,15.083,11.951c3.928,9.162,4.538,19.805,4.233,29.645
					c-0.349,11.242-2.364,22.574-6.27,33.128c-2.005,5.42-4.768,10.531-8.216,15.165c-3.369,4.528-7.828,7.773-11.983,11.49
					c-0.569,0.509-0.161,1.484,0.636,1.232c10.806-3.426,17.6-15.616,21.708-25.372c4.929-11.7,6.888-24.595,7.389-37.206
					C480.083,300.924,478.6,288.271,472.461,278.365z"/>
				<path style="fill:#3B0F06;" d="M444.121,250.06c-7.542-1.722-17.699,1.251-23.841,5.665c-0.231,0.166-0.113,0.617,0.201,0.557
					c6.443-1.221,12.491-3.665,19.137-3.796c3.295-0.065,6.518,0.663,9.029,2.879c3.568,3.15,2.625,8.561,3.447,12.719
					c0.145,0.733,1.23,1.122,1.566,0.276C456.791,260.483,452.21,251.907,444.121,250.06z"/>
			</g>
		</g>
	</g>
	<g>
		<path style="fill:#6EAB81;" d="M566.542,433.689c-0.214-0.308-0.427-0.614-0.641-0.921c-2.888-4.15-7.836-5.186-12.066-3.949
			c-3.133-2.416-6.552-4.537-10.133-6.359c-0.486-0.654-1.004-1.298-1.592-1.916c-1.145-1.208-2.442-2.175-3.839-2.949
			c-0.663-0.889-1.388-1.756-2.191-2.59c-0.815-0.846-1.717-1.569-2.674-2.205c-0.975-1.48-2.327-2.662-4.077-3.215
			c-9.55-3.016-18.154-1.215-25.447,4.793c-2.53-1.229-5.472-1.948-8.676-2.025c-3.482-0.082-6.9,0.438-10.067,1.506
			c-2.868,0.391-5.541,1.334-7.922,2.707c-4.061,1.179-7.885,3.362-11.29,6.62c-5.322,5.094-5.579,11.766-2.468,17.079
			c-2.779,15.838,0.349,33.122,6.134,47.554c2.879,7.182,6.731,13.994,11.526,19.824c1.496,3.178,3.566,6.018,6.308,8.307
			c1.603,1.339,3.349,2.043,5.111,2.247c6.924,4.703,15.042,7.583,24.328,7.722c21.493,0.321,39.097-15.209,49.298-32.826
			C576.634,475.011,578.143,451.54,566.542,433.689z"/>
		<path style="fill:#39B54A;" d="M552.245,384.665c-0.852-4.425-2.244-8.647-3.874-12.781c-2.328-8.622-6.445-16.757-10.668-24.578
			c-0.447-0.83-0.985-1.497-1.581-2.029c-1.817-3.229-4.014-6.21-6.811-8.282c-3.611-2.675-8.745-0.198-8.49,4.43
			c0.169,3.062,1.089,6.087,2.2,9.051c-0.318,1.335-0.279,2.781,0.267,4.268c1.673,4.549,3.7,8.957,5.699,13.372
			c0.424,1.753,0.82,3.512,1.157,5.281c2.37,12.422,1.361,24.885-1.186,37.185c-0.968,4.672,2.393,8.169,6.289,9.21
			c-0.134,1.629-0.232,3.252-0.269,4.866c-0.208,9.326,14.436,9.528,15.946,0.739C553.18,412.266,554.783,397.842,552.245,384.665z"
			/>
		<g>
			<g>
				<path style="fill:#3B0F06;" d="M472.756,491.126c-2.099,1.053-4.283,1.434-6.571,1.863c-1.42,0.267-2.92,0.799-4.409,1.044
					c0.119,0.461,0.236,0.922,0.359,1.383c0.092,0.346-0.285,0.669-0.592,0.417c-0.6-0.492-1.127-1.064-1.595-1.694
					c-0.189-0.012-0.379-0.02-0.567-0.051c-0.407-0.066-0.69-0.638-0.359-0.961c0.057-0.056,0.121-0.097,0.179-0.149
					c-2.491-4.349-2.774-10.707-2.899-15.115c-0.179-6.332,0.74-13.461,4.912-18.479c0.365-0.44,1.084,0.007,0.85,0.529
					c-4.769,10.624-3.449,21.243-0.842,31.913c1.21-0.418,2.546-0.563,3.828-0.767c2.552-0.405,5.079-0.691,7.657-0.462
					C473.011,490.625,472.975,491.016,472.756,491.126z"/>
				<path style="fill:#3B0F06;" d="M533.146,394.946c-0.396,2.186-0.951,6.114-2.038,9.505c0.407,0.189,0.807,0.387,1.187,0.603
					c0.409,0.232,0.386,0.931-0.16,0.964c-0.538,0.032-1.074,0.039-1.61,0.044c-0.762,1.89-1.73,3.459-2.998,4.202
					c-0.156,0.092-0.331,0.011-0.362-0.168c-0.212-1.211-0.029-2.627,0.334-4.113c-3.815-0.217-7.622-0.745-11.504-0.422
					c-6.48,0.541-11.559,3.368-16.354,7.549c-0.33,0.288-0.877-0.174-0.664-0.55c4.84-8.559,19.394-11.961,29.281-9.158
					c0.743-2.235,1.629-4.461,2.012-6.258c1.451-6.804,1.999-13.809,1.941-20.755c-0.059-7.067-1.016-14.15-3.233-20.869
					c-2.092-6.336-5.892-10.512-10.248-15.323c-0.671-0.741,0.379-1.802,1.189-1.436c11.717,5.297,14.371,23.249,14.877,34.427
					C535.122,380.46,534.438,387.794,533.146,394.946z"/>
				<path style="fill:#3B0F06;" d="M581.48,465.984c-0.329-0.535-0.687-1.057-1.035-1.583c7.558-17.272-16.471-37.637-31.229-40.896
					c3.116-3.737,4.602-9.696,5.177-13.859c1.16-8.407,0.469-16.976-1.168-25.277c-3.003-15.233-7.767-31.28-16.229-44.435
					c0.313,0.069,0.628,0.13,0.946,0.172c0.844,0.112,1.24-0.884,0.658-1.445c-4.103-3.949-13.097-5.675-18.62-5.543
					c-0.396,0.01-0.472,0.596-0.124,0.744c3.247,1.373,6.727,2.157,10.034,3.379c2.257,0.834,4.479,2.053,6.822,2.625
					c5.125,14.2,10.885,28.284,13.717,43.189c1.534,8.076,2.731,16.626,1.584,24.835c-0.511,3.658-1.277,7.385-3.015,10.683
					c-1.271,2.415-3.211,4.42-4.349,6.879c-0.24,0.518,0.303,1.145,0.851,0.916c1.097-0.459,2.069-1.153,2.933-2.012
					c0.029,0.138,0.098,0.267,0.223,0.365c1.191,0.941,2.424,1.815,3.677,2.654c-2.239-0.131-4.459,0.425-6.694-0.073
					c-2.92-0.651-5.468-1.896-7.787-3.808c-3.217-2.652-6.089-5.622-9.31-8.255c0.085-0.111,0.173-0.219,0.25-0.338
					c0.304-0.476,0.058-1.164-0.586-1.108c-2.314,0.201-4.314,1.442-6.659,1.679c-1.908,0.192-3.802,0.247-5.719,0.196
					c-2.465-0.064-5.681-0.579-7.829,0.901c-4.284-2.602-10.953-2.879-15.502-3.12c-5.755-0.306-11.884,0.429-17.374,2.22
					c-9.802,3.198-19.809,10.558-21.023,21.379c-0.571-0.063-1.142-0.126-1.724-0.199c-0.56-0.07-0.778,0.678-0.28,0.932
					c0.601,0.308,1.246,0.583,1.912,0.841c-0.009,0.271-0.041,0.535-0.038,0.811c0.006,0.638,0.986,0.777,1.211,0.201
					c0.069-0.177,0.143-0.345,0.214-0.52c2.763,0.879,5.935,1.37,9.214,1.471c-5.932,10.903-2.635,27.159,6.516,35.595
					c-0.13,0.174-0.267,0.345-0.392,0.52c-0.375,0.53,0.106,1.527,0.819,1.161c0.314-0.161,0.618-0.339,0.918-0.524
					c0.403,0.319,0.811,0.633,1.231,0.928c-1.507,10-0.827,21.653,5.036,29.936c-0.098,0.063-0.192,0.123-0.291,0.186
					c-0.244,0.155-0.132,0.523,0.13,0.573c0.259,0.05,0.517,0.079,0.775,0.099c0.006,0.009,0.012,0.018,0.018,0.026
					c0.282,0.364,0.738,0.279,0.95-0.011c0.68-0.037,1.354-0.17,2.021-0.368c-0.304,3.605,0.161,7.191,0.915,10.742
					c0.424,2.001,1.013,4.442,2.132,6.404c-0.321,0.506-0.601,1.039-0.803,1.612c-0.201,0.567,0.351,0.979,0.856,0.71
					c0.391-0.207,0.76-0.444,1.121-0.692c0.239,0.255,0.488,0.497,0.764,0.707c0.246,0.188,0.661,0.017,0.612-0.323
					c-0.059-0.416-0.137-0.828-0.228-1.239c1.279-1.029,2.477-2.176,3.885-3.045c1.634-1.009,3.621-1.362,5.223-2.346
					c2.384,3.91,5.412,7.304,8.769,9.343c-0.004,0.146,0.084,0.305,0.239,0.342c0.183,0.044,0.371,0.075,0.557,0.111
					c0.743,0.398,1.499,0.737,2.267,0.992c0.456,0.15,0.983-0.265,0.815-0.716c3.813-0.034,7.911-1.359,11.653-3.484
					c0.083,1.037,0.334,2.08,0.524,3.077c0.286,1.491,0.42,3.301,1.305,4.563c0.238,0.34,0.844,0.328,1-0.095
					c0.044-0.121,0.07-0.246,0.103-0.37c3.467,0.121,7.241-2.393,9.63-4.606c2.335-2.162,5.795-5.426,6.482-8.851
					c6.244-2.084,11.722-7.945,15.522-14.637c0.234,0.341,0.469,0.682,0.692,1.026c1.086,1.684,2.068,3.55,3.771,4.678
					c0.337,0.224,0.977,0.05,0.872-0.461c-0.055-0.264-0.124-0.52-0.206-0.771c7.313,0.541,13.222-5.475,16.22-11.909
					c3.069-6.589,6.454-17.209,3.295-24.31c-0.329-0.739-1.52-0.744-1.64,0.154c-0.949,7.076-0.246,13.775-2.992,20.637
					c-3.004,7.505-7.624,12.568-15.352,14.317c-0.621-1.238-1.51-2.348-2.374-3.448c-0.438-0.559-0.878-1.125-1.333-1.676
					c2.314-4.503,3.865-9.25,4.382-13.388c0.153,0.143,0.297,0.297,0.452,0.438c0.997,0.899,2.189-0.464,1.619-1.492
					c-0.271-0.489-0.574-0.97-0.896-1.443c5.341-3.52,8.893-13.801,9.504-19.324c0.492-4.442,0.162-9.024-1.343-13.118
					c3.251,3.302,6.179,6.9,8.616,10.922C579.996,469.427,582.507,467.657,581.48,465.984z M560.854,487.481
					c-2.319-2.816-5.303-5.338-7.906-7.577c-3.27-2.811-6.581-5.928-10.331-8.125c2.111-2.956,3.641-6.353,4.411-9.764
					c1.61-7.125,1.508-17.473-2.431-24.63c6.55,4.207,13.177,8.509,19.173,13.437c3.161,7.21,6.185,13.63,3.93,21.911
					c-1.038,3.811-2.613,7.381-4.584,10.8C562.307,484.935,561.426,486.133,560.854,487.481z M522.532,526.981
					c5.083-3.245,9.305-7.953,10.885-12.871c0.212,0.878,0.418,1.765,0.61,2.671c0.424,1.994,0.645,4.537,1.773,6.346
					c-1.167,1.68-2.243,3.491-3.621,4.843c-2.503,2.455-5.149,3.849-7.992,5.596c-0.055-1.045-0.369-2.111-0.626-3.096
					C523.261,529.317,522.99,528.098,522.532,526.981z M492.507,502.185c-0.048-0.188-0.209-0.26-0.373-0.258
					c1.538-1.382,3.236-2.914,4.792-4.561c1.086,9.171,5.066,18.3,11.01,24.297c-0.09,0.036-0.174,0.08-0.263,0.115
					c-0.394,0.156-0.269,0.768,0.163,0.726c0.281-0.026,0.561-0.074,0.841-0.111c0.374,0.352,0.754,0.691,1.142,1.018
					c0.435,0.365,1.232-0.114,0.956-0.674c-0.107-0.218-0.226-0.427-0.335-0.643c7.991-1.65,15.508-7.202,21.22-14.37
					c0.399,1.296,0.77,2.588,1.119,3.892c-6.007,9.941-14.066,14.898-24.626,18.049c-3.202-3.647-7.108-6.553-9.668-10.877
					C495.327,513.451,494.008,508.113,492.507,502.185z M483.797,508.162c2.728-1.224,5.239-3.437,7.193-5.206
					c0.225-0.203,0.469-0.423,0.704-0.634c-0.659,5.095,1.108,11.754,4.308,17.531c-1.964-0.291-4.226,0.768-5.817,1.706
					c-1.134,0.67-2.261,1.461-3.23,2.396c-0.638-1.957-1.377-3.904-1.724-5.936C484.672,514.747,484.353,511.435,483.797,508.162z
					 M474.798,475.618c1.428-1.189,2.775-2.507,4.191-3.66c1.33-1.084,2.695-2.166,4.204-2.995c1.012-0.555,2.057-0.922,2.942-1.558
					c1.206,3.476,2.677,6.889,4.436,9.996c-0.215,0.077-0.427,0.148-0.644,0.228c-1.279,0.467-0.774,2.267,0.504,2.233
					c0.519-0.013,1.044-0.057,1.571-0.114c0.287,0.44,0.561,0.898,0.861,1.319c0.313,0.44,0.96,0.07,0.813-0.423
					c-0.11-0.368-0.238-0.729-0.354-1.094c2.248-0.389,4.548-1.144,6.811-2.15c-0.056,0.03-0.11,0.065-0.146,0.133
					c-2.308,4.35-3.343,9.51-3.343,14.845c-2.158,2.117-4.001,4.778-5.978,6.797c-3.32,3.386-6.786,5.734-10.622,8.192
					c-1.823-5.796-4.253-11.138-4.836-17.353c-0.363-3.873-0.481-7.772-0.458-11.666c0.152-0.16,0.205-0.393,0.019-0.63l-0.01-0.013
					C474.768,477.01,474.782,476.315,474.798,475.618z M516.199,464.412c-0.079-0.01-0.163-0.002-0.243,0.043
					c-4.067,2.272-7.67,5.272-11.724,7.57c-3.891,2.206-7.79,3.372-11.846,4.745c-2.388-6.683-5.435-13.076-6.699-20.188
					c-0.971-5.462-1.108-10.451-0.257-15.444c7.344,2.231,16.477,0.485,23.646-1.7c3.884-1.185,8.398-2.647,12.47-4.721
					C515.261,443.47,513.727,454.315,516.199,464.412z M465.192,440.595c6.738,0.112,13.856-1.423,18.799-4.732
					c-0.048,0.186-0.102,0.372-0.143,0.559c-2.676,6.252-1.927,13.901-0.601,20.392c0.551,2.699,1.268,5.517,2.147,8.326
					c-2.621,0.146-5.487,2.536-7.283,4.065c-1.938,1.65-3.991,3.461-5.73,5.432c-3.161-4.153-6.06-8.501-7.302-13.674
					C463.395,453.939,464.33,447.588,465.192,440.595z M578.802,462.047c-9.06-12.333-23.29-21.951-37.229-28.681
					c-0.23-0.226-0.448-0.464-0.692-0.674c-0.311-0.265-0.655-0.25-0.928-0.092c-1.831-0.856-3.655-1.675-5.455-2.431
					c-0.261-0.109-0.522,0.267-0.272,0.437c1.785,1.215,3.61,2.414,5.454,3.609c2.589,8.915,6.533,16.235,4.548,26.003
					c-2.149,10.578-8.533,15.327-17.744,19.811c-0.434,0.211-0.303,0.808,0.183,0.81c6.135,0.026,11.398-3.293,15.118-7.966
					c2.771,3.339,6.422,6.004,9.56,8.967c2.805,2.649,5.334,5.612,8.051,8.342c-1.654,4.267-3.169,8.608-5.182,12.708
					c-0.088-0.056-0.162-0.129-0.253-0.181c-0.26-0.15-0.538,0.166-0.448,0.416c0.076,0.212,0.184,0.408,0.275,0.613
					c-0.897,1.747-1.886,3.45-3.041,5.071c-3.232,4.533-6.93,7.824-11.325,10.729c-0.164,0.001-0.327,0.042-0.465,0.137
					c-0.308,0.213-0.595,0.458-0.874,0.714c-0.218,0.137-0.427,0.276-0.649,0.411c-0.129-0.408-0.263-0.825-0.378-1.268
					c-0.571-2.184-1.043-4.392-1.635-6.57c-0.621-2.285-1.261-4.784-2.54-6.831c6.073-8.252,9.772-18.312,9.218-27.021
					c-0.041-0.641-0.965-0.633-1.087-0.037c-3.659,17.785-14.46,34.174-31.222,41.771c-3.336-6.232-7.496-11.897-9.226-18.936
					c-0.633-2.577-0.977-5.076-1.117-7.547c0.781-1.083,1.434-2.194,1.882-3.324c0.271-0.684-0.395-1.646-1.177-1.266
					c-0.264,0.128-0.508,0.295-0.761,0.445c0.103-4.095,0.641-8.186,1.228-12.496c0.037-0.271-0.207-0.409-0.414-0.354
					c6.344-2.836,12.392-7.68,16.158-12.296c1.612,6.133,4.701,11.962,9.102,16.843c0.381,0.423,1.243,0.114,0.964-0.502
					c-3.707-8.195-9.19-15.999-9.205-25.358c-0.014-8.74,3.878-15.387,7.207-22.969c2.255-1.425,4.262-3.095,5.784-5.09
					c0.411-0.539-0.105-1.333-0.771-1.093c-7.394,2.671-13.603,7.693-21.329,9.897c-7.534,2.148-14.939,1.984-22.503,3.319
					c0.128-0.644,0.264-1.287,0.425-1.933c2.385-4.829,3.99-9.932,8.56-13.412c5.307-4.041,10.925-4.282,17.232-5.377
					c0.079-0.014,0.114-0.132,0.027-0.165c-10.707-4.203-23.203,4.012-27.172,14.451c-9.723,3.452-18.42,4.436-28.505,3.567
					c4.457-10.105,11.095-16.93,22.596-19.651c5.688-1.346,11.672-1.836,17.504-1.336c4.292,0.368,8.956,2.067,13.204,1.808
					c0.105-0.007,0.157-0.091,0.159-0.179c2.797,0.49,6.066,0.268,8.697,0.285c2.993,0.021,7.172-0.046,9.549-2.207
					c5.543,7.377,15.952,19.298,25.647,12.875c0.181-0.12,0.273-0.297,0.303-0.484c5.593,3.589,11.486,6.664,16.214,11.589
					c3.212,3.346,6.31,7.268,7.752,11.746C578.957,455.278,578.967,458.578,578.802,462.047z"/>
			</g>
		</g>
	</g>
	<g>
		<path style="fill:#FF4C47;" d="M588.296,150.183c-0.635-9.075-9.642-11.731-16.054-8.915c-5.01-5.8-11.819-9.777-20.219-10.523
			c-5.083-4.003-11.935-5.061-18.786-2.881c-1.824,0.581-3.522,1.422-5.081,2.467c-10.805,5.52-18.764,16.833-24.067,28.403
			c-6.003,6.997-10.785,15.012-13.457,23.244c-4.701,8.778-7.766,18.368-7.9,28.267c-0.118,8.685,4.104,16.979,10.595,22.574
			c2.262,1.949,4.766,3.467,7.417,4.668c6.039,5.814,14.513,8.663,23.818,8.511c12.819-0.209,26.171-6.452,36.54-13.587
			c2.694-1.868,4.129-4.247,4.608-6.722c4.979-4.734,9.102-10.353,12.196-16.833c1.184-2.478,2.093-4.996,2.784-7.541
			c3.105-5.867,5.443-12.065,6.853-18.774C589.761,172,589.041,160.843,588.296,150.183z"/>
		<path style="fill:#FF4C47;" d="M526.602,56.69c-3.521-2.938-7.582-5.626-11.951-7.955c-3.922-3.984-8.506-7.252-13.677-9.611
			c-12.793-5.836-32.448-6.849-40.033,5.66c-4.362,1.337-8.508,3.51-12.207,6.649c-16.356,13.878-20.478,37.907-15.721,57.998
			c1.25,5.28,3.294,10.151,5.976,14.468c1.285,3.268,2.85,6.423,4.725,9.411c3.059,4.871,7.366,9.051,12.36,12.028
			c18.146,13.336,46.41,3.803,62.889-10.659c11.181-9.812,20.253-22.286,23.203-37.113C545.29,81.873,538.649,66.745,526.602,56.69z
			"/>
		<path style="fill:#8BD95F;" d="M535.636,196.614c-2.707-3.835-9.125-4.336-13.139-6.526c-0.154-0.084-0.306-0.178-0.458-0.269
			c0.104-1.073,0.189-2.148,0.256-3.225c3.677-3.052,6.924-6.702,9.462-9.542c4.653-5.206-4.123-12.479-8.346-6.901
			c-0.033,0.044-0.068,0.087-0.102,0.131c-0.227,0.218-0.458,0.432-0.684,0.652c-0.071-3.309-0.223-6.613-0.475-9.872
			c-0.05,0.011-0.101,0.021-0.15,0.032c-1.091-7.017-12.367-8.526-12.902-0.637c-0.315,4.642-0.329,9.204-0.367,13.736
			c-0.593,2.005-1.298,4.005-1.864,6.012c-3.202,1.275-6.176,3.335-8.842,5.46c-1.399,1.116-2.823,2.198-4.369,3.106
			c-0.726,0.426-1.251,0.609-1.832,1.272c-1.993,0.798-2.558,3.211-1.457,4.961c2.407,3.829,6.967,2.248,10.148-0.081
			c1.376-1.007,2.655-2.124,3.9-3.278c0.394,0.218,0.812,0.408,1.274,0.532c0.646,0.174,1.292,0.291,1.936,0.357
			c-0.287,1.883-0.633,3.771-1.103,5.67c-1.843,7.446,9.567,10.744,12.605,3.938c0.152-0.342,0.281-0.69,0.419-1.037
			c5.07,3.088,11.936,5.514,15.88,0.756C536.653,200.384,536.746,198.187,535.636,196.614z"/>
		<path style="fill:#8BD95F;" d="M498.356,108.729c-0.891-2.405-2.029-4.896-3.38-7.392c-3.72-7.738-8.953-16.686-16.182-19.778
			c-2.917-2.356-6.026-4.347-9.259-5.822c1.688-2.904,3.248-5.845,5.473-8.012c0.483-0.315,0.989-0.618,1.523-0.912
			c0.673-0.362,1.184-0.795,1.561-1.269c0.974-0.468,2.046-0.826,3.274-1.011c2.532-0.38,4.099-3.152,2.535-5.398
			c-3.7-5.314-10.268-4.702-14.773-0.748c-0.951,0.834-1.784,1.754-2.564,2.711c-1.541,1.255-2.876,2.66-4.023,4.21
			c-0.103,0.126-0.195,0.263-0.298,0.39c-0.115-0.108-0.232-0.216-0.346-0.324c-1.975-1.864-3.471-4.388-4.98-6.619
			c-3.263-4.821-5.344-9.782-9.612-13.828c-1.893-1.793-5.286-0.408-5.641,2.076c-1.039,7.282,2.744,13.44,6.99,19.126
			c0.185,0.248,0.377,0.494,0.57,0.739c-9.273,2.619-18.625,9.752-20.145,18.278c-1.222,1.123-2.345,2.32-3.321,3.619
			c-2.064,2.741,0.527,7.278,4.061,5.801c0.814-0.341,1.636-0.707,2.461-1.085c1.305,0.314,2.763-0.038,3.909-1.312
			c0.323-0.359,0.627-0.729,0.932-1.098c4.367-2.346,8.675-5.138,12.488-8.215c0.132,1.601,0.275,3.207,0.425,4.825
			c0.313,3.39,0.364,6.793,0.109,10.188c-0.295,3.921-1.845,7.542-1.492,11.493c-0.881,3.358-1.964,6.661-3.664,9.626
			c-2.86,4.99,5.115,9.928,8.501,5.341c6.848-9.275,10.421-20.796,10.48-32.318c4.81,3.857,10.287,6.574,16.105,6.535
			c3.112,4.322,5.697,8.998,7.739,13.933C490.528,119.138,500.869,115.514,498.356,108.729z"/>
		<g>
			<g>
				<path style="fill:#3B0F06;" d="M461.352,40.047c-1.184,0.888,0.144,2.606,1.389,2.059c11.397-5.01,21.78-6.31,33.398-1.132
					c10.864,4.843,19.553,14.175,26.281,23.741c6.604,9.389,12.734,21.625,12.814,33.3c0.075,11.182-7.749,22.631-13.954,31.378
					c-7.653,10.788-18.455,20.019-30.393,25.702c-0.471,0.224-0.942,0.426-1.413,0.626c-0.363-0.303-0.933-0.379-1.436-0.031
					c-0.48,0.334-0.94,0.697-1.386,1.08c-8.126,2.632-16.313,1.901-24.781-0.36c-17.355-4.635-40.624-16.763-40.728-37.374
					c-0.001-0.329-0.496-0.477-0.595-0.123c-4.857,17.377,16.973,30.683,29.934,36.446c8.324,3.701,17.654,6.267,26.816,6.19
					c1.926-0.016,3.829-0.231,5.704-0.597c-3.723,5.495-5.609,12.838-6.477,18.8c-1.354,9.311,0.218,19.326,5.282,27.289
					c0.111,0.174,0.45,0.103,0.375-0.128c-2.691-8.271-4.206-16.628-3.334-25.338c0.427-4.26,1.666-8.373,3.271-12.322
					c1.485-3.656,3.863-6.555,5.997-9.699c6.665-2.313,12.875-6.334,18.338-10.456c10.658-8.039,18.501-18.293,25.022-29.811
					c4.882-8.622,8.124-17.398,6.543-27.392c-3.379-21.351-20.117-43.541-39.105-53.439
					C487.075,32.283,472.325,31.813,461.352,40.047z"/>
				<path style="fill:#3B0F06;" d="M473.42,53.962c-5.17,2.928-8.417,10.325-4.69,15.581c0.117,0.166,0.34,0.004,0.322-0.16
					c-0.602-5.628,0.317-10.027,5.557-13.043c5.214-3.003,9.365-0.728,13.933,2.021c0.63,0.379,1.24-0.246,1.006-0.885
					C487.184,51.038,478.461,51.107,473.42,53.962z"/>
				<path style="fill:#3B0F06;" d="M472.414,73.551c-0.02,0.175,0.225,0.315,0.353,0.175c2.162-2.354,3.689-5.209,5.919-7.543
					c3.223-3.375,6.46-3.765,10.776-4.47c0.539-0.088,0.736-0.9,0.237-1.183C482.669,56.542,473.132,67.09,472.414,73.551z"/>
				<path style="fill:#3B0F06;" d="M472.447,79.151c-0.637-0.11-0.726,0.803-0.215,1.035c8.029,3.642,13.752,7.021,17.049,15.534
					c2.478,6.397,2.479,14.049,5.968,19.989c0.237,0.405,1.037,0.375,1.008-0.199c-0.373-7.406-2.845-16.292-5.919-23.064
					C487.09,85.29,480.088,80.473,472.447,79.151z"/>
				<path style="fill:#3B0F06;" d="M466.873,88.777c-0.059-0.253-0.105-0.508-0.172-0.759c-0.147-0.553-0.985-0.545-1.028,0.062
					c-0.014,0.197-0.029,0.386-0.044,0.581c-0.847-0.05-1.699-0.051-2.555,0.016c-0.667,0.052-0.575,0.961-0.082,1.18
					c0.833,0.37,1.655,0.72,2.468,1.062c-0.579,7.211-1.51,13.778-4.588,20.658c-3.591,8.026-10.145,13.696-14.437,21.126
					c-0.276,0.478,0.222,1.249,0.782,0.889c6.614-4.24,11.849-12.583,15.173-19.528c3.227-6.742,5.776-14.727,4.974-22.351
					c5.421,2.248,10.388,4.323,15.052,8.763c5.252,4.999,8.556,11.343,11.148,18.016c0.125,0.322,0.595,0.124,0.55-0.188
					C492.328,105.993,480.361,90.443,466.873,88.777z"/>
				<path style="fill:#3B0F06;" d="M450.126,89.148c-1.966,6.417-1.365,13.817-1.78,20.467c-0.495,7.941-1.667,15.428-3.417,23.18
					c-0.057,0.249,0.27,0.46,0.426,0.212c3.561-5.665,4.294-13.074,5.012-19.582c0.853-7.738,1.941-16.435,0.991-24.19
					C451.279,88.599,450.308,88.557,450.126,89.148z"/>
				<path style="fill:#3B0F06;" d="M433.505,37.485c0.429,1.218,0.995,2.374,1.661,3.481c0.022,0.072,0.022,0.141,0.061,0.215
					c4.863,9.371,8.887,21.748,16.801,29.56c-13.463,0.368-23.665,14.82-27.272,26.406c-0.04,0.129,0.131,0.274,0.235,0.158
					c0.24-0.267,0.459-0.549,0.69-0.823c-0.064,0.398,0.201,0.843,0.657,0.864c3.951,0.186,8.077-2.144,11.584-3.764
					c4.103-1.895,8.676-4.137,11.71-7.572c0.407-0.462-0.009-1.083-0.591-0.876c-3.889,1.384-7.454,3.766-11.197,5.516
					c-3.69,1.725-8.405,2.637-11.615,5.179c3.616-4.493,6.206-9.737,10.206-13.958c4.686-4.945,11.155-6.067,16.485-9.842
					c0.099-0.069,0.157-0.163,0.197-0.262c2.225,1.985,4.74,3.622,7.65,4.751c0.115,0.044,0.192-0.122,0.095-0.189
					c-10.318-7.137-15.014-17.816-20.024-28.607c2.268,2.136,4.719,4.087,6.966,5.944c6.808,5.625,13.968,10.984,20.365,17.006
					c0.249,0.235,0.712-0.017,0.525-0.354c-3.686-6.666-9.258-11.23-15.17-15.887c-6.929-5.46-12.895-11.349-19.079-17.579
					C433.965,36.365,433.294,36.886,433.505,37.485z"/>
				<path style="fill:#3B0F06;" d="M499.915,186.251c2.701-2.898,6.132-3.72,9.679-5.05c0.817-0.306,0.415-1.434-0.303-1.537
					c-13.427-1.932-15.356,17.068-24.581,22.128c-0.183,0.101-0.135,0.385,0.08,0.403c0.478,0.042,0.933,0.011,1.373-0.063
					c-0.472,0.296-0.936,0.605-1.41,0.894c-0.282,0.171-0.079,0.566,0.226,0.453c11.319-4.207,21.275-12.652,30.647-20.066
					c0.216-0.17-0.027-0.519-0.266-0.395c-8.673,4.515-16.486,10.618-24.617,16.125c1.192-1.391,2.184-3.017,3.044-4.354
					C495.689,191.83,497.506,188.836,499.915,186.251z"/>
				<path style="fill:#3B0F06;" d="M517.081,154.595c0.006-0.035,0.014-0.069,0.018-0.104c0.103-0.685-0.719-0.895-1.172-0.582
					c-6.768,4.689-5.92,18.989-4.086,25.956c0.037,0.137,0.272,0.19,0.309,0.021c0.8-3.791,0.594-7.719,0.892-11.574
					c0.36-4.666,2.816-8.287,3.807-12.546c1.766,3.779,2.822,6.914,2.483,11.408c-0.283,3.749-1.839,7.677-1.05,11.424
					c0.089,0.423,0.732,0.619,0.966,0.194c0.145-0.265,0.286-0.549,0.426-0.843c0.123,0.042,0.274,0.017,0.354-0.1
					c2.447-3.628,4.955-6.518,8.843-8.662c3.302-1.82,7.186-1.76,10.436-3.465c-2.422,3.365-4.496,6.938-7.125,10.184
					c-2.742,3.386-6.233,6.129-9.001,9.47c-0.096-0.127-0.193-0.251-0.289-0.379c-0.196-0.264-0.585,0.032-0.459,0.31
					c0.095,0.211,0.202,0.417,0.302,0.626c-0.318,0.405-0.634,0.813-0.928,1.239c-0.314,0.458,0.226,1.122,0.732,0.832
					c0.315-0.181,0.634-0.386,0.951-0.585c3.182,5.859,8.188,10.735,14.226,13.517c-7.187,0.058-12.994-3.22-19.754-6.586
					c-0.476-0.236-0.858,0.46-0.546,0.813c6.049,6.828,17.011,8.469,25.597,7.494c1.118-0.127,1.239-1.921,0.155-2.206
					c-7.998-2.097-13.858-7.314-18.832-13.581c7.063-4.772,14.452-13.829,16.33-21.729c0.101-0.422-0.411-0.707-0.686-0.342
					c-0.091,0.121-0.177,0.245-0.267,0.366c0.047-0.314-0.094-0.649-0.45-0.758c-4.048-1.234-9.008,1.059-12.444,3.109
					c-2.166,1.292-4.048,3.114-5.395,5.254C522.979,166.073,522.637,157.54,517.081,154.595z"/>
				<path style="fill:#3B0F06;" d="M515.61,194.986c-3.872,4.024-5.127,9.977-6.15,15.286c-0.698,3.62-0.954,7.322-1.118,10.999
					c-0.028,0.63-0.082,1.313-0.125,2.018c-1.308-4.136-1.082-8.707-0.719-13.033c0.41-4.876,2.493-10.528,1.6-15.378
					c-0.136-0.736-1.121-0.735-1.385-0.097c-2.311,5.579-2.472,13.49-2.522,19.459c-0.033,4.005,0.4,8.449,2.979,11.521
					c0.05,1.28,0.257,2.52,0.846,3.535c0.236,0.407,0.8,0.374,0.98-0.063c0.815-1.967,0.353-4.256,0.354-6.358
					c0.003-3.089,0.241-6.174,0.561-9.244c0.68-6.512,2.269-12.496,5.105-18.371C516.127,195.03,515.781,194.808,515.61,194.986z"/>
				<path style="fill:#3B0F06;" d="M539.065,121.113c-1.245,0.397-1.332,2.335,0.146,2.425c10.975,0.669,20.149,3.037,29.056,9.804
					c7.011,5.328,11.681,13.147,14.25,21.461c5.066,16.39,1.856,34.624-4.557,50.15c-6.769,16.391-19.366,33.317-37.512,37.313
					c-23.325,5.138-45.933-8.463-56.799-28.671c-0.222-0.413-0.811-0.105-0.643,0.322c8.7,22.013,32.339,33.886,55.267,31.381
					c19.863-2.17,33.762-20.077,41.852-36.843c8.281-17.163,11.89-38.456,5.756-56.85c-2.89-8.664-8.198-16.024-15.279-21.742
					C562.36,123.21,549.613,117.755,539.065,121.113z"/>
			</g>
		</g>
	</g>
	<g>
		<path style="fill:#E77978;" d="M714.275,296.235c-2.217-4.872-5.074-9.916-7.861-14.723c-0.321-1.273-0.83-2.535-1.496-3.757
			c-1.608-2.946-3.445-5.87-5.504-8.641c-3.474-6.629-7.876-12.834-15.079-15.763c-2.517-1.023-5.141-1.562-7.817-1.787
			c-2.542-1.029-5.207-1.696-7.634-2.031c-10.815-1.495-22.935-0.089-34.097,3.065c-13.992-0.274-28.505,8.389-38.462,18.126
			c-4.572,3.124-7.673,7.301-9.685,12.078c-4.935,8.201-7.717,17.631-7.36,27.267c0.278,7.528,3.192,14.631,7.921,20.133
			c2.602,11.207,6.685,21.034,18.615,25.799c1.334,0.533,2.704,0.979,4.065,1.433c0.156,0.051,0.313,0.1,0.469,0.151
			c2.871,4.378,7.606,5.549,12.46,4.918c3.62,5.093,11.06,8.248,17.5,9.855c8.319,5.161,19.235,6.986,29.19,7.397
			c2.433,0.28,4.882,0.319,7.283,0.072c0.314-0.006,0.631-0.011,0.939-0.019l-0.02-0.09c0.76-0.103,1.515-0.228,2.26-0.391
			c2.175-0.476,3.863-2.196,4.86-4.248c0.059-0.027,0.119-0.051,0.178-0.078c8.869-2.447,16.534-9.738,22.312-17.551
			c1.208-1.002,2.185-2.274,2.763-3.818c0.046-0.122,0.086-0.246,0.132-0.368c0.438-0.677,0.865-1.353,1.273-2.024
			C721.905,334.093,722.609,314.551,714.275,296.235z"/>
		<path style="fill:#FF4C47;" d="M619.492,360.179c-2.488-1.066-5.004-1.97-7.422-3.197c-1.743-2.03-3.632-3.896-5.815-5.337
			c-3.111-2.054-6.732-2.675-9.983-0.398c-3.779,2.647-4.47,7.713-2.024,11.482c1.604,2.474,3.687,4.566,6.044,6.341
			c0.493,0.513,0.995,1.016,1.495,1.511c2.101,2.719,4.224,5.545,7.206,7.475c3.593,2.324,8.09,2.543,11.063-1.048
			c0.731-0.883,1.23-1.931,1.51-3.036C625.143,370.235,625.285,362.662,619.492,360.179z"/>
		<g>
			<g>
				<path style="fill:#3B0F06;" d="M718.688,304.906c-7.154-15.162-24.857-38.037-14.808-54.197c0.481-0.482,0.945-0.99,1.36-1.56
					c0.13-0.178,0.168-0.363,0.146-0.532c1.177-1.455,2.587-2.852,4.311-4.167c1.035-0.789,0.208-2.545-1.067-2.068
					c-4.63,1.732-7.477,4.773-9.06,8.509c-0.855,0.503-1.719,0.996-2.592,1.476c1.274-5.26,3.271-10.309,5.365-15.299
					c0.525-1.252-1.233-2.49-2.082-1.308c-5.258,7.326-13.293,11.983-21.426,15.755c2.249-2.817,4.173-5.909,6.023-8.987
					c1.154-1.921,2.555-4.043,3.176-6.295c1.501-3.386,2.36-7.35,2.454-11.872c0.014-0.647-0.964-0.635-1.088-0.05
					c-2.06,9.685-5.085,18.692-15.487,21.554c-8.399,2.311-18.067,0.027-26.429-1.408c-18.616-3.195-35.774-4.955-52.031,6.631
					c-15.113,10.771-22.142,30.135-22.782,48.099c-0.594,16.647,3.378,38.116,14.573,51.961c-0.129-0.013-0.254-0.03-0.383-0.042
					c-0.875-0.078-1.419,1.208-0.487,1.559c0.968,0.365,2.013,0.714,3.1,1.031c1.12,1.184,2.295,2.303,3.542,3.333
					c0.868,0.716,2.154-0.432,1.466-1.353c-0.246-0.33-0.478-0.657-0.721-0.987c2.7,0.453,5.49,0.578,8.072,0.112
					c0.308,0.373,0.626,0.733,0.968,1.066c0.377,0.369,1.108-0.012,1.021-0.533c-0.055-0.326-0.137-0.65-0.206-0.974
					c0.913-0.281,1.792-0.64,2.613-1.113c4.148-2.388,5.358,0.027,9.125,1.037c1.29,0.346,2.558,0.55,3.881,0.738
					c1.757,0.249-4.174,5.207-4.155,5.193c-0.256,0.2-0.237,0.504-0.029,0.728c4.027,4.314,9.535,6.315,13.97,9.959
					c-5.675,0.782-10.151,3.454-10.229,7.621c-0.039,0.024-0.081,0.042-0.119,0.066c-3.106-1.664-6.511-1.317-9.807,1.425
					c0.083-1.507,0.261-3.001,0.683-4.476c0.195-0.683-0.545-1.487-1.239-1.36c-1.327,0.242-2.318,0.666-3.115,1.235
					c0.317-2.051,0.223-4.211-0.092-6.234c-0.081-0.515-0.535-1.056-1.12-0.95c-3.125,0.567-6.275,0.357-9.404,0.77
					c-0.254-3.852-1.044-9.184-3.173-12.124c-0.204-0.283-0.733-0.216-0.77,0.17c-0.419,4.305,1.881,8.813,2.039,13.167
					c0.018,0.503,0.551,0.99,1.064,0.902c3.125-0.536,6.268-0.295,9.396-0.675c0.312,4.006-0.967,6.822-2.28,10.688
					c-0.188,0.553,0.437,1.32,0.994,0.83c0.163-0.143,0.313-0.295,0.463-0.447c0.04,0.008,0.084,0.014,0.114-0.024
					c0.115-0.148,0.221-0.306,0.33-0.46c0.499-0.581,0.92-1.206,1.263-1.871c0.697-1.005,1.507-1.881,2.727-2.331
					c-0.459,2.089-0.443,4.275-0.463,6.421c-0.01,1.153,1.562,1.483,2.223,0.699c4.058-4.808,8.287-4.566,11.727-0.873
					c0.497,0.805,1.126,1.643,1.907,2.514c1.043,1.163,2.874-0.032,2.022-1.415c-0.852-1.379-1.768-2.545-2.73-3.506
					c-0.296-0.55-0.506-1.113-0.588-1.677c5.882,0.037,12.716,2.358,18.189,3.471c8.476,1.723,16.834,2.964,25.512,2.784
					c20.351-0.423,40.376-9.941,51.714-27.107C726.749,342.251,726.618,321.713,718.688,304.906z M662.268,382.606
					c-9.37,0.2-18.5-1.774-27.649-3.484c-3.691-0.69-9.453-2.51-13.693-1.468c0.309-1.103,1.269-2.193,3.274-3.204
					c2.344-1.182,5.154-1.304,7.725-1.394c0.6-0.021,0.927-0.399,1.018-0.854c5.697,4.557,14.934,4.19,21.708,3.453
					c10.792-1.173,22.337-4.392,31.997-9.373c0.591-0.305,0.313-1.138-0.348-0.977c-17.056,4.145-40.335,16.292-56.004,2.844
					c-0.252-0.216-0.525,0.042-0.487,0.31c-2.517-1.942-5.313-3.414-8.204-4.932c-0.524-0.275-5.951-2.347-4.433-3.77
					c1.65-1.547,3.248-3.141,4.837-4.75c0.405-0.41,0.084-1.172-0.458-1.245c-4.697-0.631-7.867-1.967-11.926-4.346
					c-0.025-0.015-0.063-0.005-0.091-0.016c7.12-13.695,15.116-26.066,26.039-37.148c10.643-10.798,23.813-19.082,33.999-30.228
					c0.463-0.507-0.244-1.167-0.778-0.844c-13.343,8.049-25.723,19.676-36.585,30.821c-10.352,10.621-19.716,23.215-23.675,37.666
					c-1.848,1.351-3.652,2.157-5.445,2.586c-1.202-4.101-3.198-8.131-4.29-12.236c-1.79-6.736-2.485-13.749-2.642-20.699
					c-0.317-14.124,2.927-29.524,11.605-40.948c0.228-0.301-0.188-0.633-0.447-0.369c-9.94,10.109-12.982,24.158-13.576,37.909
					c-0.312,7.201,0.333,14.58,1.848,21.625c1.004,4.667,2.12,10.642,4.757,15.117c-2.836,0.156-5.691-0.38-8.705-0.887
					c-5.865-8.268-10.604-16.543-13.443-26.601c-2.902-10.277-3.556-21.211-2.387-31.796c2.304-20.853,14.015-39.618,34.307-46.771
					c17.384-6.128,36.203,1.87,53.829,2.702c7.268,0.343,13.278-1.369,17.742-4.822c-2.441,3.49-5.152,6.777-8.006,9.361
					c-0.873,0.791-0.253,2.529,1.029,1.995c7.963-3.32,16.284-7.218,22.692-13.158c-1.463,3.865-2.721,7.801-3.514,11.869
					c-0.168,0.858,0.81,1.876,1.688,1.428c0.969-0.494,1.941-0.979,2.896-1.485c-1.948,9.326,1.839,21.279,5.361,28.686
					c4.848,10.192,11.371,19.491,15.423,30.072c4.177,10.908,3.015,24.167-0.956,34.907
					C709.824,371.071,685.282,382.115,662.268,382.606z"/>
				<path style="fill:#3B0F06;" d="M700.138,275.529c-0.107-0.697-1.223-0.842-1.299-0.061c-0.88,8.993-2.15,17.543-5.907,25.857
					c-3.911,8.655-10.327,16.009-17.256,22.384c-6.605,6.076-14.08,11.18-21.666,15.939c-7.33,4.6-15.533,8.428-22.298,13.839
					c-0.173,0.138-0.038,0.421,0.181,0.349c8.237-2.725,16.172-7.664,23.558-12.132c8.223-4.974,16.284-10.511,23.31-17.096
					C692.109,312.096,703.073,294.571,700.138,275.529z"/>
				<path style="fill:#3B0F06;" d="M708.644,297.228c-0.097-0.521-0.868-0.625-0.967-0.045c-1.266,7.441-0.21,15.221-1.021,22.744
					c-0.944,8.762-5.054,17.285-11.744,23.048c-10.212,8.797-24.51,9.892-36.355,15.434c-0.56,0.262-0.274,1.023,0.316,0.891
					c12.974-2.897,29.208-5.726,39.18-15.296C710.324,332.226,711.602,313.128,708.644,297.228z"/>
				<path style="fill:#3B0F06;" d="M677.391,260.472c-9.08-5.181-23.124-7.884-33.464-6.224c-0.675,0.108-0.571,1.003,0.085,1.033
					c8.77,0.404,17.929,2.065,26.234,4.872c3.483,1.177,7.696,2.753,9.881,5.885c2.752,3.946-6.01,7.919-8.05,9.983
					c-0.406,0.411,0.02,1.174,0.572,1.097c4.399-0.618,9.346-3.947,10.543-8.438C684.2,264.901,680.135,262.038,677.391,260.472z"/>
			</g>
		</g>
	</g>
	<g>
		<path style="fill:#CADCC6;" d="M698.945,90.88c-8.566-16.244-27.289-24.491-44.88-19.832c-8.551,2.264-16.275,8.593-21.426,15.583
			c-6.13,8.319-9.128,17.292-8.121,27.635c0.154,1.586,0.748,2.95,1.615,4.062c-0.011,2.891,0.48,5.844,1.594,8.821
			c3.484,9.319,12.531,15.361,22.152,16.299c1.403,2.567,3.944,4.588,7.739,5.259c14.926,2.641,30.797-2.324,39.42-15.336
			C705.623,120.418,706.159,104.561,698.945,90.88z M655.898,110.25c-0.327,0.517-0.682,1.034-1.093,1.585
			c-0.032,0.044-0.216,0.246-0.441,0.497c0.013-0.133,0.025-0.334,0.037-0.557C654.933,111.335,655.435,110.829,655.898,110.25z"/>
		<path style="fill:#D2F3C8;" d="M694.454,143.755c-1.587-0.63-3.325-0.692-4.966-0.32c-5.646-3.123-14.011,0.963-13.244,8.393
			c0.092,0.895,0.239,1.811,0.421,2.741c-1.105,2.404-1.113,5.339-1.48,8.069c-0.544,4.052-1.054,8.665-3.598,12.01
			c-3.516,4.62-1.171,10.018,2.956,11.914c0.922,6.921,10.001,11.695,16.18,4.948c1.178-1.286,2.193-2.621,3.074-4
			c4.222-5.354,8.621-10.718,10.879-17.179C708.146,160.396,704.975,147.936,694.454,143.755z"/>
		<g>
			<g>
				<path style="fill:#3B0F06;" d="M704.53,70.249c-15.942-10.629-42.982-15.533-56.862,1.229c-0.176,0.212-0.242,0.439-0.26,0.663
					c-14.824,9.144-23.29,29.364-24.006,45.781c-0.44,10.101,1.154,23.339,10.271,29.484c8.729,5.884,21.505,1.763,30.857,0.052
					c0.215-0.04,0.431-0.065,0.646-0.102c2.825,6.835,5.526,12.846,2.883,20.536c-1.417,4.118-3.876,8.031-3.537,12.531
					c0.69,9.163,16.807,10.536,23.33,9.022c18.905-4.387,25.988-32.405,9.632-43.401c1.5-0.193,2.995-0.447,4.484-0.787
					c12.142-2.775,21.171-11.097,25.346-22.825C734.614,101.923,721.169,81.342,704.53,70.249z M703.117,170.111
					c-2.232,9.083-10.171,16.495-19.463,17.567c-5.118,0.59-12.502-1.417-15.968-5.315c-3.079-3.462,0.97-10.077,2.247-13.609
					c2.936-8.122,0.442-14.786-3.687-21.567c1.302-0.19,2.607-0.32,3.916-0.421c1.112,3.843,2.934,7.407,3.607,11.399
					c0.783,4.637-1.099,9.002-2.348,13.374c-0.165,0.576,0.688,0.921,1.031,0.477c6.036-7.818,4.011-17.539-0.979-25.329
					c7.429-0.437,14.934,0.206,22.352-0.295c-0.101,0.515,0.034,1.057,0.546,1.419C702.115,153.283,705.418,160.747,703.117,170.111
					z M699.825,142.488c-12.661,2.501-25.648,0.042-38.38,2.508c-5.678,1.1-11.322,2.296-17.131,2.319
					c-8.642,0.034-13.477-5.225-16.176-12.952c-8.609-24.647,7.231-58.301,32.368-65.722c0.64-0.189,0.413-1.225-0.245-1.139
					c-0.289,0.038-0.569,0.096-0.855,0.141c6.539-2.773,13.368-3.861,21.256-2.758c11.668,1.632,22.563,7.812,31.045,15.802
					c8.517,8.022,14.164,19.032,14.176,30.837C725.898,126.878,714.552,139.58,699.825,142.488z"/>
				<path style="fill:#3B0F06;" d="M667.426,136.872c-7.479-3.006-15.705-6.083-23.555-8.061c-1.232-0.31-1.911,0.994-1.691,2.001
					c0.452,2.072,0.363,4.155,0.514,6.228c-4.069-2.336-6.892-5.548-8.72-10.214c-0.171-0.436-0.823-0.298-0.797,0.171
					c0.369,6.557,5.521,10.502,10.69,13.746c0.863,0.542,2.101-0.415,1.95-1.366c-0.365-2.309-0.218-4.635-0.394-6.943
					c7.016,2.384,14.267,7.187,21.652,6.425C668.074,138.755,668.431,137.275,667.426,136.872z"/>
			</g>
		</g>
	</g>
	<g>
		<path style="fill:#CFB169;" d="M728.731,446.849c-2.077-2.821-4.553-5.463-7.445-7.868c-15.973-13.28-37.265-16.179-56.448-7.801
			c-2.21,0.965-4.192,2.092-5.981,3.356c-2.711-0.044-5.544,1.067-7.95,3.772c-6.723,7.556-13.027,15.803-18.205,24.637
			c-5.239,6.395-9.302,13.725-12.726,21.301c-3.271,7.237-5.923,14.893-7.33,22.741c-1.199,3.454-2.058,7.067-2.868,10.584
			c-2.652,11.504-6.695,33.513,2.643,43.445c0.112,3.984,2.089,7.979,6.038,9.859c15.948,7.593,34.25,4.268,49.616-3.112
			c14.104-6.775,27.571-16.724,37.323-29.175c0.701-0.807,1.39-1.622,2.062-2.449c1.137-1.022,2.255-2.048,3.351-3.075
			c14.356-13.444,30.756-32.506,31.818-53.191c0.073-1.428-0.012-2.822-0.277-4.14C744.811,462.782,741.691,450.055,728.731,446.849
			z"/>
		<g>
			<g>
				<path style="fill:#3B0F06;" d="M732.528,446.398c-2.846-3.509-6.604-5.949-10.643-7.875c-1.287-0.614-2.259,1.444-1.101,2.194
					c18.93,12.265,19.392,34.618,13.485,54.356c-6.316,21.111-19.796,36.637-36.299,50.652
					c-19.524,16.581-44.25,33.398-70.366,36.223c-10.26,1.109-24.234,0.412-31.969-7.405c-5.842-5.905-5.086-15.299-3.438-22.721
					c3.015-13.577,10.093-25.983,15.648-38.623c6.258-14.238,12.516-28.48,20.107-42.073c7.495-13.42,16.437-26.713,28.579-36.36
					c12.567-9.985,27.415-11.861,42.504-6.952c0.785,0.255,1.123-0.838,0.413-1.181c-36.226-17.496-63.548,22.634-77.896,50.027
					c-7.775,14.847-13.959,30.405-20.997,45.595c-6.365,13.738-16.245,31.599-11.164,47.221
					c5.813,17.875,32.26,17.402,46.909,14.345c24.753-5.166,47.49-21.244,66.308-37.461c15.49-13.35,27.524-28.261,34.191-47.789
					C742.518,481.823,744.362,460.991,732.528,446.398z"/>
				<path style="fill:#3B0F06;" d="M625.444,551.913c-0.3-8.261-9.475-17.622-17.716-17.382c-0.241,0.007-0.282,0.363-0.03,0.381
					c3.499,0.249,7.179,4.003,9.382,6.343c3.091,3.284,4.634,7.424,7.18,11.049C624.584,552.765,625.465,552.482,625.444,551.913z"
					/>
				<path style="fill:#3B0F06;" d="M648.729,545.898c-2.307-3.661-5.438-6.723-9.407-8.489c-0.251-0.111-0.508,0.259-0.305,0.45
					c3.188,2.994,6.079,6.059,8.232,9.902c1.994,3.561,2.349,7.976,4.551,11.308c0.393,0.594,1.203,0.116,1.295-0.428
					C653.798,554.498,650.859,549.281,648.729,545.898z"/>
				<path style="fill:#3B0F06;" d="M707.029,502.863c-0.681-0.354-1.57,0.438-0.955,1.081c2.383,2.494,4.687,4.801,6.358,7.864
					c1.763,3.231,2.325,6.861,3.86,10.171c0.292,0.629,1.13,0.373,1.235-0.23C718.771,514.615,713.23,506.077,707.029,502.863z"/>
			</g>
		</g>
	</g>
	<g>
		<path style="fill:#8BD95F;" d="M267.684,697.499c-1.243-8.076-7.225-13.767-13.857-17.852c-1.097-0.675-2.236-1.258-3.399-1.79
			c-8.08-8.106-20.458-12.991-31.926-14.083c-2.107-4.89-5.159-9.372-8.689-13.487c-6.838-9.807-15.371-18.261-26.12-23.137
			c-8.736-12.511-17.294-25.065-30.659-33.385c-9.804-6.103-20.778-7.525-31.945-5.125c-9.261,1.99-15.267,10.506-14.596,19.765
			c0.371,5.121,2.629,10.005,5.528,14.413c0.842,2.253,2.015,4.463,3.399,6.553c5.089,7.681,13.107,13.633,21.004,18.125
			c0.126,0.072,0.259,0.14,0.387,0.211c1.668,1.144,3.389,2.173,5.138,3.138c0.537,3.989,2.433,8.013,5.046,11.679
			c4.763,6.685,11.159,12.521,17.544,17.634c2.442,1.957,5.021,3.736,7.736,5.297c-3.789-2.178,2.204,1.379,3.479,2.119
			c1.773,1.029,3.612,1.94,5.473,2.8c3.066,1.415,6.376,2.671,9.754,3.447c8.021,7.982,16.951,15.35,27.039,20.154
			c12.143,5.784,29.316,7.281,41.24,0.111C264.961,710.657,268.724,704.262,267.684,697.499z"/>
		<path style="fill:#6EAB81;" d="M119.992,569.667c-4.444-1.92-8.511-3.79-13.424-3.924c-2.952-0.08-4.55,2.329-4.704,4.856
			c-0.486,1.511-0.489,3.301-0.534,4.8c-0.054,1.828-0.022,3.711-0.087,5.582c-1.085,2.9-2.614,5.601-4.884,8.008
			c-3.699,3.922,2.094,9.975,6.35,6.88c1.682-1.224,3.331-2.508,4.943-3.844c1.338-0.384,2.544-1.274,3.264-2.765
			c0.021-0.043,0.036-0.087,0.056-0.13c3.987-3.65,7.64-7.673,10.703-12.092C123.375,574.587,123.013,570.973,119.992,569.667z"/>
		<g>
			<g>
				<path style="fill:#3B0F06;" d="M93.248,558.398c-7.39-8.618-20.792-10.394-30.939-5.048
					c-9.782,5.154-13.176,20.027-4.435,27.693c7.718,6.769,14.645-2.244,11.59-10.144c-0.265-0.687-1.19-0.406-1.197,0.269
					c-0.04,3.487,0.649,9.103-4.027,9.813c-3.965,0.601-7.037-3.637-8.244-6.774c-4.761-12.368,7.882-21.049,18.571-21.42
					c3.881-0.135,7.318,0.688,10.285,2.212c1.921,2.765,4.45,4.82,7.363,6.398c2.59,3.534,4.316,7.876,5.064,12.538
					c1.298,8.094-0.21,16.418-1.957,24.436c-0.9,0.5-1.814,0.987-2.759,1.445c-0.726,0.353-0.349,1.436,0.44,1.187
					c0.631-0.198,1.259-0.416,1.882-0.65c-0.215,0.966-0.43,1.929-0.641,2.884c-0.055,0.248,0.314,0.353,0.417,0.13
					c0.525-1.14,1.008-2.319,1.468-3.517c1.492-0.617,2.962-1.316,4.404-2.106c-1.619,15.255,7.069,31.372,15.237,43.365
					c11.768,17.28,27.545,31.845,43.823,44.792c18.127,14.42,37.313,26.784,59.834,33.045c10.654,2.961,21.005,3.529,31.568,0.021
					c9.795-3.253,18.821-8.259,28.622-11.597c0.172,0.535,0.344,1.069,0.497,1.616c0.111,0.395,0.73,0.238,0.692-0.155
					c-0.059-0.601-0.152-1.19-0.249-1.778c0.409-0.134,0.81-0.284,1.222-0.412c1.352-0.418,0.858-2.717-0.55-2.448
					c-0.409,0.078-0.806,0.188-1.212,0.275c-2.636-10.004-10.563-18.021-18.685-24.066c-9.412-7.005-22.163-13.786-34.003-15.284
					c-4.036-9.647-10.307-18.747-17.48-26.2c-6.548-6.804-17.155-16.247-27.443-16.059c-5.098-10.133-12.686-18.602-21.204-26.087
					c-9.009-7.915-22.398-17.678-34.779-18.523c-0.656-0.044-0.976,0.802-0.349,1.121c4.892,2.492,10.254,4.006,15.19,6.482
					c6.134,3.076,11.794,7.058,17.133,11.345c8.99,7.22,16.556,16.18,23.072,25.686c-0.047,0.004-0.095-0.001-0.142,0.003
					c-0.658,0.057-0.822,0.985-0.218,1.259c0.569,0.258,1.142,0.501,1.716,0.734c0.117,0.175,0.24,0.348,0.355,0.523
					c0.136,0.205,0.488,0.021,0.385-0.206c-0.006-0.013-0.013-0.024-0.018-0.037c3.8,1.484,7.665,2.604,11.308,4.655
					c5.053,2.844,9.432,6.849,13.489,10.941c7.167,7.232,12.559,15.879,17.285,24.831c-0.012,0.184,0.067,0.364,0.254,0.487
					c0.457,0.872,0.917,1.744,1.362,2.621c0.4,0.785,1.632,0.383,1.316-0.489c-0.138-0.379-0.306-0.752-0.451-1.131
					c10.422,4.485,20.931,7.674,30.593,14.096c9.039,6.008,16.13,13.686,19.997,23.598c-8.217,2.009-15.694,5.873-23.418,9.312
					c-11.025,4.907-21.625,5.319-33.308,2.488c-22.871-5.543-42.288-18.577-60.526-32.934
					c-15.425-12.142-29.896-25.848-41.604-41.657c-10.364-13.994-16.254-28.632-16.931-45.628
					c9.9-6.157,18.371-15.983,24.192-25.259c0.284-0.454,0.254-0.93,0.07-1.318c0.444,0.139,0.88,0.283,1.307,0.436
					c0.504,0.181,1.057-0.528,0.535-0.857c-5.773-3.627-12.252-4.699-18.888-5.787C103.799,562.524,98.391,561.01,93.248,558.398z
					 M102.855,593.438c-0.003-0.509-0.018-1.011-0.011-1.523c0.009-0.712-0.974-0.622-1.146-0.05
					c-0.292,0.978-0.53,1.962-0.725,2.951c-1.28,0.905-2.6,1.769-3.965,2.589c3.679-10.988,4.379-23.731-0.612-34.134
					c9.021,3.33,20.292,3.689,29.002,5.992c-0.084,0.068-0.171,0.121-0.249,0.221C118.295,578.313,111.518,586.832,102.855,593.438z
					"/>
				<path style="fill:#3B0F06;" d="M168.058,621.169c-1.791,4.616-3.731,8.835-7.512,12.192c-4.057,3.604-8.937,4.677-13.996,6.054
					c-0.572,0.156-0.484,1.115,0.107,1.164c10.563,0.88,22.724-8.12,22.529-19.215C169.175,620.776,168.269,620.626,168.058,621.169
					z"/>
				<path style="fill:#3B0F06;" d="M216.168,664.958c-4.221,2.845-7.551,6.809-11.855,9.629c-5.094,3.337-10.618,4.104-16.564,3.41
					c-0.619-0.072-0.992,0.871-0.34,1.094c10.727,3.674,23.94-4.111,29.638-13.198C217.421,665.296,216.816,664.521,216.168,664.958
					z"/>
				<path style="fill:#3B0F06;" d="M261.181,697.419c-10.61,6.108-20.525,9.129-32.743,6.088c-0.292-0.073-0.423,0.379-0.154,0.495
					c10.845,4.678,25.024,2.522,33.607-5.827C262.348,697.731,261.654,697.148,261.181,697.419z"/>
			</g>
		</g>
	</g>
	<g>
		<path style="fill:#FAC380;" d="M534.394,659.477c-18.015-8.703-37.841-7.84-57.275-5.152c-14.362-2.83-28.96,0.152-43.263,4.495
			c-12.172,1.034-24.277,2.962-36.111,5.841c-5.107,0.975-10.163,2.203-15.149,3.807c-15.06-1.21-30.163-2.06-44.716,1.08
			c-0.225,0.039-0.446,0.086-0.665,0.145c-2.887,0.648-5.752,1.447-8.59,2.443c-5.039,1.769-2.283,9.172,2.751,7.73
			c0.494-0.142,0.991-0.263,1.488-0.392c0.854,2.072,2.752,3.845,4.985,4.055c0.624,0.059,1.244,0.131,1.864,0.2
			c5.788,2.37,12.145,3.296,18.549,3.438c2.461,0.606,4.913,1.248,7.361,1.917c2.236,2.702,5.999,4.309,10.71,3.283
			c0.178-0.039,0.355-0.083,0.534-0.122c1.746,0.493,3.495,0.983,5.251,1.464c14.928,4.082,29.773,7.499,44.439,12.479
			c13.6,4.617,28.633,3.942,42.738,5.992c15.64,2.273,32.227,4.156,47.765,0.448c13.109-3.129,31.308-14.639,30.908-29.656
			C551.574,673.051,543.079,663.673,534.394,659.477z M400.06,686.609c0.043,0.167,0.085,0.334,0.136,0.496
			c-0.578-0.125-1.155-0.254-1.733-0.38C398.996,686.692,399.527,686.65,400.06,686.609z"/>
		<path style="fill:#6EAB81;" d="M744.603,680.693c1.638-5.447,0.565-11.063-1.475-16.253c-1.117-5.938-2.939-11.615-6.091-17.365
			c-0.638-6.255-2.186-12.473-4.042-18.276c-0.206-0.646-0.504-1.232-0.843-1.788c0.048-0.461,0.095-0.922,0.134-1.373
			c0.222-2.56-0.376-4.719-1.473-6.421c-0.403-5.479-1.568-10.907-5.534-14.661c-9.145-8.656-20.643,2.65-26.851,9.035
			c-0.798,0.82-1.588,1.646-2.384,2.466c-0.096,0.099-1.722,1.616-1.413,1.373c-2.378,2.089-4.799,4.14-7.252,6.138
			c-2.654,2.162-5.358,4.081-8.221,5.705c-2.595,0.786-5.198,1.541-7.82,2.221c-8.575,2.223-17.312,3.718-25.894,5.933
			c-9.251,2.389-18.42,5.089-27.552,7.896c-15.337,4.713-31.688,8.975-45.758,16.913c-6.071,3.426-10.106,9.03-11.674,15.161
			c-4.165,6.199-5.302,14.565-3.551,21.67c1.793,7.27,7.302,12.475,13.997,15.068c2.458,1.764,5.171,3.108,7.998,3.88
			c1.872,0.511,3.697,0.687,5.452,0.585c0.704,0.56,1.525,1.051,2.482,1.447c9.12,3.771,18.679,5.734,28.283,7.56
			c10.726,3.882,21.466,7.532,33.135,8.268c0.101,0.007,0.199,0.007,0.299,0.012c10.995,5.277,24.825,5.319,36.589,4.868
			c13.742-0.526,28.101-2.759,41.029-7.556c1.124-0.417,2.223-0.897,3.313-1.394c0.666-0.25,1.343-0.465,2.026-0.657
			c0.126-0.019,0.296-0.046,0.523-0.084c3.454-0.499,7.212-1.287,9.43-4.32c4.524-6.188,3.304-14.797,0.729-21.535
			c-0.012-0.03-0.024-0.06-0.036-0.091c-0.506-2.909-1.254-5.703-2.178-8.414c-0.306-2.593-0.819-5.2-1.387-7.786
			c-0.058-0.266-0.124-0.528-0.184-0.794C741.424,686.911,743.583,684.087,744.603,680.693z"/>
		<g>
			<g>
				<path style="fill:#3B0F06;" d="M755.891,703.69c3.531-11.22-10.455-13.964-18.666-16.898c4.048-2.926,9.818-6.474,5.689-10.552
					c3.697-0.099,7.43-0.665,11.222-1.957c0.096,0.348,0.176,0.708,0.288,1.039c0.165,0.488,0.967,0.415,1.012-0.111
					c0.04-0.478,0.071-0.952,0.097-1.423c0.213-0.082,0.423-0.14,0.635-0.226c0.277-0.113,0.185-0.585-0.128-0.523
					c-0.16,0.031-0.315,0.053-0.475,0.084c0.271-6.084-0.312-11.571,2.896-17.359c0.212-0.382-0.022-0.972-0.431-1.116
					c-6.283-2.229-12.565-4.476-19.016-6.171c-0.03-0.046-0.063-0.096-0.093-0.142c-4.128-6.479-3.343-12.614-2.492-19.923
					c0.394-3.386-1.129-5.435-3.473-6.88c2.565-0.071,5.137,0.061,7.719,0.462c0.102,0.016,0.182-0.024,0.246-0.084
					c0.599,0.109,1.214,0.193,1.858,0.232c0.707,0.044,1.049-0.909,0.357-1.228c-6.853-3.154-10.777-6.142-15.017-12.361
					c-2.545-3.732-5.383-6.702-9.215-8.783c0.189-0.221,0.386-0.435,0.573-0.658c0.462-0.549-0.321-1.426-0.876-0.933
					c-0.351,0.313-0.714,0.606-1.067,0.916c-0.224-0.104-0.435-0.218-0.666-0.315c-0.102-0.043-0.205,0.107-0.106,0.172
					c0.177,0.115,0.346,0.24,0.518,0.361c-13.022,11.361-27.297,20.721-43.246,27.48c-16.61,7.04-34.322,11.263-51.772,15.626
					c-13.394,3.349-26.957,6.046-40.11,10.291c-11.243,3.629-22.312,8.733-29.063,18.784c-0.108,0.162,0.103,0.342,0.236,0.193
					c8.984-9.968,23.597-14.464,36.079-18.065c13.861-3.999,28.133-6.673,42.125-10.186c25.643-6.44,52.424-14.181,73.393-30.422
					c-0.018-0.01-0.035-0.019-0.045-0.042c-0.339-0.81-0.089-1.59,0.2-2.373c0.026-0.074,0.137-0.029,0.112,0.045
					c-0.247,0.745-0.474,1.492-0.128,2.246c0.003,0.005-0.001,0.009,0,0.015c4.816-3.743,9.322-7.936,13.437-12.667
					c6.845,5.686,10.42,16.053,18.126,20.176c-1.96-0.246-3.969-0.229-5.987-0.05c-0.234-0.098-0.473-0.192-0.715-0.285
					c-0.31-0.119-0.499,0.178-0.404,0.413c-5.137,0.609-10.3,2.226-14.888,3.646c-11.91,3.688-23.262,8.968-35.174,12.648
					c-15.773,4.873-33.04,6.196-49.292,8.861c-17.192,2.82-34.817,5.903-50.843,12.977c-0.626,0.275-0.269,1.177,0.378,0.981
					c16.713-5.049,33.476-9.012,50.698-11.88c15.209-2.533,30.753-4.241,45.712-8.072c17.783-4.554,36.079-16.718,54.879-18.025
					c6.077,5.333,1.155,16.808,3.813,23.962c2.843,7.649,11.709,13.866,7.488,21.71c-25.382-2.376-49.199-14.972-75.128-11.357
					c-15.18,2.117-29.213,9.512-43.772,13.9c-15.879,4.785-32.692,4.547-48.502,9.475c-0.588,0.183-0.352,1.16,0.256,1.047
					c14.597-2.737,29.804-3.344,44.149-7.261c16.242-4.435,31.458-12.163,48.091-15.169c25.501-4.61,49.367,9.548,74.572,9.945
					c-0.283,0.46-0.602,0.925-0.98,1.396c-0.493,0.616,0.273,1.324,0.899,0.957c1.236-0.726,2.167-1.52,2.856-2.362
					c0.028-0.001,0.056,0,0.083-0.001c0.146-0.004,0.184-0.188,0.108-0.281c4.063-5.459-1.844-12.93-5.503-18.489
					c2.822,1.326,5.689,2.506,8.602,3.623c2.9,1.113,9.081,1.556,7.268,5.464c-2.012,4.334-2.488,10.372-1.395,15.229
					c-8.944,1.541-17.173,1.578-26.208-0.538c-9.278-2.173-18.094-5.633-27.526-7.195c-17.273-2.861-37.511-0.005-52.552,9.226
					c-0.559,0.344-0.052,1.187,0.529,0.977c19.656-7.071,37.468-11.377,58.385-6.935c12.011,2.551,23.545,7.367,35.418,7.321
					c2.909,4.616-4.474,7.618-7.493,9.968c-0.629,0.489-0.561,1.489,0.19,1.826c7.143,3.199,21.002,4.428,19.346,15.07
					C753.815,704.225,755.544,704.79,755.891,703.69z"/>
				<path style="fill:#3B0F06;" d="M756.488,704.536c-29.581,3.367-56.487-10.534-85.252-13.771
					c-13.406-1.51-26.988-1.11-40.439-0.634c-14.498,0.513-28.998,0.291-43.483,0.73c-0.781,0.024-0.773,1.242-0.024,1.347
					c13.578,1.894,27.736,0.656,41.379,0.146c14.901-0.557,29.787-0.855,44.632,0.821c28.241,3.189,54.143,17.134,83.2,11.461
					C756.563,704.625,756.555,704.528,756.488,704.536z"/>
				<path style="fill:#3B0F06;" d="M763.006,743.219c-0.249,0.005-0.498,0.008-0.747,0.013c0.032-0.185-0.018-0.38-0.193-0.505
					c-3.918-2.795-8.529-4.967-12.976-6.935c3.293-2.781,6.979-5.004,10.653-7.265c0.58-0.357,0.489-1.398-0.169-1.621
					c-9.265-3.139-10.432-14.66-17.465-20.525c-0.247-0.205-0.637,0.142-0.418,0.392c4.941,5.648,6.738,13.209,11.809,18.748
					c0.283,0.308,3.224,2.623,3.321,2.564c-3.571,2.123-7.037,4.378-10.107,7.188c-0.529,0.484-0.565,1.367,0.177,1.694
					c4.372,1.931,8.512,4.897,13.089,6.304c-38.487,0.688-76.553,0.004-114.777-5.379c-19.352-2.726-38.341-7.739-56.884-13.831
					c-14.029-4.609-32.128-8.437-40.899-20.418c0.571-0.324,1.139-0.648,1.715-0.972c1.357-0.764,0.075-3.127-1.299-2.398
					c-0.648,0.344-1.287,0.701-1.93,1.056c-1.572-2.706-2.715-5.781-3.289-9.32c-0.23-1.413-2.245-1.172-2.193,0.246
					c0.15,4.08,1.18,7.556,2.841,10.558c-6.583,3.773-12.993,7.865-19.935,10.955c-10.56,4.699-22.039,4.834-33.329,3.637
					c-21.71-2.301-42.316-10.361-63.326-15.8c-21.86-5.658-44.463-7.643-66.69-11.319c-18.98-3.141-36.693-11.317-55.173-16.526
					c1.983-0.306,4.003-0.78,6.479-1.512c5.69-1.681,11.405-3.271,17.153-4.741c13.725-3.511,27.763-5.695,41.953-5.415
					c1.19,0.024,2.374,0.013,3.562,0.024c-1.557,1.155-2.663,2.797-2.721,4.781c-0.02,0.676,0.679,0.987,1.167,0.518
					c1.294-1.249,2.006-2.903,3.388-4.128c0.53-0.471,1.155-0.847,1.823-1.146c22.28-0.016,44.193-2.121,66.202-6.178
					c0.038-0.007,0.076-0.013,0.114-0.02c-6.116,3.212-12.838,10.886-10.944,18.076c0.161,0.614,0.944,0.345,1.076-0.119
					c1.018-3.572,1.288-6.835,3.305-10.108c1.978-3.209,4.942-5.653,7.778-8.064c13.111-2.353,26.362-3.762,39.537-3.112
					c-0.505,0.574-0.949,1.205-1.322,1.864c-0.988,1.743-2.228,4.977-0.833,6.771c0.274,0.354,0.961,0.488,1.237,0.038
					c0.949-1.543,0.738-3.668,1.506-5.383c0.541-1.207,1.378-2.179,2.254-3.127c6.288,0.456,12.555,1.398,18.777,2.962
					c2.965,0.745,5.898,1.344,8.831,1.863c-1.091,3.526-1.312,7.046-0.499,10.702c0.213,0.96,1.368,1.447,2.073,0.613
					c1.132-1.34,2.71-2.065,4.069-3.102c1.318,2.328,2.543,4.695,3.743,7.091c0.393,0.784,1.56,0.551,1.505-0.368
					c-0.208-3.498-2.15-6.484-3.937-9.4c-0.421-0.687-1.476-0.643-1.951-0.061c-1.027,1.259-2.445,1.999-3.715,2.944
					c-0.628-2.741-0.61-5.4-0.325-8.246c5.263,0.899,10.53,1.544,15.975,2.24c4.713,0.602,9.379,1.591,13.655,3.717
					c7.944,3.948,6.089,13.87,5.975,21.098c-0.001,0.077,0.127,0.078,0.135,0.003c0.908-8.228,2.529-16.974-5.56-21.995
					c-7.227-4.487-17.468-4.377-25.632-5.281c-1.507-0.167-3-0.397-4.488-0.657c-0.035-0.384-0.607-0.571-0.754-0.151
					c-0.001,0.003-0.002,0.005-0.003,0.008c-8.67-1.592-17.083-4.393-25.939-5.339c-0.216-0.023-0.431-0.033-0.646-0.054
					c0.036-0.041,0.074-0.079,0.109-0.12c0.445-0.512-0.146-1.144-0.712-0.984c-0.681,0.193-1.305,0.508-1.882,0.895
					c-9.091-0.631-18.245,0.13-27.269,1.218c-27.906,3.365-54.848,8.45-83.133,7.804c-12.975-0.297-25.382,0.352-38.165,2.845
					c-13.564,2.643-27.235,8.989-41.022,8.689c-1.593-0.035-1.985,2.115-0.371,2.484c21.483,4.906,41.506,14.688,63.212,18.771
					c23.954,4.506,48.192,6.246,71.805,12.656c21.635,5.873,42.765,13.592,65.316,15.118c18.71,1.266,32.753-6.849,48.051-15.581
					c6.237,8.611,18.114,12.832,28.465,16.299c20.278,6.792,40.352,13.218,61.429,17.139c20.851,3.879,42.273,5.534,63.426,6.71
					c21.505,1.194,43.654,1.783,64.991-1.547C763.417,743.704,763.353,743.212,763.006,743.219z"/>
				<path style="fill:#3B0F06;" d="M721.621,717.476c-24.403-4.425-49.587,2.71-73.763-2.285
					c-25.273-5.222-50.445-10.974-75.429-17.47c-0.709-0.185-1.025,0.965-0.357,1.227c23.417,9.177,48.807,12.388,73.188,18.03
					c11.52,2.666,22.414,1.976,34.132,1.407c14.115-0.685,28.102-0.471,42.218-0.372
					C721.93,718.017,721.912,717.528,721.621,717.476z"/>
				<path style="fill:#3B0F06;" d="M466.317,657.062c0.494-0.311,0.268-1.125-0.289-1.191c-4.768-0.567-12.892,1.893-14.869,6.737
					c-0.21,0.514,0.415,1.122,0.891,0.723c1.925-1.621,3.973-2.741,6.355-3.538C461.087,658.894,463.895,658.584,466.317,657.062z"
					/>
			</g>
		</g>
	</g>
	<g>
		<path style="fill:#6EAB81;" d="M512.229,582.335c-1.725-1.111-3.509-2.123-5.338-3.036c-8.566-7.316-20.325-11.316-31.082-9.102
			c-8.857,1.822-15.5,8.77-13.787,18.306c0.757,4.217,2.441,8.09,4.751,11.566c1.577,5.482,4.896,10.612,8.579,14.628
			c6.313,6.887,14.608,12.88,24.167,13.889c10.059,1.063,20.543-4.752,23.695-14.729c0.796-2.521,1.081-4.922,0.974-7.207
			c0.229-0.775,0.435-1.564,0.586-2.383C526.473,595.086,519.374,586.938,512.229,582.335z"/>
		<path style="fill:#736357;" d="M520.065,609.888c-0.146-1.797-1.152-3.765-2.682-4.89c-1.082-1.08-2.469-1.854-3.991-2.088
			c-1.713-0.264-2.669-0.066-4.331,0.382c-1.845,0.498-3.936,2.339-4.58,4.158c-0.563,1.241-0.792,2.542-0.688,3.901
			c0.17,2.102,1.203,4.023,2.807,5.381c0.004,0.003,0.007,0.007,0.011,0.01c2.07,1.752,5.052,2.244,7.593,1.339
			c1.409-0.503,2.57-1.379,3.445-2.49c0.3-0.287,0.598-0.576,0.896-0.864C519.731,613.578,520.192,611.466,520.065,609.888z"/>
		<path style="fill:#86DC95;" d="M458.16,579.69c2.739-9.747,1.957-23.252-5.958-29.769c-2.889-2.378-6.736,0.045-6.703,3.497
			c0.049,4.944,2.396,9.532,3.297,14.349c0.714,3.812,1.313,7.667,1.749,11.53c-3.393,1.732-6.065,5.313-8.348,8.182
			c-1.541,1.936-2.928,3.507-4.462,4.745c-0.571,0.032-1.168,0.132-1.788,0.32c-2.899,0.881-5.703,2.481-7.506,4.953
			c-3.825,5.243-0.483,13.971,6.8,13.033c7.12-0.917,12.591-5.494,17.119-10.785c3.328-3.889,7.299-9.353,7.853-14.579
			C460.456,582.867,459.615,580.917,458.16,579.69z"/>
		<g>
			<g>
				<path style="fill:#3B0F06;" d="M482.697,563.696c-5.803,0.234-11.904,1.857-16.598,4.933
					c-0.405-9.651-7.911-19.688-17.314-21.007c-0.245-0.162-0.632-0.134-0.822,0.142c-6.339,9.174,1.199,20.578,9.589,26.3
					c-20.417-1.439-37.59,18.05-34.202,38.626c0.073,0.445,0.828,0.517,0.914,0.043c1.836-10.108,2.541-19.449,9.589-27.577
					c6.475-7.466,15.831-9.538,25.221-10.127c0.223,0.132,0.445,0.261,0.667,0.384c-1.554,3.016-2.167,6.624-1.371,10.874
					c0.061,0.327,0.284,0.498,0.535,0.541c-1.252,3.315-2.741,6.568-4.666,9.743c-6.385,10.527-15.598,15.215-27.716,13.384
					c-0.394-0.06-0.434,0.509-0.114,0.643c17.565,7.329,31.694-10.922,36.921-28.09c2.485,32.645,53.871,69.962,72.727,28.502
					C549.962,580.434,506.224,562.748,482.697,563.696z M450.393,564.148c-3.096-5.175-2.111-9.88-1.473-15.339
					c5.189,2.083,9.092,4.933,12.016,9.857c2.241,3.774,2.67,7.687,2.797,11.74c-1.339,1.167-2.509,2.478-3.423,3.962
					c-0.068-0.011-0.135-0.016-0.203-0.026C456.258,571.509,452.942,568.408,450.393,564.148z M512.741,627.386
					c-20.976,2.941-40.708-19.727-47.155-37.286c-0.988-2.692-1.715-5.333-2.017-8.188c-0.003-0.028-0.022-0.044-0.037-0.062
					c0.604-2.069,1.073-4.117,1.406-6.099c0.02-0.032,0.043-0.059,0.058-0.097c0.324-0.829,0.567-1.685,0.75-2.553
					c5.742-5.35,14.811-6.824,23.905-6.197c15.16,1.046,32.141,7.641,41.588,19.994C542.674,601.852,530.458,624.9,512.741,627.386z
					"/>
				<path style="fill:#3B0F06;" d="M521.463,604.593c-1.531-1.781-3.948-2.417-6.213-2.326c-2.556,0.102-7.76,1.245-8.595,4.004
					c-0.103,0.341,0.082,0.788,0.456,0.874c0.189,0.043,0.383,0.047,0.576,0.056c-0.73,0.747-1.401,1.578-1.995,2.518
					c-1.641,2.599-1.865,6.227,0.863,8.2c4.696,3.395,11.745,3.434,15.148-1.613C523.977,612.934,524.185,607.76,521.463,604.593z
					 M520.47,613.528c-1.151,3.325-4.334,5.037-7.742,4.357c-3.989-0.796-7.734-2.531-5.302-7.047
					c0.93-1.725,2.467-3.387,4.135-4.799c0.726-0.337,1.439-0.66,2.118-0.833c1.744-0.445,3.633-0.438,5.179,0.561
					C521.362,607.386,521.328,611.047,520.47,613.528z"/>
			</g>
		</g>
	</g>
	<g>
		<path style="fill:#86DC95;" d="M124.688,708.908c-0.61-2.142-1.712-3.663-3.079-4.648c-1.164-1.977-2.138-4.157-3.187-6.038
			c-2.07-3.711-4.135-7.417-6.425-10.998c-7.956-12.439-20.994-20.017-35.4-22.275c-2.903-0.455-5.423,0.511-7.299,2.193
			c-1.328-0.101-2.673-0.162-4.039-0.178c-7.004-0.082-9.737,8.129-7.082,13.489c0.49,7.151,4.203,13.553,9.576,18.241
			c3.027,5.358,7.486,10.151,12.092,14.147c7.698,6.677,22.069,14.706,31.404,7.45c0.312,0.172,0.632,0.323,0.97,0.433
			c6.736,2.172,13.133-1.699,13.042-9.132C125.248,710.677,124.938,709.787,124.688,708.908z"/>
		<g>
			<g>
				<path style="fill:#3B0F06;" d="M55.817,668.58c-0.258,0.217-0.35,0.538-0.327,0.843c-0.317,0.025-0.626,0.225-0.664,0.571
					c-1.989,18.154,8.96,38.847,24.05,48.553c7.24,4.656,16.062,6.543,24.33,8.439c4.831,1.107,9.653,2.228,14.364,3.784
					c4.45,1.471,8.551,3.761,12.958,5.33c0.789,0.281,1.373-0.593,0.794-1.206c-5.129-5.434-13.108-7.418-20.123-9.232
					c-8.151-2.108-16.465-3.446-24.34-6.529c-9.264-3.627-16.279-10.574-21.399-18.976c-5.665-9.296-6.746-19.563-9.167-29.876
					c0.109-0.004,0.227-0.031,0.351-0.09c9.452-4.399,18.138-8.238,28.697-5.329c9.569,2.637,17.19,10.498,23.083,18.077
					c11.929,15.341,18.108,33.751,27.552,50.487c0.338,0.6,1.218,0.078,1.028-0.527c-6.209-19.802-15.877-40.518-29.568-56.245
					C94.215,661.467,72.804,654.29,55.817,668.58z"/>
				<path style="fill:#3B0F06;" d="M93.313,672.276c-6.415-2.55-17.9-1.951-23.034,3.707c-3.847-2.185-8.496-4.373-12.405-3.8
					c-0.271,0.04-0.481,0.438-0.203,0.627c3.318,2.239,7.384,3.541,11.106,5.324c-0.269,0.522-0.494,1.074-0.669,1.658
					c-0.04,0.135,0.163,0.184,0.224,0.073c0.295-0.529,0.635-1.013,1.008-1.461c0.668,0.333,1.326,0.68,1.961,1.059
					c6.084,3.631,11.671,8.064,17.006,12.715c2.213,6.819,2.647,15.188,8.025,20.251c0.413,0.389,1.122-0.1,0.907-0.624
					c-1.597-3.901-3.385-7.616-4.716-11.634c-0.606-1.831-1.256-3.603-1.963-5.353c0.21-0.02,0.413-0.036,0.62-0.055
					c5.076,4.609,9.901,9.511,14.537,14.556c4.435,4.825,8.291,11.519,13.551,15.423c0.586,0.434,1.472-0.078,1.203-0.827
					c-2.079-5.778-7.816-11.044-11.855-15.537c-4.3-4.783-8.777-9.372-13.473-13.751c2.008,0.071,3.968,0.399,6.045,1.188
					c3.196,1.214,5.82,3.501,8.932,4.854c0.506,0.221,1.156-0.385,0.751-0.873c-3.847-4.631-11.31-8.042-17.556-6.835
					c-0.683-0.621-1.354-1.255-2.047-1.866c-5.497-4.851-11.361-9.379-17.657-13.146c-0.702-0.42-1.47-0.883-2.279-1.357
					c5.74-4.018,15.756-3.086,21.763-3.136C93.703,673.451,93.876,672.5,93.313,672.276z"/>
				<path style="fill:#3B0F06;" d="M65.941,680.273c3.416,6.459,5.186,14.817,10.494,20.05c0.437,0.431,1.245-0.117,0.992-0.683
					c-2.974-6.625-5.215-14.817-10.111-20.313C66.599,678.524,65.434,679.315,65.941,680.273z"/>
			</g>
		</g>
	</g>
</g>
</svg>
