<svg xmlns="http://www.w3.org/2000/svg" xmlns:xlink="http://www.w3.org/1999/xlink" version="1.1" x="0px" y="0px" style="enable-background:new 0 0 500 500;" xml:space="preserve" viewBox="26.83 179.1 134.89 150.26">
	<g id="OBJECTS">
		<g>
			<g>
				<path style="fill:#FF4D6A;" d="M153.573,238.734c0.822,2.563,1.545,5.284,2.385,8.14c2.822,9.598,4.213,19.17,2.782,29.16     c-2.648,18.483-14.003,35.044-30.41,44.002c-9.458,5.164-20.209,7.619-30.961,7.486c-21.692,1.75-42.693-9.407-52.881-29.311     c-5.53-10.803-10.669-24.13-8.536-36.468c1.97-11.396,10.762-21.096,20.222-27.118c15.803-10.059,37.137-15.534,55.654-16.917     c9.64-0.72,19.717-0.274,28.346,4.082C148.333,225.909,151.324,231.726,153.573,238.734z"/>
				<path style="fill:#B36B3C;" d="M64.781,190.558c0.475-0.788,1.072-1.506,1.78-2.119c3.454-2.984,9.326-2.898,11.525,1.602     c0.919,1.881,0.699,3.925,0.707,5.943c0.01,2.331,0.126,4.672,0.179,7.004c0.072,3.2,0.557,7.536-2.213,9.841     c-7.684,6.392-12.884-11.851-13.283-16.683C63.315,194.195,63.778,192.221,64.781,190.558z"/>
			</g>
			<g>
				<path style="fill:none;stroke:#000000;stroke-width:3;stroke-linecap:round;stroke-linejoin:round;stroke-miterlimit:10;" d="     M159.896,272.578c-0.11,1.287-0.283,2.568-0.505,3.84c-2.212,12.659-9.075,25.327-18.864,33.712     c-4.896,4.194-10.259,6.695-16.534,7.976c-7.343,1.499-12.909,6.093-19.927,8.23c-5.695,1.734-11.802,1.849-17.666,1.047     c-11.552-1.58-23.389-6.65-31.904-14.724c-16.861-15.988-32.795-44.02-23.337-67.069c3.738-9.109,11.503-16.213,20.948-19.033     c4.728-1.412,9.757-1.725,14.626-0.934c4.915,0.798,10.352,4.356,15.368,2.861c3.986-1.188,5.843-5.061,7.765-8.384     c8.849-15.302,27.531-20.672,42.906-13.151C155.156,217.889,161.874,249.426,159.896,272.578z"/>
				<path style="fill:none;stroke:#000000;stroke-width:3;stroke-linecap:round;stroke-linejoin:round;stroke-miterlimit:10;" d="     M65.523,186.907c0.124-2.208,0.618-4.739,2.556-5.806c1.526-0.84,3.406-0.455,5.1-0.047c1.939,0.466,3.877,0.933,5.816,1.399     c0.775,0.186,1.622,0.421,2.068,1.082c0.978,1.453-0.725,3.597-1.305,4.89c-1.919,4.276-2.687,9.072-2.651,13.803     c0.023,2.987,0.483,5.943,0.797,8.907c0.165,1.555,1.284,6.495-0.553,7.477c-3.13,1.673-7.41-9.175-8.209-11.141     C66.51,200.992,65.131,193.905,65.523,186.907z"/>
				<path style="fill:none;stroke:#000000;stroke-width:3;stroke-linecap:round;stroke-linejoin:round;stroke-miterlimit:10;" d="     M125.87,211.975c22.949,10.089,34.008,50.441,22.695,75.326"/>
				<path style="fill:none;stroke:#000000;stroke-width:3;stroke-linecap:round;stroke-linejoin:round;stroke-miterlimit:10;" d="     M143.197,278.848c-0.652,5.839-3.392,11.423-7.612,15.511"/>
				<path style="fill:none;stroke:#000000;stroke-width:3;stroke-linecap:round;stroke-linejoin:round;stroke-miterlimit:10;" d="     M39.802,243.282c-3.301,3.372-4.962,8.28-4.388,12.963"/>
				<path style="fill:none;stroke:#000000;stroke-width:3;stroke-linecap:round;stroke-linejoin:round;stroke-miterlimit:10;" d="     M40.526,253.661c-0.411,1.716-0.237,3.567,0.487,5.177"/>
				<path style="fill:none;stroke:#000000;stroke-width:3;stroke-linecap:round;stroke-linejoin:round;stroke-miterlimit:10;" d="     M77.197,316.96c3.48,1.8,7.361,2.822,11.276,2.968"/>
			</g>
		</g>
	</g>
</svg>