<?xml version="1.0" encoding="utf-8"?>
<!-- Generator: Adobe Illustrator 27.5.0, SVG Export Plug-In . SVG Version: 6.00 Build 0)  -->
<svg version="1.1" xmlns="http://www.w3.org/2000/svg" xmlns:xlink="http://www.w3.org/1999/xlink" x="0px" y="0px"
	viewBox="0 0 500 500" style="enable-background:new 0 0 500 500;" xml:space="preserve">
	<g id="OBJECTS">
		<g>
			<g>
				<path style="fill:#B36B3C;" d="M258.391,365.562c3.548,3.098,5.335,7.979,4.758,11.735c-0.593,4.113-4.263,7.994-9.272,7.343
				c-4.467-0.577-8.082-4.566-8.52-8.684c-0.182-1.657-0.02-3.247,0.122-4.82c0.303-3.266,0.689-6.907,3.694-8.139
				C251.86,361.896,255.573,363.107,258.391,365.562z" />
				<path style="fill:#FDD43A;" d="M270.496,427.823c-0.93,4.293-2.991,8.503-5.627,12.548
				c-14.333,22.414-49.173,34.127-81.579,33.869c-42.729,0.322-88.83-14.726-114.77-38.083c-8.884-7.765-15.964-17.64-17.204-28.44
				c-1.5-12.772,7.826-26.801,21.09-32.106c22.625-9.34,41.702,4.853,61.142,9.914c16.528,4.518,34.262,6.673,52.2,6.688
				c16.581,0.055,34.424-5.567,52.292-0.779c10.472,2.838,22.085,8.583,28.678,18.178
				C270.893,415.764,271.801,421.859,270.496,427.823z" />
			</g>
			<g>
				<path
					style="fill:none;stroke:#000000;stroke-width:3;stroke-linecap:round;stroke-linejoin:round;stroke-miterlimit:10;"
					d="
				M258.861,443.421c-2.137,3.188-4.667,6.219-7.575,9.018c-16.675,16.32-46.938,21.057-72.458,17.072
				c-32.846-4.886-62.115-17.306-86.657-31.513c-1.144-0.666-2.281-1.337-3.409-2.011c-13.052-7.793-24.138-17.4-30.583-29.245
				c-4.494-8.186-6.717-17.67-5.163-27.236c0.251-1.526,0.594-3.058,1.118-4.584c-0.516-2.106-0.993-4.211-1.453-6.291
				c-0.255-1.224-0.508-2.557,0.07-3.94c0.532-1.342,1.661-2.384,2.724-3.352c1.277-1.191,2.755-2.464,4.115-2.484
				c0.91-0.026,1.592,0.559,2.237,1.092c1.455,1.25,2.935,2.489,4.447,3.681c3.32-0.751,6.69-0.574,9.626,0.038
				c16.553,3.436,28.256,16.808,43.757,27.316c18.302,12.571,41.734,20.949,66.855,23.674c10.902,1.244,22.979,1.204,31.998-4.282
				c6.357-3.868,10.402-10.017,15.237-15.002c4.332-4.477,9.963-8.192,16.673-7.878c2.079-5.835,3.371-10.759,1.932-17.305
				c-0.211-0.962-2.409-1.023-3.146-1.324c-1.265-0.517-2.395-1.405-3.092-2.592c-1.392-2.372-0.676-5.539,1.733-6.924
				c1.087-0.625,2.343-0.888,3.586-1.045c3.09-0.391,6.609-0.526,9.563,0.633c3.092,1.212,4.861,5.283,2.773,8.127
				c-0.704,0.96-1.611,1.384-2.678,1.805c-0.346,0.136-3.146,1.261-3.107,1.458c1.099,5.485,0.976,12.747-1.008,18.833
				C275.076,399.316,269.734,428.289,258.861,443.421z" />
				<path
					style="fill:none;stroke:#000000;stroke-width:3;stroke-linecap:round;stroke-linejoin:round;stroke-miterlimit:10;"
					d="
				M63.017,394.358c13.468,23.023,38.933,41.995,70.699,51.826" />
				<path
					style="fill:none;stroke:#000000;stroke-width:3;stroke-linecap:round;stroke-linejoin:round;stroke-miterlimit:10;"
					d="
				M124.473,433.738c6.296,3.05,13.447,4.946,20.771,5.513" />
				<path
					style="fill:none;stroke:#000000;stroke-width:3;stroke-linecap:round;stroke-linejoin:round;stroke-miterlimit:10;"
					d="
				M237.517,402.477c-1.823,4.44-5.386,8.155-9.993,10.423" />
				<path
					style="fill:none;stroke:#000000;stroke-width:3;stroke-linecap:round;stroke-linejoin:round;stroke-miterlimit:10;"
					d="
				M234.381,416.731c-1.877,1.293-4.142,2.166-6.548,2.526" />
				<path
					style="fill:none;stroke:#000000;stroke-width:3;stroke-linecap:round;stroke-linejoin:round;stroke-miterlimit:10;"
					d="
				M79.67,374.478c3.485,0.596,6.568,2.274,8.9,4.814" />
				<path
					style="fill:none;stroke:#000000;stroke-width:3;stroke-linecap:round;stroke-linejoin:round;stroke-miterlimit:10;"
					d="
				M222.875,457.044c-3.064,2.475-7.852,3.53-12.138,2.677" />
			</g>
		</g>
	</g>
</svg>