<svg xmlns="http://www.w3.org/2000/svg" xmlns:xlink="http://www.w3.org/1999/xlink" version="1.1" x="0px" y="0px" style="enable-background:new 0 0 500 500;" xml:space="preserve" viewBox="0 0 500 500">
<g id="BACKGROUND">
	<rect style="fill:#FFFFFF;" width="500" height="500"/>
</g>
<g id="OBJECTS">
	<g>
		<g>
			<path style="fill:#FF4D6A;" d="M153.573,238.734c0.822,2.563,1.545,5.284,2.385,8.14c2.822,9.598,4.213,19.17,2.782,29.16     c-2.648,18.483-14.003,35.044-30.41,44.002c-9.458,5.164-20.209,7.619-30.961,7.486c-21.692,1.75-42.693-9.407-52.881-29.311     c-5.53-10.803-10.669-24.13-8.536-36.468c1.97-11.396,10.762-21.096,20.222-27.118c15.803-10.059,37.137-15.534,55.654-16.917     c9.64-0.72,19.717-0.274,28.346,4.082C148.333,225.909,151.324,231.726,153.573,238.734z"/>
			<path style="fill:#B36B3C;" d="M64.781,190.558c0.475-0.788,1.072-1.506,1.78-2.119c3.454-2.984,9.326-2.898,11.525,1.602     c0.919,1.881,0.699,3.925,0.707,5.943c0.01,2.331,0.126,4.672,0.179,7.004c0.072,3.2,0.557,7.536-2.213,9.841     c-7.684,6.392-12.884-11.851-13.283-16.683C63.315,194.195,63.778,192.221,64.781,190.558z"/>
		</g>
		<g>
			<path style="fill:none;stroke:#000000;stroke-width:3;stroke-linecap:round;stroke-linejoin:round;stroke-miterlimit:10;" d="     M159.896,272.578c-0.11,1.287-0.283,2.568-0.505,3.84c-2.212,12.659-9.075,25.327-18.864,33.712     c-4.896,4.194-10.259,6.695-16.534,7.976c-7.343,1.499-12.909,6.093-19.927,8.23c-5.695,1.734-11.802,1.849-17.666,1.047     c-11.552-1.58-23.389-6.65-31.904-14.724c-16.861-15.988-32.795-44.02-23.337-67.069c3.738-9.109,11.503-16.213,20.948-19.033     c4.728-1.412,9.757-1.725,14.626-0.934c4.915,0.798,10.352,4.356,15.368,2.861c3.986-1.188,5.843-5.061,7.765-8.384     c8.849-15.302,27.531-20.672,42.906-13.151C155.156,217.889,161.874,249.426,159.896,272.578z"/>
			<path style="fill:none;stroke:#000000;stroke-width:3;stroke-linecap:round;stroke-linejoin:round;stroke-miterlimit:10;" d="     M65.523,186.907c0.124-2.208,0.618-4.739,2.556-5.806c1.526-0.84,3.406-0.455,5.1-0.047c1.939,0.466,3.877,0.933,5.816,1.399     c0.775,0.186,1.622,0.421,2.068,1.082c0.978,1.453-0.725,3.597-1.305,4.89c-1.919,4.276-2.687,9.072-2.651,13.803     c0.023,2.987,0.483,5.943,0.797,8.907c0.165,1.555,1.284,6.495-0.553,7.477c-3.13,1.673-7.41-9.175-8.209-11.141     C66.51,200.992,65.131,193.905,65.523,186.907z"/>
			<path style="fill:none;stroke:#000000;stroke-width:3;stroke-linecap:round;stroke-linejoin:round;stroke-miterlimit:10;" d="     M125.87,211.975c22.949,10.089,34.008,50.441,22.695,75.326"/>
			<path style="fill:none;stroke:#000000;stroke-width:3;stroke-linecap:round;stroke-linejoin:round;stroke-miterlimit:10;" d="     M143.197,278.848c-0.652,5.839-3.392,11.423-7.612,15.511"/>
			<path style="fill:none;stroke:#000000;stroke-width:3;stroke-linecap:round;stroke-linejoin:round;stroke-miterlimit:10;" d="     M39.802,243.282c-3.301,3.372-4.962,8.28-4.388,12.963"/>
			<path style="fill:none;stroke:#000000;stroke-width:3;stroke-linecap:round;stroke-linejoin:round;stroke-miterlimit:10;" d="     M40.526,253.661c-0.411,1.716-0.237,3.567,0.487,5.177"/>
			<path style="fill:none;stroke:#000000;stroke-width:3;stroke-linecap:round;stroke-linejoin:round;stroke-miterlimit:10;" d="     M77.197,316.96c3.48,1.8,7.361,2.822,11.276,2.968"/>
		</g>
	</g>
	<g>
		<g>
			<path style="fill:#BADB68;" d="M306.245,329.829c-52.014,46.14-149.172-34.483-84.817-84.751     c11.733-7.476,26.392-9.542,36.035-20.259c6.145-6.815,9.157-15.892,17.055-21.186c13.171-8.827,34.268-0.365,37.489,15.225     c1.921,9.299-2.311,17.888-2.718,27.068C311.654,278.989,338.494,295.608,306.245,329.829z"/>
			<path style="fill:#2CCCB1;" d="M280.754,177.787c1.314-4.313,0.996-8.785-0.287-13.052c-2.602-8.654-11.484-16.788-22.096-15.474     c-1.236,0.153-2.615,0.539-3.396,1.55c-1.294,1.676-0.68,5.499-0.525,7.316c0.224,2.62,0.37,5.258,0.674,7.86     c0.619,5.304,1.933,10.563,5.454,14.48c3.04,3.381,7.539,5.753,12.744,5.381c4.46-0.319,5.993-3.829,7.231-7.439     C280.624,178.201,280.691,177.994,280.754,177.787z"/>
			<path style="fill:#B36B3C;" d="M310.626,173.169c3.074-0.485,7.082-0.609,9.404,1.859c2.59,2.752,1.674,7.918,0.077,10.946     c-2.21,4.188-6.685,6.405-11.247,6.93c-4.073,0.47-10.112,0.239-12.169-4.044C292.914,180.995,304.305,174.166,310.626,173.169z"/>
		</g>
		<g>
			<path style="fill:none;stroke:#000000;stroke-width:3;stroke-linecap:round;stroke-linejoin:round;stroke-miterlimit:10;" d="     M294.034,323.281c-27.642,25.638-78.482,11.438-97.56-18.284c-4.761-7.417-7.526-15.967-7.917-24.778     c-0.726-16.343,6.74-32.818,20.659-41.688c11.734-7.478,26.393-9.544,36.036-20.261c6.145-6.815,9.157-15.892,17.055-21.186     c13.171-8.827,34.268-0.365,37.489,15.225c1.921,9.299-2.311,17.888-2.718,27.068c-0.638,14.402,8.368,26.155,11.484,39.704     C312.256,295.177,306.02,312.164,294.034,323.281z"/>
			<path style="fill:none;stroke:#000000;stroke-width:3;stroke-linecap:round;stroke-linejoin:round;stroke-miterlimit:10;" d="     M288.286,176.168c1.03-4.714,0.316-9.743-1.404-14.626c-2.801-7.952-9.225-14.524-16.667-17.969     c-4.56-2.11-9.394-3.683-14.189-4.127c-0.714-0.066-1.618,0.04-1.703,0.756c-0.079,0.669,0.587,1.202,0.989,1.686     c0.543,0.654,1.021,1.364,1.428,2.105c1.176,2.144,1.44,4.446,1.816,6.737c1.466,8.928,2.029,19.196,8.573,26.733     c2.686,3.094,6.141,5.288,9.649,7.07c6.208,3.152,9.913-2.082,11.348-7.689C288.183,176.62,288.237,176.394,288.286,176.168z"/>
			<path style="fill:none;stroke:#000000;stroke-width:3;stroke-linecap:round;stroke-linejoin:round;stroke-miterlimit:10;" d="     M320.07,177.164c1.883,0.007,4.057,0.316,5.05,1.916c0.782,1.26,0.538,2.876,0.266,4.334c-0.311,1.669-0.621,3.338-0.932,5.007     c-0.124,0.667-0.286,1.398-0.829,1.806c-0.986,0.741-2.342-0.077-3.349-0.788c-6.888-4.857-16.819-4.896-23.745-0.091     c-0.996,0.691-4.332,3.696-5.504,2.694c-2.926-2.5,7.954-8.791,9.639-9.742C306.554,178.972,313.299,177.138,320.07,177.164z"/>
			<path style="fill:none;stroke:#000000;stroke-width:3;stroke-linecap:round;stroke-linejoin:round;stroke-miterlimit:10;" d="     M291.501,209.666c2.103,5.062,2.362,10.867,0.72,16.096"/>
			<path style="fill:none;stroke:#000000;stroke-width:3;stroke-linecap:round;stroke-linejoin:round;stroke-miterlimit:10;" d="     M285.354,209.933c1.351,1.382,1.965,3.447,1.59,5.342"/>
			<path style="fill:none;stroke:#000000;stroke-width:3;stroke-linecap:round;stroke-linejoin:round;stroke-miterlimit:10;" d="     M214.667,245.563c-7.316,5.831-12.72,14.022-15.202,23.042c-2.482,9.02-2.031,18.823,1.271,27.576"/>
			<path style="fill:none;stroke:#000000;stroke-width:3;stroke-linecap:round;stroke-linejoin:round;stroke-miterlimit:10;" d="     M207.089,291.377c0.046,2.404,0.871,4.786,2.321,6.703"/>
			<path style="fill:none;stroke:#000000;stroke-width:3;stroke-linecap:round;stroke-linejoin:round;stroke-miterlimit:10;" d="     M298.41,292.444c-1.87,9.197-6.846,17.733-13.926,23.894c-7.08,6.16-16.222,9.908-25.589,10.489"/>
			<path style="fill:none;stroke:#000000;stroke-width:3;stroke-linecap:round;stroke-linejoin:round;stroke-miterlimit:10;" d="     M274.655,159.348c3.375,5.974,5.657,12.69,6.692,19.7"/>
		</g>
	</g>
	<g>
		<g>
			<path style="fill:#B36B3C;" d="M356.725,324.33c-1.197,0.625-2.479,1.104-3.78,1.471c-2.324,0.655-4.93,0.945-7.064-0.184     c-2.374-1.256-3.634-4.119-3.424-6.797c0.241-3.074,2.621-7.368,5.635-8.473c1.706-0.625,3.281-1.693,5.094-2.004     c1.726-0.296,3.911,0.052,5.547,0.631c2.484,0.879,4.126,3.497,4.218,6.13c0.092,2.633-1.197,5.196-3.1,7.018     C358.924,323.009,357.863,323.736,356.725,324.33z"/>
			<path style="fill:#FFAA00;" d="M347.891,342.151c35.458-14.914,74.594,5.435,93.033,37.095     c8.384,14.396,12.393,32.856,3.622,47.983c-7.573,13.06-21.997,21.458-36.469,24.587c-17.827,3.854-36.473,0.948-53.385-5.361     c-14.991-5.592-25.745-18.498-32.881-32.706c-1.218-2.425-2.312-4.928-3.266-7.496c-6.958-18.737-3.913-38.686,10.941-52.362     C334.894,348.912,341.158,344.983,347.891,342.151z"/>
		</g>
		<g>
			<path style="fill:none;stroke:#000000;stroke-width:3;stroke-linecap:round;stroke-linejoin:round;stroke-miterlimit:10;" d="     M355.225,311.52c-1.6,3.152-2.218,6.553-2.208,10.068c0.007,2.591,2.03,9.045-2.224,9.363     c-4.313,0.323-4.421-12.337-4.653-15.294c-0.349-4.445-0.658-11.767,4.534-13.67C363.066,297.445,360.051,302.01,355.225,311.52z     "/>
			<path style="fill:none;stroke:#000000;stroke-width:3;stroke-linecap:round;stroke-linejoin:round;stroke-miterlimit:10;" d="     M355.25,337.647c4.772-2.775,8.15-8.21,13.411-10.322c6.162-2.474,12.953-2.477,19.132-1.293     c12.181,2.335,23.091,9.184,30.837,18.757c4.057,5.014,6.804,10.597,9.191,16.671c2.756,7.013,3.898,14.511,7.785,20.981     c2.973,4.949,6.915,9.243,11.572,12.525c2.962,2.087,6.706,3.04,9.276,5.682c3.294,3.388,2.336,7.893,0.198,12.028     c-16.16,31.251-56.493,44.919-86.575,36.133c-24.199-7.067-43.788-25.522-52.013-50.043c-0.841-2.508-1.553-5.086-2.12-7.72     c-3.282-15.233-0.319-33.494,10.57-46.138c3.988-4.631,9.109-7.36,14.872-6.583c3.166,0.427,6.306,1.359,9.531,0.884     C352.513,338.974,353.935,338.412,355.25,337.647z"/>
			<path style="fill:none;stroke:#000000;stroke-width:3;stroke-linecap:round;stroke-linejoin:round;stroke-miterlimit:10;" d="     M339.393,418.283c13.037,17.728,36.128,27.489,57.927,24.489"/>
			<path style="fill:none;stroke:#000000;stroke-width:3;stroke-linecap:round;stroke-linejoin:round;stroke-miterlimit:10;" d="     M388.344,437.571c3.55,0.16,7.122-0.158,10.588-0.941"/>
			<path style="fill:none;stroke:#000000;stroke-width:3;stroke-linecap:round;stroke-linejoin:round;stroke-miterlimit:10;" d="     M383.171,333.734c5.939,0.291,11.802,2.016,16.953,4.987"/>
			<path style="fill:none;stroke:#000000;stroke-width:3;stroke-linecap:round;stroke-linejoin:round;stroke-miterlimit:10;" d="     M438.435,396.424c2.238,2.016,4.918,3.537,7.796,4.424"/>
			<path style="fill:none;stroke:#000000;stroke-width:3;stroke-linecap:round;stroke-linejoin:round;stroke-miterlimit:10;" d="     M326.183,356.607c-1.807,3.447-2.988,7.221-3.469,11.083"/>
			<path style="fill:none;stroke:#000000;stroke-width:3;stroke-linecap:round;stroke-linejoin:round;stroke-miterlimit:10;" d="     M329.262,366.269c-0.674,2.04-0.905,4.224-0.674,6.359"/>
			<path style="fill:none;stroke:#000000;stroke-width:3;stroke-linecap:round;stroke-linejoin:round;stroke-miterlimit:10;" d="     M442.948,405.293c1.257,0.465,2.514,0.931,3.77,1.396"/>
		</g>
	</g>
	<g>
		<g>
			<path style="fill:#FF4D6A;" d="M370.213,275.459c-14.374-9.818-20.004-30.551-18.957-48.128     c0.506-8.501,2.63-16.979,7.275-24.322c4.97-7.858,12.763-12.326,21.26-14.675c7.716-2.134,15.742-2.722,23.499-1.746     c7.813,0.984,15.1,5.778,20.974,10.806c10.608,9.081,20.974,24.313,17.009,39.952c-0.892,3.519-2.555,6.552-4.601,9.531     C423.995,265.331,390.616,288.534,370.213,275.459z"/>
			<path style="fill:#2CCCB1;" d="M415.735,161.795c2.45-2.813,5.688-4.883,9.039-4.795c7.813,0.206,15.178,5.137,18.753,12.022     c1.1,2.118,1.867,4.456,1.86,6.842c-0.007,2.409-1.081,3.902-1.976,5.998c-0.727,1.703-1.141,3.211-2.373,4.695     c-2.603,3.137-6.68,5.093-10.781,4.871c-4.539-0.245-8.605-2.913-11.92-6.023c-3.702-3.473-6.918-7.988-6.982-13.063     c-0.01-0.818,0.065-1.635,0.215-2.439C412.063,167.261,413.6,164.246,415.735,161.795z"/>
		</g>
		<g>
			<path style="fill:none;stroke:#000000;stroke-width:3;stroke-linecap:round;stroke-linejoin:round;stroke-miterlimit:10;" d="     M371.524,279.249c-0.574-0.302-1.135-0.663-1.683-1.092c-5.192-4.065-6.348-12.962-7.892-19.842     c-6.067-25.944-10.705-59.395,12.461-76.72c3.198-2.575,7.278-4.468,11.539-4.975c4.964-0.591,9.867,1.048,13.97,3.783     c4.144,2.762,6.828,6.803,10.526,10.037c4.484,3.922,9.854,6.819,15.581,8.45c5.261,1.498,10.526,1.244,15.61,3.346     c8.63,3.568,12.02,12.94,11.606,21.715c-0.152,3.213-0.771,6.413-1.846,9.445c-4.461,13.069-14.784,22.58-27.094,29.548     c-6.256,3.576-12.976,6.578-19.709,9.327c-7.818,3.2-15.655,6.74-23.516,7.985C377.567,280.807,374.36,280.743,371.524,279.249z"/>
			<path style="fill:none;stroke:#000000;stroke-width:3;stroke-linecap:round;stroke-linejoin:round;stroke-miterlimit:10;" d="     M414.296,162.311c3.998,2.969,7.168,6.924,9.275,11.612c5.136-5.313,11.524-9.14,17.808-11.392     c0.015,5.907-1.508,12.539-5.15,18.704c8.113-0.183,15.479,1.904,21.181,5.967c-13.609,2.888-35.42,13.242-42.939-5.092     c-3-7.315-5.264-14.95-5.4-22.911C410.939,160.065,412.688,161.111,414.296,162.311z"/>
			<g>
				<path style="fill:none;stroke:#000000;stroke-width:3;stroke-linecap:round;stroke-linejoin:round;stroke-miterlimit:10;" d="      M400.451,204.845c-0.643,0.727-1.285,1.454-1.928,2.182"/>
				<path style="fill:none;stroke:#000000;stroke-width:3;stroke-linecap:round;stroke-linejoin:round;stroke-miterlimit:10;" d="      M414.97,216.882c-0.145,1.061-0.289,2.122-0.434,3.182"/>
				<path style="fill:none;stroke:#000000;stroke-width:3;stroke-linecap:round;stroke-linejoin:round;stroke-miterlimit:10;" d="      M370.053,257.084c-0.145,1.061-0.289,2.122-0.434,3.182"/>
				<path style="fill:none;stroke:#000000;stroke-width:3;stroke-linecap:round;stroke-linejoin:round;stroke-miterlimit:10;" d="      M392.572,221.69c-0.447,1.088-0.894,2.176-1.341,3.263"/>
				<path style="fill:none;stroke:#000000;stroke-width:3;stroke-linecap:round;stroke-linejoin:round;stroke-miterlimit:10;" d="      M401.793,238.352c-0.359,1.161-0.718,2.321-1.077,3.482"/>
				<path style="fill:none;stroke:#000000;stroke-width:3;stroke-linecap:round;stroke-linejoin:round;stroke-miterlimit:10;" d="      M434.807,218.127c0.312,1.013,0.623,2.025,0.935,3.038"/>
				<path style="fill:none;stroke:#000000;stroke-width:3;stroke-linecap:round;stroke-linejoin:round;stroke-miterlimit:10;" d="      M427.812,236.047c0.068,0.964,0.136,1.928,0.203,2.892"/>
				<path style="fill:none;stroke:#000000;stroke-width:3;stroke-linecap:round;stroke-linejoin:round;stroke-miterlimit:10;" d="      M389.37,189.171c-0.91,0.337-1.82,0.675-2.73,1.012"/>
				<path style="fill:none;stroke:#000000;stroke-width:3;stroke-linecap:round;stroke-linejoin:round;stroke-miterlimit:10;" d="      M375.882,207.344c-0.624,0.87-1.248,1.74-1.872,2.61"/>
				<path style="fill:none;stroke:#000000;stroke-width:3;stroke-linecap:round;stroke-linejoin:round;stroke-miterlimit:10;" d="      M415.617,258.858c-0.816,0.847-1.632,1.694-2.447,2.541"/>
				<path style="fill:none;stroke:#000000;stroke-width:3;stroke-linecap:round;stroke-linejoin:round;stroke-miterlimit:10;" d="      M395.66,261.081c-0.76,0.947-1.521,1.895-2.282,2.842"/>
				<path style="fill:none;stroke:#000000;stroke-width:3;stroke-linecap:round;stroke-linejoin:round;stroke-miterlimit:10;" d="      M370.819,229.836c-0.138,0.956-0.277,1.912-0.415,2.869"/>
			</g>
		</g>
	</g>
	<g>
		<g>
			<path style="fill:#B36B3C;" d="M258.391,365.562c3.548,3.098,5.335,7.979,4.758,11.735c-0.593,4.113-4.263,7.994-9.272,7.343     c-4.467-0.577-8.082-4.566-8.52-8.684c-0.182-1.657-0.02-3.247,0.122-4.82c0.303-3.266,0.689-6.907,3.694-8.139     C251.86,361.896,255.573,363.107,258.391,365.562z"/>
			<path style="fill:#FDD43A;" d="M270.496,427.823c-0.93,4.293-2.991,8.503-5.627,12.548     c-14.333,22.414-49.173,34.127-81.579,33.869c-42.729,0.322-88.83-14.726-114.77-38.083c-8.884-7.765-15.964-17.64-17.204-28.44     c-1.5-12.772,7.826-26.801,21.09-32.106c22.625-9.34,41.702,4.853,61.142,9.914c16.528,4.518,34.262,6.673,52.2,6.688     c16.581,0.055,34.424-5.567,52.292-0.779c10.472,2.838,22.085,8.583,28.678,18.178     C270.893,415.764,271.801,421.859,270.496,427.823z"/>
		</g>
		<g>
			<path style="fill:none;stroke:#000000;stroke-width:3;stroke-linecap:round;stroke-linejoin:round;stroke-miterlimit:10;" d="     M258.861,443.421c-2.137,3.188-4.667,6.219-7.575,9.018c-16.675,16.32-46.938,21.057-72.458,17.072     c-32.846-4.886-62.115-17.306-86.657-31.513c-1.144-0.666-2.281-1.337-3.409-2.011c-13.052-7.793-24.138-17.4-30.583-29.245     c-4.494-8.186-6.717-17.67-5.163-27.236c0.251-1.526,0.594-3.058,1.118-4.584c-0.516-2.106-0.993-4.211-1.453-6.291     c-0.255-1.224-0.508-2.557,0.07-3.94c0.532-1.342,1.661-2.384,2.724-3.352c1.277-1.191,2.755-2.464,4.115-2.484     c0.91-0.026,1.592,0.559,2.237,1.092c1.455,1.25,2.935,2.489,4.447,3.681c3.32-0.751,6.69-0.574,9.626,0.038     c16.553,3.436,28.256,16.808,43.757,27.316c18.302,12.571,41.734,20.949,66.855,23.674c10.902,1.244,22.979,1.204,31.998-4.282     c6.357-3.868,10.402-10.017,15.237-15.002c4.332-4.477,9.963-8.192,16.673-7.878c2.079-5.835,3.371-10.759,1.932-17.305     c-0.211-0.962-2.409-1.023-3.146-1.324c-1.265-0.517-2.395-1.405-3.092-2.592c-1.392-2.372-0.676-5.539,1.733-6.924     c1.087-0.625,2.343-0.888,3.586-1.045c3.09-0.391,6.609-0.526,9.563,0.633c3.092,1.212,4.861,5.283,2.773,8.127     c-0.704,0.96-1.611,1.384-2.678,1.805c-0.346,0.136-3.146,1.261-3.107,1.458c1.099,5.485,0.976,12.747-1.008,18.833     C275.076,399.316,269.734,428.289,258.861,443.421z"/>
			<path style="fill:none;stroke:#000000;stroke-width:3;stroke-linecap:round;stroke-linejoin:round;stroke-miterlimit:10;" d="     M63.017,394.358c13.468,23.023,38.933,41.995,70.699,51.826"/>
			<path style="fill:none;stroke:#000000;stroke-width:3;stroke-linecap:round;stroke-linejoin:round;stroke-miterlimit:10;" d="     M124.473,433.738c6.296,3.05,13.447,4.946,20.771,5.513"/>
			<path style="fill:none;stroke:#000000;stroke-width:3;stroke-linecap:round;stroke-linejoin:round;stroke-miterlimit:10;" d="     M237.517,402.477c-1.823,4.44-5.386,8.155-9.993,10.423"/>
			<path style="fill:none;stroke:#000000;stroke-width:3;stroke-linecap:round;stroke-linejoin:round;stroke-miterlimit:10;" d="     M234.381,416.731c-1.877,1.293-4.142,2.166-6.548,2.526"/>
			<path style="fill:none;stroke:#000000;stroke-width:3;stroke-linecap:round;stroke-linejoin:round;stroke-miterlimit:10;" d="     M79.67,374.478c3.485,0.596,6.568,2.274,8.9,4.814"/>
			<path style="fill:none;stroke:#000000;stroke-width:3;stroke-linecap:round;stroke-linejoin:round;stroke-miterlimit:10;" d="     M222.875,457.044c-3.064,2.475-7.852,3.53-12.138,2.677"/>
		</g>
	</g>
	<g>
		<g>
			<path style="fill:#F6E438;" d="M402.149,126.83c-6.058,6.714-14.03,11.618-22.335,15.284c-26.575,11.73-56.57,2.2-68.242-22.571     c-0.842-1.786-1.575-3.634-2.19-5.533c-7.173-22.16,0.567-53.291,23.637-66.106c6.358-3.532,11.489-6.585,18.684-7.42     c7.16-0.831,14.248,0.142,20.789,2.345c13.32,4.486,24.719,13.844,32.502,25.382c1.845,2.736,3.494,5.623,4.881,8.657     c5.111,11.179,5.061,25.442,0.044,37.713C408.019,119.226,405.351,123.281,402.149,126.83z"/>
			<path style="fill:#2CCCB1;" d="M271.805,59.206c-5.478,2.488-10.4,6.334-13.687,11.252c-4.319,6.461-5.342,14.742-3.593,22.237     c0.917,3.93,2.574,8.867,5.618,11.695c3.324,3.087,8.141,2.453,12.067,0.9c7.044-2.785,13.135-7.92,17.07-14.391     c3.936-6.471,5.694-14.242,4.926-21.777c-0.397-3.9-1.622-7.998-4.69-10.439c-2.903-2.31-6.977-2.688-10.595-1.872     C276.505,57.355,274.106,58.161,271.805,59.206z"/>
		</g>
		<g>
			<path style="fill:#B36B3C;" d="M281.474,37.509c0.199-0.124,0.396-0.236,0.587-0.334c2.121-1.088,4.628-1.25,6.975-0.837     c0.719,0.126,1.457,0.319,2.014,0.791c0.952,0.807,0.878,2.293,0.901,3.42c0.045,2.172,0.025,3.986-1.464,5.73     c-1.16,1.36-2.88,2.274-4.683,2.316c-2.969,0.069-5.818-2.228-6.379-5.144C278.964,41.042,279.362,38.826,281.474,37.509z"/>
			<path style="fill:none;stroke:#000000;stroke-width:3;stroke-linecap:round;stroke-linejoin:round;stroke-miterlimit:10;" d="     M295.595,45.787c-1.759,0.549-4.163-0.078-5.981-0.135c-3.638-0.114-7.242-0.051-10.844,0.512     c-1.243,0.194-2.986,0.665-4.03-0.308c-2.12-1.976,1.131-6.526,3.037-7.363c2.191-0.962,4.727-0.622,7.038-0.004     c3.871,1.034,7.544,2.801,10.767,5.18c0.423,0.312,0.882,0.724,0.848,1.249C296.402,45.377,296.048,45.645,295.595,45.787z"/>
			<path style="fill:none;stroke:#000000;stroke-width:3;stroke-linecap:round;stroke-linejoin:round;stroke-miterlimit:10;" d="     M403.847,135.352c-2.639,1.712-5.518,0.944-7.91,0.441c-1.032-0.223-2.123-0.362-3.253-0.422     c-1.993-0.106-3.968,0.477-5.644,1.561c-35.829,23.16-74.153,3.684-85.148-25.573c-4.827-12.325-5.134-29.967,1.284-45.228     c0.902-2.146,1.047-4.543,0.36-6.767c-0.163-0.529-0.345-1.041-0.545-1.534c-0.924-2.279-2.169-4.969-0.942-7.866     c0.851-2.014,2.617-3.095,4.064-3.104c1.434-0.019,2.66,0.773,3.938,1.375c0.019,0.009,0.039,0.018,0.058,0.027     c2.97,1.394,6.504,1.064,9.241-0.744c30.991-20.476,69.051,4.771,82.836,32.013c3.39,6.699,4.897,14.497,4.753,21.971     c-0.078,4.037-0.659,8.066-1.764,11.951c-0.922,3.242-2.732,6.031-2.612,9.533c0.11,3.191,3.126,4.849,3.633,7.824     C406.439,132.236,405.682,134.163,403.847,135.352z"/>
			<path style="fill:none;stroke:#000000;stroke-width:3;stroke-linecap:round;stroke-linejoin:round;stroke-miterlimit:10;" d="     M266.043,55.57c-5.779,2.242-11.046,5.677-14.84,10.317c-6.135,7.501-7.329,17.458-4.107,26.403     c1.245,3.459,2.73,7.506,4.774,10.577c2.43,3.651,6.957-0.392,9.455-1.926c10.274-6.31,23.511-14.023,26.096-26.882     c0.829-4.124,0.271-8.392-0.962-12.376c-0.84-2.715-2.344-8.687-5.376-9.399C276.588,51.229,270.185,53.963,266.043,55.57z"/>
			<path style="fill:none;stroke:#000000;stroke-width:3;stroke-linecap:round;stroke-linejoin:round;stroke-miterlimit:10;" d="     M275.608,59.969c-7.519,8.379-13.643,18.184-17.84,28.562"/>
			<path style="fill:none;stroke:#000000;stroke-width:3;stroke-linecap:round;stroke-linejoin:round;stroke-miterlimit:10;" d="     M308.384,74.865c1.224,0.544,2.067,1.852,2.055,3.191c-0.011,1.339-0.876,2.633-2.109,3.156"/>
			<path style="fill:none;stroke:#000000;stroke-width:3;stroke-linecap:round;stroke-linejoin:round;stroke-miterlimit:10;" d="     M315.922,81.212c1.224,0.544,2.066,1.852,2.055,3.191c-0.011,1.339-0.876,2.633-2.109,3.156"/>
			<path style="fill:none;stroke:#000000;stroke-width:3;stroke-linecap:round;stroke-linejoin:round;stroke-miterlimit:10;" d="     M307.329,87.559c1.224,0.544,2.067,1.852,2.055,3.191c-0.011,1.339-0.876,2.633-2.109,3.156"/>
			<path style="fill:none;stroke:#000000;stroke-width:3;stroke-linecap:round;stroke-linejoin:round;stroke-miterlimit:10;" d="     M347.692,47.354c-0.377,1.285-1.562,2.294-2.891,2.46c-1.329,0.166-2.726-0.519-3.408-1.672"/>
			<path style="fill:none;stroke:#000000;stroke-width:3;stroke-linecap:round;stroke-linejoin:round;stroke-miterlimit:10;" d="     M400.199,99.689c-1.339,0.021-2.653-0.813-3.206-2.033c-0.552-1.22-0.311-2.758,0.588-3.75"/>
			<path style="fill:none;stroke:#000000;stroke-width:3;stroke-linecap:round;stroke-linejoin:round;stroke-miterlimit:10;" d="     M398.427,114.205c-1.119-0.736-1.736-2.165-1.506-3.484c0.23-1.319,1.295-2.455,2.596-2.769"/>
			<path style="fill:none;stroke:#000000;stroke-width:3;stroke-linecap:round;stroke-linejoin:round;stroke-miterlimit:10;" d="     M364.652,128.292c0.449-1.262,1.689-2.201,3.026-2.292c1.336-0.09,2.692,0.673,3.307,1.863"/>
			<path style="fill:none;stroke:#000000;stroke-width:3;stroke-linecap:round;stroke-linejoin:round;stroke-miterlimit:10;" d="     M371.635,136.377c0.449-1.262,1.69-2.201,3.026-2.292c1.336-0.09,2.692,0.673,3.307,1.863"/>
		</g>
	</g>
	<g>
		<g>
			<path style="fill:#2CCCB1;" d="M206.604,171.072c-42.478,16.801-98.748-2.679-129.53-34.81     c-38.155-35.56,10.449-74.918,14.737-32.872c4.32,22.15,23.878,40.01,44.936,46.617c15.732,4.265,33.545,5.505,49.628,2.842     c6.476-1.072,13.234-2.725,19.464-0.656C215.818,155.07,216.088,167.096,206.604,171.072z"/>
			<path style="fill:#FF4D6A;" d="M206.227,70.927c0.309,3.219,0.511,6.456,0.684,9.675c0.643,11.961,0.956,23.953,0.939,35.956     c-0.011,7.952-0.173,16.373-3.511,23.84c-3.186,7.126-14.96,7.659-21.424,7.801c-14.208,0.313-28.567-3.12-41.375-9.477     c-12.272-6.091-26.103-15.507-33.345-27.431c-4.077-6.713-5.573-14.636-2.192-21.974c2.179-4.731,6.16-8.334,10.077-11.719     c18.941-16.368,40.157-29.658,63.329-38.564c2.997-1.152,6.145-2.247,9.281-1.909c5.886,0.634,10.002,6.064,12.399,11.55     C204.132,55.636,205.487,63.227,206.227,70.927z"/>
		</g>
		<g>
			<path style="fill:none;stroke:#000000;stroke-width:3;stroke-linecap:round;stroke-linejoin:round;stroke-miterlimit:10;" d="     M210.572,169.504c-1.858,1.769-4.594,2.877-6.878,3.383c-9.696,2.148-20.145,2.808-30.054,2.377     c-19.141-0.832-37.818-6.436-54.805-15.173c-16.408-8.439-30.526-20.844-40.822-36.167c-4.131-6.149-7.645-12.707-10.532-19.528     c-1.691-3.996-3.329-8.021-4.668-12.151c-1.408-4.342-3.083-14.118,4.7-13.182c3.311,0.398,4.252,3.084,5.276,5.793     c1.282,3.392,2.713,6.727,4.286,9.993c3.927,8.151,8.706,15.91,14.431,22.921c9.488,11.619,21.39,21.092,34.721,27.948     c10.022,5.155,20.628,9.213,31.591,11.85c5.53,1.33,11.148,2.298,16.808,2.858c5.002,0.495,9.994,0.665,15.016,0.454     c5.209-0.219,10.09-2.024,15.231-2.679c4.093-0.521,7.961,2.609,7.851,6.807C212.677,166.82,211.824,168.312,210.572,169.504z"/>
			<path style="fill:none;stroke:#000000;stroke-width:3;stroke-linecap:round;stroke-linejoin:round;stroke-miterlimit:10;" d="     M199.66,142.172c0.357,5.467-3.772,10.173-9.236,10.571c-15.401,1.122-36.216-1.022-59.838-13.171     c-24.891-12.802-38.097-32.381-45.086-48.835c-2.027-4.772-0.079-10.298,4.508-12.715l88.395-46.584     c6.371-3.357,14.087,0.961,14.556,8.148L199.66,142.172z"/>
			<g>
				<path style="fill:none;stroke:#000000;stroke-width:3;stroke-linecap:round;stroke-linejoin:round;stroke-miterlimit:10;" d="      M144.548,73.912c-1.44,2.037-2.881,4.073-4.321,6.11"/>
				<path style="fill:none;stroke:#000000;stroke-width:3;stroke-linecap:round;stroke-linejoin:round;stroke-miterlimit:10;" d="      M182.393,127.29c-0.326,2.473-0.653,4.946-0.979,7.419"/>
				<path style="fill:none;stroke:#000000;stroke-width:3;stroke-linecap:round;stroke-linejoin:round;stroke-miterlimit:10;" d="      M107.041,85.455c-1.851,1.672-3.702,3.344-5.553,5.016"/>
				<path style="fill:none;stroke:#000000;stroke-width:3;stroke-linecap:round;stroke-linejoin:round;stroke-miterlimit:10;" d="      M161.502,88.229c-0.905,2.598-1.811,5.197-2.716,7.795"/>
				<path style="fill:none;stroke:#000000;stroke-width:3;stroke-linecap:round;stroke-linejoin:round;stroke-miterlimit:10;" d="      M130.921,93.16c-1.681,2.512-3.362,5.024-5.043,7.536"/>
				<path style="fill:none;stroke:#000000;stroke-width:3;stroke-linecap:round;stroke-linejoin:round;stroke-miterlimit:10;" d="      M138.146,116.326c-1.496,2.74-2.992,5.48-4.488,8.221"/>
				<path style="fill:none;stroke:#000000;stroke-width:3;stroke-linecap:round;stroke-linejoin:round;stroke-miterlimit:10;" d="      M183.561,99.296c0.268,2.709,0.537,5.419,0.805,8.129"/>
				<path style="fill:none;stroke:#000000;stroke-width:3;stroke-linecap:round;stroke-linejoin:round;stroke-miterlimit:10;" d="      M161.962,115.273c-0.321,2.462-0.642,4.925-0.962,7.387"/>
				<path style="fill:none;stroke:#000000;stroke-width:3;stroke-linecap:round;stroke-linejoin:round;stroke-miterlimit:10;" d="      M178.186,73.079c-0.649,3.054-1.298,6.108-1.948,9.161"/>
				<path style="fill:none;stroke:#000000;stroke-width:3;stroke-linecap:round;stroke-linejoin:round;stroke-miterlimit:10;" d="      M183.166,52.055c-0.321,2.462-0.642,4.925-0.962,7.387"/>
				<path style="fill:none;stroke:#000000;stroke-width:3;stroke-linecap:round;stroke-linejoin:round;stroke-miterlimit:10;" d="      M161.782,54.296c-1.655,1.851-3.31,3.702-4.965,5.553"/>
			</g>
		</g>
	</g>
	<g>
		<g>
			<path style="fill:#7ACC96;" d="M448.275,96.319c1.722,1.604,3.893,2.478,6.188,2.853c4.655,0.76,10.504-1.544,12.316-6.823     c0.211-0.615,0.346-1.35,0.05-1.948c-0.49-0.991-2.424-1.578-3.312-1.921c-1.28-0.495-2.551-1.03-3.841-1.483     c-2.63-0.923-5.397-1.511-8.04-0.756c-2.282,0.652-4.424,2.219-5.441,4.746c-0.871,2.165,0.424,3.688,1.835,5.095     C448.11,96.163,448.192,96.242,448.275,96.319z"/>
			<path style="fill:none;stroke:#000000;stroke-width:2;stroke-linecap:round;stroke-linejoin:round;stroke-miterlimit:10;" d="     M447.456,93.027c6.145,5.069,15.504,3.101,20.169-2.885c0.77-0.988,0.987-2.231-0.158-3.081     c-4.816-3.393-10.819-5.603-16.361-4.47C446.614,83.767,441.258,89.114,447.456,93.027z"/>
		</g>
		<g>
			<path style="fill:#7ACC96;" d="M160.385,354.225c2.353-0.024,4.529-0.886,6.451-2.195c3.898-2.656,6.549-8.356,4.226-13.43     c-0.271-0.591-0.679-1.217-1.305-1.446c-1.038-0.38-2.844,0.527-3.724,0.889c-1.269,0.523-2.559,1.011-3.806,1.572     c-2.542,1.142-4.953,2.623-6.349,4.991c-1.205,2.044-1.677,4.656-0.674,7.188c0.86,2.17,2.848,2.381,4.84,2.429     C160.159,354.225,160.272,354.226,160.385,354.225z"/>
			<path style="fill:none;stroke:#000000;stroke-width:2;stroke-linecap:round;stroke-linejoin:round;stroke-miterlimit:10;" d="     M158.356,351.646c7.946-0.56,13.374-8.434,12.631-15.986c-0.123-1.247-0.822-2.297-2.237-2.124     c-5.828,0.859-11.702,3.393-14.939,8.032C151.365,345.514,151.168,353.079,158.356,351.646z"/>
		</g>
		<g>
			<path style="fill:#7ACC96;" d="M67.021,48.65c2.193,0.853,4.533,0.862,6.805,0.361c4.606-1.016,9.186-5.322,8.917-10.896     c-0.031-0.649-0.178-1.382-0.674-1.828c-0.822-0.739-2.836-0.569-3.787-0.559c-1.372,0.014-2.751-0.013-4.117,0.044     c-2.785,0.115-5.573,0.593-7.749,2.273c-1.879,1.45-3.288,3.699-3.298,6.423c-0.008,2.334,1.759,3.269,3.59,4.054     C66.811,48.566,66.916,48.609,67.021,48.65z"/>
			<path style="fill:none;stroke:#000000;stroke-width:2;stroke-linecap:round;stroke-linejoin:round;stroke-miterlimit:10;" d="     M63.684,46.977c7.585,2.435,15.552-2.856,17.669-10.144c0.35-1.203,0.091-2.438-1.287-2.804     c-5.729-1.37-12.124-1.202-16.854,1.902C59.474,38.686,56.477,45.634,63.684,46.977z"/>
		</g>
		<g>
			<path style="fill:#7ACC96;" d="M434.126,304.936c-1.625,1.702-2.527,3.861-2.931,6.152c-0.819,4.645,1.412,10.522,6.667,12.401     c0.612,0.219,1.345,0.363,1.947,0.075c0.997-0.478,1.608-2.404,1.962-3.287c0.511-1.274,1.062-2.538,1.531-3.822     c0.956-2.618,1.579-5.378,0.858-8.03c-0.623-2.29-2.163-4.452-4.677-5.5c-2.154-0.899-3.693,0.378-5.117,1.77     C434.284,304.774,434.204,304.855,434.126,304.936z"/>
			<path style="fill:none;stroke:#000000;stroke-width:2;stroke-linecap:round;stroke-linejoin:round;stroke-miterlimit:10;" d="     M433.822,300.799c-5.146,6.08-3.297,15.464,2.63,20.204c0.978,0.782,2.218,1.015,3.083-0.119     c3.453-4.772,5.739-10.747,4.677-16.304C443.092,300.073,437.813,294.651,433.822,300.799z"/>
		</g>
		<g>
			<path style="fill:#7ACC96;" d="M204.03,209.734c-1.139-2.059-2.93-3.564-4.996-4.634c-4.189-2.169-10.464-1.795-13.826,2.659     c-0.392,0.519-0.748,1.176-0.652,1.836c0.158,1.094,1.814,2.253,2.551,2.854c1.063,0.868,2.105,1.771,3.191,2.603     c2.213,1.694,4.661,3.113,7.408,3.216c2.371,0.089,4.895-0.735,6.646-2.821c1.501-1.787,0.742-3.637-0.161-5.412     C204.138,209.933,204.085,209.833,204.03,209.734z"/>
			<path style="fill:none;stroke:#000000;stroke-width:2;stroke-linecap:round;stroke-linejoin:round;stroke-miterlimit:10;" d="     M208.07,210.679c-4.266-6.727-13.774-7.764-20.067-3.523c-1.039,0.7-1.631,1.814-0.807,2.977     c3.524,4.721,8.543,8.687,14.163,9.331C205.994,219.743,212.745,216.325,208.07,210.679z"/>
		</g>
		<g>
			<path style="fill:#7ACC96;" d="M438.265,61.212c2.272-0.611,4.163-1.989,5.697-3.738c3.11-3.546,4.253-9.728,0.735-14.06     c-0.41-0.505-0.962-1.008-1.626-1.074c-1.1-0.109-2.622,1.221-3.383,1.792c-1.098,0.824-2.225,1.618-3.292,2.473     c-2.176,1.742-4.14,3.778-4.9,6.42c-0.655,2.281-0.46,4.928,1.144,7.129c1.375,1.886,3.353,1.593,5.293,1.142     C438.046,61.269,438.156,61.242,438.265,61.212z"/>
			<path style="fill:none;stroke:#000000;stroke-width:2;stroke-linecap:round;stroke-linejoin:round;stroke-miterlimit:10;" d="     M438.129,57.922c7.554-2.528,10.842-11.509,8.234-18.636c-0.43-1.176-1.37-2.019-2.697-1.498     c-5.428,2.288-10.483,6.21-12.457,11.511C429.827,53.732,431.527,61.106,438.129,57.922z"/>
		</g>
		<g>
			<path style="fill:#7ACC96;" d="M306.701,445.236c0.679-2.253,0.506-4.586-0.17-6.812c-1.372-4.513-6.021-8.744-11.557-8.041     c-0.645,0.082-1.364,0.285-1.77,0.815c-0.673,0.877-0.346,2.871-0.262,3.819c0.121,1.367,0.201,2.744,0.364,4.102     c0.332,2.767,1.025,5.51,2.869,7.549c1.592,1.76,3.944,2.99,6.66,2.788c2.328-0.173,3.122-2.008,3.762-3.894     C306.634,445.452,306.669,445.344,306.701,445.236z"/>
			<path style="fill:none;stroke:#000000;stroke-width:2;stroke-linecap:round;stroke-linejoin:round;stroke-miterlimit:10;" d="     M303.834,443.616c1.837-7.751-4.059-15.282-11.489-16.826c-1.227-0.255-2.438,0.099-2.695,1.501     c-0.92,5.819-0.254,12.181,3.208,16.655C295.895,448.458,303.057,450.905,303.834,443.616z"/>
		</g>
		<g>
			<path style="fill:#7ACC96;" d="M37.555,461.874c-0.405,2.318,0.045,4.614,0.983,6.743c1.901,4.316,7.022,7.962,12.435,6.603     c0.63-0.158,1.32-0.446,1.66-1.02c0.563-0.951,0-2.892-0.196-3.823c-0.283-1.343-0.528-2.7-0.852-4.029     c-0.66-2.708-1.676-5.348-3.751-7.152c-1.791-1.557-4.273-2.498-6.945-1.973c-2.29,0.45-2.86,2.367-3.27,4.316     C37.596,461.651,37.574,461.763,37.555,461.874z"/>
			<path style="fill:none;stroke:#000000;stroke-width:2;stroke-linecap:round;stroke-linejoin:round;stroke-miterlimit:10;" d="     M39.159,458.718c-0.898,7.915,5.855,14.688,13.417,15.333c1.248,0.107,2.408-0.389,2.496-1.812     c0.218-5.887-1.203-12.124-5.175-16.152C46.462,452.962,39.06,451.388,39.159,458.718z"/>
		</g>
		<g>
			<path style="fill:#7ACC96;" d="M465.359,471.087c-0.312-2.332-1.434-4.386-2.969-6.133c-3.114-3.543-9.095-5.476-13.847-2.549     c-0.553,0.341-1.124,0.823-1.275,1.473c-0.25,1.077,0.871,2.758,1.339,3.587c0.675,1.195,1.317,2.415,2.026,3.585     c1.445,2.383,3.21,4.595,5.731,5.69c2.177,0.945,4.827,1.094,7.217-0.212c2.048-1.12,2.014-3.118,1.818-5.101     C465.387,471.312,465.374,471.199,465.359,471.087z"/>
			<path style="fill:none;stroke:#000000;stroke-width:2;stroke-linecap:round;stroke-linejoin:round;stroke-miterlimit:10;" d="     M467.745,468.107c-1.529-7.818-10.009-12.241-17.413-10.578c-1.222,0.275-2.179,1.097-1.834,2.48     c1.566,5.679,4.8,11.199,9.801,13.842C462.516,475.797,470.048,475.066,467.745,468.107z"/>
		</g>
		<g>
			<path style="fill:#7ACC96;" d="M50.679,145.049c-2.293-0.529-4.61-0.203-6.786,0.618c-4.413,1.666-8.329,6.583-7.264,12.061     c0.124,0.638,0.375,1.342,0.929,1.712c0.919,0.614,2.888,0.156,3.828,0.01c1.356-0.211,2.724-0.382,4.069-0.633     c2.739-0.513,5.431-1.386,7.344-3.36c1.651-1.704,2.724-4.132,2.344-6.829c-0.326-2.311-2.209-2.983-4.133-3.498     C50.9,145.102,50.789,145.075,50.679,145.049z"/>
			<path style="fill:none;stroke:#000000;stroke-width:2;stroke-linecap:round;stroke-linejoin:round;stroke-miterlimit:10;" d="     M48.731,141.767c-7.855-1.323-14.982,5.055-16.034,12.571c-0.174,1.24,0.259,2.426,1.675,2.59     c5.867,0.535,12.172-0.548,16.408-4.297C54.085,149.369,56.055,142.063,48.731,141.767z"/>
		</g>
	</g>
</g>
</svg>