<svg xmlns="http://www.w3.org/2000/svg" xmlns:xlink="http://www.w3.org/1999/xlink" version="1.1" x="0px" y="0px" style="enable-background:new 0 0 500 500;" xml:space="preserve" viewBox="243.86 36.13 169.84 112.53">
	<g id="OBJECTS">
		<g>
			<g>
				<path style="fill:#F6E438;" d="M402.149,126.83c-6.058,6.714-14.03,11.618-22.335,15.284c-26.575,11.73-56.57,2.2-68.242-22.571     c-0.842-1.786-1.575-3.634-2.19-5.533c-7.173-22.16,0.567-53.291,23.637-66.106c6.358-3.532,11.489-6.585,18.684-7.42     c7.16-0.831,14.248,0.142,20.789,2.345c13.32,4.486,24.719,13.844,32.502,25.382c1.845,2.736,3.494,5.623,4.881,8.657     c5.111,11.179,5.061,25.442,0.044,37.713C408.019,119.226,405.351,123.281,402.149,126.83z"/>
				<path style="fill:#2CCCB1;" d="M271.805,59.206c-5.478,2.488-10.4,6.334-13.687,11.252c-4.319,6.461-5.342,14.742-3.593,22.237     c0.917,3.93,2.574,8.867,5.618,11.695c3.324,3.087,8.141,2.453,12.067,0.9c7.044-2.785,13.135-7.92,17.07-14.391     c3.936-6.471,5.694-14.242,4.926-21.777c-0.397-3.9-1.622-7.998-4.69-10.439c-2.903-2.31-6.977-2.688-10.595-1.872     C276.505,57.355,274.106,58.161,271.805,59.206z"/>
			</g>
			<g>
				<path style="fill:#B36B3C;" d="M281.474,37.509c0.199-0.124,0.396-0.236,0.587-0.334c2.121-1.088,4.628-1.25,6.975-0.837     c0.719,0.126,1.457,0.319,2.014,0.791c0.952,0.807,0.878,2.293,0.901,3.42c0.045,2.172,0.025,3.986-1.464,5.73     c-1.16,1.36-2.88,2.274-4.683,2.316c-2.969,0.069-5.818-2.228-6.379-5.144C278.964,41.042,279.362,38.826,281.474,37.509z"/>
				<path style="fill:none;stroke:#000000;stroke-width:3;stroke-linecap:round;stroke-linejoin:round;stroke-miterlimit:10;" d="     M295.595,45.787c-1.759,0.549-4.163-0.078-5.981-0.135c-3.638-0.114-7.242-0.051-10.844,0.512     c-1.243,0.194-2.986,0.665-4.03-0.308c-2.12-1.976,1.131-6.526,3.037-7.363c2.191-0.962,4.727-0.622,7.038-0.004     c3.871,1.034,7.544,2.801,10.767,5.18c0.423,0.312,0.882,0.724,0.848,1.249C296.402,45.377,296.048,45.645,295.595,45.787z"/>
				<path style="fill:none;stroke:#000000;stroke-width:3;stroke-linecap:round;stroke-linejoin:round;stroke-miterlimit:10;" d="     M403.847,135.352c-2.639,1.712-5.518,0.944-7.91,0.441c-1.032-0.223-2.123-0.362-3.253-0.422     c-1.993-0.106-3.968,0.477-5.644,1.561c-35.829,23.16-74.153,3.684-85.148-25.573c-4.827-12.325-5.134-29.967,1.284-45.228     c0.902-2.146,1.047-4.543,0.36-6.767c-0.163-0.529-0.345-1.041-0.545-1.534c-0.924-2.279-2.169-4.969-0.942-7.866     c0.851-2.014,2.617-3.095,4.064-3.104c1.434-0.019,2.66,0.773,3.938,1.375c0.019,0.009,0.039,0.018,0.058,0.027     c2.97,1.394,6.504,1.064,9.241-0.744c30.991-20.476,69.051,4.771,82.836,32.013c3.39,6.699,4.897,14.497,4.753,21.971     c-0.078,4.037-0.659,8.066-1.764,11.951c-0.922,3.242-2.732,6.031-2.612,9.533c0.11,3.191,3.126,4.849,3.633,7.824     C406.439,132.236,405.682,134.163,403.847,135.352z"/>
				<path style="fill:none;stroke:#000000;stroke-width:3;stroke-linecap:round;stroke-linejoin:round;stroke-miterlimit:10;" d="     M266.043,55.57c-5.779,2.242-11.046,5.677-14.84,10.317c-6.135,7.501-7.329,17.458-4.107,26.403     c1.245,3.459,2.73,7.506,4.774,10.577c2.43,3.651,6.957-0.392,9.455-1.926c10.274-6.31,23.511-14.023,26.096-26.882     c0.829-4.124,0.271-8.392-0.962-12.376c-0.84-2.715-2.344-8.687-5.376-9.399C276.588,51.229,270.185,53.963,266.043,55.57z"/>
				<path style="fill:none;stroke:#000000;stroke-width:3;stroke-linecap:round;stroke-linejoin:round;stroke-miterlimit:10;" d="     M275.608,59.969c-7.519,8.379-13.643,18.184-17.84,28.562"/>
				<path style="fill:none;stroke:#000000;stroke-width:3;stroke-linecap:round;stroke-linejoin:round;stroke-miterlimit:10;" d="     M308.384,74.865c1.224,0.544,2.067,1.852,2.055,3.191c-0.011,1.339-0.876,2.633-2.109,3.156"/>
				<path style="fill:none;stroke:#000000;stroke-width:3;stroke-linecap:round;stroke-linejoin:round;stroke-miterlimit:10;" d="     M315.922,81.212c1.224,0.544,2.066,1.852,2.055,3.191c-0.011,1.339-0.876,2.633-2.109,3.156"/>
				<path style="fill:none;stroke:#000000;stroke-width:3;stroke-linecap:round;stroke-linejoin:round;stroke-miterlimit:10;" d="     M307.329,87.559c1.224,0.544,2.067,1.852,2.055,3.191c-0.011,1.339-0.876,2.633-2.109,3.156"/>
				<path style="fill:none;stroke:#000000;stroke-width:3;stroke-linecap:round;stroke-linejoin:round;stroke-miterlimit:10;" d="     M347.692,47.354c-0.377,1.285-1.562,2.294-2.891,2.46c-1.329,0.166-2.726-0.519-3.408-1.672"/>
				<path style="fill:none;stroke:#000000;stroke-width:3;stroke-linecap:round;stroke-linejoin:round;stroke-miterlimit:10;" d="     M400.199,99.689c-1.339,0.021-2.653-0.813-3.206-2.033c-0.552-1.22-0.311-2.758,0.588-3.75"/>
				<path style="fill:none;stroke:#000000;stroke-width:3;stroke-linecap:round;stroke-linejoin:round;stroke-miterlimit:10;" d="     M398.427,114.205c-1.119-0.736-1.736-2.165-1.506-3.484c0.23-1.319,1.295-2.455,2.596-2.769"/>
				<path style="fill:none;stroke:#000000;stroke-width:3;stroke-linecap:round;stroke-linejoin:round;stroke-miterlimit:10;" d="     M364.652,128.292c0.449-1.262,1.689-2.201,3.026-2.292c1.336-0.09,2.692,0.673,3.307,1.863"/>
				<path style="fill:none;stroke:#000000;stroke-width:3;stroke-linecap:round;stroke-linejoin:round;stroke-miterlimit:10;" d="     M371.635,136.377c0.449-1.262,1.69-2.201,3.026-2.292c1.336-0.09,2.692,0.673,3.307,1.863"/>
			</g>
		</g>
	</g>
</svg>