<svg xmlns="http://www.w3.org/2000/svg" xmlns:xlink="http://www.w3.org/1999/xlink" version="1.1" x="0px" y="0px" style="enable-background:new 0 0 500 500;" xml:space="preserve" viewBox="187.01 137.93 140.14 205.65">
	<g id="OBJECTS">
		<g>
			<g>
				<g>
					<path style="fill:#BADB68;" d="M306.245,329.829c-52.014,46.14-149.172-34.483-84.817-84.751     c11.733-7.476,26.392-9.542,36.035-20.259c6.145-6.815,9.157-15.892,17.055-21.186c13.171-8.827,34.268-0.365,37.489,15.225     c1.921,9.299-2.311,17.888-2.718,27.068C311.654,278.989,338.494,295.608,306.245,329.829z"/>
					<path style="fill:#2CCCB1;" d="M280.754,177.787c1.314-4.313,0.996-8.785-0.287-13.052c-2.602-8.654-11.484-16.788-22.096-15.474     c-1.236,0.153-2.615,0.539-3.396,1.55c-1.294,1.676-0.68,5.499-0.525,7.316c0.224,2.62,0.37,5.258,0.674,7.86     c0.619,5.304,1.933,10.563,5.454,14.48c3.04,3.381,7.539,5.753,12.744,5.381c4.46-0.319,5.993-3.829,7.231-7.439     C280.624,178.201,280.691,177.994,280.754,177.787z"/>
					<path style="fill:#B36B3C;" d="M310.626,173.169c3.074-0.485,7.082-0.609,9.404,1.859c2.59,2.752,1.674,7.918,0.077,10.946     c-2.21,4.188-6.685,6.405-11.247,6.93c-4.073,0.47-10.112,0.239-12.169-4.044C292.914,180.995,304.305,174.166,310.626,173.169z"/>
				</g>
				<g>
					<path style="fill:none;stroke:#000000;stroke-width:3;stroke-linecap:round;stroke-linejoin:round;stroke-miterlimit:10;" d="     M294.034,323.281c-27.642,25.638-78.482,11.438-97.56-18.284c-4.761-7.417-7.526-15.967-7.917-24.778     c-0.726-16.343,6.74-32.818,20.659-41.688c11.734-7.478,26.393-9.544,36.036-20.261c6.145-6.815,9.157-15.892,17.055-21.186     c13.171-8.827,34.268-0.365,37.489,15.225c1.921,9.299-2.311,17.888-2.718,27.068c-0.638,14.402,8.368,26.155,11.484,39.704     C312.256,295.177,306.02,312.164,294.034,323.281z"/>
					<path style="fill:none;stroke:#000000;stroke-width:3;stroke-linecap:round;stroke-linejoin:round;stroke-miterlimit:10;" d="     M288.286,176.168c1.03-4.714,0.316-9.743-1.404-14.626c-2.801-7.952-9.225-14.524-16.667-17.969     c-4.56-2.11-9.394-3.683-14.189-4.127c-0.714-0.066-1.618,0.04-1.703,0.756c-0.079,0.669,0.587,1.202,0.989,1.686     c0.543,0.654,1.021,1.364,1.428,2.105c1.176,2.144,1.44,4.446,1.816,6.737c1.466,8.928,2.029,19.196,8.573,26.733     c2.686,3.094,6.141,5.288,9.649,7.07c6.208,3.152,9.913-2.082,11.348-7.689C288.183,176.62,288.237,176.394,288.286,176.168z"/>
					<path style="fill:none;stroke:#000000;stroke-width:3;stroke-linecap:round;stroke-linejoin:round;stroke-miterlimit:10;" d="     M320.07,177.164c1.883,0.007,4.057,0.316,5.05,1.916c0.782,1.26,0.538,2.876,0.266,4.334c-0.311,1.669-0.621,3.338-0.932,5.007     c-0.124,0.667-0.286,1.398-0.829,1.806c-0.986,0.741-2.342-0.077-3.349-0.788c-6.888-4.857-16.819-4.896-23.745-0.091     c-0.996,0.691-4.332,3.696-5.504,2.694c-2.926-2.5,7.954-8.791,9.639-9.742C306.554,178.972,313.299,177.138,320.07,177.164z"/>
					<path style="fill:none;stroke:#000000;stroke-width:3;stroke-linecap:round;stroke-linejoin:round;stroke-miterlimit:10;" d="     M291.501,209.666c2.103,5.062,2.362,10.867,0.72,16.096"/>
					<path style="fill:none;stroke:#000000;stroke-width:3;stroke-linecap:round;stroke-linejoin:round;stroke-miterlimit:10;" d="     M285.354,209.933c1.351,1.382,1.965,3.447,1.59,5.342"/>
					<path style="fill:none;stroke:#000000;stroke-width:3;stroke-linecap:round;stroke-linejoin:round;stroke-miterlimit:10;" d="     M214.667,245.563c-7.316,5.831-12.72,14.022-15.202,23.042c-2.482,9.02-2.031,18.823,1.271,27.576"/>
					<path style="fill:none;stroke:#000000;stroke-width:3;stroke-linecap:round;stroke-linejoin:round;stroke-miterlimit:10;" d="     M207.089,291.377c0.046,2.404,0.871,4.786,2.321,6.703"/>
					<path style="fill:none;stroke:#000000;stroke-width:3;stroke-linecap:round;stroke-linejoin:round;stroke-miterlimit:10;" d="     M298.41,292.444c-1.87,9.197-6.846,17.733-13.926,23.894c-7.08,6.16-16.222,9.908-25.589,10.489"/>
					<path style="fill:none;stroke:#000000;stroke-width:3;stroke-linecap:round;stroke-linejoin:round;stroke-miterlimit:10;" d="     M274.655,159.348c3.375,5.974,5.657,12.69,6.692,19.7"/>
				</g>
			</g>
		</g>
	</g>
</svg>