<?xml version="1.0" encoding="utf-8"?>
<!-- Generator: Adobe Illustrator 27.5.0, SVG Export Plug-In . SVG Version: 6.00 Build 0)  -->
<svg version="1.1" xmlns="http://www.w3.org/2000/svg" xmlns:xlink="http://www.w3.org/1999/xlink" x="0px" y="0px"
	viewBox="0 0 500 500" style="enable-background:new 0 0 500 500;" xml:space="preserve">
	<g id="OBJECTS">
		<g>
			<g>
				<path style="fill:#B36B3C;" d="M356.725,324.33c-1.197,0.625-2.479,1.104-3.78,1.471c-2.324,0.655-4.93,0.945-7.064-0.184
				c-2.374-1.256-3.634-4.119-3.424-6.797c0.241-3.074,2.621-7.368,5.635-8.473c1.706-0.625,3.281-1.693,5.094-2.004
				c1.726-0.296,3.911,0.052,5.547,0.631c2.484,0.879,4.126,3.497,4.218,6.13c0.092,2.633-1.197,5.196-3.1,7.018
				C358.924,323.009,357.863,323.736,356.725,324.33z" />
				<path style="fill:#FFAA00;" d="M347.891,342.151c35.458-14.914,74.594,5.435,93.033,37.095
				c8.384,14.396,12.393,32.856,3.622,47.983c-7.573,13.06-21.997,21.458-36.469,24.587c-17.827,3.854-36.473,0.948-53.385-5.361
				c-14.991-5.592-25.745-18.498-32.881-32.706c-1.218-2.425-2.312-4.928-3.266-7.496c-6.958-18.737-3.913-38.686,10.941-52.362
				C334.894,348.912,341.158,344.983,347.891,342.151z" />
			</g>
			<g>
				<path
					style="fill:none;stroke:#000000;stroke-width:3;stroke-linecap:round;stroke-linejoin:round;stroke-miterlimit:10;"
					d="
				M355.225,311.52c-1.6,3.152-2.218,6.553-2.208,10.068c0.007,2.591,2.03,9.045-2.224,9.363
				c-4.313,0.323-4.421-12.337-4.653-15.294c-0.349-4.445-0.658-11.767,4.534-13.67C363.066,297.445,360.051,302.01,355.225,311.52z
				" />
				<path
					style="fill:none;stroke:#000000;stroke-width:3;stroke-linecap:round;stroke-linejoin:round;stroke-miterlimit:10;"
					d="
				M355.25,337.647c4.772-2.775,8.15-8.21,13.411-10.322c6.162-2.474,12.953-2.477,19.132-1.293
				c12.181,2.335,23.091,9.184,30.837,18.757c4.057,5.014,6.804,10.597,9.191,16.671c2.756,7.013,3.898,14.511,7.785,20.981
				c2.973,4.949,6.915,9.243,11.572,12.525c2.962,2.087,6.706,3.04,9.276,5.682c3.294,3.388,2.336,7.893,0.198,12.028
				c-16.16,31.251-56.493,44.919-86.575,36.133c-24.199-7.067-43.788-25.522-52.013-50.043c-0.841-2.508-1.553-5.086-2.12-7.72
				c-3.282-15.233-0.319-33.494,10.57-46.138c3.988-4.631,9.109-7.36,14.872-6.583c3.166,0.427,6.306,1.359,9.531,0.884
				C352.513,338.974,353.935,338.412,355.25,337.647z" />
				<path
					style="fill:none;stroke:#000000;stroke-width:3;stroke-linecap:round;stroke-linejoin:round;stroke-miterlimit:10;"
					d="
				M339.393,418.283c13.037,17.728,36.128,27.489,57.927,24.489" />
				<path
					style="fill:none;stroke:#000000;stroke-width:3;stroke-linecap:round;stroke-linejoin:round;stroke-miterlimit:10;"
					d="
				M388.344,437.571c3.55,0.16,7.122-0.158,10.588-0.941" />
				<path
					style="fill:none;stroke:#000000;stroke-width:3;stroke-linecap:round;stroke-linejoin:round;stroke-miterlimit:10;"
					d="
				M383.171,333.734c5.939,0.291,11.802,2.016,16.953,4.987" />
				<path
					style="fill:none;stroke:#000000;stroke-width:3;stroke-linecap:round;stroke-linejoin:round;stroke-miterlimit:10;"
					d="
				M438.435,396.424c2.238,2.016,4.918,3.537,7.796,4.424" />
				<path
					style="fill:none;stroke:#000000;stroke-width:3;stroke-linecap:round;stroke-linejoin:round;stroke-miterlimit:10;"
					d="
				M326.183,356.607c-1.807,3.447-2.988,7.221-3.469,11.083" />
				<path
					style="fill:none;stroke:#000000;stroke-width:3;stroke-linecap:round;stroke-linejoin:round;stroke-miterlimit:10;"
					d="
				M329.262,366.269c-0.674,2.04-0.905,4.224-0.674,6.359" />
				<path
					style="fill:none;stroke:#000000;stroke-width:3;stroke-linecap:round;stroke-linejoin:round;stroke-miterlimit:10;"
					d="
				M442.948,405.293c1.257,0.465,2.514,0.931,3.77,1.396" />
			</g>
		</g>
	</g>
</svg>