<svg xmlns="http://www.w3.org/2000/svg" viewBox="0 0 579 585">
    <defs>
        <style>
            .cls-1 {
                fill: #c7b299;
            }

            .cls-2 {
                fill: #be8675;
            }

            .cls-3 {
                fill: #534741;
            }

            .cls-4 {
                fill: none;
                stroke: #111112;
                stroke-miterlimit: 10;
                stroke-width: 2px;
            }

            .cls-5 {
                fill: #111112;
            }

            .cls-6 {
                fill: #fff;
            }
        </style>
    </defs>
    <g id="Calque_2" data-name="Calque 2">
        <path class="cls-1"
            d="M458.87,304.83c-1.51-5.13-3.11-10.43-6.56-14.53-5.57-6.61-14.7-8.73-23.17-10.48l-.9.09a128.53,128.53,0,0,0-247.86-13.46c-5.14.1-10.14,1-14.42,3.73-4.51,2.89-7.6,7.48-10.57,11.94-4.18,6.27-8.51,13-8.69,20.53A23.93,23.93,0,0,0,149,313.07a30.36,30.36,0,0,0,26.59,17.45h.69A128.53,128.53,0,0,0,425.12,345l.15,0a30.37,30.37,0,0,0,30.56-8.79,24.07,24.07,0,0,0,5.26-9.27C463.15,319.77,461,312.07,458.87,304.83Z" />
        <ellipse class="cls-2" cx="352" cy="299.5" rx="19" ry="8.5" />
        <ellipse class="cls-2" cx="219" cy="299.5" rx="19" ry="8.5" />
        <path class="cls-3"
            d="M408.47,200.54c-24.59-42.74-75.87-68.47-124.83-62.63-27.1,3.23-52.33,15.06-76.86,27-16.48,8-33.13,16.39-46.55,28.88S136.84,223.7,137.41,242a72.38,72.38,0,0,1,10.05,45.68l2.23-10.88,4.92,48.71c20.51-21.3,32.66-50.29,34.1-79.78a16.73,16.73,0,0,1,12,2.64c5.08,3.36,8.46,8.68,11.7,13.85,3-10.68.94-22.47-4.88-31.88l7.08,2.12a33,33,0,0,0,8.8,1.78,11.33,11.33,0,0,0,1.17,0l14.91,8.31a46,46,0,0,0-1.34-17.59,15.38,15.38,0,0,0,1.8-9.07,14.76,14.76,0,0,0-1.78-5.31l18.24,12.26a53.61,53.61,0,0,0-4.29-15.75c10.1,6.75,20.41,16,32.62,20.46,4.52,1.67,9.76,1.67,16.06,26.8,7.3-19.9,6.1-29.07,4.16-37.69-1.49-6.66-2.34-10.83-3.3-14.26l13.95,9a112,112,0,0,0,.2-16.88,134.63,134.63,0,0,1,47.48,50.66c9.47-11.78,10-29.87,1.33-42.21a86.09,86.09,0,0,1,46.42,43.44C421.48,233.84,416.61,214.69,408.47,200.54Z" />
    </g>
    <g id="Calque_1" data-name="Calque 1">
        <path class="cls-4"
            d="M399.05,221.33a139.85,139.85,0,0,1,17.37,67.87c0,74.66-57.62,135.19-128.69,135.19S159,363.86,159,289.2a144.39,144.39,0,0,1,.87-15.8" />
        <ellipse class="cls-5" cx="337.8" cy="253.64" rx="11.52" ry="14.52" />
        <path class="cls-5"
            d="M314.1,228.45a94.28,94.28,0,0,1,52.51-1.61,92,92,0,0,1,14.43,5c1.75.78,3.28-1.8,1.52-2.59a97.64,97.64,0,0,0-54-7.32,94,94,0,0,0-15.26,3.6c-1.83.6-1,3.5.8,2.9Z" />
        <ellipse class="cls-5" cx="246.67" cy="251.64" rx="11.52" ry="14.52" />
        <path class="cls-5"
            d="M271.17,223.55a97.29,97.29,0,0,0-54.53-1.5,96.21,96.21,0,0,0-14.73,5.22c-1.76.78-.23,3.37,1.52,2.59a93.39,93.39,0,0,1,66.94-3.41c1.84.6,2.63-2.3.8-2.9Z" />
        <circle class="cls-6" cx="256.18" cy="246.13" r="5.01" />
        <circle class="cls-6" cx="347.31" cy="248.14" r="5.01" />
        <path class="cls-5"
            d="M293.83,277.76a178.68,178.68,0,0,0-12.94,28.41q-2.56,7.27-4.49,14.76c-.64,2.49-1.22,5-1.75,7.51-.43,2.06-1.12,4.62.58,6.31s4.38,1.16,6.52.75l9.44-1.83c1.89-.37,1.09-3.27-.8-2.9l-7.31,1.42c-1.13.22-2.26.48-3.4.65-.63.1-1.82.32-2.32-.22s-.13-1.82,0-2.49c.24-1.18.49-2.37.76-3.55.52-2.29,1.08-4.56,1.69-6.83a173.23,173.23,0,0,1,9.4-26.32q3.28-7.23,7.2-14.15a1.5,1.5,0,0,0-2.59-1.52Z" />
        <path class="cls-5"
            d="M264.05,369.86a60.61,60.61,0,0,0,26.39,7.85,58.94,58.94,0,0,0,26.29-4.85,69.33,69.33,0,0,0,14.3-8.34c1.49-1.12,0-3.66-1.48-2.53a63.78,63.78,0,0,1-24.48,11.59,54.37,54.37,0,0,1-25.52-.52,59.66,59.66,0,0,1-14-5.73c-1.65-.92-3.13,1.61-1.48,2.53Z" />
        <path class="cls-5"
            d="M326.06,361.23q.35,0,.69,0a2.21,2.21,0,0,1,.68,0c-.33-.12,0,0,.07,0l.33.07a6.36,6.36,0,0,1,.66.2.93.93,0,0,1,.33.12l-.09,0,.16.07q.3.15.6.33l.29.19c.07.05.35.18.07.05a2,2,0,0,1,.51.46,2.5,2.5,0,0,1,.46.51c-.12-.22,0,0,.05.07l.19.28c.12.2.23.4.33.61s.2.38,0,.07a3,3,0,0,1,.12.32,4.58,4.58,0,0,1,.19.66,1.27,1.27,0,0,1,.06.28s.07.42,0,.2,0,.16,0,.2,0,.23,0,.35a4.63,4.63,0,0,1,0,.74,1.48,1.48,0,0,0,1.47,1.46,1.5,1.5,0,0,0,1.46-1.46,8.07,8.07,0,0,0-8.71-8.69,1.5,1.5,0,0,0-1.46,1.47,1.47,1.47,0,0,0,1.46,1.46Z" />
        <path class="cls-5"
            d="M413.46,257.78a32.27,32.27,0,0,1,28.43,20.87A34.22,34.22,0,0,1,442.94,298c-1.35,6-3.88,12.74-8.65,16.9-5.85,5.1-14.05,6-21.45,6.72-1.43.15-1.44,2.4,0,2.25,7.18-.74,14.75-1.55,20.88-5.71,5.73-3.89,8.83-10.47,10.72-16.94a37.75,37.75,0,0,0,.26-21.3,34.42,34.42,0,0,0-10.39-16.11,34.79,34.79,0,0,0-20.85-8.31c-1.45-.08-1.45,2.17,0,2.25Z" />
        <path class="cls-5"
            d="M416.71,276.64c7.36,1.68,13.43,7.87,13.46,15.68a15.14,15.14,0,0,1-13.31,15c-.94.12-.95,1.62,0,1.5a16.67,16.67,0,0,0,14.81-16.09c.19-8.6-6.42-15.68-14.56-17.52-.94-.22-1.34,1.23-.4,1.44Z" />
        <path class="cls-5"
            d="M153.31,255.78a34.52,34.52,0,0,0-23.21,25.94,39,39,0,0,0,1.43,19.49c1.91,5.9,4.8,11.75,10,15.41,6.17,4.36,13.91,5.2,21.21,5.95,1.44.15,1.43-2.1,0-2.25-6.13-.63-12.51-1.3-18-4.34-5.34-3-8.37-8.06-10.43-13.66a38.6,38.6,0,0,1-2.37-17.83,31.95,31.95,0,0,1,22-26.54c1.38-.45.79-2.63-.59-2.17Z" />
        <path class="cls-5"
            d="M158.45,273.86c-8.13,1.85-14.74,8.92-14.56,17.53a16.68,16.68,0,0,0,14.81,16.09c1,.12,1-1.39,0-1.5a15.15,15.15,0,0,1-13.31-15c0-7.81,6.1-14,13.46-15.68.94-.21.54-1.66-.4-1.45Z" />
        <path class="cls-5"
            d="M405.82,192.06A122.32,122.32,0,0,0,359,146.68a124.68,124.68,0,0,0-63.38-15.75c-26.7.78-51.8,11.28-75.55,22.63-22.86,10.94-47.75,22.09-63.17,43.12-7,9.58-11.84,21.08-12.12,33.07,0,.7,0,1.4,0,2.09a3.3,3.3,0,0,0,.63,1.76q1.32,2.24,2.47,4.56a67.38,67.38,0,0,1,3.68,9.12,68.32,68.32,0,0,1,3.26,19.18,69.29,69.29,0,0,1-.42,9.44c-.14,1.26,1.95,1.53,2.21.3l2.13-10.4-2.21-.29L161.18,312a1.14,1.14,0,0,0,1.92.8,119.92,119.92,0,0,0,30.54-58.4A122.71,122.71,0,0,0,196,235.83l-.83,1.08c10.22-1.84,16.74,7.78,21.41,15.24a1.14,1.14,0,0,0,2.06-.27,40.1,40.1,0,0,0-4.78-31.33l-1.27,1.65c2.64.79,5.27,1.6,7.92,2.37a26.23,26.23,0,0,0,7.74,1.4c1.19,0,2.23.84,3.26,1.41l3.78,2.11,7.57,4.22a1.14,1.14,0,0,0,1.69-1,46.13,46.13,0,0,0-1.32-17.11l-.11.87a15.62,15.62,0,0,0,0-14.87l-1.54,1.54L259,214.88a1.14,1.14,0,0,0,1.7-1,54.39,54.39,0,0,0-4.26-15.62l-1.54,1.54c10.31,6.91,19.81,15.52,31.66,19.74a12,12,0,0,1,8.49,7.54c2.78,5.37,4.37,11.37,5.84,17.2a1.13,1.13,0,0,0,2.17,0c2.68-7.31,4.95-14.95,5.37-22.77a55.94,55.94,0,0,0-1.71-15.3c-.91-4.06-1.72-8.15-2.83-12.16l-1.65,1.27L315.6,204a1.14,1.14,0,0,0,1.7-1,111.36,111.36,0,0,0,.19-16.13l-1.7,1a128.44,128.44,0,0,1,37.34,35.5,126.41,126.41,0,0,1,7.63,12.5,1.12,1.12,0,0,0,1.76.22c9.33-11.76,10.05-29.32,1.45-41.69L362.7,196a80.82,80.82,0,0,1,43.67,41,1.13,1.13,0,0,0,1.77.23c10.7-13.16,5.27-31.93-2.32-45.2a1.13,1.13,0,0,0-1.94,1.14c7,12.25,12.65,30.2,2.66,42.47l1.77.22A83.54,83.54,0,0,0,375.8,200a81.72,81.72,0,0,0-12.5-6.12,1.14,1.14,0,0,0-1.27,1.66c8,11.47,7.63,28-1.1,39l1.77.23a129.18,129.18,0,0,0-33.58-40.18,132.7,132.7,0,0,0-12.19-8.62,1.12,1.12,0,0,0-1.69,1,111.36,111.36,0,0,1-.19,16.13l1.69-1-13.33-8.64a1.13,1.13,0,0,0-1.65,1.27c.9,3.27,1.6,6.59,2.33,9.9.61,2.78,1.3,5.56,1.73,8.37a46.76,46.76,0,0,1-.68,16.55,101.23,101.23,0,0,1-4.21,14.22h2.17a91.22,91.22,0,0,0-5.39-16.37,20.51,20.51,0,0,0-4.93-7.15,14,14,0,0,0-4.7-2.5,63.59,63.59,0,0,1-13.84-7c-6.23-4-12-8.68-18.16-12.81-1-.7-1.94.62-1.54,1.54a50.94,50.94,0,0,1,4,14.48l1.69-1-17.42-11.72c-1-.66-2,.61-1.54,1.54a12.85,12.85,0,0,1,1.6,7.2,13.61,13.61,0,0,1-.83,3.62c-.43,1.17-1.06,1.88-.78,3.13a46.75,46.75,0,0,1,1.11,16l1.7-1-7.57-4.21-3.79-2.11c-1-.55-2.32-1.66-3.46-1.77s-2.42,0-3.66-.18a38.65,38.65,0,0,1-4-1c-2.79-.81-5.58-1.67-8.37-2.51a1.14,1.14,0,0,0-1.27,1.66,37.8,37.8,0,0,1,4.55,29.59l2-.27c-2.74-4.38-5.59-8.91-9.65-12.2a17.69,17.69,0,0,0-14.3-4.07,1.14,1.14,0,0,0-.82,1.09,119.42,119.42,0,0,1-20.52,61,113,113,0,0,1-11.74,14.43l1.92.79-4.69-46.53c-.12-1.17-1.93-1.65-2.21-.3L154.4,275.6l2.21.3a70.51,70.51,0,0,0-5.78-36.64c-.64-1.44-1.34-2.85-2.08-4.24s-1.77-2.55-1.77-4a46.41,46.41,0,0,1,.81-8.8,56.44,56.44,0,0,1,6-16.54c12.3-22.56,35.88-34.81,58.09-45.67,23.93-11.69,48.77-23.56,75.61-26.29a120.47,120.47,0,0,1,63.1,11.23,122,122,0,0,1,49,41.41q2.27,3.34,4.29,6.86A1.13,1.13,0,0,0,405.82,192.06Z" />
    </g>
</svg>