<svg xmlns="http://www.w3.org/2000/svg" viewBox="0 0 579 585">
    <defs>
        <style>
            .cls-1 {
                fill: #c7b299;
            }

            .cls-2 {
                fill: #534741;
            }

            .cls-3 {
                fill: #be8675;
            }

            .cls-4 {
                fill: none;
                stroke: #111112;
                stroke-miterlimit: 10;
                stroke-width: 2px;
            }

            .cls-5 {
                fill: #111112;
            }

            .cls-6 {
                fill: #fff;
            }
        </style>
    </defs>
    <g id="Calque_2" data-name="Calque 2">
        <path class="cls-1"
            d="M458.87,304.83c-1.51-5.13-3.11-10.43-6.56-14.53-5.57-6.61-14.7-8.73-23.17-10.48l-.9.09a128.53,128.53,0,0,0-247.86-13.46c-5.14.1-10.14,1-14.42,3.73-4.51,2.89-7.6,7.48-10.57,11.94-4.18,6.27-8.51,13-8.69,20.53A23.93,23.93,0,0,0,149,313.07a30.36,30.36,0,0,0,26.59,17.45h.69A128.53,128.53,0,0,0,425.12,345l.15,0a30.37,30.37,0,0,0,30.56-8.79,24.07,24.07,0,0,0,5.26-9.27C463.15,319.77,461,312.07,458.87,304.83Z" />
        <path class="cls-2"
            d="M197.08,229.45c-10.69,6.92-25.68,6.37-35.43-1.88s-13-23.83-6.88-35.16,21.41-16.56,32.69-10.71c-6-8.55-12.15-17.54-13.6-28s3.56-22.59,13.45-25.35c10.6-2.95,20.76,5.57,28.13,13.93-9-15.46-8-36.41,2.35-50.93s29.56-21.75,46.62-17.57,31,19.53,33.87,37.29c5.39-16.42,20.1-29.22,36.76-32s34.54,4.66,44.68,18.52,12.08,33.55,4.86,49.22c9-4.65,18.19-9.35,28.09-11.48S433.43,134,442,139.53c11.09,7.24,16.32,21.91,14.64,35.3s-9.4,25.41-19.24,34.37c11.27-3,23.94,5,27.22,16.45s-2.65,24.72-12.91,30.38-23.75,3.72-32.67-3.95-13.15-20.41-11.51-32.24c-9,10-19.55,20.77-32.84,21.15a25.3,25.3,0,0,1-21.53-11.47,26.79,26.79,0,0,1-1.95-24.82c-5.94,8.86-14.16,18.82-24.52,17.28-8.82-1.32-14.35-10.67-16.42-19.57,3.46,11.53-6.69,25-18.43,24.45S271.14,212,275.6,200.8c-4.64,8.1-9.8,16.7-18.18,20.46s-20.61-.47-21.51-9.82c-4,12.15-10.25,24.47-21.22,30.61s-27.41,3-31.92-9" />
        <ellipse class="cls-3" cx="352" cy="299.5" rx="19" ry="8.5" />
        <ellipse class="cls-3" cx="219" cy="299.5" rx="19" ry="8.5" />
    </g>
    <g id="Calque_1" data-name="Calque 1">
        <path class="cls-4"
            d="M409.6,245.68a141.15,141.15,0,0,1,6.82,43.52c0,74.66-57.62,135.19-128.69,135.19S159,363.86,159,289.2a140.38,140.38,0,0,1,12.9-59.07" />
        <ellipse class="cls-5" cx="337.8" cy="253.64" rx="11.52" ry="14.52" />
        <path class="cls-5"
            d="M314.1,228.45a94.28,94.28,0,0,1,52.51-1.61,92,92,0,0,1,14.43,5c1.75.78,3.28-1.8,1.52-2.59a97.64,97.64,0,0,0-54-7.32,94,94,0,0,0-15.26,3.6c-1.83.6-1,3.5.8,2.9Z" />
        <ellipse class="cls-5" cx="246.67" cy="251.64" rx="11.52" ry="14.52" />
        <path class="cls-5"
            d="M271.17,223.55a97.29,97.29,0,0,0-54.53-1.5,96.21,96.21,0,0,0-14.73,5.22c-1.76.78-.23,3.37,1.52,2.59a93.39,93.39,0,0,1,66.94-3.41c1.84.6,2.63-2.3.8-2.9Z" />
        <circle class="cls-6" cx="256.18" cy="246.13" r="5.01" />
        <circle class="cls-6" cx="347.31" cy="248.14" r="5.01" />
        <path class="cls-5"
            d="M293.83,277.76a178.68,178.68,0,0,0-12.94,28.41q-2.56,7.27-4.49,14.76c-.64,2.49-1.22,5-1.75,7.51-.43,2.06-1.12,4.62.58,6.31s4.38,1.16,6.52.75l9.44-1.83c1.89-.37,1.09-3.27-.8-2.9l-7.31,1.42c-1.13.22-2.26.48-3.4.65-.63.1-1.82.32-2.32-.22s-.13-1.82,0-2.49c.24-1.18.49-2.37.76-3.55.52-2.29,1.08-4.56,1.69-6.83a173.23,173.23,0,0,1,9.4-26.32q3.28-7.23,7.2-14.15a1.5,1.5,0,0,0-2.59-1.52Z" />
        <path class="cls-5"
            d="M264.05,369.86a60.61,60.61,0,0,0,26.39,7.85,58.94,58.94,0,0,0,26.29-4.85,69.33,69.33,0,0,0,14.3-8.34c1.49-1.12,0-3.66-1.48-2.53a63.78,63.78,0,0,1-24.48,11.59,54.37,54.37,0,0,1-25.52-.52,59.66,59.66,0,0,1-14-5.73c-1.65-.92-3.13,1.61-1.48,2.53Z" />
        <path class="cls-5"
            d="M326.06,361.23q.35,0,.69,0a2.21,2.21,0,0,1,.68,0c-.33-.12,0,0,.07,0l.33.07a6.36,6.36,0,0,1,.66.2.93.93,0,0,1,.33.12l-.09,0,.16.07q.3.15.6.33l.29.19c.07.05.35.18.07.05a2,2,0,0,1,.51.46,2.5,2.5,0,0,1,.46.51c-.12-.22,0,0,.05.07l.19.28c.12.2.23.4.33.61s.2.38,0,.07a3,3,0,0,1,.12.32,4.58,4.58,0,0,1,.19.66,1.27,1.27,0,0,1,.06.28s.07.42,0,.2,0,.16,0,.2,0,.23,0,.35a4.63,4.63,0,0,1,0,.74,1.48,1.48,0,0,0,1.47,1.46,1.5,1.5,0,0,0,1.46-1.46,8.07,8.07,0,0,0-8.71-8.69,1.5,1.5,0,0,0-1.46,1.47,1.47,1.47,0,0,0,1.46,1.46Z" />
        <path class="cls-5"
            d="M413.46,257.78a32.27,32.27,0,0,1,28.43,20.87A34.22,34.22,0,0,1,442.94,298c-1.35,6-3.88,12.74-8.65,16.9-5.85,5.1-14.05,6-21.45,6.72-1.43.15-1.44,2.4,0,2.25,7.18-.74,14.75-1.55,20.88-5.71,5.73-3.89,8.83-10.47,10.72-16.94a37.75,37.75,0,0,0,.26-21.3,34.42,34.42,0,0,0-10.39-16.11,34.79,34.79,0,0,0-20.85-8.31c-1.45-.08-1.45,2.17,0,2.25Z" />
        <path class="cls-5"
            d="M416.71,276.64c7.36,1.68,13.43,7.87,13.46,15.68a15.14,15.14,0,0,1-13.31,15c-.94.12-.95,1.62,0,1.5a16.67,16.67,0,0,0,14.81-16.09c.19-8.6-6.42-15.68-14.56-17.52-.94-.22-1.34,1.23-.4,1.44Z" />
        <path class="cls-5"
            d="M162.11,254.2a34.58,34.58,0,0,0-30.47,22.14,36.45,36.45,0,0,0-1.19,21c1.46,6.49,4.3,13.78,9.54,18.15,6.36,5.32,14.79,6.3,22.73,7.12,1.44.15,1.43-2.1,0-2.25-6.66-.69-13.65-1.44-19.4-5.18-5.53-3.61-8.42-10.1-10.14-16.26a35.24,35.24,0,0,1-.14-19.66,31.88,31.88,0,0,1,29.07-22.77c1.44-.08,1.45-2.33,0-2.25Z" />
        <path class="cls-5"
            d="M158.45,273.86c-8.13,1.85-14.74,8.92-14.56,17.53a16.68,16.68,0,0,0,14.81,16.09c1,.12,1-1.39,0-1.5a15.15,15.15,0,0,1-13.31-15c0-7.81,6.1-14,13.46-15.68.94-.21.54-1.66-.4-1.45Z" />
        <path class="cls-5"
            d="M175.32,217.51c-12.65,8-30.88,5.3-38.94-7.88a28.74,28.74,0,0,1-3.77-20.16,23.51,23.51,0,0,1,11.45-16c6.53-3.75,14.81-4.56,21.64-1.1,1.22.62,3-.73,2.05-2.06-6.95-9.92-15.15-21.54-13.4-34.34a22.41,22.41,0,0,1,6.54-13.48c4.22-3.89,10.05-4.64,15.38-2.84,6.86,2.33,12.41,7.81,17.1,13.11,1.15,1.29,3.19-.37,2.36-1.82-10.45-18.2-6.89-43,9.17-56.81a44.62,44.62,0,0,1,27.38-10.59,41.17,41.17,0,0,1,27.18,9.39,46.16,46.16,0,0,1,16.37,28c.26,1.56,2.46,1.27,2.89,0,6-17.9,23.32-31.49,42.41-31.44a46.09,46.09,0,0,1,26.8,8.91,44.86,44.86,0,0,1,16.58,24,48.5,48.5,0,0,1-2.23,33.08,1.52,1.52,0,0,0,2.05,2.06c16.18-8.33,36.87-18.45,54.57-8.15,14.75,8.58,18.27,28.16,13.2,43.35-3.21,9.6-9.39,18-16.8,24.76a1.51,1.51,0,0,0,1.46,2.51c8.07-2,16.61,1.75,21.64,8.15,5.34,6.8,5.79,16.11,2.32,23.86A25,25,0,0,1,420.91,247a28.85,28.85,0,0,1-24.36-9c-7.08-7.64-9.91-18.55-8.56-28.77.17-1.3-1.75-2-2.56-1.06-7.41,8.21-15.83,17.48-27,20.1a23.77,23.77,0,0,1-27.14-14.3,25.55,25.55,0,0,1,.21-19.12,1.5,1.5,0,0,0-2.59-1.51c-4.79,7.12-11.81,16.94-21.47,16.68s-14.8-10.5-16.72-18.61l-2.9.79c2.41,8.41-2.67,17.93-10.59,21.36-8.3,3.61-16.77-1.59-20.42-9.2a17.37,17.37,0,0,1-.73-13.77c.62-1.61-1.91-2.6-2.74-1.15-4.48,7.81-10,17.89-19.36,20.52-6.74,1.9-16.63-1.17-17.54-9.13a1.5,1.5,0,0,0-2.94-.4c-3.28,9.91-8,20.05-16.21,26.79-6.85,5.6-16.27,7.5-24.58,4.09a16.84,16.84,0,0,1-9.46-9.24c-.7-1.78-3.6-1-2.89.79,3.52,9,13,13.52,22.37,13.12,10.89-.47,19.5-7.62,25.26-16.43a78.34,78.34,0,0,0,8.4-18.32l-2.95-.4c.82,7.19,7.07,11.66,13.91,12.53,8.19,1,15.17-3.63,20.21-9.7a86.62,86.62,0,0,0,8.37-12.71l-2.74-1.16c-3.57,9.27,1.1,20.44,9.43,25.44,9.16,5.5,20.07,1.16,25.47-7.43a20.42,20.42,0,0,0,2.63-16.39,1.5,1.5,0,0,0-2.9.79c1.77,7.44,5.76,15.67,13,19.18,7.68,3.73,15.61.41,21.42-5.06a65.33,65.33,0,0,0,9.29-11.47l-2.59-1.51c-5.06,11.79-1.66,25.93,8.84,33.53a26.32,26.32,0,0,0,17.13,4.95,34,34,0,0,0,17-6.67c5.89-4.21,10.89-9.5,15.72-14.86L385,209.19A38.82,38.82,0,0,0,392.63,238a31.89,31.89,0,0,0,26.23,12.16,27.92,27.92,0,0,0,23.38-14.46c4.56-8.23,5.22-18.69.22-26.88-5.39-8.84-16.25-14.26-26.5-11.67l1.46,2.5c13.58-12.45,23.07-30.79,19-49.54-1.79-8.23-6.14-16-12.91-21.21-7.72-5.89-17.86-7.52-27.33-6.36-11.94,1.45-22.8,7-33.35,12.44l2.05,2.05c8.89-19.56,4.41-44.34-12-58.55A49.53,49.53,0,0,0,325,66.61a45.74,45.74,0,0,0-28.63,7.16,50.31,50.31,0,0,0-20.57,26.3h2.89c-3.48-20.8-21.52-38.35-42.85-39.51a47.28,47.28,0,0,0-29.94,9,46.08,46.08,0,0,0-17.7,26.58,49.92,49.92,0,0,0,4.91,36.33l2.36-1.81c-8.07-9.11-21.76-20.41-34.26-12.2-10.29,6.75-11.84,21-8.24,31.77,2.64,7.91,7.41,14.84,12.16,21.62l2.05-2.05c-13.93-7-31.73,1-36.61,15.57a31.31,31.31,0,0,0,1.75,23.14A29,29,0,0,0,150,223.67a32.6,32.6,0,0,0,26.82-3.57c1.63-1,.12-3.63-1.51-2.59Z" />
    </g>
</svg>