<svg xmlns="http://www.w3.org/2000/svg" viewBox="0 0 579 567">
    <defs>
        <style>
            .cls-1 {
                fill: #534741;
            }

            .cls-2 {
                fill: #c7b299;
            }

            .cls-3 {
                fill: #be8675;
            }

            .cls-4 {
                fill: #488568;
            }

            .cls-5 {
                fill: #fcdb21;
            }

            .cls-6,
            .cls-9 {
                fill: none;
                stroke: #111112;
                stroke-miterlimit: 10;
            }

            .cls-6 {
                stroke-width: 2px;
            }

            .cls-7 {
                fill: #111112;
            }

            .cls-8 {
                fill: #fff;
            }

            .cls-9 {
                stroke-width: 2px;
            }
        </style>
    </defs>
    <g id="couleurs">
        <path class="cls-1"
            d="M154.11,509.35a26.41,26.41,0,0,1,.92-2.9,8.85,8.85,0,0,1-.92,2.9c8.19-28.16,10.19-56.16,7.18-85.25l-24.77,28.56a329.84,329.84,0,0,0,21-95.66l288.38-2.64c.44,32.83,10.44,65.83,26.24,94.72l-28.91-41c4.11,33.13,18.11,63.13,34.17,91.56a4.61,4.61,0,0,1-2.5-3.18,8.23,8.23,0,0,1,2.5,3.18,30.5,30.5,0,0,1-11.06-7.43c4.86,0,8.15,4.1,11.06,7.43-3.64-2-7.63-3.52-10.77-6.29a21.94,21.94,0,0,1,10.77,6.29C447.3,483.19,420.3,462.19,395,439.19a5.34,5.34,0,0,0,2.75,3.05,10.53,10.53,0,0,0-2.75-3.05c2,3.58,1.74,8.39,5.27,11,1.06-4.35-4-7.32-5.27-11,1.24,3.43,2.17,7,4,10.18a22.12,22.12,0,0,0-4-10.18c9.27,29,22.27,56,32.35,84.17L358.5,468.52c-2.2,25.67-18.2,50.67-42.62,63,.47-.72,5.72-2.66,0,0,.47-.72,2.94-4.76,4-3.93,1.2,1-3.32,3.58-4,3.93a24.36,24.36,0,0,0-.8-25.54c-9.78-12.74-28.78-15.74-42.78-8.74-19,10-32,28-38.26,48.49a275.8,275.8,0,0,1,.05-86c-13.79,35.54-49.79,61.54-87.29,65.45,1.66-2.72,5.64-.54,0,0a63.26,63.26,0,0,0,4.08-9.32" />
        <path class="cls-1" d="M155.65,504l-7.4,18.8" />
        <path class="cls-1"
            d="M400.09,235.65l20.38,81.85c.64,2.59.93,6-1.46,7.21s-4.75-.87-6.44-2.73a228.2,228.2,0,0,1-37.68-56.44c-2.31-4.91-4.48-10.44-2.89-15.63s8.87-8.61,12.66-4.73" />
        <path class="cls-1"
            d="M398.64,236.05,409,277.46,414.08,298c1.7,6.81,3.63,13.61,5.09,20.47.3,1.46.81,5-1.53,5-1.22,0-2.37-1-3.19-1.79-1.13-1.07-2.15-2.3-3.18-3.47q-6.3-7.15-12-14.83a227.51,227.51,0,0,1-19.79-31.92c-1.63-3.19-3.29-6.42-4.64-9.75s-2.45-7-1.63-10.61a8,8,0,0,1,4.49-5.49c2-.91,4.27-1,5.89.56,1.38,1.35,3.51-.77,2.12-2.12-3.71-3.61-9.51-2.08-12.77,1.37-4.68,4.95-3,12.32-.64,17.94A174.85,174.85,0,0,0,381.73,282q5.14,9,11.09,17.58c3.94,5.67,8.15,11.17,12.58,16.46,2.15,2.56,4.29,5.19,6.64,7.56,2,2,5.14,4,8,2.26,2.21-1.33,2.57-4.12,2.3-6.47-.41-3.54-1.6-7.07-2.46-10.52l-5.61-22.52-12.72-51.1c-.47-1.87-3.36-1.08-2.9.8Z" />
        <path class="cls-1"
            d="M160.94,374.25a568.67,568.67,0,0,1,18.33-132.34c8.66.21,16,9.15,14.58,17.7-.64,3.77-2.66,7.14-4.55,10.47A184.31,184.31,0,0,0,166,372.87" />
        <path class="cls-1"
            d="M162.44,374.25q.52-26,3.4-51.84T174,271q3-14.43,6.7-28.71l-1.44,1.1c7.53.29,13.9,7.68,13.21,15.17-.43,4.75-3.54,9-5.76,13.06s-4.42,8.49-6.37,12.85a187.79,187.79,0,0,0-15.15,55.74,183.48,183.48,0,0,0-.69,32.64c.13,1.92,3.13,1.93,3,0A183.37,183.37,0,0,1,183.39,285q3.11-6.84,6.78-13.4c2.34-4.18,5-8.44,5.34-13.36.56-9.05-7.26-17.49-16.24-17.83a1.52,1.52,0,0,0-1.45,1.1q-6.62,25.38-10.89,51.29t-6.14,52q-1,14.71-1.35,29.46c0,1.93,3,1.93,3,0Z" />
        <path class="cls-2"
            d="M443.87,337.83c-1.51-5.13-3.11-10.43-6.56-14.53-5.57-6.61-14.7-8.73-23.17-10.48l-.9.09a128.53,128.53,0,0,0-247.86-13.46c-5.14.1-10.14,1-14.42,3.73-4.51,2.89-7.6,7.48-10.57,11.94-4.18,6.27-8.51,13-8.69,20.53A23.93,23.93,0,0,0,134,346.07a30.36,30.36,0,0,0,26.59,17.45h.69A128.53,128.53,0,0,0,410.12,378l.15,0a30.37,30.37,0,0,0,30.56-8.79,24.07,24.07,0,0,0,5.26-9.27C448.15,352.77,446,345.07,443.87,337.83Z" />
        <ellipse class="cls-3" cx="345" cy="339.5" rx="19" ry="8.5" />
        <ellipse class="cls-3" cx="212" cy="339.5" rx="19" ry="8.5" />
        <path class="cls-4"
            d="M311.77,165.25a3.73,3.73,0,0,0,.3-1.18c.77-4.88,1.42-9.78,2.36-14.63,1.43-7.37,3.56-14.63,3.19-22.27,0-.42.4-.87.61-1.3.43.25,1,.39,1.26.77a15.85,15.85,0,0,1,1.82,3.81,51.84,51.84,0,0,1,1.21,22.06c-.75,4.24-1.68,8.45-2.54,12.68-.55,2.65-1.12,5.31-1.68,8,1.13-1.12,1.9-2.45,2.88-3.58a21.24,21.24,0,0,0,3.57-6.62,32.12,32.12,0,0,1,1.74-3.88c4.91-8.83,9.73-17.71,14.84-26.42a214.54,214.54,0,0,1,16.42-23.73c6.44-8.22,13.83-15.56,21.36-22.76l1-1c-4.15,1.51-7.64,2.4-10,2.31-2.09-.08-4-.59-5-2.65s-.18-3.91,1.17-5.38a62.12,62.12,0,0,1,4.92-4.37l1-.85c-.4-.08-.79-.2-1.19-.24a11.84,11.84,0,0,1-6-2.14,3.38,3.38,0,0,1-1.09-4.7,6.2,6.2,0,0,1,3.54-3,19.22,19.22,0,0,1,11.46-.95,1.94,1.94,0,0,0,2.1-.53A6.1,6.1,0,0,1,386,61a8,8,0,0,1,6,3.59,2.56,2.56,0,0,0,1.39,1c3.17.57,6.65,4,7.12,7.21a2.35,2.35,0,0,1,0,1.24c-.39.87.06,1.17.72,1.57a6.21,6.21,0,0,1,3.09,6.43,5.59,5.59,0,0,1-1.39,3.21,1.62,1.62,0,0,0-.47,2,13.42,13.42,0,0,1-.84,10.12,5.14,5.14,0,0,1-5.14,3A5.35,5.35,0,0,1,391.57,97a30.32,30.32,0,0,1-.9-3.17c-.07-.24-.18-.46-.27-.69a3.51,3.51,0,0,0-.51.51,36.33,36.33,0,0,1-3.29,4.59c-2.57,2.64-6.17,1.89-7.48-1.56a11.91,11.91,0,0,1-.47-4.47,23.13,23.13,0,0,1,.74-3.83c-23.17,21.17-39.23,47.07-52.71,74.81a4.32,4.32,0,0,0,1.29-.85c2.5-2.33,5-4.61,7.48-7,4.76-4.71,9.33-9.58,12-15.9.19-.44.87-1.06,1.16-1,.86.23.42,1,.32,1.58a1.82,1.82,0,0,1-.11.3A94.26,94.26,0,0,1,338.67,162c-.15.22-.25.47-.46.87a4.06,4.06,0,0,0,.48-.26c11.4-8.7,23.06-17,36.33-22.67a1.66,1.66,0,0,0,.92-.77,9.14,9.14,0,0,1,2.85-4.09c.52-.44.26-.6-.26-.81a16.66,16.66,0,0,1-2.68-1.32,2.81,2.81,0,0,1-1.08-4.19,6.61,6.61,0,0,1,2.14-2,10.65,10.65,0,0,1,2.36-.84c-.3-.82-.64-1.63-.88-2.46-.91-3.15,1-5.65,4.32-5.47a24.26,24.26,0,0,1,2.59.61,1.86,1.86,0,0,0,1.27-.13,5.29,5.29,0,0,1,7.67,1.78,8,8,0,0,0,3.75,3.54c2.53,1.16,3.53,3.69,3.54,6.44,0,1.23-.65,2.49-.54,3.69s.9,2.45,1.15,3.72a3.63,3.63,0,0,1-2,4.22,2.06,2.06,0,0,0-1.28,1.9,4.75,4.75,0,0,1-5,4.42,5.2,5.2,0,0,0-2.94.73c-3.64,2-6.78.3-7.31-3.81,0-.26-.05-.53-.06-.79,0-1.45,0-1.48-1.53-1.1-2.09.51-4,.4-5.43-1.45a1.29,1.29,0,0,0-1.18-.19c-1.64.7-3.27,1.45-4.86,2.27a185.57,185.57,0,0,0-26.34,16.75,165,165,0,0,0-18.21,15.82c-.43.44-.83.91-1.24,1.37l.25.27c5.28-3.58,11.24-5.72,17-8.24.72-.32,1.43-.67,2.13-1a32.29,32.29,0,0,0,10.18-7.33,2.16,2.16,0,0,1,.69-.63,1.25,1.25,0,0,1,1-.08,1,1,0,0,1,.27.94,9.47,9.47,0,0,1-1.39,2.26c-2.75,3-5.46,6-8.38,8.79a64.31,64.31,0,0,1-16.37,12c-5.3,2.57-10.57,5.21-15.85,7.82-1.35.66-1.8.69-2.74-.5a43.08,43.08,0,0,1-3.94-5.69,47.29,47.29,0,0,1-5.7-18.75c-.62-7.23-1.05-14.48-1.52-21.73-.37-5.72-.53-11.46-2-17.05-.13-.51-.26-1.19.47-1.25a1.72,1.72,0,0,1,1.19.71c.46.63.72,1.4,1.12,2.08a45.52,45.52,0,0,1,6.36,20.46c.33,5.3.81,10.59,1.2,15.89A45.65,45.65,0,0,0,311,177.47a7.15,7.15,0,0,0,.4.84c-5-28.36-1.43-55.66,9.45-82.17a8.59,8.59,0,0,0-1.29,1.14,33.64,33.64,0,0,1-3.16,2.83c-1.56,1.12-3.29,1.48-5,.21s-2.63-3-2-5.09a28.79,28.79,0,0,1,2.3-5.32,46.46,46.46,0,0,1,3-4.28l-.17-.31a8.54,8.54,0,0,1-1.42.63c-1.83.43-3.67.93-5.53,1.18a7.84,7.84,0,0,1-4.89-.93,3.14,3.14,0,0,1-1.54-4.39,10.81,10.81,0,0,1,2-2.8,13.45,13.45,0,0,1,6.87-3.66,2.76,2.76,0,0,0,2.25-1.86,5.19,5.19,0,0,1,5.62-3.43,8.07,8.07,0,0,0,4.68-.82c3.59-1.52,6.93-.4,9.84,2a6.18,6.18,0,0,0,2.84,1.46,6.31,6.31,0,0,1,5.16,7.18,2.4,2.4,0,0,0,.9,2.39,34.28,34.28,0,0,1,4,5,6.27,6.27,0,0,1-.34,6.88,4,4,0,0,1-5.58,1.52,13.68,13.68,0,0,1-2.66-2c-.87-.8-1.6-1.75-2.53-2.79.14,1.22.27,2.24.36,3.27a10.21,10.21,0,0,1-1.85,7c-1.7,2.42-4.19,2.61-6,.33a7.88,7.88,0,0,1-1.51-3.07c-.46-1.87-.63-3.81-.94-5.83C314.23,115.88,309.17,139.91,311.77,165.25Zm13.54-80a4.75,4.75,0,0,1,1.31-.87,4,4,0,0,1,.21,1.42,27.71,27.71,0,0,0-.23,10.81,10.63,10.63,0,0,0,1.06,3.27c1,1.81,2.44,1.85,3.75.25a7.08,7.08,0,0,0,1.48-4.88,37.41,37.41,0,0,0-2.81-12.56c-.13-.36-.73-.62-1.17-.75a33.45,33.45,0,0,1-3.8-.93c-2.18-.91-2.67-2.19-2.13-4.53a2.46,2.46,0,0,0-.07-1.37,5.67,5.67,0,0,0-7-3,2.79,2.79,0,0,0-1.06.65,10.23,10.23,0,0,0-1,1.55l1.51.15a20.39,20.39,0,0,1,2.34.24c.27.06.47.48.7.73-.25.22-.48.54-.77.63a7.18,7.18,0,0,1-1.41.13c-3.7.31-7.33,1-10.47,3.07A11.14,11.14,0,0,0,303,82c-.94,1.3-.47,2.43,1,2.94a9.44,9.44,0,0,0,5.13.33,33.78,33.78,0,0,0,10.41-4c.69-.41,1.6-1.24,2.22-.39s-.56,1.37-1.15,1.82a27.45,27.45,0,0,0-9.16,11.43c-.61,1.54-.88,3,.44,4.4a2,2,0,0,0,2.54.59,10.19,10.19,0,0,0,3-2.22c2.41-3,4.65-6.21,7-9.33l-.28-.2A14.74,14.74,0,0,1,325.31,85.28Zm-24,50.33q1,14.1,1.92,28.18a51.74,51.74,0,0,0,5.24,20.5c1.1,2.13,2.57,4.08,3.86,6.12.42.67.88.68,1.58.33,5.31-2.66,10.65-5.28,16-7.91,6.79-3.35,12.26-8.39,17.61-13.62-7,3.64-14.68,5.77-21.34,10.1A42.35,42.35,0,0,0,316,187.77a1.89,1.89,0,0,1-3.25-.28,7.52,7.52,0,0,1-.72-1.58c-1.48-4.66-3-9.3-4.37-14a33.42,33.42,0,0,1-.91-6.24c-.41-4.82-.75-9.65-1.07-14.47a42.8,42.8,0,0,0-3.52-14.82c-.19-.42-.4-.85-.59-1.27l-.23.07A2.12,2.12,0,0,0,301.32,135.61ZM316,176.06c1.67-8.24,3.45-16.46,4.94-24.72,1.19-6.67.36-13.31-1-19.88a2.65,2.65,0,0,0-.29-.6c-.12.24-.24.37-.25.5-.61,7.42-2.44,14.61-4,21.85a104.27,104.27,0,0,0-1.5,29.34c0,.3.09.6.13.9l.34,0C314.91,181,315.47,178.52,316,176.06Zm52.85-90.47a9.27,9.27,0,0,0,2.35.1c6-.52,10.94-3.47,15.48-7.19.47-.38.45-.68.08-1.17-.85-1.13-1.57-2.35-2.41-3.49a1.36,1.36,0,0,0-1-.55c-5.87.48-11.22,2.22-15.37,6.67a13.63,13.63,0,0,0-1,1.27C365.81,83.53,366.58,85.19,368.82,85.59ZM342.77,150c-4.41,4.43-8.67,9-13.28,13.23a52.19,52.19,0,0,0-11.6,15,33.39,33.39,0,0,0-1.93,5.87,3.79,3.79,0,0,0,.7-.39c5.63-6,11.3-11.88,16.86-17.9,4.32-4.68,7.22-10.27,9.9-16.31C343.06,149.75,342.9,149.85,342.77,150Zm-12-75c-.63.28-.65.71-.09,1,2.35,1.35,2.53,3.11,1.16,5.28a1.4,1.4,0,0,0,.08,1.16c1.44,2.68,2.79,5.43,4.46,8A14.71,14.71,0,0,0,340,94c1.38,1,2.71.55,3.6-.93a5.14,5.14,0,0,0,0-5.53,16.65,16.65,0,0,0-6.21-6.12,3.81,3.81,0,0,1-.81-.47,11.82,11.82,0,0,1-.87-1.11c.5-.13,1-.3,1.5-.38.18,0,.38.16.58.24,1,.39,1.16.28,1.11-.82a4.72,4.72,0,0,0-2.74-4.18A6.21,6.21,0,0,0,330.75,75Zm60.69,7c.19-1-.46-1.4-1.13-1.82-1.7-1.08-1.66-1-3.14.27a22.68,22.68,0,0,0-6.32,9.65,8.58,8.58,0,0,0-.27,5.57c.84,2.67,3.14,3.26,5.05,1.21a30.86,30.86,0,0,0,2.45-3.33A40.9,40.9,0,0,0,391.44,82Zm9.67,7.42a15.81,15.81,0,0,0-3.74-7.86c-.58-.65-1.07-1.05-2-.58-.66.34-1.7.26-2.09.75s0,1.41-.08,2.14c-.17,2.3-.49,4.59-.55,6.9a22.71,22.71,0,0,0,.38,5.14,3.59,3.59,0,0,0,3.37,2.85c1.55.18,3-.72,3.93-2.52A12.14,12.14,0,0,0,401.11,89.37Zm-30-17.13c4,.49,8-.24,11.91-.82.27,0,.52-.4.72-.65a2.11,2.11,0,0,0,.19-.6c.76-2.15.73-2.51-1.29-3.57a16.81,16.81,0,0,0-15.46-.38l-.14.08c-1,.62-2,1.34-2,2.64s1.16,1.76,2.08,2.51C368.48,71.72,369.79,72.07,371.13,72.24Zm7,68.59a1.86,1.86,0,0,0,2.16.94,15.54,15.54,0,0,0,9.62-5.48c.9-1.06-.08-2.09-.43-3.07s-1.08-.41-1.64-.29a17.86,17.86,0,0,0-7.59,3.25,31,31,0,0,0-2.43,2.37A8.65,8.65,0,0,0,378.15,140.83Zm14.66-2a2.31,2.31,0,0,0-.93-1.47c-.69-.48-.93.39-1.34.72-1.17,1-2.27,2-3.5,2.88a4.39,4.39,0,0,0-.66,6.47,2,2,0,0,0,1.11.49,4.35,4.35,0,0,0,4.36-2.54A14.46,14.46,0,0,0,392.81,138.85Zm-4.09-10.58c.56.24,1.13.46,1.69.69a8.84,8.84,0,0,0-.24-2.08,13.23,13.23,0,0,0-5.16-6.39c-1.75-1.19-3.95-1-4.86.28s0,3.8,1.54,4.82a8.14,8.14,0,0,0,1.89.73c.8.26,1.62.45,2.41.73s1.56.64,2.33,1l0,.05C388.44,128.13,388.58,128.21,388.72,128.27Zm-8.23-.46a9.23,9.23,0,0,0-3.57,1c-1.28.65-1.27,1.9-.1,2.77a6.36,6.36,0,0,0,5.66,1.16c2-.54,4-1.13,6-1.72a2.76,2.76,0,0,0,.5-.28c-.12-.15-.21-.35-.37-.44-.49-.29-1-.54-1.53-.81A12.63,12.63,0,0,0,380.49,127.81ZM323.65,70.5c-1.6.49-1.68.79-.6,2,.25.28.46.58.71.84.7.71.83,2.12,2.45,1.66,1-.29,2.07-.09,2.89-1a5.81,5.81,0,0,1,1.46-.91c1-.56,1-.66,0-1.28-.27-.17-.56-.3-.84-.44A7.85,7.85,0,0,0,323.65,70.5Zm64.67,48.88c-.8.1-.89.62-.34,1.21l.53.58a14.35,14.35,0,0,1,3.49,5.71,3.2,3.2,0,0,0,.52,1.12c.39.44.9.6,1.25-.11,1.2-2.44-.23-7-2.56-8.51A23.22,23.22,0,0,0,388.32,119.38Zm-5.41-56c-.87.51-.84.72,0,1.32s1.83,1.4,2.77,2.05a3.46,3.46,0,0,0,1.25.57c1.07.22,2.19.24,3.23.55s1.09-.18,1-.82a3.59,3.59,0,0,0-.69-1.71,18.09,18.09,0,0,0-1.83-1.78C386.44,62.61,384.67,62.37,382.91,63.39Zm16.93,66.71c-.2-2-.77-3.83-2.65-4.93-1-.61-1.23-.52-1.37.64-.08.62-.12,1.25-.23,1.87-.42,2.39-.09,3.06,2.07,4.07S400.07,132.48,399.84,130.1Zm-.59-53.2c-.49,0-1.36.2-1.44.49-.22.72-.73,1.5,0,2.34,1.09,1.21,2,2.53,3,3.84.65.87,1,.87,1.53-.09C403.65,81,401.8,77.07,399.25,76.9Zm-2.05,65.6a39,39,0,0,0-1.19-4.36,1.31,1.31,0,0,0-.71-.59,2,2,0,0,0-.8.95c-.12.54.08,1.15,0,1.71-.26,1.8-.53,3.61-.91,5.39-.16.77.08,1,.75.89a3.66,3.66,0,0,0,2.72-2.08A6,6,0,0,0,397.2,142.5Zm-4.12-74.67c-.58.55-.45,1.23.14,1.93,1.29,1.57,2.5,3.22,3.64,4.91.48.72.83.65,1.34.17a1.88,1.88,0,0,0,.58-2.13,10.61,10.61,0,0,0-4.42-5.11C394.16,67.62,393.42,67.51,393.08,67.83Zm6.67,67.8a12.91,12.91,0,0,0-2.37-2.23c-.46-.39-.74-.18-.78.41a4.4,4.4,0,0,0,.46,2.88c.52.83.82,1.8,1.26,2.69.19.39.56,1.06.71,1a3.66,3.66,0,0,0,1.15-.69A4.14,4.14,0,0,0,399.75,135.63Z" />
        <path class="cls-4"
            d="M263.63,97.5c-1,1.36-1.85,2.71-2.89,3.9a6.63,6.63,0,0,1-2.26,1.66c-2.21,1-4-.11-4.27-2.52a8.42,8.42,0,0,1,1.29-5.82c.46-.71.95-1.4,1.5-2.24-1.07.41-2,.82-2.9,1.08a12,12,0,0,1-2.67.42,3.32,3.32,0,0,1-3.49-3.22,5.14,5.14,0,0,1,2.35-5.14,28.51,28.51,0,0,1,4.82-2.14c.75-.28,1.28-.46,1.56-1.4a5.16,5.16,0,0,1,6.46-3.28,5.06,5.06,0,0,0,2.62,0c3-.61,5.87-.17,7.91,2.29a6.65,6.65,0,0,0,3.11,2.37,4.26,4.26,0,0,1,2.8,4.62,2.25,2.25,0,0,0,.93,2.2,11,11,0,0,1,3.62,5.26,8.89,8.89,0,0,1,.4,2.79,2.6,2.6,0,0,1-2.78,2.63,6.49,6.49,0,0,1-3.91-1.17,44.06,44.06,0,0,1-3.59-3,6.42,6.42,0,0,1-.8-1l-.24.16a38.57,38.57,0,0,1,.58,4.26,24.39,24.39,0,0,1-.33,4.75,3.67,3.67,0,0,1-3.36,3,3.2,3.2,0,0,1-3.55-2,31.23,31.23,0,0,1-1.24-3.26,6.61,6.61,0,0,0-.51-1.32c-2.08,23.42-9.8,44.65-24.14,63.43a4.57,4.57,0,0,0,.61-.45,37.78,37.78,0,0,0,5.78-7c2.29-3.71,4.63-7.39,6.88-11.13a37.28,37.28,0,0,1,12.35-12.5,16.86,16.86,0,0,1,1.61-1.09,1.37,1.37,0,0,1,1.13-.07c.51.32.16.77-.13,1.09-3.2,3.5-5.48,7.63-7.91,11.65-3.08,5.11-6.14,10.22-9.32,15.26a38.87,38.87,0,0,1-11.23,11.51,34.32,34.32,0,0,1-5,2.65c-1.14.52-1.45.33-2.18-.67-2.87-3.89-5.71-7.8-8.6-11.67a53,53,0,0,1-7.41-14.9c-1.07-3.14-1.91-6.37-2.79-9.57a7.5,7.5,0,0,1-.16-2.17.87.87,0,0,1,.56-.59c.21,0,.51.23.68.43a1.78,1.78,0,0,1,.27.73,26.47,26.47,0,0,0,4.65,9.18c.38.53.76,1,1.16,1.56,3.27,4,6.79,7.83,9.29,12.42l.29-.1c-.13-.49-.24-1-.39-1.46a135.67,135.67,0,0,0-7.29-18.4,152.83,152.83,0,0,0-12.87-22.15q-1.28-1.8-2.69-3.49a1,1,0,0,0-.93-.31c-1.77.79-3.17.17-4.49-1-1-.84-1-.82-1.54.23a6.26,6.26,0,0,1-.34.55c-1.94,2.79-4.86,2.83-6.76,0a4.37,4.37,0,0,0-1.87-1.64,3.92,3.92,0,0,1-2-5.13,1.69,1.69,0,0,0-.21-1.87,3,3,0,0,1,.12-3.83c.67-.83,1.69-1.4,2.25-2.27s.52-2,1-2.9c1.05-2,2.73-3.46,5-3.35a6.71,6.71,0,0,0,4.08-1.17,4.35,4.35,0,0,1,6.26,1.6,1.45,1.45,0,0,0,.87.57,18.8,18.8,0,0,1,2.12.54,3.3,3.3,0,0,1,1.08,5.61c-.49.52-1.05,1-1.57,1.47a8.91,8.91,0,0,1,1.4,1.49,5.34,5.34,0,0,1,.82,2.24,2.31,2.31,0,0,1-2.37,2.65,14.33,14.33,0,0,1-2.45-.05c-.46,0-.71,0-.5.49a7.43,7.43,0,0,1,.54,4.06,1.33,1.33,0,0,0,.38.91c7.51,9.16,12.89,19.59,17.9,30.23,0,.07.1.14.26.37,0-.37,0-.59,0-.81a77.15,77.15,0,0,1,.81-19.61,2.13,2.13,0,0,1,0-.25c.15-.47.12-1.19.84-1,.23,0,.5.77.47,1.15-.46,5.61,1,10.88,2.71,16.11.87,2.67,1.86,5.3,2.81,7.94a3.57,3.57,0,0,0,.61,1.11c.66-25.31-1.26-50.24-10.15-74.41a18.52,18.52,0,0,1-.91,3.06,9.77,9.77,0,0,1-2,3.08,3.53,3.53,0,0,1-6-1.68,30.08,30.08,0,0,1-.66-4.58,3.77,3.77,0,0,0-.18-.57c-.15.13-.32.25-.46.39a24.88,24.88,0,0,1-1.85,2,4.39,4.39,0,0,1-4.86.67,4.23,4.23,0,0,1-2.61-4.13,11,11,0,0,1,3.21-7.7,1.31,1.31,0,0,0,.41-1.62,4.66,4.66,0,0,1,.2-2.87A5.09,5.09,0,0,1,214,56.11c.63,0,1.07-.09,1.12-.87a2,2,0,0,1,.43-.92,8,8,0,0,1,7.91-2.57,2.06,2.06,0,0,0,1.4-.23,6.57,6.57,0,0,1,5.75-.34,5,5,0,0,1,3,3.16A1.6,1.6,0,0,0,235,55.52a15.67,15.67,0,0,1,8,5,5.09,5.09,0,0,1,1.46,3.5,2.77,2.77,0,0,1-2.56,3,9.72,9.72,0,0,1-5.19-.71,6.53,6.53,0,0,0-1-.27c.13.33.28.66.41,1a50.59,50.59,0,0,1,1.92,5,3.81,3.81,0,0,1-1.17,4.36c-1.51,1.13-3.11.76-4.66,0-1.78-.83-4-2.8-6.44-5.46.11.35.23.71.35,1.07a180.16,180.16,0,0,1,7,24.65,178.76,178.76,0,0,1,3,23.49c.44,8.28.59,16.57.83,24.85a24,24,0,0,1-.2,3.49,17.53,17.53,0,0,0,.11,6.17c.29,1.2.35,2.45.75,3.69.59-2.14,1.17-4.29,1.78-6.43,1-3.41,1.88-6.83,2.93-10.2a42.74,42.74,0,0,1,9.21-15.61,13,13,0,0,1,2.77-2.09c.3-.2.8-.07,1.21-.09,0,.4.13.88,0,1.18-3.15,5.42-4.34,11.52-6.08,17.43-1.15,3.89-2.53,7.7-3.81,11.55a2.92,2.92,0,0,0-.22,1C256.78,137.67,262.17,118.24,263.63,97.5Zm2-3.8-.28,0c.5,3.14.93,6.3,1.54,9.43a8.18,8.18,0,0,0,1.36,2.74,1.61,1.61,0,0,0,2.07.53c1.48-.51,1.85-1.68,2-3A22.47,22.47,0,0,0,270,91.62c-.25-.55-1.05-1.31-.15-1.76s1.12.56,1.47,1.12a27.77,27.77,0,0,0,6.08,6.84,7.89,7.89,0,0,0,3.86,1.7c1.3.19,2.07-.45,1.88-1.75a9.21,9.21,0,0,0-1-3c-1.49-2.73-3.9-4.56-6.48-6.19a5.72,5.72,0,0,1-1-.62c-.18-.17-.22-.5-.32-.75.26-.1.56-.33.78-.27.62.18,1.2.47,1.8.71l1.15.46a8.28,8.28,0,0,0-.13-1.5,2.24,2.24,0,0,0-.53-.88,4.67,4.67,0,0,0-6.22-.42,2.12,2.12,0,0,0-.57,1c-.48,1.91-1.33,2.66-3.26,2.5a27.18,27.18,0,0,1-3.12-.75,1.53,1.53,0,0,0-1.13.09,30.72,30.72,0,0,0-6.79,8.1,5.84,5.84,0,0,0-.77,4.11c.36,1.66,1.42,2.18,2.83,1.24a8.78,8.78,0,0,0,2-2,22.73,22.73,0,0,0,3.91-8c.09-.35.45-.63.69-1a3.81,3.81,0,0,1,.63,1.12A12.54,12.54,0,0,1,265.67,93.7Zm-1.43,43.46-.14-.14-.91.71a35.24,35.24,0,0,0-8.16,9.46q-3.08,5.1-6.25,10.14a27.4,27.4,0,0,1-3,4.2c-2.75,2.93-5.64,5.72-8.48,8.55a5.89,5.89,0,0,1-1.11.88,1.55,1.55,0,0,1-2.48-1,35.21,35.21,0,0,0-4.17-10c-3.22-5.67-8-10.12-11.74-15.41,1.92,5.82,4,11.57,7.68,16.57,2.89,3.93,5.79,7.85,8.65,11.8.38.52.72.68,1.28.35,1.71-1,3.52-1.86,5.12-3a42.43,42.43,0,0,0,11.56-12.95q6-9.92,12-19.8A2,2,0,0,0,264.24,137.16ZM236.56,167.4l.24.15c.14-.2.3-.4.43-.61a85.48,85.48,0,0,0,10-21.94c1.62-5.85,3-11.78,5.36-17.41a1.62,1.62,0,0,0,0-.46,2.81,2.81,0,0,0-.44.32c-3.48,4.27-6.59,8.8-8.24,14.11-2,6.58-3.84,13.24-5.74,19.87C237.61,163.41,237.09,165.41,236.56,167.4Zm.24-94.34a11.55,11.55,0,0,0-.23-1.28c-1.34-4.81-4.58-8.09-8.68-10.66a1.1,1.1,0,0,0-.92,0c-1,.51-2,1.13-3.07,1.63-.46.22-.59.43-.39.88,1.91,4.43,4.37,8.43,8.57,11.09a7.52,7.52,0,0,0,1.75.81C235.61,76.11,236.8,75.2,236.8,73.06Zm-8.58,58.63c-.33,5.41-.33,10.58,1.05,15.62,1.78,6.49,3.68,12.94,5.53,19.41a3.79,3.79,0,0,0,.36.55,27.17,27.17,0,0,0,.81-5,42.56,42.56,0,0,0-2.8-15.29c-1.76-4.81-3.13-9.77-4.68-14.66C228.45,132.17,228.37,132,228.22,131.69ZM261.74,80a3.89,3.89,0,0,0-3.58,2c-.45.78-.36.93.51,1,.17,0,.39,0,.5,0a10.88,10.88,0,0,1,.95.85,8.21,8.21,0,0,1-1.05.47,2.81,2.81,0,0,1-.77,0,13.58,13.58,0,0,0-6.83,2.12,4.21,4.21,0,0,0-2.12,4c.09,1.41.89,2.24,2.27,2a11.87,11.87,0,0,0,4-1.22c2.18-1.21,4.19-2.7,6.25-4.11a1.14,1.14,0,0,0,.5-.81c-.17-2.1.62-3.32,2.84-3.42.53,0,.68-.34.33-.78A5.12,5.12,0,0,0,261.74,80Zm-44.93-5.91a24.93,24.93,0,0,0,.53,3.36c.61,2.21,2.51,2.65,4.13,1a7,7,0,0,0,1.91-4.16,18.57,18.57,0,0,0-1-9.42c-.59-1.51-.54-1.53-2.18-1.38-.65.05-1.26.06-1.52.9A33.47,33.47,0,0,0,216.81,74.05Zm-9.94-2.67a3.24,3.24,0,0,0,1.91,3.32,2.93,2.93,0,0,0,3.53-.8,18.45,18.45,0,0,0,2.22-3.6c.83-1.7,1.46-3.49,2.2-5.23.24-.56.85-1.13.76-1.59s-.89-.84-1.25-1.34c-.49-.69-1-.58-1.67-.33a13,13,0,0,0-5.69,4.31A10,10,0,0,0,206.87,71.38Zm33.52-5.49c.94-.2,2-.09,2.46-1a2.65,2.65,0,0,0-.45-2.67l-.07-.11a13.83,13.83,0,0,0-11.42-5.56c-1.87,0-2,.26-2.28,2.12a1.56,1.56,0,0,0-.09.5c.05.26.1.62.28.75,2.66,1.92,5.26,3.93,8.37,5.09C238.23,65.35,239.32,65.59,240.39,65.89Zm-33.13,44.85a26.4,26.4,0,0,0-.87-2.64,14.78,14.78,0,0,0-4.31-5.24c-.36-.3-.76-.92-1.31-.41s-1.72,1-1.46,2.08a12.72,12.72,0,0,0,4.94,7.63,1.53,1.53,0,0,0,1.92.13A6.76,6.76,0,0,0,207.26,110.74Zm-12.8-.3a3.58,3.58,0,0,0,2.23,3.5,1.65,1.65,0,0,0,1,.06,3.59,3.59,0,0,0,2-5c-.57-1.1-1-2.29-1.47-3.42-.17-.4,0-1.12-.7-1a1.92,1.92,0,0,0-1.23.72A11.91,11.91,0,0,0,194.46,110.44Zm9.14-11.29v0c.69,0,1.38.08,2.06.17s1.35.27,2,.39a6.66,6.66,0,0,0,1.65.17c1.54-.14,3.1-1.73,2.95-2.93s-1.71-2.24-3.43-2a10.88,10.88,0,0,0-6.18,2.72,7.22,7.22,0,0,0-1,1.42l1.49.13A2.54,2.54,0,0,0,203.6,99.15Zm.32,1.47c-.47,0-.94,0-1.42,0a1.72,1.72,0,0,0-.43.18,2.3,2.3,0,0,0,.26.4c1.24,1.18,2.48,2.38,3.75,3.54a5.26,5.26,0,0,0,4.56,1.29c1.18-.19,1.66-1.1,1-2.06a7.69,7.69,0,0,0-2.23-2.06A10.37,10.37,0,0,0,203.92,100.62ZM267.67,80c-.26,0-.52,0-.78,0-1,.08-1,.15-.49.94a4.59,4.59,0,0,1,.73,1.21c.26,1,1.13,1.22,1.74,1.8,1,1,1.63,0,2.4-.28.29-.1.56-.24.84-.35,1.25-.49,1.31-.74.33-1.7A6.46,6.46,0,0,0,267.67,80ZM204.75,91.73c-2.24.19-5,3-5.07,5.23,0,.65.41.72.86.55a2.41,2.41,0,0,0,.81-.62,11.88,11.88,0,0,1,4.7-2.84l.61-.22c.62-.22.75-.64.2-1A17.51,17.51,0,0,0,204.75,91.73Zm23-39.68a14.46,14.46,0,0,0-2,.61,3.08,3.08,0,0,0-1.15,1c-.31.42-.35.81.41,1s1.7.57,2.57.82a3,3,0,0,0,1.12.06c.93-.13,1.86-.32,2.79-.46s.93-.27.48-1C231.05,52.66,229.67,52.17,227.73,52.05ZM195.38,98.3c2,.08,2.46-.28,3.05-2.18.16-.49.36-1,.54-1.45.34-.9.23-1-.76-1a4.79,4.79,0,0,0-3.79,2.59C193.35,97.93,193.51,98.23,195.38,98.3Zm14.79-36.95c0,.89.28,1,1.09.64,1.19-.58,2.39-1.19,3.63-1.65.88-.33.8-1.09.92-1.7,0-.24-.5-.74-.87-.9C213,56.9,210.18,59.08,210.17,61.35Zm-19.12,46.41a3,3,0,0,0,1.19,2.54c.47.31.72.26.89-.37.4-1.44.88-2.85,1.37-4.26.15-.44.52-.81.64-1.26a1.61,1.61,0,0,0-.23-1,1.09,1.09,0,0,0-.74.16,34.1,34.1,0,0,0-2.51,2.73A5.25,5.25,0,0,0,191.05,107.76Zm31-54.95a8.74,8.74,0,0,0-5.16,2.06,1.54,1.54,0,0,0-.38,1.77c.2.54.42.72,1.05.38a49.26,49.26,0,0,1,4.5-2.2c.69-.3,1-.74.83-1.36C222.73,53.1,222.15,52.9,222,52.81Zm-31.47,50.34a2.79,2.79,0,0,0,.57.94c.1.08.62-.26.91-.47a22.59,22.59,0,0,1,1.93-1.49,3.66,3.66,0,0,0,1.42-1.92c.19-.45.07-.71-.41-.6a11,11,0,0,0-2.57.73A3.4,3.4,0,0,0,190.55,103.15Z" />
        <path class="cls-4"
            d="M427.91,119.38a8.91,8.91,0,1,1-3.39,17.15,8.72,8.72,0,0,1-2.93-2,8.91,8.91,0,0,1,6.32-15.19Z" />
        <path class="cls-5"
            d="M421.59,134.57a8.72,8.72,0,0,0,2.93,2s-17.77,33-20,46.34-3.34,27.84-3.34,27.84H176s-1-16.7-25.62-74.1a8.89,8.89,0,0,0,4-3.06s37.36,31.5,45.15,33.72,11.14-29,11.14-33.41a73,73,0,0,0-.93-10v-.15a13.8,13.8,0,0,0,2,.15,13.21,13.21,0,0,0,7-2s7.47,19.82,15.26,26.5,12.25,12.25,15.6,11.14,27.84-40.1,30.07-46.78,2.8-8.62,2.8-8.62a15.49,15.49,0,0,0,5,.82,15.8,15.8,0,0,0,5.48-1l.06.16s11.17,26.44,16.74,35.35,11.14,16.71,15.59,18.93,22.28-17.82,25.62-22.27,7-14.53,7-14.53a13.28,13.28,0,0,0,7.46,2.28c.37,0,.74,0,1.11,0v0s-3.34,17.82,1.12,31.18,6.68,15.6,10,13.37S421.59,134.57,421.59,134.57Z" />
        <path class="cls-4"
            d="M406.75,249.74v1a4.51,4.51,0,0,1-4.5,4.5H171.78a4.51,4.51,0,0,1-4.5-4.5v-1a4.52,4.52,0,0,1,4.5-4.5H402.25A4.51,4.51,0,0,1,406.75,249.74Z" />
        <path class="cls-4"
            d="M406.75,215.71v1.14a5,5,0,0,1-5,5H172.28a5,5,0,0,1-5-5v-1.14a5,5,0,0,1,5-5H401.75A5,5,0,0,1,406.75,215.71Z" />
        <rect class="cls-5" x="176.04" y="221.85" width="225.14" height="23.39" />
        <path class="cls-4"
            d="M365.54,97.1a13.37,13.37,0,0,1,1.11,26.69c-.37,0-.74,0-1.11,0a13.37,13.37,0,0,1,0-26.74Z" />
        <path class="cls-4"
            d="M287.57,73.71a15.6,15.6,0,0,1,5.48,30.21,15.8,15.8,0,0,1-5.48,1,15.6,15.6,0,0,1,0-31.19Z" />
        <path class="cls-4"
            d="M211.84,97.1a13.36,13.36,0,0,1,7,24.74,13.21,13.21,0,0,1-7,2,13.8,13.8,0,0,1-2-.15,13.37,13.37,0,0,1,2-26.59Z" />
        <path class="cls-4" d="M156.15,128.29a8.92,8.92,0,1,1-8.92-8.91A8.86,8.86,0,0,1,156.15,128.29Z" />
        <path class="cls-1" d="M388.06,245a1.5,1.5,0,0,0,0-3,1.5,1.5,0,0,0,0,3Z" />
        <path class="cls-5"
            d="M315.7,46a7.89,7.89,0,0,0-6.07-.91c-1.6.48-1.67.79-.6,2,.25.27.46.58.71.84.7.71.83,2.11,2.45,1.65,1-.28,2.07-.08,2.89-1a5.67,5.67,0,0,1,1.47-.9c1-.57,1-.66,0-1.29C316.27,46.29,316,46.16,315.7,46Zm61.5,48a23.38,23.38,0,0,0-2.9,0c-.8.09-.89.62-.34,1.21.17.19.35.39.53.57a14.35,14.35,0,0,1,3.49,5.71,3.25,3.25,0,0,0,.52,1.13c.4.43.9.59,1.25-.11C381,100,379.52,95.44,377.2,94ZM383,119a6,6,0,0,0,.15-1.92,39.47,39.47,0,0,0-1.19-4.35c-.08-.26-.64-.64-.71-.59a2,2,0,0,0-.8.95c-.12.54.08,1.15,0,1.71-.27,1.8-.54,3.6-.92,5.38-.16.78.08,1,.75.89A3.65,3.65,0,0,0,383,119Zm2.2-67.52c-.49,0-1.36.21-1.44.5-.22.72-.73,1.5,0,2.34,1.09,1.2,2,2.53,3,3.83.65.88,1,.88,1.53-.08C389.63,55.61,387.78,51.66,385.23,51.49Zm-1.59,54.86c2.07,1,2.41.73,2.18-1.66-.2-2-.77-3.82-2.65-4.93-1-.61-1.23-.52-1.37.65-.08.62-.12,1.25-.23,1.87C381.15,104.66,381.48,105.33,383.64,106.35Zm2.09,3.87a13.25,13.25,0,0,0-2.37-2.23c-.46-.38-.74-.17-.78.42a4.44,4.44,0,0,0,.46,2.87c.52.84.82,1.81,1.26,2.7.19.39.56,1,.71,1a3.86,3.86,0,0,0,1.15-.69A4.16,4.16,0,0,0,385.73,110.22ZM387.09,64a15.78,15.78,0,0,0-3.74-7.85c-.57-.65-1.07-1.06-2-.58-.67.34-1.71.26-2.1.75s0,1.41-.08,2.14c-.17,2.3-.49,4.59-.55,6.89a22.67,22.67,0,0,0,.38,5.14,3.57,3.57,0,0,0,3.37,2.85c1.55.18,3-.71,3.93-2.52A12.14,12.14,0,0,0,387.09,64Zm-2.91-14.52a1.9,1.9,0,0,0,.59-2.13,10.71,10.71,0,0,0-4.43-5.12c-.2,0-.94-.08-1.28.24-.58.55-.45,1.22.14,1.93,1.29,1.57,2.5,3.22,3.64,4.91C383.32,50,383.67,49.91,384.18,49.44ZM329.62,67.67a5.14,5.14,0,0,0,0-5.53A16.58,16.58,0,0,0,323.37,56a3.85,3.85,0,0,1-.81-.48,11.68,11.68,0,0,1-.87-1.1c.5-.13,1-.3,1.5-.38.18,0,.38.16.58.23,1,.39,1.16.28,1.11-.82a4.72,4.72,0,0,0-2.74-4.17,6.24,6.24,0,0,0-5.41.29c-.63.28-.65.71-.08,1,2.34,1.35,2.52,3.12,1.15,5.29a1.4,1.4,0,0,0,.08,1.16c1.44,2.68,2.79,5.42,4.46,7.95A14.62,14.62,0,0,0,326,68.6C327.4,69.59,328.73,69.14,329.62,67.67ZM312.14,153.9A42.83,42.83,0,0,0,302,162.36a2.29,2.29,0,0,1-.92.7,1.93,1.93,0,0,1-2.33-1,7.68,7.68,0,0,1-.72-1.57c-1.48-4.66-3-9.3-4.37-14a33.2,33.2,0,0,1-.91-6.23c-.41-4.82-.75-9.65-1.07-14.48A42.8,42.8,0,0,0,288.18,111c-.19-.43-.4-.85-.59-1.28l-.23.07a2.32,2.32,0,0,0-.06.44c.64,9.39,1.3,18.78,1.92,28.18a51.69,51.69,0,0,0,5.24,20.49c1.1,2.14,2.57,4.09,3.86,6.13.42.67.88.68,1.58.33l1.87-.93q7-3.51,14.11-7c6.78-3.35,12.25-8.4,17.6-13.62C326.49,147.45,318.8,149.57,312.14,153.9ZM305.34,106c-.61,7.41-2.44,14.6-4,21.85a104.18,104.18,0,0,0-1.5,29.33c0,.31.09.61.13.91l.34,0c.54-2.45,1.1-4.9,1.6-7.37,1.67-8.23,3.45-16.45,4.94-24.72,1.2-6.66.36-13.3-1-19.88a2.42,2.42,0,0,0-.29-.59C305.47,105.69,305.35,105.82,305.34,106Zm3.56-56.23a5.69,5.69,0,0,0-7-3,2.65,2.65,0,0,0-1.06.64,11.33,11.33,0,0,0-1,1.55l1.51.16a20.39,20.39,0,0,1,2.34.24c.27.05.47.47.7.73-.25.21-.48.54-.77.63a7.15,7.15,0,0,1-1.4.12c-3.71.31-7.34.95-10.48,3.07A11.18,11.18,0,0,0,289,56.58c-.94,1.3-.47,2.42,1.05,2.94a9.57,9.57,0,0,0,5.14.32,33.55,33.55,0,0,0,10.4-4,3.75,3.75,0,0,1,1.57-.76.79.79,0,0,1,.65.36c.73,1-.56,1.37-1.15,1.83a27.45,27.45,0,0,0-9.16,11.43c-.61,1.53-.88,3,.44,4.39a2,2,0,0,0,2.54.59,10.16,10.16,0,0,0,3-2.21c2.41-3,4.65-6.21,6.95-9.33l-.28-.21a15.31,15.31,0,0,1,1.11-2.08A4.73,4.73,0,0,1,312.6,59a4,4,0,0,1,.21,1.42,27.71,27.71,0,0,0-.23,10.81,10.63,10.63,0,0,0,1.06,3.27c1,1.81,2.44,1.84,3.75.24a7.08,7.08,0,0,0,1.48-4.88,37.7,37.7,0,0,0-2.8-12.56c-.14-.35-.74-.62-1.18-.74a33.45,33.45,0,0,1-3.8-.93,3.75,3.75,0,0,1-2-1.62,4.25,4.25,0,0,1-.1-2.91A2.58,2.58,0,0,0,308.9,49.73Zm-5,103.06a32.85,32.85,0,0,0-1.93,5.87,3.63,3.63,0,0,0,.7-.4c5.63-5.95,11.3-11.87,16.86-17.9,4.32-4.68,7.22-10.26,9.9-16.31-.36.3-.52.4-.65.53-4.41,4.42-8.67,9-13.28,13.23A51.92,51.92,0,0,0,303.87,152.79ZM369,46c.27,0,.52-.4.72-.66a2,2,0,0,0,.19-.59c.76-2.16.73-2.51-1.28-3.57a16.84,16.84,0,0,0-15.47-.38.61.61,0,0,0-.14.07c-1,.63-2,1.35-2,2.65s1.17,1.76,2.08,2.51c1.33.27,2.64.62,4,.78C361.13,47.32,365.07,46.6,369,46Zm4,69.56a4.38,4.38,0,0,0-.66,6.47,2.11,2.11,0,0,0,1.11.48,4.34,4.34,0,0,0,4.36-2.53,14.48,14.48,0,0,0,1-6.55,2.28,2.28,0,0,0-.93-1.47c-.69-.48-.93.38-1.33.71C375.35,113.65,374.25,114.7,373,115.58Zm-4.56-8.26c2-.55,4-1.14,6-1.72a2.1,2.1,0,0,0,.5-.29c-.12-.15-.21-.35-.37-.44-.49-.29-1-.54-1.53-.8a12.62,12.62,0,0,0-6.63-1.67,9.41,9.41,0,0,0-3.57,1c-1.28.66-1.27,1.91-.1,2.78A6.39,6.39,0,0,0,368.46,107.32Zm-11.3-47c6-.52,10.93-3.48,15.48-7.19.46-.38.44-.68.07-1.17-.85-1.13-1.57-2.35-2.41-3.49a1.36,1.36,0,0,0-1-.55c-5.87.48-11.22,2.21-15.37,6.67a13.73,13.73,0,0,0-1,1.26c-1.2,2.31-.43,4,1.82,4.36A9.23,9.23,0,0,0,357.16,60.29Zm19,41.19a13.25,13.25,0,0,0-5.16-6.4c-1.75-1.18-3.95-1-4.86.29s0,3.8,1.55,4.82a7.9,7.9,0,0,0,1.88.73c.8.26,1.62.44,2.41.72s1.56.64,2.33,1c0,0,0,0,0,0a4.23,4.23,0,0,0,.42.22l1.69.68A8.76,8.76,0,0,0,376.15,101.48Zm-9.86,14.89a15.5,15.5,0,0,0,9.62-5.49c.9-1.06-.08-2.09-.43-3.07s-1.08-.4-1.64-.29a17.88,17.88,0,0,0-7.59,3.26,29.22,29.22,0,0,0-2.43,2.37,8.71,8.71,0,0,0,.31,2.28A1.88,1.88,0,0,0,366.29,116.37Zm5.35-75a3.46,3.46,0,0,0,1.25.57c1.07.21,2.19.24,3.23.54s1.09-.18,1-.81a3.59,3.59,0,0,0-.69-1.71,18.09,18.09,0,0,0-1.83-1.78c-2.16-1-3.93-1.2-5.69-.18-.86.5-.84.72,0,1.31S370.7,40.7,371.64,41.36Zm0,30.07a30.86,30.86,0,0,0,2.45-3.33,41.06,41.06,0,0,0,3.36-11.56c.19-1-.46-1.4-1.13-1.82-1.7-1.07-1.66-1-3.14.28a22.62,22.62,0,0,0-6.32,9.65,8.58,8.58,0,0,0-.27,5.57C367.4,72.89,369.7,73.48,371.61,71.43Zm-.33,21.79a1.8,1.8,0,0,0,1.27-.14,5.3,5.3,0,0,1,7.67,1.78A8.08,8.08,0,0,0,384,98.41c2.53,1.16,3.54,3.69,3.54,6.43,0,1.24-.65,2.49-.54,3.7s.9,2.45,1.15,3.71a3.62,3.62,0,0,1-2,4.22,2.08,2.08,0,0,0-1.28,1.91,4.75,4.75,0,0,1-5,4.42,5.19,5.19,0,0,0-2.94.72c-3.64,2-6.78.3-7.31-3.81,0-.26,0-.52-.06-.79,0-1.45,0-1.47-1.53-1.1-2.09.52-4,.41-5.43-1.45a1.26,1.26,0,0,0-1.18-.18c-1.64.7-3.27,1.45-4.86,2.26a186.53,186.53,0,0,0-26.34,16.76A163.85,163.85,0,0,0,311.92,151c-.43.43-.83.91-1.24,1.36l.25.27c5.28-3.57,11.24-5.72,17-8.24.72-.31,1.43-.67,2.13-1a32.16,32.16,0,0,0,10.18-7.34,2.41,2.41,0,0,1,.69-.63c.3-.12.78-.23,1-.08a1,1,0,0,1,.27.94,9.34,9.34,0,0,1-1.39,2.27c-2.75,3-5.46,6-8.38,8.78a64.58,64.58,0,0,1-16.37,12c-5.3,2.56-10.57,5.21-15.85,7.81-1.35.67-1.8.7-2.74-.5a42.33,42.33,0,0,1-3.94-5.68,47.34,47.34,0,0,1-5.7-18.76c-.62-7.23-1-14.48-1.52-21.72-.37-5.72-.53-11.46-2-17-.14-.51-.27-1.19.46-1.25a1.65,1.65,0,0,1,1.19.71,21.81,21.81,0,0,1,1.12,2.08,45.52,45.52,0,0,1,6.36,20.45c.33,5.31.81,10.6,1.2,15.9A45.65,45.65,0,0,0,297,152.07a7,7,0,0,0,.4.83c-5-28.36-1.43-55.66,9.46-82.17a8.25,8.25,0,0,0-1.3,1.15,36.7,36.7,0,0,1-3.16,2.83c-1.56,1.12-3.29,1.48-5,.21s-2.63-3-2-5.09a28.88,28.88,0,0,1,2.3-5.33,47.86,47.86,0,0,1,3-4.28l-.17-.31a7.79,7.79,0,0,1-1.42.63c-1.83.44-3.67.93-5.53,1.19a8,8,0,0,1-4.89-.93,3.15,3.15,0,0,1-1.54-4.4,11,11,0,0,1,2-2.8A13.43,13.43,0,0,1,296.05,50a2.76,2.76,0,0,0,2.25-1.86,5.2,5.2,0,0,1,5.62-3.44,8.15,8.15,0,0,0,4.68-.81c3.59-1.53,6.93-.4,9.84,1.95a6.09,6.09,0,0,0,2.84,1.46,6.31,6.31,0,0,1,5.16,7.18,2.4,2.4,0,0,0,.9,2.39,34.81,34.81,0,0,1,4,5,6.29,6.29,0,0,1-.34,6.89,4,4,0,0,1-5.58,1.52,13.72,13.72,0,0,1-2.65-1.95c-.87-.8-1.61-1.75-2.54-2.79.14,1.21.27,2.24.37,3.26a10.25,10.25,0,0,1-1.86,7c-1.7,2.43-4.19,2.61-6,.33a7.84,7.84,0,0,1-1.51-3.06c-.46-1.87-.63-3.81-.94-5.84-10.05,23.26-15.11,47.3-12.51,72.64a3.54,3.54,0,0,0,.3-1.18c.77-4.88,1.42-9.79,2.36-14.63,1.43-7.38,3.56-14.64,3.19-22.27,0-.42.4-.87.61-1.31.43.25,1.05.4,1.26.77a16.1,16.1,0,0,1,1.82,3.82,51.8,51.8,0,0,1,1.21,22c-.75,4.25-1.68,8.46-2.54,12.68-.55,2.66-1.12,5.31-1.68,8,1.13-1.12,1.9-2.44,2.88-3.57a21.47,21.47,0,0,0,3.57-6.62,31.44,31.44,0,0,1,1.74-3.88c4.91-8.83,9.73-17.71,14.84-26.42a215.61,215.61,0,0,1,16.42-23.74c6.44-8.21,13.83-15.55,21.36-22.76l1-1c-4.15,1.51-7.64,2.39-10,2.3-2.09-.08-4-.58-5-2.65s-.18-3.9,1.17-5.37a62.24,62.24,0,0,1,4.92-4.38l1-.84c-.4-.08-.79-.21-1.19-.25a11.93,11.93,0,0,1-6-2.13,3.38,3.38,0,0,1-1.09-4.7,6.26,6.26,0,0,1,3.54-3,19.17,19.17,0,0,1,11.47-.94,1.92,1.92,0,0,0,2.09-.53,6.07,6.07,0,0,1,5.07-1.7,8,8,0,0,1,6,3.59,2.53,2.53,0,0,0,1.38,1c3.17.57,6.65,4,7.12,7.22a2.36,2.36,0,0,1-.05,1.24c-.39.86.06,1.16.72,1.57a6.15,6.15,0,0,1,3.09,6.42,5.6,5.6,0,0,1-1.39,3.22,1.61,1.61,0,0,0-.47,2A13.4,13.4,0,0,1,387.57,72a5.16,5.16,0,0,1-5.14,3,5.38,5.38,0,0,1-4.88-3.45,31.21,31.21,0,0,1-.9-3.18c-.07-.23-.18-.46-.27-.69a5,5,0,0,0-.51.52,36.33,36.33,0,0,1-3.29,4.59c-2.57,2.63-6.16,1.89-7.48-1.57a12.07,12.07,0,0,1-.47-4.47,23.33,23.33,0,0,1,.74-3.83C342.2,84.13,326.14,110,312.66,137.78a4.34,4.34,0,0,0,1.29-.86c2.5-2.33,5.05-4.61,7.48-7,4.76-4.71,9.33-9.58,12-15.9.19-.44.88-1.07,1.16-1,.86.24.42,1,.32,1.59a1.82,1.82,0,0,1-.11.3,94.26,94.26,0,0,1-10.12,21.67,8.83,8.83,0,0,0-.46.87c.31-.17.4-.2.48-.26,11.4-8.7,23.06-17,36.33-22.67a1.67,1.67,0,0,0,.92-.78,9.11,9.11,0,0,1,2.85-4.08c.52-.44.26-.6-.25-.81a17.2,17.2,0,0,1-2.69-1.32,2.82,2.82,0,0,1-1.08-4.2,6.61,6.61,0,0,1,2.14-2,10.81,10.81,0,0,1,2.36-.83c-.3-.82-.63-1.63-.88-2.46-.91-3.15,1-5.65,4.32-5.47A20.23,20.23,0,0,1,371.28,93.22Z" />
        <path class="cls-5"
            d="M183,44.4a8.87,8.87,0,0,0-5.16,2.06,1.56,1.56,0,0,0-.38,1.78c.2.53.43.72,1,.38a49.34,49.34,0,0,1,4.5-2.21c.69-.29,1-.73.83-1.35C183.71,44.7,183.13,44.5,183,44.4ZM156.36,91.8c.19-.44.07-.7-.41-.6a11,11,0,0,0-2.57.74,3.4,3.4,0,0,0-1.85,2.81,3,3,0,0,0,.57.94c.1.08.62-.27.91-.48.65-.48,1.24-1.07,1.93-1.49A3.62,3.62,0,0,0,156.36,91.8Zm-.88,5.46c.15-.44.52-.81.64-1.25a1.58,1.58,0,0,0-.23-1,1,1,0,0,0-.74.16,35.77,35.77,0,0,0-2.51,2.72,5.43,5.43,0,0,0-.61,1.46,3,3,0,0,0,1.2,2.53c.46.31.71.27.88-.36C154.51,100.09,155,98.67,155.48,97.26Zm4.47-11c.34-.9.23-1-.76-1a4.84,4.84,0,0,0-3.79,2.59c-1.07,1.65-.91,2,1,2s2.45-.28,3-2.18C159.57,87.23,159.77,86.75,160,86.27Zm73.47-13a6.46,6.46,0,0,0-4.77-1.62c-.26,0-.52,0-.78,0-1,.08-1,.15-.49.93a4.81,4.81,0,0,1,.73,1.22c.26,1,1.13,1.22,1.74,1.79,1,.95,1.63,0,2.4-.28.29-.09.56-.23.84-.34C234.34,74.43,234.4,74.18,233.42,73.22Zm-60.13-7.73a19.23,19.23,0,0,0,2.23-3.59c.82-1.7,1.45-3.5,2.19-5.24.24-.55.85-1.13.76-1.58s-.89-.84-1.25-1.34c-.49-.7-1-.59-1.67-.33a12.93,12.93,0,0,0-5.69,4.31,10,10,0,0,0-2,5.26,3.25,3.25,0,0,0,1.91,3.32A2.93,2.93,0,0,0,173.29,65.49Zm2.63-16.15c-1.92-.84-4.76,1.33-4.76,3.61,0,.89.28,1,1.08.64,1.19-.59,2.39-1.19,3.63-1.66.88-.32.8-1.09.92-1.69C176.83,50,176.29,49.5,175.92,49.34ZM158.66,105.6a3.61,3.61,0,0,0,2-5c-.57-1.1-1-2.28-1.47-3.42-.17-.39,0-1.12-.7-1a1.88,1.88,0,0,0-1.23.72,11.86,11.86,0,0,0-1.78,5.13,3.59,3.59,0,0,0,2.23,3.5A1.76,1.76,0,0,0,158.66,105.6Zm3.67-17.11a11.79,11.79,0,0,1,4.7-2.85l.61-.21c.62-.23.75-.65.2-1a19.15,19.15,0,0,0-2.11-1.1c-2.24.19-5,3-5.07,5.24,0,.64.42.72.87.55A2.78,2.78,0,0,0,162.33,88.49Zm-2,7.63a12.66,12.66,0,0,0,4.94,7.63,1.5,1.5,0,0,0,1.92.13,6.71,6.71,0,0,0,1.09-1.54,25.57,25.57,0,0,0-.87-2.64,14.69,14.69,0,0,0-4.31-5.24c-.36-.3-.76-.92-1.3-.41S160,95,160.29,96.12Zm4.62-3.9c-.48,0-.95,0-1.42,0a1.17,1.17,0,0,0-.44.18,2.75,2.75,0,0,0,.26.4c1.24,1.18,2.48,2.37,3.75,3.53a5.23,5.23,0,0,0,4.56,1.29c1.18-.19,1.66-1.1,1-2.06a7.69,7.69,0,0,0-2.23-2.06A10.35,10.35,0,0,0,164.91,92.22Zm4.93-5.75a10.81,10.81,0,0,0-6.17,2.71,7.12,7.12,0,0,0-1,1.42l1.49.14c.13,0,.26,0,.39,0v0c.69.06,1.38.08,2.06.18s1.35.27,2,.38a6.68,6.68,0,0,0,1.65.18c1.54-.14,3.1-1.74,3-2.93S171.56,86.27,169.84,86.47ZM197,153.86a42.61,42.61,0,0,0-2.8-15.3c-1.76-4.81-3.13-9.76-4.68-14.65,0-.14-.12-.28-.27-.63-.33,5.42-.32,10.58,1.05,15.62,1.78,6.49,3.68,12.95,5.53,19.41a2.93,2.93,0,0,0,.36.55A26.13,26.13,0,0,0,197,153.86Zm27.17-74.17a31,31,0,0,0-6.79,8.09,5.87,5.87,0,0,0-.77,4.12c.36,1.66,1.42,2.18,2.83,1.23a8.39,8.39,0,0,0,2-2,22.77,22.77,0,0,0,3.91-8c.09-.36.45-.64.69-1a3.81,3.81,0,0,1,.63,1.12,12.42,12.42,0,0,1,0,1.93l-.28,0c.5,3.14.93,6.3,1.54,9.42a8.32,8.32,0,0,0,1.36,2.75,1.62,1.62,0,0,0,2.07.53c1.48-.51,1.85-1.69,2-3A22.45,22.45,0,0,0,231,83.22c-.25-.56-1.05-1.32-.14-1.77s1.11.57,1.46,1.13a27.72,27.72,0,0,0,6.08,6.83,7.8,7.8,0,0,0,3.86,1.7c1.3.2,2.08-.44,1.88-1.74a9.21,9.21,0,0,0-1-3,17.43,17.43,0,0,0-6.48-6.19,5.76,5.76,0,0,1-1-.63,2.08,2.08,0,0,1-.32-.74c.26-.1.56-.33.78-.27a17.24,17.24,0,0,1,1.8.71l1.15.45a8.36,8.36,0,0,0-.13-1.5,2.27,2.27,0,0,0-.53-.87,4.66,4.66,0,0,0-6.22-.42,2.11,2.11,0,0,0-.56,1c-.49,1.91-1.34,2.66-3.27,2.5a27.24,27.24,0,0,1-3.12-.76A1.53,1.53,0,0,0,224.12,79.69ZM219.28,76a13.57,13.57,0,0,0-6.83,2.11,4.22,4.22,0,0,0-2.12,4c.09,1.41.89,2.24,2.27,2a11.85,11.85,0,0,0,4-1.21c2.18-1.21,4.19-2.71,6.25-4.11a1.16,1.16,0,0,0,.5-.82c-.17-2.09.62-3.31,2.84-3.41.53,0,.68-.34.33-.78a5.09,5.09,0,0,0-3.83-2.26,3.88,3.88,0,0,0-3.58,2c-.45.79-.36.93.51,1,.17,0,.39,0,.5,0a12.67,12.67,0,0,1,.95.84,7.68,7.68,0,0,1-1,.48A3.26,3.26,0,0,1,219.28,76Zm-21.07,82.55a85.64,85.64,0,0,0,10-21.94c1.62-5.85,3-11.79,5.36-17.42.05-.1,0-.24,0-.45a2.18,2.18,0,0,0-.44.32c-3.48,4.27-6.59,8.79-8.24,14.1-2,6.59-3.84,13.25-5.74,19.88-.56,2-1.08,4-1.61,6l.24.15C197.92,158.94,198.08,158.75,198.21,158.54Zm3.16-101c.95-.2,2-.09,2.46-1.05a2.64,2.64,0,0,0-.45-2.67l-.07-.11a13.86,13.86,0,0,0-11.42-5.57c-1.87,0-2,.26-2.28,2.12a1.57,1.57,0,0,0-.09.51c0,.26.1.61.28.75,2.66,1.91,5.26,3.93,8.37,5.09C199.21,56.94,200.3,57.18,201.37,57.49Zm-17,8.38a18.55,18.55,0,0,0-1-9.42c-.59-1.51-.54-1.53-2.18-1.39-.65.06-1.26.07-1.51.9a33.61,33.61,0,0,0-1.92,9.69,25.06,25.06,0,0,0,.53,3.35c.61,2.22,2.51,2.65,4.13,1A7.06,7.06,0,0,0,184.36,65.87Zm4.36-22.22a13.91,13.91,0,0,0-2,.6,3,3,0,0,0-1.14,1c-.32.42-.36.81.41,1s1.69.58,2.56.82a2.64,2.64,0,0,0,1.12.06c.93-.12,1.86-.32,2.79-.45s.93-.27.48-1C192,44.25,190.65,43.76,188.72,43.65Zm1.79,107.9c-3.22-5.67-8-10.12-11.74-15.42,1.92,5.83,4,11.57,7.68,16.57,2.53,3.45,5.08,6.89,7.59,10.35.36.48.71,1,1.06,1.45s.72.68,1.28.36c1.71-1,3.52-1.87,5.12-3a42.43,42.43,0,0,0,11.56-12.95q6-9.92,12-19.81a1.7,1.7,0,0,0,.12-.34l-.14-.13-.91.7a35.24,35.24,0,0,0-8.16,9.46q-3.07,5.1-6.25,10.15a27.9,27.9,0,0,1-3,4.2c-2.75,2.92-5.63,5.71-8.48,8.55a6.32,6.32,0,0,1-1.11.88,1.57,1.57,0,0,1-2.12-.24,1.81,1.81,0,0,1-.36-.79A35.15,35.15,0,0,0,190.51,151.55Zm-6-96.29c1.91,4.42,4.37,8.43,8.57,11.08a7.52,7.52,0,0,0,1.75.81c1.78.56,3-.36,3-2.49a11.16,11.16,0,0,0-.23-1.28c-1.34-4.82-4.58-8.1-8.68-10.67a1.1,1.1,0,0,0-.92,0c-1,.51-2,1.12-3.07,1.63C184.42,54.59,184.3,54.8,184.49,55.26ZM187.94,135a6.7,6.7,0,0,0,0-.81,77.13,77.13,0,0,1,.81-19.61,1.09,1.09,0,0,1,0-.26c.14-.46.11-1.19.83-1,.23,0,.5.76.47,1.15-.46,5.6,1,10.88,2.71,16.11.87,2.67,1.86,5.29,2.81,7.93a3.57,3.57,0,0,0,.61,1.11c.66-25.3-1.26-50.24-10.15-74.41a18.64,18.64,0,0,1-.91,3.07,9.89,9.89,0,0,1-2,3.08,3.53,3.53,0,0,1-6-1.68,30.21,30.21,0,0,1-.66-4.59,4.17,4.17,0,0,0-.18-.57,5.72,5.72,0,0,0-.46.4,26.73,26.73,0,0,1-1.85,2,4.41,4.41,0,0,1-4.86.66,4.22,4.22,0,0,1-2.61-4.13,11,11,0,0,1,3.21-7.69,1.33,1.33,0,0,0,.41-1.63,4.63,4.63,0,0,1,.2-2.86A5.07,5.07,0,0,1,175,47.71c.63-.05,1.07-.09,1.12-.87a1.9,1.9,0,0,1,.43-.92,8,8,0,0,1,7.91-2.57,2.06,2.06,0,0,0,1.4-.23,6.57,6.57,0,0,1,5.75-.34,5,5,0,0,1,3.05,3.15A1.59,1.59,0,0,0,196,47.11a15.69,15.69,0,0,1,8,5,5.07,5.07,0,0,1,1.46,3.5,2.77,2.77,0,0,1-2.56,3,9.82,9.82,0,0,1-5.19-.72c-.31-.12-.64-.18-1-.27.13.33.28.66.41,1a49.91,49.91,0,0,1,1.93,5,3.83,3.83,0,0,1-1.18,4.36c-1.51,1.12-3.11.76-4.66,0-1.78-.84-4-2.8-6.44-5.47.11.36.23.72.35,1.07a181,181,0,0,1,7,24.65,177,177,0,0,1,3,23.5c.44,8.27.59,16.56.83,24.85a23.81,23.81,0,0,1-.19,3.48,17.29,17.29,0,0,0,.1,6.17c.29,1.2.35,2.45.75,3.7.59-2.15,1.17-4.29,1.78-6.44,1-3.4,1.88-6.82,2.93-10.2a42.82,42.82,0,0,1,9.21-15.61,13.7,13.7,0,0,1,2.77-2.09c.3-.19.8-.07,1.21-.08,0,.39.13.88-.05,1.18-3.15,5.42-4.34,11.52-6.08,17.43-1.15,3.88-2.53,7.7-3.81,11.55a2.86,2.86,0,0,0-.22,1c11.46-17.48,16.85-36.9,18.31-57.64-1,1.36-1.85,2.7-2.89,3.9a6.59,6.59,0,0,1-2.25,1.66c-2.22,1-4-.12-4.28-2.52a8.41,8.41,0,0,1,1.29-5.82c.46-.71,1-1.41,1.5-2.24a30.27,30.27,0,0,1-2.9,1.07,10.94,10.94,0,0,1-2.67.42,3.3,3.3,0,0,1-3.49-3.21,5.17,5.17,0,0,1,2.35-5.15,28.46,28.46,0,0,1,4.82-2.13c.75-.29,1.28-.46,1.56-1.4a5.17,5.17,0,0,1,6.46-3.29,5,5,0,0,0,2.63,0c3-.62,5.86-.18,7.9,2.29a6.63,6.63,0,0,0,3.11,2.36,4.28,4.28,0,0,1,2.8,4.63,2.25,2.25,0,0,0,.93,2.2,11,11,0,0,1,3.62,5.26,8.81,8.81,0,0,1,.4,2.79,2.58,2.58,0,0,1-2.78,2.62,6.42,6.42,0,0,1-3.91-1.17,46.1,46.1,0,0,1-3.59-2.95,6.42,6.42,0,0,1-.8-1l-.24.16a38.72,38.72,0,0,1,.58,4.25,24.33,24.33,0,0,1-.33,4.75,3.66,3.66,0,0,1-3.36,3,3.19,3.19,0,0,1-3.55-2,28.21,28.21,0,0,1-1.23-3.25,7.43,7.43,0,0,0-.52-1.33c-2.08,23.43-9.8,44.66-24.14,63.44a4.06,4.06,0,0,0,.61-.46,37.13,37.13,0,0,0,5.78-7c2.29-3.71,4.63-7.38,6.88-11.12a37.31,37.31,0,0,1,12.35-12.51c.55-.34,1-.8,1.61-1.09a1.37,1.37,0,0,1,1.13-.07c.51.32.16.77-.13,1.09-3.2,3.51-5.48,7.63-7.91,11.66-3.08,5.1-6.14,10.22-9.31,15.26a38.87,38.87,0,0,1-11.24,11.5,34.38,34.38,0,0,1-5,2.66c-1.14.52-1.45.33-2.18-.67-2.87-3.89-5.71-7.81-8.6-11.68a52.85,52.85,0,0,1-7.41-14.9c-1.07-3.14-1.91-6.36-2.79-9.56a7.54,7.54,0,0,1-.16-2.18.84.84,0,0,1,.56-.58c.21,0,.51.22.68.43a1.74,1.74,0,0,1,.27.72,26.52,26.52,0,0,0,4.65,9.19c.38.52.76,1,1.16,1.55,3.27,4,6.79,7.83,9.29,12.43l.29-.1c-.13-.49-.24-1-.39-1.47a136.18,136.18,0,0,0-7.29-18.4A152.83,152.83,0,0,0,171.59,109q-1.28-1.78-2.69-3.49a1.06,1.06,0,0,0-.93-.31c-1.77.8-3.17.17-4.49-1-1-.84-1-.82-1.54.22a5.07,5.07,0,0,1-.34.55c-1.94,2.8-4.86,2.83-6.76,0a4.23,4.23,0,0,0-1.87-1.63,3.92,3.92,0,0,1-2-5.13,1.7,1.7,0,0,0-.2-1.87,3,3,0,0,1,.11-3.84c.67-.83,1.69-1.39,2.25-2.27s.53-2,1-2.9c1-2,2.73-3.46,5-3.35a6.7,6.7,0,0,0,4.08-1.16,4.34,4.34,0,0,1,6.26,1.59,1.41,1.41,0,0,0,.87.58,20.52,20.52,0,0,1,2.12.53,3.31,3.31,0,0,1,1.08,5.62c-.49.52-1.05,1-1.57,1.46a8.57,8.57,0,0,1,1.4,1.5,5.34,5.34,0,0,1,.82,2.24A2.31,2.31,0,0,1,171.81,99a14.33,14.33,0,0,1-2.45,0c-.46,0-.71,0-.5.49a7.4,7.4,0,0,1,.54,4,1.36,1.36,0,0,0,.38.92c7.51,9.16,12.89,19.58,17.9,30.22C187.72,134.71,187.78,134.77,187.94,135Z" />
    </g>
    <g id="contours">
        <path class="cls-6"
            d="M388.08,242.55a138.94,138.94,0,0,1,28.34,84.65c0,74.66-57.62,135.19-128.69,135.19S159,401.86,159,327.2A143.12,143.12,0,0,1,161.1,303" />
        <ellipse class="cls-7" cx="337.8" cy="291.64" rx="11.52" ry="14.52" />
        <path class="cls-7"
            d="M314.1,266.45a94.28,94.28,0,0,1,52.51-1.61,92,92,0,0,1,14.43,5c1.75.78,3.28-1.8,1.52-2.59a97.64,97.64,0,0,0-54-7.32,94,94,0,0,0-15.26,3.6c-1.83.6-1,3.5.8,2.9Z" />
        <ellipse class="cls-7" cx="246.67" cy="289.64" rx="11.52" ry="14.52" />
        <path class="cls-7"
            d="M271.17,261.55a97.29,97.29,0,0,0-54.53-1.5,96.21,96.21,0,0,0-14.73,5.22c-1.76.78-.23,3.37,1.52,2.59a93.39,93.39,0,0,1,66.94-3.41c1.84.6,2.63-2.3.8-2.9Z" />
        <circle class="cls-8" cx="256.18" cy="284.13" r="5.01" />
        <circle class="cls-8" cx="347.31" cy="286.14" r="5.01" />
        <path class="cls-7"
            d="M293.83,315.76a178.68,178.68,0,0,0-12.94,28.41q-2.56,7.27-4.49,14.76c-.64,2.49-1.22,5-1.75,7.51-.43,2.06-1.12,4.62.58,6.31s4.38,1.16,6.52.75l9.44-1.83c1.89-.37,1.09-3.27-.8-2.9l-7.31,1.42c-1.13.22-2.26.48-3.4.65-.63.1-1.82.32-2.32-.22s-.13-1.82,0-2.49c.24-1.18.49-2.37.76-3.55.52-2.29,1.08-4.56,1.69-6.83a173.23,173.23,0,0,1,9.4-26.32q3.28-7.23,7.2-14.15a1.5,1.5,0,0,0-2.59-1.52Z" />
        <path class="cls-7"
            d="M264.05,407.86a60.61,60.61,0,0,0,26.39,7.85,58.94,58.94,0,0,0,26.29-4.85,69.33,69.33,0,0,0,14.3-8.34c1.49-1.12,0-3.66-1.48-2.53a63.78,63.78,0,0,1-24.48,11.59,54.37,54.37,0,0,1-25.52-.52,59.66,59.66,0,0,1-14-5.73c-1.65-.92-3.13,1.61-1.48,2.53Z" />
        <path class="cls-7"
            d="M326.06,399.23q.35,0,.69,0a2.21,2.21,0,0,1,.68,0c-.33-.12,0,0,.07,0l.33.07a6.36,6.36,0,0,1,.66.2.93.93,0,0,1,.33.12l-.09,0,.16.07q.3.15.6.33l.29.19c.07.05.35.18.07.05a2,2,0,0,1,.51.46,2.5,2.5,0,0,1,.46.51c-.12-.22,0,0,.05.07l.19.28c.12.2.23.4.33.61s.2.38,0,.07a3,3,0,0,1,.12.32,4.58,4.58,0,0,1,.19.66,1.27,1.27,0,0,1,.06.28s.07.42,0,.2,0,.16,0,.2,0,.23,0,.35a4.63,4.63,0,0,1,0,.74,1.48,1.48,0,0,0,1.47,1.46,1.5,1.5,0,0,0,1.46-1.46,8.07,8.07,0,0,0-8.71-8.69,1.5,1.5,0,0,0-1.46,1.47,1.47,1.47,0,0,0,1.46,1.46Z" />
        <path class="cls-7"
            d="M433.78,353.36c-5.89,4.69-13.7,5.55-20.94,6.29-1.43.15-1.44,2.4,0,2.25,7.92-.81,16.1-1.82,22.53-6.95,1.14-.9-.47-2.49-1.59-1.59Z" />
        <path class="cls-7"
            d="M413.46,295.78a31.38,31.38,0,0,1,23.84,12.91,34.4,34.4,0,0,1,5.81,26.48c-1.18,6.12-3.56,12.56-8,17a1.13,1.13,0,0,0,1.59,1.6c4.32-4.32,6.7-10.19,8.18-16a37.42,37.42,0,0,0,.62-15.23,35.31,35.31,0,0,0-15.59-23.92,33.81,33.81,0,0,0-16.41-5.11c-1.45-.08-1.45,2.17,0,2.25Z" />
        <path class="cls-7"
            d="M416.71,314.64c7.36,1.68,13.43,7.87,13.46,15.68a15.14,15.14,0,0,1-13.31,15c-.94.12-.95,1.62,0,1.5a16.67,16.67,0,0,0,14.81-16.09c.19-8.6-6.42-15.68-14.56-17.52-.94-.22-1.34,1.23-.4,1.44Z" />
        <path class="cls-7"
            d="M148.27,358c4.66,1.58,9.58,2.09,14.45,2.59a1.13,1.13,0,0,0,1.13-1.12,1.16,1.16,0,0,0-1.13-1.13,63.14,63.14,0,0,1-13.85-2.51c-1.38-.47-2,1.71-.6,2.17Z" />
        <path class="cls-7"
            d="M158.93,292.5a34.64,34.64,0,0,0-25.39,17.67c-5.87,10.92-4.95,24.4.52,35.29a24.59,24.59,0,0,0,12.58,11.91c1.34.56,1.92-1.62.6-2.17-10-4.19-14.62-15.63-15.38-25.83a32.38,32.38,0,0,1,12.49-28.43,32.91,32.91,0,0,1,15.18-6.27c1.43-.2.82-2.38-.6-2.17Z" />
        <path class="cls-7"
            d="M158.45,311.86c-8.13,1.85-14.74,8.92-14.56,17.53a16.68,16.68,0,0,0,14.81,16.09c1,.12,1-1.39,0-1.5a15.15,15.15,0,0,1-13.31-15c0-7.81,6.1-14,13.46-15.68.94-.21.54-1.66-.4-1.45Z" />
        <path class="cls-7"
            d="M145.72,356.81a331.19,331.19,0,0,1-13.89,75q-3.15,10.25-7,20.25c-.52,1.35,1.51,2.49,2.44,1.42L152,424.94l-2.49-1a224.75,224.75,0,0,1-2.61,66.3c-1.23,6.25-2.75,12.44-4.52,18.56-.45,1.55,1.92,2.63,2.67,1.12a11.64,11.64,0,0,0,1.07-3.24,1.46,1.46,0,0,0-2.81-.78,29.64,29.64,0,0,0-.93,2.9,1.46,1.46,0,0,0,2.82.78,28.75,28.75,0,0,1,.92-2.9l-2.81-.78a9.08,9.08,0,0,1-.78,2.55l2.67,1.13a218.65,218.65,0,0,0,8.48-66.37c-.16-6.44-.59-12.87-1.25-19.27-.11-1.14-1.58-2.08-2.49-1l-24.78,28.56,2.44,1.42a326.4,326.4,0,0,0,18.84-74.45q1.44-10.77,2.18-21.6c.13-1.87-2.79-1.86-2.92,0Z" />
        <path class="cls-7"
            d="M434.11,354.17c.39,26.06,6.6,51.79,16.82,75.7q4.33,10.11,9.61,19.76l2.52-1.47-28.91-41c-.73-1-2.92-.84-2.72.74,3.24,25.68,12.4,50,24,73,3.29,6.52,6.77,12.93,10.36,19.29l2-2a3.49,3.49,0,0,1-1.84-2.32l-2.14,1.65a7.57,7.57,0,0,1,2,2.66l1.65-2.14A29.86,29.86,0,0,1,457,491l-1,2.49c4.43.12,7.36,3.94,10,7l1.77-2.29c-3.56-1.91-7.39-3.43-10.48-6.07l-1.42,2.43A20.47,20.47,0,0,1,466,500.47l1.77-2.29c-23.23-12.73-44.79-28.24-65-45.29q-8.65-7.29-17-14.92a1.47,1.47,0,0,0-2.29,1.77,6.88,6.88,0,0,0,3.27,3.57,1.48,1.48,0,0,0,2-2,13.17,13.17,0,0,0-3-3.34,1.47,1.47,0,0,0-2.29,1.77c2,3.8,1.89,8.44,5.5,11.29a1.48,1.48,0,0,0,2.44-.64A8,8,0,0,0,390,444.2c-1.23-1.86-3-3.48-3.85-5.58-.67-1.72-3.45-1-2.81.77,1.27,3.56,2.29,7.22,4.17,10.53.87,1.53,2.9.42,2.66-1.13A23.22,23.22,0,0,0,386,438.27c-.91-1.22-3.21-.59-2.66,1.12C390.5,461.75,400,483.24,408.64,505c2.44,6.14,4.8,12.3,7,18.52l2.44-1.42-53.72-42.77L349.23,467.3a1.48,1.48,0,0,0-2.49,1,78.2,78.2,0,0,1-27.13,51.91A75.09,75.09,0,0,1,304.84,530l1.77,2.29a5,5,0,0,1,2-1l-1.12-.15h0l-.29-2.29c.3-.36-.16.05-.43.2-.63.32-1.28.62-1.93.92l2,2c.37-.57.74-1.15,1.14-1.7a9.62,9.62,0,0,1,.85-1.06c.11-.12.38-.3.44-.44.17-.42.55-1.69-1-1.23-.5.15-1.25,1.08-1.72,1.39s-1.13.73-1.72,1l2,2c4.81-8.2,4.77-20-1.32-27.66-5.42-6.81-13.61-10.93-22.14-12.11a38.57,38.57,0,0,0-25.2,5.23A75.57,75.57,0,0,0,237,516.38a90.6,90.6,0,0,0-14.65,28.72h2.82A275.67,275.67,0,0,1,222.86,479q.82-9.6,2.34-19.12a1.46,1.46,0,0,0-2.82-.78c-10.69,27.34-34.46,48.75-61.82,58.73a102.11,102.11,0,0,1-24.06,5.65l1.26,2.19c.24-.35.83-.41,1-.61a14.2,14.2,0,0,0-.51-1.92,9,9,0,0,0-1.73.34l1.26,2.19A67.91,67.91,0,0,0,142,516c.63-1.78-2.19-2.54-2.81-.78a63.32,63.32,0,0,1-3.93,9c-.47.88.09,2.32,1.26,2.2,1.39-.16,6.26-1.22,3.85-3.65-1.58-1.6-4.14,0-5.11,1.45a1.47,1.47,0,0,0,1.26,2.2c30.11-3.22,58.43-19.76,76.36-44.12a97.84,97.84,0,0,0,12.34-22.4l-2.82-.78A278.87,278.87,0,0,0,220,526.94c.56,6.34,1.35,12.65,2.33,18.94.24,1.51,2.43,1.26,2.82,0,5.19-16.85,15.15-32.47,29.67-42.76,6.91-4.9,14.33-8.29,22.93-8.35a33.28,33.28,0,0,1,22.1,7.83A21.59,21.59,0,0,1,307,515.21a22.42,22.42,0,0,1-2.68,15.33,1.47,1.47,0,0,0,2,2c1.66-.91,6.56-3.65,4.37-6.09-2.35-2.61-5.35,2.52-6.37,4.09-.86,1.33.78,2.56,2,2,.85-.4,2.3-.8,2.94-1.58a1.48,1.48,0,0,0-.29-2.29c-1.16-.67-3.66.65-4.42,1.58a1.47,1.47,0,0,0,1.77,2.29,81,81,0,0,0,39.87-47.07,77.6,77.6,0,0,0,3.47-17.14l-2.49,1,53.71,42.76L416,524.2c1,.81,3,.11,2.44-1.42-7.89-22-17.53-43.33-25.73-65.22-2.35-6.27-4.57-12.58-6.61-18.94l-2.67,1.12a21.5,21.5,0,0,1,3.88,9.83l2.67-1.13c-1.76-3.09-2.69-6.5-3.88-9.82l-2.81.77a19.63,19.63,0,0,0,3.12,4.89c1.19,1.53,2.56,3.28,2.14,5.33L391,449c-3.26-2.58-3.23-7.22-5-10.7L383.7,440a10.68,10.68,0,0,1,2.52,2.76l2-2a4.48,4.48,0,0,1-2.22-2.52L383.7,440c19.74,18,40.6,34.78,63.13,49.13q9.56,6.09,19.49,11.53a1.46,1.46,0,0,0,1.77-2.29,23.3,23.3,0,0,0-11.41-6.67c-1.34-.36-2.57,1.46-1.42,2.44,3.3,2.83,7.27,4.49,11.06,6.52a1.47,1.47,0,0,0,1.77-2.29c-3.26-3.75-6.75-7.71-12.09-7.86a1.47,1.47,0,0,0-1,2.49,33.23,33.23,0,0,0,11.7,7.81c1.25.47,2.23-1.11,1.65-2.14a10.71,10.71,0,0,0-3-3.71c-1.12-.8-2.37.52-2.14,1.65a6.3,6.3,0,0,0,3.17,4.05,1.47,1.47,0,0,0,2-2c-12.41-22-23.6-44.92-29.88-69.48a176.28,176.28,0,0,1-4.09-21.35l-2.72.74,28.91,41a1.46,1.46,0,0,0,2.52-1.47c-12.23-22.43-20.88-46.94-24.39-72.28A177.32,177.32,0,0,1,437,354.17a1.46,1.46,0,0,0-2.91,0Z" />
        <path class="cls-7"
            d="M143.94,503.39l-7.4,18.79a1.48,1.48,0,0,0,1,1.8,1.5,1.5,0,0,0,1.79-1l7.4-18.8a1.46,1.46,0,0,0-1-1.79,1.49,1.49,0,0,0-1.79,1Z" />
        <circle class="cls-9" cx="145.41" cy="119.08" r="8.91" />
        <circle class="cls-9" cx="210.01" cy="101.26" r="13.37" />
        <circle class="cls-9" cx="285.75" cy="80.09" r="15.59" />
        <circle class="cls-9" cx="363.72" cy="101.26" r="13.37" />
        <circle class="cls-9" cx="426.09" cy="119.08" r="8.91" />
        <rect class="cls-9" x="165.46" y="201.5" width="239.47" height="11.14" rx="5" />
        <rect class="cls-9" x="165.46" y="236.03" width="239.47" height="10.02" rx="4.5" />
        <line class="cls-9" x1="174.22" y1="236.03" x2="174.22" y2="212.64" />
        <path class="cls-9" d="M148.59,127.4c24.67,57.39,25.63,74.1,25.63,74.1" />
        <path class="cls-9" d="M152.6,124.33s37.36,31.5,45.16,33.73,11.14-29,11.14-33.41a72.5,72.5,0,0,0-.94-10" />
        <path class="cls-9"
            d="M217,112.63s7.47,19.81,15.27,26.49,12.25,12.26,15.59,11.14,27.85-40.09,30.07-46.78,2.8-8.61,2.8-8.61" />
        <path class="cls-9"
            d="M291.28,94.87S302.46,121.3,308,130.21s11.13,16.71,15.59,18.94,22.28-17.82,25.62-22.28,7-14.53,7-14.53" />
        <path class="cls-9" d="M364.83,114.62s-3.34,17.82,1.11,31.19,6.69,15.59,10,13.36,43.79-33.82,43.79-33.82" />
        <path class="cls-9" d="M422.69,127.31s-17.76,33-20,46.34-3.34,27.85-3.34,27.85" />
        <line class="cls-9" x1="399.36" y1="212.64" x2="399.36" y2="236.03" />
    </g>
</svg>