<svg xmlns="http://www.w3.org/2000/svg" viewBox="0 0 1060 1080">
    <defs>
        <style>
            .cls-1 {
                fill: #3a8e78;
            }

            .cls-2 {
                fill: #89bbae;
            }

            .cls-3 {
                fill: #fff;
            }

            .cls-4 {
                fill: #4d4d4d;
            }

            .cls-5 {
                fill: #333;
            }

            .cls-6 {
                fill: #1a1a1a;
            }

            .cls-7 {
                fill: #666;
            }

            .cls-8 {
                fill: #b3b3b3;
            }

            .cls-9 {
                fill: none;
                stroke: #110c11;
                stroke-miterlimit: 10;
            }
        </style>
    </defs>
    <g id="Calque_2" data-name="Calque 2">
        <path class="cls-1"
            d="M964.89,484c6.53,21.22-3.26,34.28-13.84,26.94s-12.28-33.47-12.28-33.47l-16.32-16.33-38,1.37c-1.06-5.13-2-10-2.84-14.43-.1-.55-.2-1.1-.3-1.63.64-.09,25.07-3.23,46,0C948.57,449.72,958.36,462.78,964.89,484Z" />
        <path class="cls-2"
            d="M918.18,663.13c0,6.38,0,12.22-.12,17.06h-.12s-31.41,6.26-62.43,7.9-133-5.44-133-5.44l-1.55.06c-.65-15.34-1.47-34.21-2.38-54.17,41.84,17.07,51.86,13.84,78.11,14.08,27.76.25,121.11-4.48,121.11-4.48,0,1.5.07,3,.1,4.48a21.59,21.59,0,0,0-11.82,7.92c-4.9,6.53-3.27,19.59-3.27,19.59s11.43-6.53,13.07-6.53,2-.47,2-.47Zm-25.12,8.63,4.29-13.06H796.73l6.53,14.69ZM793.47,675a16.94,16.94,0,0,1-1.63-6.53c0-3.27-9.8-13.07-21.23-19.6s-44.08-6.28-44.08-6.28a21.1,21.1,0,0,0,0,11.18c1.63,6.53,19.59,24.49,29.39,26.12S793.47,675,793.47,675Z" />
        <path class="cls-3"
            d="M918.18,663.13h-.24s-.39.47-2,.47-13.07,6.53-13.07,6.53-1.63-13.06,3.27-19.59a21.59,21.59,0,0,1,11.82-7.92C918.08,649.7,918.16,656.69,918.18,663.13Z" />
        <path class="cls-1"
            d="M917.94,680.19h.12c-.1,4.88-.27,8.75-.51,11.16-1.63,16.33-4.9,19.59-21.23,21.23-10.41,1-78.61,4.74-137.65,6.43-5.23.15-10.38.28-15.42.4-6,.14-11.86.25-17.45.32l-3.26,0c0-1.29-.63-15.79-1.54-37.07l1.55-.06s101.94,7.07,133,5.44S917.94,680.19,917.94,680.19Zm-26.51,21H752S813.06,717.47,891.43,701.15Z" />
        <path class="cls-1"
            d="M904.46,609.73c-1.18.35-42.65,12.6-58.75,10.39-16.32-2.24-58.77-7.13-58.77-7.13s52.24,16.32,66.94,14.69C868.34,626.08,903.37,610.23,904.46,609.73Zm9.82-26.13c1.72,4.29,3,29.36,3.56,54.54,0,0-93.35,4.73-121.11,4.48-26.25-.24-36.27,3-78.11-14.08-2.38-52.31-5.36-112.16-7.51-136-.53-5.82-1-11-1.45-15.55-3-31.59-4-34.91-4-34.91,2.21-1.17,5-2.55,7.87-3.87,0,0,11.39,75.16,9.76,104.54s6.53,44.08,6.53,44.08L911,588.5s-9.1-42.32-19.31-85.88l1.58-.37C902.17,540.18,912.13,578.22,914.28,583.6Z" />
        <path class="cls-4"
            d="M911,588.5,729.8,586.86s-8.17-14.69-6.53-44.08-9.76-104.54-9.76-104.54c5.64-2.55,11.93-4.84,16.29-4.84,9.79,0,14.69,4.89,14.69,6.53s-6.53,1.63-6.53,1.63,18,35.92,18,45.71,14.69,13.06,19.59,11.43,8.16-44.08-3.27-60.41S746.12,418.7,729.8,418.7a70.94,70.94,0,0,0-18,2.44c-.05-.57-1.61-18.86,0-25.29S728.16,391,769,391s88.16,13.06,96.32,18c4.15,2.49,15.87,48.76,26.41,93.71C901.92,546.18,911,588.5,911,588.5Z" />
        <polygon class="cls-5" points="897.35 658.7 893.06 671.76 803.26 673.39 796.73 658.7 897.35 658.7" />
        <path class="cls-1"
            d="M392.44,506.2l5-.52c38.52-4.05,76.15-8,107.53-11.37l5.12-.55c45-4.79,76-8.12,76-8.12l-26.12-98-47,8.25-5.58,1-110,19.32-5,.89-88.52,15.55-4.3.76L225,446.55l-6.84,1.2-48.36,8.5a38,38,0,0,0-13.06,37.55c4.9,24.49,6.53,32.66,13.06,34.29,1.26.31,17.46-1.07,42.82-3.5h0l5.54-.54c20.84-2,47-4.64,75.79-7.59l5.67-.59C329.07,512.84,361,509.52,392.44,506.2ZM294,583.52l-86.61,2.69L133.9,588.5c1.87-51.23,6.18-107.84,11.41-119.19,9.8-21.22,8.17-21.22,27.76-24.48,10.39-1.73,121.37-24.6,231.1-45.93C501.33,380,597.51,362.33,622,361.56c20-.63,43.6-1.25,67-1.42,37.76-.26,75.08.66,96.24,4.69,34.28,6.53,80,31,80,31s8,8,16,50.61c.1.53.2,1.08.3,1.63.82,4.45,1.78,9.3,2.84,14.43,2.51,12.18,5.59,26,8.82,39.73l-1.58.37c-10.54-44.95-22.26-91.22-26.41-93.71-8.16-4.9-55.51-18-96.32-18s-55.51-1.63-57.14,4.9-.05,24.72,0,25.29a76.52,76.52,0,0,0-8.6,2.85s-2.83-36.31-29-47.74c-4.88-2.13-11.47-3.19-19-3.48-32.6-1.31-82.27,11.65-82.27,11.65l78.37,195.91v21.92c-40-14.62-78.37-27.42-78.37-27.42l-56.19,1.75-37.77,1.17L328,582.46Z" />
        <path class="cls-5" d="M752,701.15H891.43C813.06,717.47,752,701.15,752,701.15Z" />
        <path class="cls-5"
            d="M904.46,609.73c-1.09.5-36.12,16.35-50.58,17.95-14.7,1.63-66.94-14.69-66.94-14.69s42.45,4.89,58.77,7.13C861.81,622.33,903.28,610.08,904.46,609.73Z" />
        <path class="cls-3"
            d="M791.84,668.5a16.94,16.94,0,0,0,1.63,6.53s-27.76,6.53-37.55,4.89-27.76-19.59-29.39-26.12a21.1,21.1,0,0,1,0-11.18s32.65-.25,44.08,6.28S791.84,665.23,791.84,668.5Z" />
        <path class="cls-1"
            d="M711.84,421.14a70.94,70.94,0,0,1,18-2.44c16.32,0,31,3.27,42.44,19.59s8.17,58.78,3.27,60.41-19.59-1.63-19.59-11.43-18-45.71-18-45.71,6.53,0,6.53-1.63-4.9-6.53-14.69-6.53c-4.36,0-10.65,2.29-16.29,4.84-2.91,1.32-5.66,2.7-7.87,3.87-3.15,1.67-5.23,2.9-5.23,2.9V425.23s1-.51,2.83-1.24A76.52,76.52,0,0,1,711.84,421.14Z" />
        <path class="cls-6"
            d="M758.67,719s-6.23,9.14-20,12a94.94,94.94,0,0,1-19.74,1.42,33.88,33.88,0,0,0,12.5-3.5c6.53-3.26,11.82-9.49,11.82-9.49C748.29,719.29,753.44,719.16,758.67,719Z" />
        <path class="cls-6"
            d="M743.25,719.41s-5.29,6.23-11.82,9.49a33.88,33.88,0,0,1-12.5,3.5,138.66,138.66,0,0,1-14.42-1c.33,0,7.41-.89,10.59-2.49s10.7-9.16,10.7-9.16h0C731.39,719.66,737.24,719.55,743.25,719.41Z" />
        <path class="cls-5"
            d="M722.54,719.78l3.26,0h0s-7.43,7.53-10.7,9.16-10.26,2.45-10.59,2.49h0a67.71,67.71,0,0,1-12.25-2.49c-9.8-3.26-13.07-9.79-13.07-9.79C688.74,719.84,704.17,720,722.54,719.78Z" />
        <path class="cls-7"
            d="M721,682.71c.91,21.28,1.49,35.78,1.54,37.07-18.37.22-33.8.06-43.36-.67s-19.08-1.41-27.75-2h0V602.25c21.23,7.75,43,16,59.68,23.15,2.61,1.12,5.11,2.16,7.51,3.14C719.53,648.5,720.35,667.37,721,682.71Z" />
        <path class="cls-7"
            d="M711.11,492.57c2.15,23.81,5.13,83.66,7.51,136-2.4-1-4.9-2-7.51-3.14-16.73-7.13-38.45-15.4-59.68-23.15V580.33L653.33,479l56.33-2C710.1,481.59,710.58,486.75,711.11,492.57Z" />
        <path class="cls-7"
            d="M709.66,477l-56.33,2,2-105.31,0-.93c7.49.29,14.08,1.35,19,3.48,26.12,11.43,29,47.74,29,47.74-1.82.73-2.83,1.24-2.83,1.24V445s2.08-1.23,5.23-2.9C705.64,442.11,706.63,445.43,709.66,477Z" />
        <path class="cls-2"
            d="M612.25,348.5c31,0,76.82,11.64,76.82,11.64-23.43.17-47,.79-67,1.42-24.53.77-120.71,18.45-217.87,37.34,0,0,8.9-11.22,13.79-12.85S581.23,348.5,612.25,348.5Z" />
        <path class="cls-8" d="M655.33,372.77l0,.93-2,105.31-1.9,101.32L573.06,384.42S622.73,371.46,655.33,372.77Z" />
        <path class="cls-1"
            d="M605.9,712.17c-3.28-.83-5.08-1.76-5.08-2.86,0-4.55,2.82-42.94-12.51-66.69a46.88,46.88,0,0,0-3.82-5.14c-19.59-22.86-55.51-16.33-62,8.16s-4.9,55.51-4.9,55.51l-4.52-.21,2.76-87.76H651.43V717.06h0c-6.56-.48-12.72-1-18.33-1.42-5-.43-9.59-.86-13.63-1.32A113.65,113.65,0,0,1,605.9,712.17Z" />
        <path class="cls-2" d="M651.43,602.25v10.93H515.79l1.12-35.43,0-1.17,56.19-1.75S611.39,587.63,651.43,602.25Z" />
        <path class="cls-6"
            d="M633.1,715.65c-.21.6-8,23.11-22.49,28-10.4,3.46-24.89,2.85-32.47,2.2,6.87-.09,14.4-1,19.41-3.84,11.43-6.53,21.92-27.63,21.92-27.63C623.51,714.79,628.09,715.22,633.1,715.65Z" />
        <path class="cls-6"
            d="M619.47,714.33S609,735.43,597.55,742c-5,2.87-12.54,3.75-19.41,3.84-2.94-.25-4.84-.51-5.06-.54,6.38-1.19,13-4.86,19.57-11.46,12.8-12.79,13.24-21.28,13.25-21.63A113.65,113.65,0,0,0,619.47,714.33Z" />
        <path class="cls-5"
            d="M605.9,712.17c0,.35-.45,8.84-13.25,21.63-6.6,6.6-13.19,10.27-19.57,11.46h0a23.48,23.48,0,0,1-2.6.35c-4.94-.3-8.51-.82-8.81-.87h0A30.1,30.1,0,0,1,555.1,742c-8.86-5.07-21.66-20-25.09-39.61a57.69,57.69,0,0,1-.32-18.09c4-28.32,18.88-45.15,35.21-44.91s23.41,3.27,23.41,3.27c15.33,23.75,12.51,62.14,12.51,66.69C600.82,710.41,602.62,711.34,605.9,712.17ZM589.39,693.8c0-18.48-11-33.47-24.49-33.47s-24.49,15-24.49,33.47,11,33.47,24.49,33.47S589.39,712.29,589.39,693.8Z" />
        <path class="cls-4" d="M560,387.68l26.12,98s-31,3.33-76,8.12l2.9-97.82h0Z" />
        <path class="cls-6"
            d="M584.49,637.48a46.88,46.88,0,0,1,3.82,5.14s-7.08-3-23.41-3.27-31.23,16.59-35.21,44.91a57.69,57.69,0,0,0,.32,18.09l-12.46-1.2s-1.63-31,4.9-55.51S564.9,614.62,584.49,637.48Z" />
        <path class="cls-8"
            d="M564.9,660.33c13.53,0,24.49,15,24.49,33.47s-11,33.47-24.49,33.47-24.49-15-24.49-33.47S551.37,660.33,564.9,660.33Zm8.16,31.84c0-8.57-2.56-15.51-5.71-15.51s-5.72,6.94-5.72,15.51,2.56,15.51,5.72,15.51S573.06,700.73,573.06,692.17Z" />
        <path class="cls-6"
            d="M567.35,676.66c3.15,0,5.71,6.94,5.71,15.51s-2.56,15.51-5.71,15.51-5.72-6.95-5.72-15.51S564.19,676.66,567.35,676.66Z" />
        <polygon class="cls-2"
            points="516.87 576.58 516.91 577.75 515.79 613.18 513.03 700.94 479.1 699.4 479.1 577.75 516.87 576.58" />
        <path class="cls-5" d="M513,395.93h0l-2.9,97.82-5.12.55,2.44-97.39Z" />
        <path class="cls-4" d="M507.45,396.92,505,494.31c-31.38,3.34-69,7.32-107.53,11.37V416.24Z" />
        <polygon class="cls-1"
            points="479.1 577.75 479.1 699.4 416.44 696.55 404.77 696.02 394.35 695.55 349.75 693.52 328 692.53 328 582.46 479.1 577.75" />
        <path class="cls-5"
            d="M404.77,696l11.67.53s-6.64,9.5-18.07,12.76a38.3,38.3,0,0,1-9.91,1.34,15.32,15.32,0,0,0,9.91-4.6A26.22,26.22,0,0,0,404.77,696Z" />
        <path class="cls-5"
            d="M394.35,695.55l10.42.47a26.22,26.22,0,0,1-6.4,10,15.32,15.32,0,0,1-9.91,4.6h-.56A73.42,73.42,0,0,1,370,708.25c.76.12,6.09.82,13.64-2.2A19.26,19.26,0,0,0,394.35,695.55Z" />
        <path class="cls-5" d="M397.48,416.24v89.44l-5,.52V417.13Z" />
        <path class="cls-4"
            d="M349.75,693.52l44.6,2a19.26,19.26,0,0,1-10.67,10.5c-7.55,3-12.88,2.32-13.64,2.2l-.09,0c-2.69-.67-5.23-1.43-7.5-2.18A20.93,20.93,0,0,1,349.75,693.52Z" />
        <path class="cls-4" d="M392.44,417.13V506.2c-31.46,3.32-63.37,6.64-92.82,9.66l4.3-83.18Z" />
        <polygon class="cls-2"
            points="328 582.46 328 692.53 305.3 691.5 293.95 690.98 293.95 609.72 293.95 583.52 328 582.46" />
        <path class="cls-6"
            d="M294,691l11.35.52s-4.89,12.91-14.68,19.44c-6.44,4.29-20.27,4.95-29,4.89a39.71,39.71,0,0,0,14.28-3.25C290.62,706.05,294,691,294,691Z" />
        <path class="cls-5" d="M303.92,432.68l-4.3,83.18-5.67.59,5.67-83Z" />
        <path class="cls-4" d="M299.62,433.44l-5.67,83C265.19,519.4,239,522,218.16,524L225,446.55Z" />
        <path class="cls-1"
            d="M294,609.72V691l-11.85-.53-14.75-.67h-.13l-1.09,0s0-21.28-3.29-39.2h0c-1.43-7.87-3.51-15.09-6.5-19.57-9.79-14.69-31-8.16-34.28,13.07-3,19.12.74,36.93,1.5,40.25.08.37.13.56.13.56s-6.67-.13-16.34-.48V609.72Z" />
        <polygon class="cls-2" points="293.95 583.52 293.95 609.72 207.34 609.72 207.34 586.21 293.95 583.52" />
        <path class="cls-6"
            d="M282.1,690.45,294,691s-3.33,15.07-18,21.6a39.71,39.71,0,0,1-14.28,3.25c-4.54,0-7.69-.24-7.69-.24a51.74,51.74,0,0,1-5.68-.94c6.61,1.34,13.5-.29,19.49-3.71C279.19,704.41,282.1,690.45,282.1,690.45Z" />
        <path class="cls-5"
            d="M267.35,689.78l14.75.67s-2.91,14-14.34,20.49c-6,3.42-12.88,5-19.49,3.71l-.27-.06c-.65-.15-1.18-.29-1.57-.4s-.49-.14-.73-.22l-.07,0c-5-1.67-9.82-5.22-13.79-11.17-3.27-4.9-5.08-11.44-5.74-18.52-1.33-14.14,1.94-30.46,7.38-40.25,8.16-14.7,22.85-13.07,22.85-13.07,3,4.48,5.07,11.7,6.5,19.57-.46-.39-11.59-9.57-21.19,0-9.8,9.79-11.43,37,0,45.45s23.41-.65,25.58-3.46C269.06,690.15,267.78,689.82,267.35,689.78Z" />
        <path class="cls-8"
            d="M267.35,689.78c.43,0,1.71.37-.13,2.75-2.17,2.81-14.15,11.88-25.58,3.46s-9.8-35.66,0-45.45c9.6-9.6,20.73-.42,21.19,0h0c3.29,17.92,3.29,39.2,3.29,39.2l1.09,0ZM261.23,675c0-7.22-2.92-13.07-6.53-13.07s-6.53,5.85-6.53,13.07,2.92,13.06,6.53,13.06S261.23,682.24,261.23,675Z" />
        <path class="cls-6"
            d="M254.7,662c3.61,0,6.53,5.85,6.53,13.07s-2.92,13.06-6.53,13.06-6.53-5.85-6.53-13.06S251.09,662,254.7,662Z" />
        <path class="cls-6"
            d="M256.33,630.94s-14.69-1.63-22.85,13.07c-5.44,9.79-8.71,26.11-7.38,40.25h-2.55c-.76-3.32-4.45-21.13-1.5-40.25C225.31,622.78,246.54,616.25,256.33,630.94Z" />
        <path class="cls-5" d="M225,446.55,218.16,524l-5.54.54,5.54-76.82h0Z" />
        <path class="cls-4"
            d="M218.16,447.75h0l-5.54,76.82h0c-25.36,2.43-41.56,3.81-42.82,3.5-6.53-1.63-8.16-9.8-13.06-34.29a38,38,0,0,1,13.06-37.55Z" />
        <path class="cls-1"
            d="M207.34,684.26v.08c-24.18-.85-67.16-3-71.82-7.68-3-3-3.25-43.56-1.62-88.16l73.44-2.29v98Z" />
        <path class="cls-9"
            d="M859.3,390.85s8.17,8.16,16.33,52.24S905,570.44,908.28,578.6s4.9,91.43,3.27,107.75-4.9,19.59-21.23,21.23-174.69,9.79-217.14,6.53-78.36-4.9-78.36-9.8,3.26-49-16.33-71.83-55.51-16.33-62,8.16-4.9,55.51-4.9,55.51L260.13,684.72s0-44.08-9.8-58.78-31-8.16-34.28,13.07,1.63,40.81,1.63,40.81-81.63-1.63-88.16-8.16,0-186.12,9.79-207.35,8.17-21.22,27.76-24.48,396.73-81.64,449-83.27,129-3.26,163.27,3.27S859.3,390.85,859.3,390.85Z" />
        <path class="cls-9"
            d="M683.07,355.14s-45.8-11.64-76.82-11.64S416.86,379.42,412,381.05s-13.79,12.85-13.79,12.85" />
        <path class="cls-9"
            d="M878.47,457.52l38-1.37,16.32,16.33s1.7,26.12,12.28,33.47,20.37-5.72,13.84-26.94-16.32-34.29-37.55-37.55-46,0-46,0" />
        <path class="cls-9"
            d="M694.41,420.23V440S714,428.4,723.8,428.4s14.69,4.89,14.69,6.53-6.53,1.63-6.53,1.63,18,35.92,18,45.71,14.69,13.06,19.59,11.43,8.16-44.08-3.27-60.41S740.12,413.7,723.8,413.7A72.76,72.76,0,0,0,694.41,420.23Z" />
        <path class="cls-9"
            d="M707.51,433.24s11.39,75.16,9.76,104.54,6.53,44.08,6.53,44.08L905,583.5S867.47,408.81,859.3,403.91,803.79,386,763,386s-55.51-1.63-57.14,4.9,0,25.3,0,25.3" />
        <path class="cls-9"
            d="M780.94,608s52.24,16.32,66.94,14.69,50.61-18,50.61-18-42.45,12.64-58.78,10.4S780.94,608,780.94,608Z" />
        <polygon class="cls-9" points="790.73 653.7 891.35 653.7 887.06 666.76 797.26 668.39 790.73 653.7" />
        <path class="cls-9"
            d="M911.94,637.62a21.59,21.59,0,0,0-11.82,7.92c-4.9,6.53-3.27,19.59-3.27,19.59s11.43-6.53,13.07-6.53,2-.47,2-.47" />
        <path class="cls-9"
            d="M787.47,670s-27.76,6.53-37.55,4.89-27.76-19.59-29.39-26.12a21.1,21.1,0,0,1,0-11.18s32.65-.25,44.08,6.28,21.23,16.33,21.23,19.6A16.94,16.94,0,0,0,787.47,670Z" />
        <path class="cls-9" d="M716.55,714.87s-7.27-181.19-11.44-227.3-5.47-50.46-5.47-50.46" />
        <path class="cls-9" d="M697.24,419s-2.83-36.31-29-47.74-101.23,8.17-101.23,8.17l78.37,195.91V712.06" />
        <line class="cls-9" x1="649.3" y1="368.7" x2="645.43" y2="575.33" />
        <line class="cls-9" x1="703.66" y1="472.02" x2="647.33" y2="474.01" />
        <path class="cls-9" d="M716.55,677.65s101.94,7.07,133,5.44,62.43-7.9,62.43-7.9" />
        <path class="cls-9" d="M885.43,696.15c-78.37,16.32-139.42,0-139.42,0Z" />
        <path class="cls-9"
            d="M580.12,480.64l-26.12-98L163.8,451.25a38,38,0,0,0-13.06,37.55c4.9,24.49,6.53,32.66,13.06,34.29S580.12,480.64,580.12,480.64Z" />
        <line class="cls-9" x1="507.03" y1="390.94" x2="504.13" y2="488.77" />
        <line class="cls-9" x1="501.45" y1="391.92" x2="499.01" y2="489.31" />
        <line class="cls-9" x1="391.48" y1="411.24" x2="391.48" y2="500.69" />
        <line class="cls-9" x1="386.44" y1="412.13" x2="386.44" y2="501.22" />
        <line class="cls-9" x1="297.92" y1="427.68" x2="293.62" y2="510.87" />
        <line class="cls-9" x1="293.62" y1="428.44" x2="287.95" y2="511.45" />
        <line class="cls-9" x1="219" y1="441.55" x2="212.16" y2="519.06" />
        <line class="cls-9" x1="212.16" y1="442.76" x2="206.62" y2="519.59" />
        <path class="cls-9"
            d="M911.84,633.14s-93.35,4.73-121.11,4.48S753.36,641,705.11,620.4s-138.05-50.57-138.05-50.57L127.9,583.5" />
        <line class="cls-9" x1="201.34" y1="679.26" x2="201.34" y2="581.21" />
        <path class="cls-9" d="M288,578.51V686s-3.33,15.07-18,21.6S239.63,709,239.63,709" />
        <line class="cls-9" x1="322" y1="687.53" x2="322" y2="577.46" />
        <line class="cls-9" x1="201.34" y1="604.72" x2="287.95" y2="604.72" />
        <line class="cls-9" x1="473.1" y1="572.75" x2="473.1" y2="696.15" />
        <line class="cls-9" x1="510.91" y1="572.75" x2="507.03" y2="695.94" />
        <line class="cls-9" x1="645.43" y1="608.18" x2="509.8" y2="608.18" />
        <path class="cls-9" d="M567.06,399.76s42.45,111.9,44.08,125,0,48,0,48" />
        <path class="cls-9"
            d="M250.33,625.94s-14.69-1.63-22.85,13.07-11.43,44.08-1.64,58.77,24.49,14.69,35.92,8.16,14.34-20.49,14.34-20.49" />
        <path class="cls-9" d="M299.3,686.5s-4.89,12.91-14.68,19.44S248,710.59,248,710.59" />
        <path class="cls-9" d="M256.84,645.52s-11.4-9.78-21.2,0-11.43,37,0,45.45,23.41-.65,25.58-3.46,0-2.76,0-2.76" />
        <ellipse class="cls-9" cx="248.7" cy="670.03" rx="6.53" ry="13.06" />
        <ellipse class="cls-9" cx="561.35" cy="687.17" rx="5.71" ry="15.51" />
        <ellipse class="cls-9" cx="558.9" cy="688.8" rx="24.49" ry="33.47" />
        <path class="cls-9"
            d="M582.31,637.62s-7.08-3-23.41-3.27-31.23,16.59-35.21,44.91,14,51.17,25.41,57.7,24.49,4.9,37.55-8.16,13.25-21.64,13.25-21.64" />
        <path class="cls-9" d="M613.47,709.33S603,730.43,591.55,737s-35.92,2.78-35.92,2.78" />
        <path class="cls-9" d="M627.1,710.64s-7.79,23.06-22.49,28-37.55,1.66-37.55,1.66" />
        <line class="cls-9" x1="217.55" y1="679.26" x2="220.1" y2="679.26" />
        <line class="cls-9" x1="511.55" y1="696.15" x2="524.01" y2="697.35" />
        <path class="cls-9" d="M752.67,714s-6.23,9.14-20,12-36.63,1.19-46.42-2.08-13.07-9.79-13.07-9.79" />
        <path class="cls-9" d="M737.25,714.41s-5.29,6.23-11.82,9.49a33.88,33.88,0,0,1-12.5,3.5" />
        <path class="cls-9" d="M719.8,714.74s-7.43,7.53-10.7,9.16-10.6,2.49-10.6,2.49" />
        <path class="cls-9" d="M410.44,691.55s-6.64,9.5-18.07,12.76-26.12,0-35.92-3.26a20.93,20.93,0,0,1-12.7-12.53" />
        <path class="cls-9" d="M388.35,690.55a19.26,19.26,0,0,1-10.67,10.5c-8.16,3.26-13.73,2.18-13.73,2.18" />
        <path class="cls-9" d="M398.77,691a26.22,26.22,0,0,1-6.4,10,15,15,0,0,1-10.47,4.61" />
    </g>
</svg>