<svg xmlns="http://www.w3.org/2000/svg" viewBox="0 0 1060 1080">
    <defs>
        <style>
            .cls-1 {
                fill: #3a8e78;
            }

            .cls-2 {
                fill: #c1272d;
            }

            .cls-3 {
                fill: #4d4d4d;
            }

            .cls-4 {
                fill: #b3b3b3;
            }

            .cls-5 {
                fill: #89bbae;
            }

            .cls-6 {
                fill: #333;
            }

            .cls-7 {
                fill: #666;
            }

            .cls-8 {
                fill: #fff;
            }

            .cls-10,
            .cls-11,
            .cls-12,
            .cls-9 {
                fill: none;
                stroke: #110c11;
                stroke-miterlimit: 10;
            }

            .cls-9 {
                stroke-width: 1.39px;
            }

            .cls-10 {
                stroke-width: 1.33px;
            }

            .cls-11 {
                stroke-width: 1.28px;
            }

            .cls-12 {
                stroke-width: 1.27px;
            }
        </style>
    </defs>
    <g id="Calque_2" data-name="Calque 2">
        <path class="cls-1"
            d="M871.66,675.05a31,31,0,0,0-25,.2h-.06c-7.59,2.63-13.38,7.9-17.82,14.87h0c-10.49,13.92-17.16,34.84-17.16,58.24a115.48,115.48,0,0,0,3.36,28h0c.4,6.7,1,10.29,1,10.29H583.44s.22-2,.49-5.51c1.17-15.49,3-59.9-11.32-85a42.87,42.87,0,0,0-6.08-8.34,30.85,30.85,0,0,0-18.19-9.67l-.06,0a35.92,35.92,0,0,0-10.08-1.45c-12.77,0-24.44,6.84-33.33,18.12h0c-8.62,10.92-14.63,26-16.57,43a106.13,106.13,0,0,0-.68,11.94,103.84,103.84,0,0,0,2.1,20.89v0c.8,9.4,1.65,16,1.65,16H135.51s-18.72-25.06-15.93-80.76c1.16-23.18,3-41.06,8.46-54.93h0a117.66,117.66,0,0,1,13.14,14.51c6.3,8.31,29.86,0,29.86,0s4.14-13.67,0-26.31-16.88-17.35-16.88-17.35a111.43,111.43,0,0,1,25.28-9.21c13.71-3.43,31.16-15.5,50.49-31.33,6.64-5.45,13.51-11.34,20.52-17.49C297.61,522.5,351.32,470,388.31,466.43c58.48-5.57,349.1-18.1,410.56,0s60.07,30.64,60.07,30.64H847.8s27.67,45.9,45,79.42l1,1.89s0,37,4.2,53.75,14.3,12.45,14.3,12.45c1.36,6.61,2.41,11.22,2.41,11.22s13.92,25.06,13.92,54.3,2.79,52.91-5.57,64-19.59,12.53-19.59,12.53.59-5.55,1.23-13.82h0A119.41,119.41,0,0,0,906.4,735s0,0,0,0,0,0,0,0h0C903.13,705.87,889.43,682.53,871.66,675.05ZM829.21,551.83l-.52,0a147,147,0,0,0-1.78-15.8c-4.18-25.06-26.45-39-26.45-39s-144.9-8.36-161.57-4.18-93.24,103-93.24,103,21.05-.87,51.52-2.16V771.44H805.81s-2.57-41.85,0-65.41,28.06-44.66,28.06-44.66Zm50.61,58.72c0-8.08-5-14.62-11.14-14.62s-11.14,6.54-11.14,14.62,5,14.62,11.14,14.62S879.82,618.62,879.82,610.55ZM519.19,586.18l78-93.29H353.07L250.46,582ZM435.9,661.94c17-3.59,48.71-40.1,48.71-40.1s-19.72-7.81-50.49,0S387.2,665.5,387.2,665.5,418.94,665.54,435.9,661.94ZM144.64,774.15H387.2l-30.92-30.63H162.52Zm232.53-98.86c7-7,7.9-17.66,7.9-17.66S338.18,660,272.74,660s-91.9-14.9-91.9-14.9-2.78,16.3,0,21.87,46.38,30.63,46.38,30.63h83.12S370.21,682.25,377.17,675.29Z" />
        <path class="cls-2"
            d="M906.28,608.46c.85,10.23,3.79,25.68,5.94,36.12,0,0-10.12,4.26-14.3-12.45s-4.2-53.75-4.2-53.75C900.77,592.17,905.87,603.6,906.28,608.46Z" />
        <path class="cls-3"
            d="M906.4,735a119.41,119.41,0,0,1-1.79,37.86c-6.41,29.91-24.24,51.42-45.24,51.42h-.43c-20-.27-37-20-44-47.88h0a115.48,115.48,0,0,1-3.36-28c0-23.4,6.67-44.32,17.16-58.24h0c5.15-6.83,11.22-12,17.86-14.89h0A30.68,30.68,0,0,1,852,673.9a44.66,44.66,0,0,1,19.69,1.15c17.77,7.48,31.47,30.82,34.74,59.9h0s0,0,0,0S906.41,735,906.4,735ZM884,751.18c0-21.92-11.22-39.69-25.06-39.69s-25.07,17.77-25.07,39.69,11.22,39.68,25.07,39.68S884,773.09,884,751.18Z" />
        <path class="cls-4"
            d="M858.94,711.49c13.84,0,25.06,17.77,25.06,39.69s-11.22,39.68-25.06,39.68-25.07-17.77-25.07-39.68S845.09,711.49,858.94,711.49Z" />
        <ellipse class="cls-5" cx="868.68" cy="610.55" rx="11.14" ry="14.62" />
        <path class="cls-6"
            d="M858.94,824.27h0s-34.81,1.39-59.88-5.57-27.21-32-27.21-32h44.09s-.59-3.59-1-10.29C821.92,804.25,839,824,858.94,824.27Z" />
        <path class="cls-5"
            d="M829.21,551.83l4.66,109.54S808.38,682.46,805.81,706s0,65.41,0,65.41H727.06V589l0-.81c50.07-2.23,91.63-4.22,94.31-4.76,5.43-1.08,8.32-14,7.35-31.54Zm-8.3,56.63V600.1h-30.2v8.36Z" />
        <path class="cls-7"
            d="M828.69,551.85c1,17.53-1.92,30.46-7.35,31.54-2.68.54-44.24,2.53-94.31,4.76-43.49,2-93.42,4.08-129.86,5.62-30.47,1.29-51.52,2.16-51.52,2.16s76.58-98.86,93.24-103,161.57,4.18,161.57,4.18,22.27,13.92,26.45,39A147,147,0,0,1,828.69,551.85Zm-189.8,34.33s9.8-2.79,8.54-10.85-30.77-21.18-56.53-13.64-16,27.27-16,27.27Z" />
        <rect class="cls-6" x="790.71" y="600.1" width="30.2" height="8.36" />
        <path class="cls-5"
            d="M727.06,589V771.44H597.17V593.77c36.44-1.54,86.37-3.67,129.86-5.62Zm-16.35,26.77v-7.27H677.93v7.27Z" />
        <rect class="cls-6" x="677.93" y="608.46" width="32.78" height="7.27" />
        <path class="cls-5"
            d="M647.43,575.33c1.26,8.06-8.54,10.85-8.54,10.85l-64,2.78s-9.75-19.73,16-27.27S646.17,567.26,647.43,575.33Z" />
        <polygon class="cls-7" points="597.17 492.89 519.19 586.18 250.46 582 353.07 492.89 597.17 492.89" />
        <path class="cls-3"
            d="M572.61,696.16c14.34,25.11,12.49,69.52,11.32,85-8,24.36-25.12,41.29-45,41.7h-.74c-22.92,0-42.27-22-48.5-52.18v0a103.84,103.84,0,0,1-2.1-20.89,106.13,106.13,0,0,1,.68-11.94c1.94-17.05,8-32.11,16.57-43h0c8.89-11.28,20.56-18.12,33.33-18.12a35.92,35.92,0,0,1,10.08,1.45l.06,0C557.6,680.86,565.94,687.24,572.61,696.16Zm-15.82,57.1c0-23.07-10.29-41.77-23-41.77s-23,18.7-23,41.77,10.29,41.78,23,41.78S556.79,776.33,556.79,753.26Z" />
        <path class="cls-4"
            d="M533.81,711.49c12.69,0,23,18.7,23,41.77S546.5,795,533.81,795s-23-18.71-23-41.78S521.13,711.49,533.81,711.49Z" />
        <path class="cls-6"
            d="M538.94,822.87v.1a306.38,306.38,0,0,1-56-4.26c-33.42-5.57-39.62-32-39.62-32h48s-.85-6.58-1.65-16c6.23,30.17,25.58,52.18,48.5,52.18Z" />
        <path class="cls-8"
            d="M484.61,621.84s-31.75,36.51-48.71,40.1-48.7,3.56-48.7,3.56,16.16-35.84,46.92-43.66S484.61,621.84,484.61,621.84Z" />
        <polygon class="cls-5" points="387.2 774.15 144.64 774.15 162.52 743.52 356.28 743.52 387.2 774.15" />
        <path class="cls-6"
            d="M385.07,657.63s-.94,10.7-7.9,17.66-66.83,22.28-66.83,22.28H227.22s-43.59-25.06-46.38-30.63,0-21.87,0-21.87S207.3,660,272.74,660,385.07,657.63,385.07,657.63Z" />
        <path class="cls-6"
            d="M268.56,786.68v12.53c0,4.18-15.31,20.89-23.67,23.67s-61.26,4.18-72-3.8-22.42-32.4-22.42-32.4Z" />
        <path class="cls-5"
            d="M250.46,563.81c-7,6.15-13.88,12-20.52,17.49h0s-19.86-.68-31.87-1.87-.52-9.95,14.22-15.61S250.46,563.81,250.46,563.81Z" />
        <path class="cls-8"
            d="M171.05,639.19c4.14,12.64,0,26.31,0,26.31s-23.56,8.31-29.86,0A117.66,117.66,0,0,0,128.05,651h0c5-12.77,13-22.14,26.13-29.15C154.17,621.84,166.92,626.56,171.05,639.19Z" />
        <line class="cls-9" x1="495.87" y1="687.8" x2="495.85" y2="687.81" />
        <path class="cls-9"
            d="M862.68,668.05h0A44.66,44.66,0,0,0,843,666.9a30.68,30.68,0,0,0-5.34,1.35h-.06c-7.59,2.63-13.38,7.9-17.82,14.87v0" />
        <path class="cls-9"
            d="M806,769.38h0c.4,6.7,1,10.29,1,10.29H574.44s.22-2,.49-5.51c1.17-15.49,3-59.9-11.32-85a42.87,42.87,0,0,0-6.08-8.34,30.85,30.85,0,0,0-18.19-9.67l-.06,0" />
        <path class="cls-9"
            d="M480.7,763.67v0c.8,9.4,1.65,16,1.65,16H126.51s-18.72-25.06-15.93-80.76,9.75-80.75,59.87-93.29S320.83,465,379.31,459.43s349.1-18.1,410.56,0,60.07,30.64,60.07,30.64H838.8s57.08,94.68,58.48,111.39,8.35,47.34,8.35,47.34,13.92,25.06,13.92,54.3,2.79,52.91-5.57,64-19.59,12.53-19.59,12.53.59-5.55,1.23-13.82" />
        <path class="cls-9" d="M897.4,728s0,0,0,0,0,0,0,0" />
        <polygon class="cls-9" points="241.46 575 510.19 579.18 588.17 485.89 344.07 485.89 241.46 575" />
        <path class="cls-9"
            d="M629.89,579.18l-64,2.78s-9.75-19.73,16-27.27,55.27,5.57,56.53,13.64S629.89,579.18,629.89,579.18Z" />
        <path class="cls-9"
            d="M536.65,588.93s268.73-11.14,275.69-12.54,9.75-22.27,5.57-47.34-26.45-39-26.45-39-144.9-8.36-161.57-4.18S536.65,588.93,536.65,588.93Z" />
        <rect class="cls-9" x="668.93" y="601.46" width="32.78" height="7.27" />
        <rect class="cls-9" x="781.71" y="593.1" width="30.2" height="8.35" />
        <ellipse class="cls-9" cx="859.68" cy="603.55" rx="11.14" ry="14.62" />
        <path class="cls-9" d="M883.75,569.49l1,1.89s0,37,4.2,53.75,14.3,12.45,14.3,12.45" />
        <path class="cls-9" d="M819.87,536.82l5,117.55S799.38,675.46,796.81,699s0,65.41,0,65.41H588.17V586.77" />
        <line class="cls-9" x1="718.06" y1="581.96" x2="718.06" y2="764.44" />
        <path class="cls-9" d="M241.46,556.81s-23.43-5.66-38.17,0-26.23,14.41-14.22,15.61,31.87,1.87,31.87,1.87" />
        <polygon class="cls-9" points="135.64 767.15 378.2 767.15 347.29 736.52 153.52 736.52 135.64 767.15" />
        <path class="cls-9"
            d="M376.07,650.63s-.94,10.7-7.9,17.66-66.83,22.28-66.83,22.28H218.22s-43.59-25.06-46.38-30.63,0-21.87,0-21.87S198.3,653,263.74,653,376.07,650.63,376.07,650.63Z" />
        <path class="cls-9"
            d="M378.2,658.5s16.16-35.84,46.92-43.66,50.49,0,50.49,0-31.75,36.51-48.71,40.1S378.2,658.5,378.2,658.5Z" />
        <path class="cls-9"
            d="M145.17,614.84s12.75,4.72,16.88,17.35,0,26.31,0,26.31-23.56,8.31-29.86,0A117.66,117.66,0,0,0,119.05,644" />
        <path class="cls-9" d="M127.57,673.2l43,35.78s192,8,218.45,6.65,55.26-25.06,55.26-25.06" />
        <path class="cls-9"
            d="M141.47,779.68s11.68,24.41,22.42,32.4,63.65,6.59,72,3.8,23.67-19.49,23.67-23.67V779.68" />
        <ellipse class="cls-9" cx="849.94" cy="744.18" rx="25.06" ry="39.68" />
        <ellipse class="cls-9" cx="524.81" cy="746.26" rx="22.97" ry="41.77" />
        <path class="cls-10"
            d="M563.61,689.16c-6.67-8.92-15-15.3-24.27-18l-.06,0a35.92,35.92,0,0,0-10.08-1.45c-12.77,0-24.44,6.84-33.33,18.12h0c-8.62,10.92-14.63,26-16.57,43a106.13,106.13,0,0,0-.68,11.94,103.84,103.84,0,0,0,2.1,20.89v0c6.23,30.17,25.58,52.18,48.5,52.18,20.18,0,37.59-17,45.73-41.71" />
        <ellipse class="cls-11" cx="850.37" cy="741.39" rx="47.78" ry="75.88" />
        <path class="cls-12" d="M434.37,779.68s6.2,26.46,39.62,32,58.5,4.17,58.5,4.17" />
        <path class="cls-12" d="M762.85,779.68s2.15,25.06,27.21,32,59.88,5.57,59.88,5.57" />
    </g>
</svg>