<svg xmlns="http://www.w3.org/2000/svg" viewBox="0 0 1060 1080">
    <defs>
        <style>
            .cls-1 {
                fill: #666;
            }

            .cls-2 {
                fill: #89bbae;
            }

            .cls-3 {
                fill: #3a8e78;
            }

            .cls-4 {
                fill: #4d4d4d;
            }

            .cls-5 {
                fill: #1a1a1a;
            }

            .cls-6 {
                fill: #110c11;
            }

            .cls-7 {
                fill: #fff;
            }

            .cls-8 {
                fill: none;
                stroke: #110c11;
                stroke-miterlimit: 10;
            }
        </style>
    </defs>
    <g id="Calque_2" data-name="Calque 2">
        <path class="cls-1"
            d="M950.5,646.5l-726,132-81-4,239.77-38,.23,0a11.37,11.37,0,0,0,5-.85L481,721l111.52-17.69,46-7.3Z" />
        <path class="cls-2" d="M936.21,595.57c.31,7.7.5,14.45.44,18.6v-2.38L581.5,624.5V587.79Z" />
        <polygon class="cls-2"
            points="936.65 611.79 936.65 614.17 936.65 614.47 581.5 630.43 581.5 624.5 936.65 611.79" />
        <path class="cls-3"
            d="M498.23,481S472.5,497.5,447.5,531.5c-24.8,33.73-47,92.08-47.32,93,.59-.55,19.63-18.21,39.05-32,19.74-14,59-21.56,59-21.56ZM581.5,581v49.41l355.15-16c0,1.3-.07,2.33-.15,3-1,9-2,14.8-2,14.8a30.29,30.29,0,0,1-1.86,3.39.33.33,0,0,1-.08.13c-.19.22-.86.68-3.11.68-3,0-15,1-15,1s-1-13-5-13-304,26-313,26-7-1-7-5c0-3.74-5.25-2.23-19-2V581l-42-1.15V645.8h0c-20.49,2-40.88,5.19-42,9.69-2,8-4,30-20,41s-37,1-74-17-25-34-21.95-38.1,126-5.61,126-5.61V627.5l-299.75,4.8c1.52-8.92,3.28-18,5.17-27,0,0,2.58,12.24,8.58,13.24s29,1,29,1a241.29,241.29,0,0,0-5-26c-3-11-6.58-18.26-13.79-21.63s-10.9-1.1-10.9-1.1c2.07-8.41,4.12-16.41,6.06-23.75h0l10.61-21.48c-.22,1-5.85,27.05,1,31s96.74,13,122.37,0,48.63-73,64.63-87,44-58.83,86-56.92,91.37,18.12,104.68,23S916.5,527.5,922.5,530.5s10.8,13.57,11,14h0s1.69,27.09,2.6,48.5Zm337,5.24V556.5l-10-1v30.76Zm-19,0V552.5l-13-2v35.76Zm-21.88-2V549.48L863.06,547v37.19Zm-26.12-2V543.5l-17-3v41.67ZM823.74,581,822.5,538.5l-19-3,1,44ZM794.5,578.5l-1-45-19-3v47.07Zm-32-2v-48l-26.84-6.09v51.85Zm-41-2.29V520.5l-26-4v56Zm-53-4.6V511.5l-45-8v64Zm-104-15.16v-56a12,12,0,0,0-12-12h-5a12,12,0,0,0-12,12v56a12,12,0,0,0,12,12h5A12,12,0,0,0,564.5,554.5Zm-43,44.5V488a7.5,7.5,0,0,0-15,0V599a7.5,7.5,0,0,0,15,0Zm-170,13.5c10-6,27-46,27-46s-43,7-53,11-47,41-47,41S341.5,618.5,351.5,612.5Z" />
        <polygon class="cls-2" points="936.1 593 936.21 595.57 581.5 587.79 581.5 581.02 936.1 593" />
        <path class="cls-4"
            d="M226.49,525.53,215.88,547c1.26-4.81,2.48-9.34,3.62-13.51,15-55,60-119,147-154,68.53-27.57,142,1.32,199.46,24.12h0c15.48,6.15,29.79,11.85,42.53,15.88,11,3.5,28.56,9.16,49.83,16.1,10.5,3.43,21.92,7.16,33.92,11.11,32.49,10.65,69.26,22.79,103.81,34.25l20.48,6.81c23.49,7.82,45.23,15.09,63,21.07,26.26,8.86,43.72,14.89,45,15.66,5,3,10,13,10,13s.49,2.47,1.2,6.64l-2.2.36h0c-.19-.42-5.11-11-11-14s-304-90-317.31-94.9-62.69-21.1-104.68-23-70,42.92-86,56.92-39,74-64.63,87-115.37,4-122.37,0S226.27,526.56,226.49,525.53Zm144-103L389,400.67,337.5,404.5l-15,20Zm-83,106,40-100-41.1,89.59,14.1-69.59-17,49s-1.77,1.77-4.55,4.58c-9.92,10-32.7,33.3-33.59,36.42-1.14,4,13.14,2,9.14,0-3.82-1.91,24.34-33.07,26.83-35.81l.17-.19-4.48,26Z" />
        <path class="cls-2"
            d="M337.49,672.52c-.63.73-17.33,20.13-35,28-7,3.11-18.38,4.26-31.15,4.26-20.07,0-43.57-2.82-58.85-5.26-25-4-10.58-58.1-10.58-58.1l-4.42.1s-3,30-3,36,4,26,20.31,27.26c9.54.74,34.48,2.57,56.55,2.57,15.68,0,29.91-.92,36.14-3.83C322.27,696.61,337,673.25,337.49,672.52Zm426-5.35c-35.86,5.09-75.27,10.66-115.33,16.32l-22.63,3.19-20.92,3-28.37,4-18.82,2.65-25.5,3.6-7.08,1-18.37,2.59-8.27,1.16-31.71,4.47-3.16.44-5.95.84-.26,0-22.06,3.1-16.9,2.38-4.87.68-49.49,7-42.33,6s-92,7-119-9c-14.6-8.65-12.83-46.53-5.75-88.2l299.75-4.8v8.29s-122.89,1.52-125.95,5.61-15.05,20.1,21.95,38.1,58,28,74,17,18-33,20-41c1.12-4.5,21.51-7.73,42-9.69,16-1.54,32-2.31,39-2.31l3,0c13.78-.21,19-1.72,19,2,0,4-2,5,7,5s309-26,313-26,5,13,5,13,12-1,15-1c2.25,0,2.92-.46,3.11-.68-3,4.62-7,7.65-12.11,8.68-2.66.53-23.26,3.56-55.35,8.17l-9,1.29-7.28,1h0L840,656.28l-51.66,7.36-10.6,1.51-1.74.25Zm-188,.33V656.72l-48,3.78v11Zm-295,17c6-3,8-10,8-18s-5.89-12.21-13.95-13.61-58.68,0-58.68,0v33.45S274.5,687.5,280.5,684.5Z" />
        <polygon class="cls-1" points="918.5 556.5 918.5 586.26 908.5 586.26 908.5 555.5 918.5 556.5" />
        <polygon class="cls-1" points="899.5 552.5 899.5 586.26 886.5 586.26 886.5 550.5 899.5 552.5" />
        <path class="cls-3"
            d="M879.5,498.5v10.34c-17.73-6-39.47-13.25-63-21.07,0,0,12-5.27,22-3.27S879.5,498.5,879.5,498.5Z" />
        <polygon class="cls-1" points="877.62 549.48 877.62 584.21 863.06 584.21 863.06 547.02 877.62 549.48" />
        <path class="cls-5" d="M865.15,652.67s-.65,4.83-3.65,4.83-5.32-3.54-5.32-3.54Z" />
        <polygon class="cls-1" points="851.5 543.5 851.5 582.17 834.5 582.17 834.5 540.5 851.5 543.5" />
        <path class="cls-5" d="M848.89,655c-.08.27-1.48,4.49-4.39,4.49s-4.53-3.22-4.53-3.22Z" />
        <polygon class="cls-1" points="822.5 538.5 823.74 581.02 804.5 579.5 803.5 535.5 822.5 538.5" />
        <path class="cls-3"
            d="M794.5,467.5,796.06,481c-34.55-11.46-71.32-23.6-103.81-34.25h0s25.25-3.2,36.25-1.2S794.5,467.5,794.5,467.5Z" />
        <polygon class="cls-1" points="793.5 533.5 794.5 578.5 774.5 577.57 774.5 530.5 793.5 533.5" />
        <path class="cls-5" d="M788.31,663.64s-2.81,5.86-5.81,5.86-4.79-4.35-4.79-4.35Z" />
        <path class="cls-5" d="M776,665.4s-3.47,6.1-5.47,6.1-6,0-7-4.33Z" />
        <polygon class="cls-1" points="762.5 528.5 762.5 576.55 735.66 574.26 735.66 522.41 762.5 528.5" />
        <polygon class="cls-1" points="721.5 520.5 721.5 574.26 695.5 572.47 695.5 516.5 721.5 520.5" />
        <polygon class="cls-1" points="668.5 511.5 668.5 569.66 623.5 567.5 623.5 503.5 668.5 511.5" />
        <path class="cls-3"
            d="M653.5,418.5l4.83,17.1c-21.27-6.94-38.78-12.6-49.83-16.1-12.74-4-27-9.73-42.53-15.88.65-.06,30.65-2.85,45,0C625.5,406.5,653.5,418.5,653.5,418.5Z" />
        <path class="cls-5"
            d="M648.19,683.49s-1.49,9.68-9.91,10.89a12.66,12.66,0,0,1-1.78.12c-10,0-10.94-7.81-10.94-7.81h0Z" />
        <path class="cls-5"
            d="M604.64,689.64s-3.63,10.41-12.41,11.71a13.77,13.77,0,0,1-1.85.13,16,16,0,0,1-14.11-7.84Z" />
        <polygon class="cls-3" points="575.5 656.72 575.5 667.5 527.5 671.53 527.5 660.5 575.5 656.72" />
        <path class="cls-1" d="M570.47,588.3v55.18l-3,0c-7,0-23,.77-39,2.31h0V588.3Z" />
        <polygon class="cls-2" points="570.47 581.02 570.47 588.3 528.5 588.3 528.5 579.87 570.47 581.02" />
        <rect class="cls-1" x="535.5" y="486.5" width="29" height="80" rx="12" />
        <path class="cls-5" d="M557.45,696.29h0s-6,10.2-14.3,10.36a11.85,11.85,0,0,1-11.2-6.77Z" />
        <path class="cls-5" d="M524.87,700.89a11.84,11.84,0,0,1-8.37,5.61,12.12,12.12,0,0,1-10-3Z" />
        <path class="cls-4" d="M521.5,488V599a7.5,7.5,0,0,1-15,0V488a7.5,7.5,0,0,1,15,0Z" />
        <path class="cls-2"
            d="M498.23,481v90s-39.26,7.56-59,21.56c-19.42,13.78-38.46,31.44-39.05,32,.34-.91,22.52-59.26,47.32-93C472.5,497.5,498.23,481,498.23,481Z" />
        <path class="cls-5" d="M498.23,704.64s-8.3,13.54-17.45,14.81a9.67,9.67,0,0,1-2.28,0c-10-1-12-10.39-12-10.39Z" />
        <path class="cls-5" d="M457.15,710.43S451.5,720.5,444.5,720.5s-9.41-7-9.41-7Z" />
        <path class="cls-5"
            d="M363.83,723.55l49.49-7s-14.41,15.2-24.85,19.06l-5.2.82C373.35,735.32,363.83,723.55,363.83,723.55Z" />
        <polygon class="cls-6" points="389.02 400.67 370.5 422.5 322.5 424.5 337.5 404.5 389.02 400.67" />
        <path class="cls-7"
            d="M378.5,566.5s-17,40-27,46-73,6-73,6,37-37,47-41S378.5,566.5,378.5,566.5Zm-24,29c0-6.08-4-11-9-11s-9,4.92-9,11,4,11,9,11S354.5,601.58,354.5,595.5Z" />
        <ellipse class="cls-7" cx="345.5" cy="595.5" rx="9" ry="11" />
        <path class="cls-3"
            d="M337.49,672.52c-.46.73-15.22,24.09-30,31-6.23,2.91-20.46,3.83-36.14,3.83v-2.57c12.77,0,24.15-1.15,31.15-4.26C320.16,692.65,336.86,673.25,337.49,672.52Z" />
        <path class="cls-6"
            d="M327.5,428.5l-40,100H277l4.48-26-.17.19-2.38-.61c2.78-2.81,4.55-4.58,4.55-4.58l17-49-14.1,69.59Z" />
        <path class="cls-3"
            d="M288.5,666.5c0,8-2,15-8,18s-64.63,1.84-64.63,1.84V652.89s50.63-1.39,58.68,0S288.5,658.5,288.5,666.5Z" />
        <path class="cls-6"
            d="M279,502.08l2.38.61c-2.49,2.74-30.65,33.9-26.83,35.81,4,2-10.28,4-9.14,0C246.25,535.38,269,512.11,279,502.08Z" />
        <path class="cls-3"
            d="M271.35,704.76v2.57c-22.07,0-47-1.83-56.55-2.57C198.5,703.5,194.5,683.5,194.5,677.5s3-36,3-36l4.42-.1s-14.42,54.1,10.58,58.1C227.78,701.94,251.28,704.76,271.35,704.76Z" />
        <path class="cls-7"
            d="M234.5,593.5a241.29,241.29,0,0,1,5,26s-23,0-29-1-8.58-13.24-8.58-13.24c2.48-11.82,5.19-23.5,7.89-34.49,0,0,3.69-2.27,10.9,1.1S231.5,582.5,234.5,593.5Zm-6,3c0-6.08-4-11-9-11s-9,4.92-9,11,4,11,9,11S228.5,602.58,228.5,596.5Z" />
        <ellipse class="cls-7" cx="219.5" cy="596.5" rx="9" ry="11" />
        <path class="cls-8"
            d="M928.5,532.5s6,30,6,57-5,47-20,50-599,85-599,85-92,7-119-9,2-132,17-187,60-119,147-154,182,21,242,40,311,102,316,105S928.5,532.5,928.5,532.5Z" />
        <path class="cls-8"
            d="M242.5,481.5s-27,44-15,53,113.06,11,124,0,50-96,103-123,87-13,112-5S760,468.84,760,468.84" />
        <path class="cls-8" d="M560,398.62s30.5-2.88,45,0S647.5,413.5,647.5,413.5l4.83,17.1" />
        <path class="cls-8" d="M790.06,476,788.5,462.5s-55-20-66-22-36.25,1.2-36.25,1.2" />
        <path class="cls-8" d="M810.54,482.77s12-5.27,22-3.27,41,14,41,14v10.34" />
        <polygon class="cls-8" points="331.5 399.5 316.5 419.5 364.5 417.5 383.02 395.67 331.5 399.5" />
        <path class="cls-8"
            d="M321.5,423.5l-40,100H271l4.48-26s-31,34-27,36-10.28,4-9.14,0,38.14-41,38.14-41l17-49-14.1,69.59Z" />
        <path class="cls-8"
            d="M209.87,542,220.5,520.5s-6,27,1,31,96.74,13,122.37,0,48.63-73,64.63-87,44-58.83,86-56.92,91.37,18.12,104.68,23S910.5,522.5,916.5,525.5s11,14,11,14,4,64,3,73-2,14.8-2,14.8" />
        <path class="cls-8"
            d="M195.92,600.26s2.58,12.24,8.58,13.24,29,1,29,1a241.29,241.29,0,0,0-5-26c-3-11-6.58-18.26-13.79-21.63s-10.9-1.1-10.9-1.1" />
        <path class="cls-8" d="M372.5,561.5s-17,40-27,46-73,6-73,6,37-37,47-41S372.5,561.5,372.5,561.5Z" />
        <ellipse class="cls-8" cx="339.5" cy="590.5" rx="9" ry="11" />
        <ellipse class="cls-8" cx="213.5" cy="591.5" rx="9" ry="11" />
        <path class="cls-8"
            d="M195.92,636.4s-14.42,54.1,10.58,58.1,72,9,90,1,35-28,35-28-15,24-30,31-76.38,2.52-92.69,1.26S188.5,678.5,188.5,672.5s3-36,3-36Z" />
        <path class="cls-8"
            d="M209.87,647.89v33.45s58.63,1.16,64.63-1.84,8-10,8-18-5.89-12.21-13.95-13.61S209.87,647.89,209.87,647.89Z" />
        <path class="cls-8"
            d="M190.75,627.3l299.75-4.8v8.29s-122.89,1.52-125.95,5.61-15.05,20.1,21.95,38.1,58,28,74,17,18-33,20-41,65-12,81-12,22-2,22,2-2,5,7,5,309-26,313-26,5,13,5,13,12-1,15-1,3.19-.81,3.19-.81" />
        <line class="cls-8" x1="492.23" y1="451.81" x2="492.23" y2="640.4" />
        <line class="cls-8" x1="522.5" y1="447.5" x2="522.5" y2="640.8" />
        <line class="cls-8" x1="564.47" y1="457.9" x2="564.47" y2="638.48" />
        <line class="cls-8" x1="575.5" y1="453.5" x2="575.5" y2="632.57" />
        <polyline class="cls-8" points="575.5 625.43 930.65 609.47 930.65 606.79 575.5 619.5" />
        <polyline class="cls-8" points="575.5 582.79 930.21 590.57 930.1 588 575.5 576.02" />
        <line class="cls-8" x1="564.47" y1="576.02" x2="522.5" y2="574.87" />
        <line class="cls-8" x1="522.5" y1="583.3" x2="564.47" y2="583.3" />
        <path class="cls-8"
            d="M492.23,565.94s-39.26,7.56-59,21.56-39.06,32-39.06,32,22.33-59,47.33-93S492.23,476,492.23,476" />
        <rect class="cls-8" x="500.5" y="475.5" width="15" height="126" rx="7.5" />
        <rect class="cls-8" x="529.5" y="481.5" width="29" height="80" rx="12" />
        <polygon class="cls-8" points="521.5 655.5 521.5 666.53 569.5 662.5 569.5 651.72 521.5 655.5" />
        <polygon class="cls-8" points="617.5 498.5 662.5 506.5 662.5 564.66 617.5 562.5 617.5 498.5" />
        <polygon class="cls-8" points="689.5 511.5 715.5 515.5 715.5 569.25 689.5 567.47 689.5 511.5" />
        <polygon class="cls-8" points="729.66 517.41 756.5 523.5 756.5 571.55 729.66 569.25 729.66 517.41" />
        <polygon class="cls-8" points="768.5 525.5 787.5 528.5 788.5 573.5 768.5 572.57 768.5 525.5" />
        <polygon class="cls-8" points="797.5 530.5 816.5 533.5 817.75 576.02 798.5 574.5 797.5 530.5" />
        <polygon class="cls-8" points="828.5 535.5 845.5 538.5 845.5 577.17 828.5 577.17 828.5 535.5" />
        <polygon class="cls-8" points="857.06 542.02 871.62 544.48 871.62 579.21 857.06 579.21 857.06 542.02" />
        <polygon class="cls-8" points="880.5 545.5 893.5 547.5 893.5 581.25 880.5 581.25 880.5 545.5" />
        <polygon class="cls-8" points="902.5 550.5 912.5 551.5 912.5 581.25 902.5 581.25 902.5 550.5" />
        <path class="cls-8" d="M927.5,539.5s-362-111-419.5-99.66S410.26,543,410.26,543" />
        <path class="cls-8"
            d="M357.83,718.55s9.67,12,19.67,13,29.82-19.91,29.82-19.91l21.77-3.06s2.41,7,9.41,7,12.65-10.07,12.65-10.07l9.37-1.32s2,9.39,12,10.39,19.73-14.86,19.73-14.86" />
        <path class="cls-8" d="M500.5,698.48a12.12,12.12,0,0,0,10,3,11.84,11.84,0,0,0,8.37-5.61" />
        <path class="cls-8" d="M526,694.89a11.85,11.85,0,0,0,11.2,6.77c8.35-.16,14.3-10.36,14.3-10.36" />
        <path class="cls-8" d="M570.27,688.64a16,16,0,0,0,14.11,7.84c10.12,0,14.26-11.84,14.26-11.84" />
        <path class="cls-8" d="M619.56,681.69s.94,7.81,10.94,7.81,11.69-11,11.69-11" />
        <path class="cls-8" d="M757.52,662.16c1,4.34,5,4.34,7,4.34s5.47-6.1,5.47-6.1" />
        <path class="cls-8" d="M771.71,660.15s1.79,4.35,4.79,4.35,5.81-5.86,5.81-5.86" />
        <path class="cls-8" d="M859.15,647.67s-.65,4.83-3.65,4.83-5.32-3.54-5.32-3.54" />
        <path class="cls-8" d="M842.9,650s-1.4,4.5-4.4,4.5-4.53-3.22-4.53-3.22" />
        <polygon class="cls-8" points="137.5 769.5 944.5 641.5 218.5 773.5 137.5 769.5" />
    </g>
</svg>