<svg xmlns="http://www.w3.org/2000/svg" xmlns:xlink="http://www.w3.org/1999/xlink" version="1.1" x="0px" y="0px" style="enable-background:new 0 0 800 800;" xml:space="preserve" viewBox="451.82 333.11 130.06 202.59">
	<g id="objetcs">
		<g>
		</g>
		<g>
			<path style="fill:#6EAB81;" d="M566.542,433.689c-0.214-0.308-0.427-0.614-0.641-0.921c-2.888-4.15-7.836-5.186-12.066-3.949    c-3.133-2.416-6.552-4.537-10.133-6.359c-0.486-0.654-1.004-1.298-1.592-1.916c-1.145-1.208-2.442-2.175-3.839-2.949    c-0.663-0.889-1.388-1.756-2.191-2.59c-0.815-0.846-1.717-1.569-2.674-2.205c-0.975-1.48-2.327-2.662-4.077-3.215    c-9.55-3.016-18.154-1.215-25.447,4.793c-2.53-1.229-5.472-1.948-8.676-2.025c-3.482-0.082-6.9,0.438-10.067,1.506    c-2.868,0.391-5.541,1.334-7.922,2.707c-4.061,1.179-7.885,3.362-11.29,6.62c-5.322,5.094-5.579,11.766-2.468,17.079    c-2.779,15.838,0.349,33.122,6.134,47.554c2.879,7.182,6.731,13.994,11.526,19.824c1.496,3.178,3.566,6.018,6.308,8.307    c1.603,1.339,3.349,2.043,5.111,2.247c6.924,4.703,15.042,7.583,24.328,7.722c21.493,0.321,39.097-15.209,49.298-32.826    C576.634,475.011,578.143,451.54,566.542,433.689z"/>
			<path style="fill:#39B54A;" d="M552.245,384.665c-0.852-4.425-2.244-8.647-3.874-12.781c-2.328-8.622-6.445-16.757-10.668-24.578    c-0.447-0.83-0.985-1.497-1.581-2.029c-1.817-3.229-4.014-6.21-6.811-8.282c-3.611-2.675-8.745-0.198-8.49,4.43    c0.169,3.062,1.089,6.087,2.2,9.051c-0.318,1.335-0.279,2.781,0.267,4.268c1.673,4.549,3.7,8.957,5.699,13.372    c0.424,1.753,0.82,3.512,1.157,5.281c2.37,12.422,1.361,24.885-1.186,37.185c-0.968,4.672,2.393,8.169,6.289,9.21    c-0.134,1.629-0.232,3.252-0.269,4.866c-0.208,9.326,14.436,9.528,15.946,0.739C553.18,412.266,554.783,397.842,552.245,384.665z"/>
			<g>
				<g>
					<path style="fill:#3B0F06;" d="M472.756,491.126c-2.099,1.053-4.283,1.434-6.571,1.863c-1.42,0.267-2.92,0.799-4.409,1.044      c0.119,0.461,0.236,0.922,0.359,1.383c0.092,0.346-0.285,0.669-0.592,0.417c-0.6-0.492-1.127-1.064-1.595-1.694      c-0.189-0.012-0.379-0.02-0.567-0.051c-0.407-0.066-0.69-0.638-0.359-0.961c0.057-0.056,0.121-0.097,0.179-0.149      c-2.491-4.349-2.774-10.707-2.899-15.115c-0.179-6.332,0.74-13.461,4.912-18.479c0.365-0.44,1.084,0.007,0.85,0.529      c-4.769,10.624-3.449,21.243-0.842,31.913c1.21-0.418,2.546-0.563,3.828-0.767c2.552-0.405,5.079-0.691,7.657-0.462      C473.011,490.625,472.975,491.016,472.756,491.126z"/>
					<path style="fill:#3B0F06;" d="M533.146,394.946c-0.396,2.186-0.951,6.114-2.038,9.505c0.407,0.189,0.807,0.387,1.187,0.603      c0.409,0.232,0.386,0.931-0.16,0.964c-0.538,0.032-1.074,0.039-1.61,0.044c-0.762,1.89-1.73,3.459-2.998,4.202      c-0.156,0.092-0.331,0.011-0.362-0.168c-0.212-1.211-0.029-2.627,0.334-4.113c-3.815-0.217-7.622-0.745-11.504-0.422      c-6.48,0.541-11.559,3.368-16.354,7.549c-0.33,0.288-0.877-0.174-0.664-0.55c4.84-8.559,19.394-11.961,29.281-9.158      c0.743-2.235,1.629-4.461,2.012-6.258c1.451-6.804,1.999-13.809,1.941-20.755c-0.059-7.067-1.016-14.15-3.233-20.869      c-2.092-6.336-5.892-10.512-10.248-15.323c-0.671-0.741,0.379-1.802,1.189-1.436c11.717,5.297,14.371,23.249,14.877,34.427      C535.122,380.46,534.438,387.794,533.146,394.946z"/>
					<path style="fill:#3B0F06;" d="M581.48,465.984c-0.329-0.535-0.687-1.057-1.035-1.583c7.558-17.272-16.471-37.637-31.229-40.896      c3.116-3.737,4.602-9.696,5.177-13.859c1.16-8.407,0.469-16.976-1.168-25.277c-3.003-15.233-7.767-31.28-16.229-44.435      c0.313,0.069,0.628,0.13,0.946,0.172c0.844,0.112,1.24-0.884,0.658-1.445c-4.103-3.949-13.097-5.675-18.62-5.543      c-0.396,0.01-0.472,0.596-0.124,0.744c3.247,1.373,6.727,2.157,10.034,3.379c2.257,0.834,4.479,2.053,6.822,2.625      c5.125,14.2,10.885,28.284,13.717,43.189c1.534,8.076,2.731,16.626,1.584,24.835c-0.511,3.658-1.277,7.385-3.015,10.683      c-1.271,2.415-3.211,4.42-4.349,6.879c-0.24,0.518,0.303,1.145,0.851,0.916c1.097-0.459,2.069-1.153,2.933-2.012      c0.029,0.138,0.098,0.267,0.223,0.365c1.191,0.941,2.424,1.815,3.677,2.654c-2.239-0.131-4.459,0.425-6.694-0.073      c-2.92-0.651-5.468-1.896-7.787-3.808c-3.217-2.652-6.089-5.622-9.31-8.255c0.085-0.111,0.173-0.219,0.25-0.338      c0.304-0.476,0.058-1.164-0.586-1.108c-2.314,0.201-4.314,1.442-6.659,1.679c-1.908,0.192-3.802,0.247-5.719,0.196      c-2.465-0.064-5.681-0.579-7.829,0.901c-4.284-2.602-10.953-2.879-15.502-3.12c-5.755-0.306-11.884,0.429-17.374,2.22      c-9.802,3.198-19.809,10.558-21.023,21.379c-0.571-0.063-1.142-0.126-1.724-0.199c-0.56-0.07-0.778,0.678-0.28,0.932      c0.601,0.308,1.246,0.583,1.912,0.841c-0.009,0.271-0.041,0.535-0.038,0.811c0.006,0.638,0.986,0.777,1.211,0.201      c0.069-0.177,0.143-0.345,0.214-0.52c2.763,0.879,5.935,1.37,9.214,1.471c-5.932,10.903-2.635,27.159,6.516,35.595      c-0.13,0.174-0.267,0.345-0.392,0.52c-0.375,0.53,0.106,1.527,0.819,1.161c0.314-0.161,0.618-0.339,0.918-0.524      c0.403,0.319,0.811,0.633,1.231,0.928c-1.507,10-0.827,21.653,5.036,29.936c-0.098,0.063-0.192,0.123-0.291,0.186      c-0.244,0.155-0.132,0.523,0.13,0.573c0.259,0.05,0.517,0.079,0.775,0.099c0.006,0.009,0.012,0.018,0.018,0.026      c0.282,0.364,0.738,0.279,0.95-0.011c0.68-0.037,1.354-0.17,2.021-0.368c-0.304,3.605,0.161,7.191,0.915,10.742      c0.424,2.001,1.013,4.442,2.132,6.404c-0.321,0.506-0.601,1.039-0.803,1.612c-0.201,0.567,0.351,0.979,0.856,0.71      c0.391-0.207,0.76-0.444,1.121-0.692c0.239,0.255,0.488,0.497,0.764,0.707c0.246,0.188,0.661,0.017,0.612-0.323      c-0.059-0.416-0.137-0.828-0.228-1.239c1.279-1.029,2.477-2.176,3.885-3.045c1.634-1.009,3.621-1.362,5.223-2.346      c2.384,3.91,5.412,7.304,8.769,9.343c-0.004,0.146,0.084,0.305,0.239,0.342c0.183,0.044,0.371,0.075,0.557,0.111      c0.743,0.398,1.499,0.737,2.267,0.992c0.456,0.15,0.983-0.265,0.815-0.716c3.813-0.034,7.911-1.359,11.653-3.484      c0.083,1.037,0.334,2.08,0.524,3.077c0.286,1.491,0.42,3.301,1.305,4.563c0.238,0.34,0.844,0.328,1-0.095      c0.044-0.121,0.07-0.246,0.103-0.37c3.467,0.121,7.241-2.393,9.63-4.606c2.335-2.162,5.795-5.426,6.482-8.851      c6.244-2.084,11.722-7.945,15.522-14.637c0.234,0.341,0.469,0.682,0.692,1.026c1.086,1.684,2.068,3.55,3.771,4.678      c0.337,0.224,0.977,0.05,0.872-0.461c-0.055-0.264-0.124-0.52-0.206-0.771c7.313,0.541,13.222-5.475,16.22-11.909      c3.069-6.589,6.454-17.209,3.295-24.31c-0.329-0.739-1.52-0.744-1.64,0.154c-0.949,7.076-0.246,13.775-2.992,20.637      c-3.004,7.505-7.624,12.568-15.352,14.317c-0.621-1.238-1.51-2.348-2.374-3.448c-0.438-0.559-0.878-1.125-1.333-1.676      c2.314-4.503,3.865-9.25,4.382-13.388c0.153,0.143,0.297,0.297,0.452,0.438c0.997,0.899,2.189-0.464,1.619-1.492      c-0.271-0.489-0.574-0.97-0.896-1.443c5.341-3.52,8.893-13.801,9.504-19.324c0.492-4.442,0.162-9.024-1.343-13.118      c3.251,3.302,6.179,6.9,8.616,10.922C579.996,469.427,582.507,467.657,581.48,465.984z M560.854,487.481      c-2.319-2.816-5.303-5.338-7.906-7.577c-3.27-2.811-6.581-5.928-10.331-8.125c2.111-2.956,3.641-6.353,4.411-9.764      c1.61-7.125,1.508-17.473-2.431-24.63c6.55,4.207,13.177,8.509,19.173,13.437c3.161,7.21,6.185,13.63,3.93,21.911      c-1.038,3.811-2.613,7.381-4.584,10.8C562.307,484.935,561.426,486.133,560.854,487.481z M522.532,526.981      c5.083-3.245,9.305-7.953,10.885-12.871c0.212,0.878,0.418,1.765,0.61,2.671c0.424,1.994,0.645,4.537,1.773,6.346      c-1.167,1.68-2.243,3.491-3.621,4.843c-2.503,2.455-5.149,3.849-7.992,5.596c-0.055-1.045-0.369-2.111-0.626-3.096      C523.261,529.317,522.99,528.098,522.532,526.981z M492.507,502.185c-0.048-0.188-0.209-0.26-0.373-0.258      c1.538-1.382,3.236-2.914,4.792-4.561c1.086,9.171,5.066,18.3,11.01,24.297c-0.09,0.036-0.174,0.08-0.263,0.115      c-0.394,0.156-0.269,0.768,0.163,0.726c0.281-0.026,0.561-0.074,0.841-0.111c0.374,0.352,0.754,0.691,1.142,1.018      c0.435,0.365,1.232-0.114,0.956-0.674c-0.107-0.218-0.226-0.427-0.335-0.643c7.991-1.65,15.508-7.202,21.22-14.37      c0.399,1.296,0.77,2.588,1.119,3.892c-6.007,9.941-14.066,14.898-24.626,18.049c-3.202-3.647-7.108-6.553-9.668-10.877      C495.327,513.451,494.008,508.113,492.507,502.185z M483.797,508.162c2.728-1.224,5.239-3.437,7.193-5.206      c0.225-0.203,0.469-0.423,0.704-0.634c-0.659,5.095,1.108,11.754,4.308,17.531c-1.964-0.291-4.226,0.768-5.817,1.706      c-1.134,0.67-2.261,1.461-3.23,2.396c-0.638-1.957-1.377-3.904-1.724-5.936C484.672,514.747,484.353,511.435,483.797,508.162z       M474.798,475.618c1.428-1.189,2.775-2.507,4.191-3.66c1.33-1.084,2.695-2.166,4.204-2.995c1.012-0.555,2.057-0.922,2.942-1.558      c1.206,3.476,2.677,6.889,4.436,9.996c-0.215,0.077-0.427,0.148-0.644,0.228c-1.279,0.467-0.774,2.267,0.504,2.233      c0.519-0.013,1.044-0.057,1.571-0.114c0.287,0.44,0.561,0.898,0.861,1.319c0.313,0.44,0.96,0.07,0.813-0.423      c-0.11-0.368-0.238-0.729-0.354-1.094c2.248-0.389,4.548-1.144,6.811-2.15c-0.056,0.03-0.11,0.065-0.146,0.133      c-2.308,4.35-3.343,9.51-3.343,14.845c-2.158,2.117-4.001,4.778-5.978,6.797c-3.32,3.386-6.786,5.734-10.622,8.192      c-1.823-5.796-4.253-11.138-4.836-17.353c-0.363-3.873-0.481-7.772-0.458-11.666c0.152-0.16,0.205-0.393,0.019-0.63l-0.01-0.013      C474.768,477.01,474.782,476.315,474.798,475.618z M516.199,464.412c-0.079-0.01-0.163-0.002-0.243,0.043      c-4.067,2.272-7.67,5.272-11.724,7.57c-3.891,2.206-7.79,3.372-11.846,4.745c-2.388-6.683-5.435-13.076-6.699-20.188      c-0.971-5.462-1.108-10.451-0.257-15.444c7.344,2.231,16.477,0.485,23.646-1.7c3.884-1.185,8.398-2.647,12.47-4.721      C515.261,443.47,513.727,454.315,516.199,464.412z M465.192,440.595c6.738,0.112,13.856-1.423,18.799-4.732      c-0.048,0.186-0.102,0.372-0.143,0.559c-2.676,6.252-1.927,13.901-0.601,20.392c0.551,2.699,1.268,5.517,2.147,8.326      c-2.621,0.146-5.487,2.536-7.283,4.065c-1.938,1.65-3.991,3.461-5.73,5.432c-3.161-4.153-6.06-8.501-7.302-13.674      C463.395,453.939,464.33,447.588,465.192,440.595z M578.802,462.047c-9.06-12.333-23.29-21.951-37.229-28.681      c-0.23-0.226-0.448-0.464-0.692-0.674c-0.311-0.265-0.655-0.25-0.928-0.092c-1.831-0.856-3.655-1.675-5.455-2.431      c-0.261-0.109-0.522,0.267-0.272,0.437c1.785,1.215,3.61,2.414,5.454,3.609c2.589,8.915,6.533,16.235,4.548,26.003      c-2.149,10.578-8.533,15.327-17.744,19.811c-0.434,0.211-0.303,0.808,0.183,0.81c6.135,0.026,11.398-3.293,15.118-7.966      c2.771,3.339,6.422,6.004,9.56,8.967c2.805,2.649,5.334,5.612,8.051,8.342c-1.654,4.267-3.169,8.608-5.182,12.708      c-0.088-0.056-0.162-0.129-0.253-0.181c-0.26-0.15-0.538,0.166-0.448,0.416c0.076,0.212,0.184,0.408,0.275,0.613      c-0.897,1.747-1.886,3.45-3.041,5.071c-3.232,4.533-6.93,7.824-11.325,10.729c-0.164,0.001-0.327,0.042-0.465,0.137      c-0.308,0.213-0.595,0.458-0.874,0.714c-0.218,0.137-0.427,0.276-0.649,0.411c-0.129-0.408-0.263-0.825-0.378-1.268      c-0.571-2.184-1.043-4.392-1.635-6.57c-0.621-2.285-1.261-4.784-2.54-6.831c6.073-8.252,9.772-18.312,9.218-27.021      c-0.041-0.641-0.965-0.633-1.087-0.037c-3.659,17.785-14.46,34.174-31.222,41.771c-3.336-6.232-7.496-11.897-9.226-18.936      c-0.633-2.577-0.977-5.076-1.117-7.547c0.781-1.083,1.434-2.194,1.882-3.324c0.271-0.684-0.395-1.646-1.177-1.266      c-0.264,0.128-0.508,0.295-0.761,0.445c0.103-4.095,0.641-8.186,1.228-12.496c0.037-0.271-0.207-0.409-0.414-0.354      c6.344-2.836,12.392-7.68,16.158-12.296c1.612,6.133,4.701,11.962,9.102,16.843c0.381,0.423,1.243,0.114,0.964-0.502      c-3.707-8.195-9.19-15.999-9.205-25.358c-0.014-8.74,3.878-15.387,7.207-22.969c2.255-1.425,4.262-3.095,5.784-5.09      c0.411-0.539-0.105-1.333-0.771-1.093c-7.394,2.671-13.603,7.693-21.329,9.897c-7.534,2.148-14.939,1.984-22.503,3.319      c0.128-0.644,0.264-1.287,0.425-1.933c2.385-4.829,3.99-9.932,8.56-13.412c5.307-4.041,10.925-4.282,17.232-5.377      c0.079-0.014,0.114-0.132,0.027-0.165c-10.707-4.203-23.203,4.012-27.172,14.451c-9.723,3.452-18.42,4.436-28.505,3.567      c4.457-10.105,11.095-16.93,22.596-19.651c5.688-1.346,11.672-1.836,17.504-1.336c4.292,0.368,8.956,2.067,13.204,1.808      c0.105-0.007,0.157-0.091,0.159-0.179c2.797,0.49,6.066,0.268,8.697,0.285c2.993,0.021,7.172-0.046,9.549-2.207      c5.543,7.377,15.952,19.298,25.647,12.875c0.181-0.12,0.273-0.297,0.303-0.484c5.593,3.589,11.486,6.664,16.214,11.589      c3.212,3.346,6.31,7.268,7.752,11.746C578.957,455.278,578.967,458.578,578.802,462.047z"/>
				</g>
			</g>
		</g>
	</g>
</svg>