<svg xmlns="http://www.w3.org/2000/svg" xmlns:xlink="http://www.w3.org/1999/xlink" version="1.1" x="0px" y="0px" style="enable-background:new 0 0 800 800;" xml:space="preserve" viewBox="295.34 598.03 467.96 148.22">
	<g id="objetcs">
		<g>
			<path style="fill:#FAC380;" d="M534.394,659.477c-18.015-8.703-37.841-7.84-57.275-5.152c-14.362-2.83-28.96,0.152-43.263,4.495    c-12.172,1.034-24.277,2.962-36.111,5.841c-5.107,0.975-10.163,2.203-15.149,3.807c-15.06-1.21-30.163-2.06-44.716,1.08    c-0.225,0.039-0.446,0.086-0.665,0.145c-2.887,0.648-5.752,1.447-8.59,2.443c-5.039,1.769-2.283,9.172,2.751,7.73    c0.494-0.142,0.991-0.263,1.488-0.392c0.854,2.072,2.752,3.845,4.985,4.055c0.624,0.059,1.244,0.131,1.864,0.2    c5.788,2.37,12.145,3.296,18.549,3.438c2.461,0.606,4.913,1.248,7.361,1.917c2.236,2.702,5.999,4.309,10.71,3.283    c0.178-0.039,0.355-0.083,0.534-0.122c1.746,0.493,3.495,0.983,5.251,1.464c14.928,4.082,29.773,7.499,44.439,12.479    c13.6,4.617,28.633,3.942,42.738,5.992c15.64,2.273,32.227,4.156,47.765,0.448c13.109-3.129,31.308-14.639,30.908-29.656    C551.574,673.051,543.079,663.673,534.394,659.477z M400.06,686.609c0.043,0.167,0.085,0.334,0.136,0.496    c-0.578-0.125-1.155-0.254-1.733-0.38C398.996,686.692,399.527,686.65,400.06,686.609z"/>
			<path style="fill:#6EAB81;" d="M744.603,680.693c1.638-5.447,0.565-11.063-1.475-16.253c-1.117-5.938-2.939-11.615-6.091-17.365    c-0.638-6.255-2.186-12.473-4.042-18.276c-0.206-0.646-0.504-1.232-0.843-1.788c0.048-0.461,0.095-0.922,0.134-1.373    c0.222-2.56-0.376-4.719-1.473-6.421c-0.403-5.479-1.568-10.907-5.534-14.661c-9.145-8.656-20.643,2.65-26.851,9.035    c-0.798,0.82-1.588,1.646-2.384,2.466c-0.096,0.099-1.722,1.616-1.413,1.373c-2.378,2.089-4.799,4.14-7.252,6.138    c-2.654,2.162-5.358,4.081-8.221,5.705c-2.595,0.786-5.198,1.541-7.82,2.221c-8.575,2.223-17.312,3.718-25.894,5.933    c-9.251,2.389-18.42,5.089-27.552,7.896c-15.337,4.713-31.688,8.975-45.758,16.913c-6.071,3.426-10.106,9.03-11.674,15.161    c-4.165,6.199-5.302,14.565-3.551,21.67c1.793,7.27,7.302,12.475,13.997,15.068c2.458,1.764,5.171,3.108,7.998,3.88    c1.872,0.511,3.697,0.687,5.452,0.585c0.704,0.56,1.525,1.051,2.482,1.447c9.12,3.771,18.679,5.734,28.283,7.56    c10.726,3.882,21.466,7.532,33.135,8.268c0.101,0.007,0.199,0.007,0.299,0.012c10.995,5.277,24.825,5.319,36.589,4.868    c13.742-0.526,28.101-2.759,41.029-7.556c1.124-0.417,2.223-0.897,3.313-1.394c0.666-0.25,1.343-0.465,2.026-0.657    c0.126-0.019,0.296-0.046,0.523-0.084c3.454-0.499,7.212-1.287,9.43-4.32c4.524-6.188,3.304-14.797,0.729-21.535    c-0.012-0.03-0.024-0.06-0.036-0.091c-0.506-2.909-1.254-5.703-2.178-8.414c-0.306-2.593-0.819-5.2-1.387-7.786    c-0.058-0.266-0.124-0.528-0.184-0.794C741.424,686.911,743.583,684.087,744.603,680.693z"/>
			<g>
				<g>
					<path style="fill:#3B0F06;" d="M755.891,703.69c3.531-11.22-10.455-13.964-18.666-16.898c4.048-2.926,9.818-6.474,5.689-10.552      c3.697-0.099,7.43-0.665,11.222-1.957c0.096,0.348,0.176,0.708,0.288,1.039c0.165,0.488,0.967,0.415,1.012-0.111      c0.04-0.478,0.071-0.952,0.097-1.423c0.213-0.082,0.423-0.14,0.635-0.226c0.277-0.113,0.185-0.585-0.128-0.523      c-0.16,0.031-0.315,0.053-0.475,0.084c0.271-6.084-0.312-11.571,2.896-17.359c0.212-0.382-0.022-0.972-0.431-1.116      c-6.283-2.229-12.565-4.476-19.016-6.171c-0.03-0.046-0.063-0.096-0.093-0.142c-4.128-6.479-3.343-12.614-2.492-19.923      c0.394-3.386-1.129-5.435-3.473-6.88c2.565-0.071,5.137,0.061,7.719,0.462c0.102,0.016,0.182-0.024,0.246-0.084      c0.599,0.109,1.214,0.193,1.858,0.232c0.707,0.044,1.049-0.909,0.357-1.228c-6.853-3.154-10.777-6.142-15.017-12.361      c-2.545-3.732-5.383-6.702-9.215-8.783c0.189-0.221,0.386-0.435,0.573-0.658c0.462-0.549-0.321-1.426-0.876-0.933      c-0.351,0.313-0.714,0.606-1.067,0.916c-0.224-0.104-0.435-0.218-0.666-0.315c-0.102-0.043-0.205,0.107-0.106,0.172      c0.177,0.115,0.346,0.24,0.518,0.361c-13.022,11.361-27.297,20.721-43.246,27.48c-16.61,7.04-34.322,11.263-51.772,15.626      c-13.394,3.349-26.957,6.046-40.11,10.291c-11.243,3.629-22.312,8.733-29.063,18.784c-0.108,0.162,0.103,0.342,0.236,0.193      c8.984-9.968,23.597-14.464,36.079-18.065c13.861-3.999,28.133-6.673,42.125-10.186c25.643-6.44,52.424-14.181,73.393-30.422      c-0.018-0.01-0.035-0.019-0.045-0.042c-0.339-0.81-0.089-1.59,0.2-2.373c0.026-0.074,0.137-0.029,0.112,0.045      c-0.247,0.745-0.474,1.492-0.128,2.246c0.003,0.005-0.001,0.009,0,0.015c4.816-3.743,9.322-7.936,13.437-12.667      c6.845,5.686,10.42,16.053,18.126,20.176c-1.96-0.246-3.969-0.229-5.987-0.05c-0.234-0.098-0.473-0.192-0.715-0.285      c-0.31-0.119-0.499,0.178-0.404,0.413c-5.137,0.609-10.3,2.226-14.888,3.646c-11.91,3.688-23.262,8.968-35.174,12.648      c-15.773,4.873-33.04,6.196-49.292,8.861c-17.192,2.82-34.817,5.903-50.843,12.977c-0.626,0.275-0.269,1.177,0.378,0.981      c16.713-5.049,33.476-9.012,50.698-11.88c15.209-2.533,30.753-4.241,45.712-8.072c17.783-4.554,36.079-16.718,54.879-18.025      c6.077,5.333,1.155,16.808,3.813,23.962c2.843,7.649,11.709,13.866,7.488,21.71c-25.382-2.376-49.199-14.972-75.128-11.357      c-15.18,2.117-29.213,9.512-43.772,13.9c-15.879,4.785-32.692,4.547-48.502,9.475c-0.588,0.183-0.352,1.16,0.256,1.047      c14.597-2.737,29.804-3.344,44.149-7.261c16.242-4.435,31.458-12.163,48.091-15.169c25.501-4.61,49.367,9.548,74.572,9.945      c-0.283,0.46-0.602,0.925-0.98,1.396c-0.493,0.616,0.273,1.324,0.899,0.957c1.236-0.726,2.167-1.52,2.856-2.362      c0.028-0.001,0.056,0,0.083-0.001c0.146-0.004,0.184-0.188,0.108-0.281c4.063-5.459-1.844-12.93-5.503-18.489      c2.822,1.326,5.689,2.506,8.602,3.623c2.9,1.113,9.081,1.556,7.268,5.464c-2.012,4.334-2.488,10.372-1.395,15.229      c-8.944,1.541-17.173,1.578-26.208-0.538c-9.278-2.173-18.094-5.633-27.526-7.195c-17.273-2.861-37.511-0.005-52.552,9.226      c-0.559,0.344-0.052,1.187,0.529,0.977c19.656-7.071,37.468-11.377,58.385-6.935c12.011,2.551,23.545,7.367,35.418,7.321      c2.909,4.616-4.474,7.618-7.493,9.968c-0.629,0.489-0.561,1.489,0.19,1.826c7.143,3.199,21.002,4.428,19.346,15.07      C753.815,704.225,755.544,704.79,755.891,703.69z"/>
					<path style="fill:#3B0F06;" d="M756.488,704.536c-29.581,3.367-56.487-10.534-85.252-13.771      c-13.406-1.51-26.988-1.11-40.439-0.634c-14.498,0.513-28.998,0.291-43.483,0.73c-0.781,0.024-0.773,1.242-0.024,1.347      c13.578,1.894,27.736,0.656,41.379,0.146c14.901-0.557,29.787-0.855,44.632,0.821c28.241,3.189,54.143,17.134,83.2,11.461      C756.563,704.625,756.555,704.528,756.488,704.536z"/>
					<path style="fill:#3B0F06;" d="M763.006,743.219c-0.249,0.005-0.498,0.008-0.747,0.013c0.032-0.185-0.018-0.38-0.193-0.505      c-3.918-2.795-8.529-4.967-12.976-6.935c3.293-2.781,6.979-5.004,10.653-7.265c0.58-0.357,0.489-1.398-0.169-1.621      c-9.265-3.139-10.432-14.66-17.465-20.525c-0.247-0.205-0.637,0.142-0.418,0.392c4.941,5.648,6.738,13.209,11.809,18.748      c0.283,0.308,3.224,2.623,3.321,2.564c-3.571,2.123-7.037,4.378-10.107,7.188c-0.529,0.484-0.565,1.367,0.177,1.694      c4.372,1.931,8.512,4.897,13.089,6.304c-38.487,0.688-76.553,0.004-114.777-5.379c-19.352-2.726-38.341-7.739-56.884-13.831      c-14.029-4.609-32.128-8.437-40.899-20.418c0.571-0.324,1.139-0.648,1.715-0.972c1.357-0.764,0.075-3.127-1.299-2.398      c-0.648,0.344-1.287,0.701-1.93,1.056c-1.572-2.706-2.715-5.781-3.289-9.32c-0.23-1.413-2.245-1.172-2.193,0.246      c0.15,4.08,1.18,7.556,2.841,10.558c-6.583,3.773-12.993,7.865-19.935,10.955c-10.56,4.699-22.039,4.834-33.329,3.637      c-21.71-2.301-42.316-10.361-63.326-15.8c-21.86-5.658-44.463-7.643-66.69-11.319c-18.98-3.141-36.693-11.317-55.173-16.526      c1.983-0.306,4.003-0.78,6.479-1.512c5.69-1.681,11.405-3.271,17.153-4.741c13.725-3.511,27.763-5.695,41.953-5.415      c1.19,0.024,2.374,0.013,3.562,0.024c-1.557,1.155-2.663,2.797-2.721,4.781c-0.02,0.676,0.679,0.987,1.167,0.518      c1.294-1.249,2.006-2.903,3.388-4.128c0.53-0.471,1.155-0.847,1.823-1.146c22.28-0.016,44.193-2.121,66.202-6.178      c0.038-0.007,0.076-0.013,0.114-0.02c-6.116,3.212-12.838,10.886-10.944,18.076c0.161,0.614,0.944,0.345,1.076-0.119      c1.018-3.572,1.288-6.835,3.305-10.108c1.978-3.209,4.942-5.653,7.778-8.064c13.111-2.353,26.362-3.762,39.537-3.112      c-0.505,0.574-0.949,1.205-1.322,1.864c-0.988,1.743-2.228,4.977-0.833,6.771c0.274,0.354,0.961,0.488,1.237,0.038      c0.949-1.543,0.738-3.668,1.506-5.383c0.541-1.207,1.378-2.179,2.254-3.127c6.288,0.456,12.555,1.398,18.777,2.962      c2.965,0.745,5.898,1.344,8.831,1.863c-1.091,3.526-1.312,7.046-0.499,10.702c0.213,0.96,1.368,1.447,2.073,0.613      c1.132-1.34,2.71-2.065,4.069-3.102c1.318,2.328,2.543,4.695,3.743,7.091c0.393,0.784,1.56,0.551,1.505-0.368      c-0.208-3.498-2.15-6.484-3.937-9.4c-0.421-0.687-1.476-0.643-1.951-0.061c-1.027,1.259-2.445,1.999-3.715,2.944      c-0.628-2.741-0.61-5.4-0.325-8.246c5.263,0.899,10.53,1.544,15.975,2.24c4.713,0.602,9.379,1.591,13.655,3.717      c7.944,3.948,6.089,13.87,5.975,21.098c-0.001,0.077,0.127,0.078,0.135,0.003c0.908-8.228,2.529-16.974-5.56-21.995      c-7.227-4.487-17.468-4.377-25.632-5.281c-1.507-0.167-3-0.397-4.488-0.657c-0.035-0.384-0.607-0.571-0.754-0.151      c-0.001,0.003-0.002,0.005-0.003,0.008c-8.67-1.592-17.083-4.393-25.939-5.339c-0.216-0.023-0.431-0.033-0.646-0.054      c0.036-0.041,0.074-0.079,0.109-0.12c0.445-0.512-0.146-1.144-0.712-0.984c-0.681,0.193-1.305,0.508-1.882,0.895      c-9.091-0.631-18.245,0.13-27.269,1.218c-27.906,3.365-54.848,8.45-83.133,7.804c-12.975-0.297-25.382,0.352-38.165,2.845      c-13.564,2.643-27.235,8.989-41.022,8.689c-1.593-0.035-1.985,2.115-0.371,2.484c21.483,4.906,41.506,14.688,63.212,18.771      c23.954,4.506,48.192,6.246,71.805,12.656c21.635,5.873,42.765,13.592,65.316,15.118c18.71,1.266,32.753-6.849,48.051-15.581      c6.237,8.611,18.114,12.832,28.465,16.299c20.278,6.792,40.352,13.218,61.429,17.139c20.851,3.879,42.273,5.534,63.426,6.71      c21.505,1.194,43.654,1.783,64.991-1.547C763.417,743.704,763.353,743.212,763.006,743.219z"/>
					<path style="fill:#3B0F06;" d="M721.621,717.476c-24.403-4.425-49.587,2.71-73.763-2.285      c-25.273-5.222-50.445-10.974-75.429-17.47c-0.709-0.185-1.025,0.965-0.357,1.227c23.417,9.177,48.807,12.388,73.188,18.03      c11.52,2.666,22.414,1.976,34.132,1.407c14.115-0.685,28.102-0.471,42.218-0.372      C721.93,718.017,721.912,717.528,721.621,717.476z"/>
					<path style="fill:#3B0F06;" d="M466.317,657.062c0.494-0.311,0.268-1.125-0.289-1.191c-4.768-0.567-12.892,1.893-14.869,6.737      c-0.21,0.514,0.415,1.122,0.891,0.723c1.925-1.621,3.973-2.741,6.355-3.538C461.087,658.894,463.895,658.584,466.317,657.062z"/>
				</g>
			</g>
		</g>
	</g>
</svg>