<svg xmlns="http://www.w3.org/2000/svg" xmlns:xlink="http://www.w3.org/1999/xlink" version="1.1" x="0px" y="0px" style="enable-background:new 0 0 800 800;" xml:space="preserve" viewBox="42.84 221.49 124.9 295.64">
	<g id="objetcs">
		<g>
			<path style="fill:#8275AA;" d="M165.837,419.718c-0.781-4.454-1.748-8.974-2.958-13.45c-0.46-4.313-1.12-8.616-2.069-12.909    c-0.342-1.543-0.733-3.073-1.161-4.592c0.007-0.492-0.019-0.989-0.117-1.491c-2.604-13.345-2.596-27.103-5.337-40.466    c-3.185-15.526-8.081-32.812-22.504-41.515c-16.622-10.031-37.385,1.819-48.65,14.443c-15.079,16.898-22.503,41.213-26.272,63.091    c-3.1,17.996-3.277,37.359-1.921,55.533c1.494,20.015,7.379,40.307,20.911,55.569c6.192,6.983,13.413,14.384,22.195,17.994    c5.041,2.072,10.021,2.383,14.892,1.613c4.375,1.262,9.183,1.278,13.832,0.228c12.492-2.821,21.122-14.783,26.72-25.432    c2.12-4.031,3.975-8.425,5.403-12.981c2.398-2.012,3.712-5.186,3.726-8.582c0.004-1.05,0.023-2.101,0.039-3.151    c0.177-0.293,0.348-0.593,0.5-0.912C169.309,449.6,168.276,433.625,165.837,419.718z"/>
			<path style="fill:#6EAB81;" d="M139.008,283.236c-2.092-3.114-4.456-6.034-6.845-8.935c-0.094-0.176-0.191-0.35-0.285-0.525    c-0.879-1.654-1.724-3.33-2.546-5.017c0.62-9.42,0.077-19.316-3.575-27.662c0.03-2.65-0.073-5.306-0.39-7.972    c-0.589-4.957-5.451-6.17-8.669-4.288c-3.132-1.804-8.051-0.636-8.715,3.77c-1.167,7.743-2.171,15.5-4.26,23.065    c-0.996,3.608-2.498,7.119-4.476,10.307c-3.196,2.58-6.544,4.921-10.262,6.659c-7.269,3.44-3.261,15.245,4.24,11.916    c1.545-0.686,3.028-1.452,4.47-2.274c0.476,0.051,0.962,0.041,1.454-0.057c3.196-0.635,6.288-1.69,9.192-3.104    c0.943,0.022,1.906-0.13,2.818-0.448c0.838,2.941,2.16,5.781,4.164,8.472c0.717,0.963,1.628,1.661,2.631,2.121    c0.535,1.005,1.083,2.003,1.637,2.99c0.544,0.972,1.249,1.622,2.032,2.007c1.671,3.24,7.72,2.85,8.342-1.398    c0.07-0.475,0.126-0.953,0.184-1.429c0.089,0.158,0.178,0.317,0.268,0.475c0.92,1.632,1.835,3.269,2.734,4.914    c1.631,3.433,2.327,7.123,3.676,10.648c2.246,5.871,9.526,3.998,10.604-0.938c0.062,0.011,0.123,0.022,0.185,0.033    C148.557,298.068,143.582,290.045,139.008,283.236z"/>
			<g>
				<g>
					<path style="fill:#3B0F06;" d="M130.835,232.287c-9.191,17.336-1.605,32.87,6.912,48.542c5.132,9.446,9.212,19.085,9.267,30.006      c0.025,5.145-1.741-0.206-2.341-1.409c-0.23-0.462-0.492-0.915-0.751-1.366c-0.013-0.83-0.038-1.658-0.042-2.491      c-0.005-1.078-1.477-1.371-2.053-0.691c-0.623-0.841-1.266-1.664-1.934-2.445c-3.549-4.147-7.53-7.706-12.106-10.682      c-0.764-0.496-1.525,0.324-1.567,1.034c-0.156,2.627-0.72,5.175-1.264,7.729c-2.731-9.028-7.108-16.718-16.503-20.763      c-0.477-0.205-0.937-0.107-1.305,0.251c-2.833,2.757-6.612,4.615-9.328,7.496c-1.331-2.258-3.32-4.048-4.276-6.565      c-0.206-0.543-0.709-0.775-1.261-0.646c-5.34,1.254-11.152,1.845-15.95,4.64c9.323-8.613,20.078-15.508,27.336-26.14      c6.949-10.178,10.349-22.336,14.663-33.784c2.857,3.584,7.577,4.719,11.696,6.802c0.88,0.445,1.564-0.714,0.93-1.374      c-3.646-3.783-9.329-3.29-11.949-8.446c-0.367-0.722-1.623-0.64-1.912,0.107c-4.462,11.532-7.847,23.536-14.278,34.193      c-3.854,6.384-9.203,11.581-14.92,16.278c-4.678,3.842-9.81,7.448-13.38,12.409c-0.293,0.408-0.064,0.846,0.288,0.958      c-0.479,0.464,0.078,1.258,0.709,0.917c4.535-2.447,9.658-3.225,14.669-4.124c2.82-0.505,5.496,4.471,6.417,6.959      c0.255,0.688,1.262,1.034,1.769,0.374c1.944-2.526,4.915-4.214,7.459-6.084c0.879-0.647,1.853-2.169,3.088-1.634      c2.102,0.91,3.968,2.263,5.703,3.738c5.748,4.887,7.794,12.867,9.467,19.89c0.26,1.091,2.045,0.987,2.185-0.122      c0.478-3.782,1.504-7.446,1.943-11.224c5.134,3.517,9.758,7.992,13.179,13.218c-2.009,28.374,8.72,56.811,15.358,83.945      c6.36,25.994,8.416,51.706,0.869,77.631c-5.709,19.612-18.285,42.273-40.66,44.981c-12.769,1.544-25.503-4.585-35.744-11.609      c-10.013-6.868-17.839-16.346-23.55-26.99c-16.489-30.733-13.247-68.075-8.403-101.29c2.368-16.234,5.544-32.366,10.364-48.061      c4.431-14.422,10.799-30.586,22.925-40.296c0.501-0.401-0.012-1.24-0.549-0.853c-15.665,11.29-22.488,32.038-27.354,49.858      c-5.5,20.144-8.775,41.161-10.771,61.934c-2.196,22.862-1.307,46.607,6.458,68.411c7.813,21.935,24.087,39.499,45.74,48.262      c15.942,6.452,32.387,3.572,44.836-8.251c13.349-12.678,19.768-32.061,22.945-49.711c4.149-23.056,0.298-45.979-5.295-68.452      c-3.251-13.063-7.023-25.989-9.993-39.123c-2.68-11.852-4.104-23.653-4.537-35.687c0.304,0.645,0.597,1.295,0.863,1.957      c0.197,0.49,0.645,0.719,1.157,0.592c0.65-0.161,1.3-0.322,1.95-0.483c0.416-0.104,0.598-0.516,0.618-0.9      c0.72-13.774-4.718-25.495-10.989-37.396c-3.246-6.158-6.409-12.372-8.109-19.159c-2.083-8.319-0.173-16.248,3.316-23.869      C133.441,231.972,131.513,231.008,130.835,232.287z"/>
				</g>
			</g>
		</g>
	</g>
</svg>