<svg xmlns="http://www.w3.org/2000/svg" xmlns:xlink="http://www.w3.org/1999/xlink" version="1.1" x="0px" y="0px" style="enable-background:new 0 0 800 800;" xml:space="preserve" viewBox="61.86 50.3 126.6 149.87">
	<g id="objetcs">
		<g>
			<path style="fill:#F4D07C;" d="M177.276,91.494c-4.924-8.89-16.971-12.215-26.258-13.381c-8.887-1.116-17.932-0.69-26.724,0.953    c-0.862-0.271-1.724-0.543-2.587-0.808c-5.049-1.545-10.86-3.429-16.435-3.507c-0.07-1.851-0.621-3.672-1.625-5.106    c-1.741-2.487-4.186-3.681-6.774-3.83c-3.262-3.908-10.005-2.08-11.105,3.02c-1.02,0.41-1.936,1.018-2.701,1.864    c-6.07,1.952-8.415,11.692-1.25,14.223c1.095,0.386,2.066,0.856,2.946,1.392c0.023,2.513,0.115,4.82,0.084,6.593    c-0.03,1.739-0.023,3.447-0.004,5.127c-3.507,14.772-8.215,29.06-14.387,43.04c-2.277,5.16-0.031,9.481,3.608,11.603    c1.053,4.501,3.303,8.605,7.154,11.678c0.226,1.947,1.179,3.88,3.103,5.512c12.241,10.384,27.926,12.765,43.615,11.54    c1.435-0.112,2.897-0.277,4.368-0.471c4.685-0.438,9.333-1.585,13.533-2.958c0.202-0.066,0.378-0.159,0.568-0.238    c9.26-3.077,17.867-8.143,23.453-15.855c6.645-9.175,9.58-19.935,9.001-30.586C182.902,117.827,183.8,103.273,177.276,91.494z"/>
			<g>
				<g>
					<path style="fill:#3B0F06;" d="M186.257,122.843c4.794-15.525,2.333-33.842-12.864-42.456      c-12.57-7.125-28.849-5.256-42.689-5.321c-13.429-0.063-30.487-0.912-33.51-17.045c-0.42-2.245-0.478-4.548-0.46-6.824      c0.007-0.883-1.249-1.208-1.756-0.552c-3.106,4.02-6.732,7.684-9.401,12.017c-1.979-2.367-4.303-4.413-6.153-6.899      c-0.643-0.864-1.998-0.163-1.668,0.861c1.614,5.012,0.479,10.276,0.826,15.431c0.093,1.375-6.473,3.221-10.729,4.205      c-1.074-0.214-2.139-0.38-3.169-0.491c-0.792-0.086-1.014,0.929-0.372,1.235c-0.389,0.233-0.25,0.915,0.297,0.914      c0.814-0.002,1.619-0.072,2.418-0.184c6.351,1.727,12.575,4.27,14.542,11.24c1.861,6.592-1.158,14.3-3.455,20.375      c-5.652,14.948-14.327,29.297-16.061,45.451c-1.549,14.427,6.397,26.115,20.105,30.492c15.326,4.892,32.592,2.191,48.325,1.464      c7.654-0.354,15.553-0.517,23.073,1.165c5.179,1.159,8.551,3.654,11.315,7.315c-0.033,1.304,0.002,2.62,0.162,3.959      c0.168,1.418,2.377,1.238,2.208-0.181c-0.006-0.056-0.006-0.111-0.012-0.168c0.123,0.214,0.247,0.425,0.369,0.644      c0.352,0.63,1.232,0.165,1.22-0.44c-0.046-2.312-0.631-4.265-1.602-5.925c0.297-3.17,1.011-6.28,1.723-9.444      c2.28,1.038,4.718,1.62,7.018,2.596c0.69,0.589,1.465,0.951,2.346,0.946c1.295-0.007,1.363-1.749,0.401-2.277      c-0.51-0.28-1.035-0.52-1.564-0.744c-2.033-2.597-3.685-12.396-3.879-14.54c-0.513-5.663,0.632-11.371,2.134-16.802      C178.232,142.597,183.116,133.013,186.257,122.843z M171.256,175.213c0.429,1.789,1.165,5.065,2.41,7.748      c-1.719-0.552-3.438-1.104-5.043-1.986c-0.663-0.364-1.455,0.161-1.595,0.836c-0.62,2.984-1.311,5.899-1.746,8.836      c-5.74-5.67-17.165-6.57-24.313-6.645c-17.043-0.179-34.046,3.331-51.066,0.904c-7.778-1.109-15.43-3.955-20.603-10.102      c-5.279-6.273-6.021-14.543-4.86-22.352c2.441-16.424,11.927-30.898,17.141-46.456c2.055-6.132,3.781-13.247,1.283-19.506      c-2.03-5.085-6.996-8.019-12.202-9.542c3.033-0.849,6.016-2.045,9.061-2.693c0.437-0.093,0.852-0.419,0.784-0.924      c-0.614-4.555,0.248-9.121-0.221-13.627c1.573,1.7,3.225,3.326,4.61,5.2c0.456,0.618,1.313,0.488,1.668-0.15      c2.196-3.955,5.331-7.279,8.235-10.741c0.245,5.447,1.537,11.005,5.371,15.068c3.982,4.219,9.47,6.085,15.055,7.083      c14.716,2.63,29.886,0.069,44.662,2.539c7.344,1.228,14.466,4.098,19.384,9.876c6.536,7.68,7.495,18.295,5.672,27.827      C181.208,135.941,166.286,154.468,171.256,175.213z"/>
					<path style="fill:#3B0F06;" d="M143.096,174.47c-8.415-0.96-16.374-0.509-24.553-3.299c-7.866-2.684-14.638-7.768-19.34-14.606      c-6.098-8.868-6.56-19.168-4.954-29.462c1.354-8.674,2.624-17.377-3.428-24.613c-0.108-0.129-0.294,0.004-0.212,0.149      c6.267,11.2,1.504,22.301,1.025,34.186c-0.343,8.525,3.182,17.203,8.392,23.811c9.115,11.561,28.769,18.741,43.152,14.812      C143.665,175.314,143.59,174.527,143.096,174.47z"/>
					<path style="fill:#3B0F06;" d="M157.144,135.854c-1.951-8.373-5.481-15.896-11.1-22.437      c-5.513-6.418-12.402-10.47-20.206-13.439c-8.578-3.264-16.003-6.332-20.581-14.833c-0.306-0.568-1.226-0.069-0.997,0.514      c2.565,6.501,7.602,10.34,13.802,13.183c7.857,3.603,15.403,5.837,22.09,11.635c7.146,6.196,11.763,14.441,14.271,23.472      c2.384,8.579,1.367,17.393,3.104,25.983c0.122,0.605,0.988,0.722,1.121,0.052C160.159,152.371,158.889,143.344,157.144,135.854z      "/>
				</g>
			</g>
		</g>

	</g>
</svg>