<svg xmlns="http://www.w3.org/2000/svg" xmlns:xlink="http://www.w3.org/1999/xlink" version="1.1" x="0px" y="0px" style="enable-background:new 0 0 800 800;" xml:space="preserve" viewBox="422.92 547.52 115.81 81.83">
    <g id="objetcs">
              <g>
            <path style="fill:#6EAB81;" d="M512.229,582.335c-1.725-1.111-3.509-2.123-5.338-3.036c-8.566-7.316-20.325-11.316-31.082-9.102    c-8.857,1.822-15.5,8.77-13.787,18.306c0.757,4.217,2.441,8.09,4.751,11.566c1.577,5.482,4.896,10.612,8.579,14.628    c6.313,6.887,14.608,12.88,24.167,13.889c10.059,1.063,20.543-4.752,23.695-14.729c0.796-2.521,1.081-4.922,0.974-7.207    c0.229-0.775,0.435-1.564,0.586-2.383C526.473,595.086,519.374,586.938,512.229,582.335z"/>
            <path style="fill:#736357;" d="M520.065,609.888c-0.146-1.797-1.152-3.765-2.682-4.89c-1.082-1.08-2.469-1.854-3.991-2.088    c-1.713-0.264-2.669-0.066-4.331,0.382c-1.845,0.498-3.936,2.339-4.58,4.158c-0.563,1.241-0.792,2.542-0.688,3.901    c0.17,2.102,1.203,4.023,2.807,5.381c0.004,0.003,0.007,0.007,0.011,0.01c2.07,1.752,5.052,2.244,7.593,1.339    c1.409-0.503,2.57-1.379,3.445-2.49c0.3-0.287,0.598-0.576,0.896-0.864C519.731,613.578,520.192,611.466,520.065,609.888z"/>
            <path style="fill:#86DC95;" d="M458.16,579.69c2.739-9.747,1.957-23.252-5.958-29.769c-2.889-2.378-6.736,0.045-6.703,3.497    c0.049,4.944,2.396,9.532,3.297,14.349c0.714,3.812,1.313,7.667,1.749,11.53c-3.393,1.732-6.065,5.313-8.348,8.182    c-1.541,1.936-2.928,3.507-4.462,4.745c-0.571,0.032-1.168,0.132-1.788,0.32c-2.899,0.881-5.703,2.481-7.506,4.953    c-3.825,5.243-0.483,13.971,6.8,13.033c7.12-0.917,12.591-5.494,17.119-10.785c3.328-3.889,7.299-9.353,7.853-14.579    C460.456,582.867,459.615,580.917,458.16,579.69z"/>
            <g>
                <g>
                    <path style="fill:#3B0F06;" d="M482.697,563.696c-5.803,0.234-11.904,1.857-16.598,4.933      c-0.405-9.651-7.911-19.688-17.314-21.007c-0.245-0.162-0.632-0.134-0.822,0.142c-6.339,9.174,1.199,20.578,9.589,26.3      c-20.417-1.439-37.59,18.05-34.202,38.626c0.073,0.445,0.828,0.517,0.914,0.043c1.836-10.108,2.541-19.449,9.589-27.577      c6.475-7.466,15.831-9.538,25.221-10.127c0.223,0.132,0.445,0.261,0.667,0.384c-1.554,3.016-2.167,6.624-1.371,10.874      c0.061,0.327,0.284,0.498,0.535,0.541c-1.252,3.315-2.741,6.568-4.666,9.743c-6.385,10.527-15.598,15.215-27.716,13.384      c-0.394-0.06-0.434,0.509-0.114,0.643c17.565,7.329,31.694-10.922,36.921-28.09c2.485,32.645,53.871,69.962,72.727,28.502      C549.962,580.434,506.224,562.748,482.697,563.696z M450.393,564.148c-3.096-5.175-2.111-9.88-1.473-15.339      c5.189,2.083,9.092,4.933,12.016,9.857c2.241,3.774,2.67,7.687,2.797,11.74c-1.339,1.167-2.509,2.478-3.423,3.962      c-0.068-0.011-0.135-0.016-0.203-0.026C456.258,571.509,452.942,568.408,450.393,564.148z M512.741,627.386      c-20.976,2.941-40.708-19.727-47.155-37.286c-0.988-2.692-1.715-5.333-2.017-8.188c-0.003-0.028-0.022-0.044-0.037-0.062      c0.604-2.069,1.073-4.117,1.406-6.099c0.02-0.032,0.043-0.059,0.058-0.097c0.324-0.829,0.567-1.685,0.75-2.553      c5.742-5.35,14.811-6.824,23.905-6.197c15.16,1.046,32.141,7.641,41.588,19.994C542.674,601.852,530.458,624.9,512.741,627.386z      "/>
                    <path style="fill:#3B0F06;" d="M521.463,604.593c-1.531-1.781-3.948-2.417-6.213-2.326c-2.556,0.102-7.76,1.245-8.595,4.004      c-0.103,0.341,0.082,0.788,0.456,0.874c0.189,0.043,0.383,0.047,0.576,0.056c-0.73,0.747-1.401,1.578-1.995,2.518      c-1.641,2.599-1.865,6.227,0.863,8.2c4.696,3.395,11.745,3.434,15.148-1.613C523.977,612.934,524.185,607.76,521.463,604.593z       M520.47,613.528c-1.151,3.325-4.334,5.037-7.742,4.357c-3.989-0.796-7.734-2.531-5.302-7.047      c0.93-1.725,2.467-3.387,4.135-4.799c0.726-0.337,1.439-0.66,2.118-0.833c1.744-0.445,3.633-0.438,5.179,0.561      C521.362,607.386,521.328,611.047,520.47,613.528z"/>
                </g>
            </g>
        </g>
    </g>
</svg>