<svg xmlns="http://www.w3.org/2000/svg" xmlns:xlink="http://www.w3.org/1999/xlink" version="1.1" x="0px" y="0px" style="enable-background:new 0 0 800 800;" xml:space="preserve" viewBox="572.61 223.87 151.79 162.18">
	<g id="objetcs">
	<g>
		<path style="fill:#E77978;" d="M714.275,296.235c-2.217-4.872-5.074-9.916-7.861-14.723c-0.321-1.273-0.83-2.535-1.496-3.757    c-1.608-2.946-3.445-5.87-5.504-8.641c-3.474-6.629-7.876-12.834-15.079-15.763c-2.517-1.023-5.141-1.562-7.817-1.787    c-2.542-1.029-5.207-1.696-7.634-2.031c-10.815-1.495-22.935-0.089-34.097,3.065c-13.992-0.274-28.505,8.389-38.462,18.126    c-4.572,3.124-7.673,7.301-9.685,12.078c-4.935,8.201-7.717,17.631-7.36,27.267c0.278,7.528,3.192,14.631,7.921,20.133    c2.602,11.207,6.685,21.034,18.615,25.799c1.334,0.533,2.704,0.979,4.065,1.433c0.156,0.051,0.313,0.1,0.469,0.151    c2.871,4.378,7.606,5.549,12.46,4.918c3.62,5.093,11.06,8.248,17.5,9.855c8.319,5.161,19.235,6.986,29.19,7.397    c2.433,0.28,4.882,0.319,7.283,0.072c0.314-0.006,0.631-0.011,0.939-0.019l-0.02-0.09c0.76-0.103,1.515-0.228,2.26-0.391    c2.175-0.476,3.863-2.196,4.86-4.248c0.059-0.027,0.119-0.051,0.178-0.078c8.869-2.447,16.534-9.738,22.312-17.551    c1.208-1.002,2.185-2.274,2.763-3.818c0.046-0.122,0.086-0.246,0.132-0.368c0.438-0.677,0.865-1.353,1.273-2.024    C721.905,334.093,722.609,314.551,714.275,296.235z"/>
		<path style="fill:#FF4C47;" d="M619.492,360.179c-2.488-1.066-5.004-1.97-7.422-3.197c-1.743-2.03-3.632-3.896-5.815-5.337    c-3.111-2.054-6.732-2.675-9.983-0.398c-3.779,2.647-4.47,7.713-2.024,11.482c1.604,2.474,3.687,4.566,6.044,6.341    c0.493,0.513,0.995,1.016,1.495,1.511c2.101,2.719,4.224,5.545,7.206,7.475c3.593,2.324,8.09,2.543,11.063-1.048    c0.731-0.883,1.23-1.931,1.51-3.036C625.143,370.235,625.285,362.662,619.492,360.179z"/>
		<g>
			<g>
				<path style="fill:#3B0F06;" d="M718.688,304.906c-7.154-15.162-24.857-38.037-14.808-54.197c0.481-0.482,0.945-0.99,1.36-1.56      c0.13-0.178,0.168-0.363,0.146-0.532c1.177-1.455,2.587-2.852,4.311-4.167c1.035-0.789,0.208-2.545-1.067-2.068      c-4.63,1.732-7.477,4.773-9.06,8.509c-0.855,0.503-1.719,0.996-2.592,1.476c1.274-5.26,3.271-10.309,5.365-15.299      c0.525-1.252-1.233-2.49-2.082-1.308c-5.258,7.326-13.293,11.983-21.426,15.755c2.249-2.817,4.173-5.909,6.023-8.987      c1.154-1.921,2.555-4.043,3.176-6.295c1.501-3.386,2.36-7.35,2.454-11.872c0.014-0.647-0.964-0.635-1.088-0.05      c-2.06,9.685-5.085,18.692-15.487,21.554c-8.399,2.311-18.067,0.027-26.429-1.408c-18.616-3.195-35.774-4.955-52.031,6.631      c-15.113,10.771-22.142,30.135-22.782,48.099c-0.594,16.647,3.378,38.116,14.573,51.961c-0.129-0.013-0.254-0.03-0.383-0.042      c-0.875-0.078-1.419,1.208-0.487,1.559c0.968,0.365,2.013,0.714,3.1,1.031c1.12,1.184,2.295,2.303,3.542,3.333      c0.868,0.716,2.154-0.432,1.466-1.353c-0.246-0.33-0.478-0.657-0.721-0.987c2.7,0.453,5.49,0.578,8.072,0.112      c0.308,0.373,0.626,0.733,0.968,1.066c0.377,0.369,1.108-0.012,1.021-0.533c-0.055-0.326-0.137-0.65-0.206-0.974      c0.913-0.281,1.792-0.64,2.613-1.113c4.148-2.388,5.358,0.027,9.125,1.037c1.29,0.346,2.558,0.55,3.881,0.738      c1.757,0.249-4.174,5.207-4.155,5.193c-0.256,0.2-0.237,0.504-0.029,0.728c4.027,4.314,9.535,6.315,13.97,9.959      c-5.675,0.782-10.151,3.454-10.229,7.621c-0.039,0.024-0.081,0.042-0.119,0.066c-3.106-1.664-6.511-1.317-9.807,1.425      c0.083-1.507,0.261-3.001,0.683-4.476c0.195-0.683-0.545-1.487-1.239-1.36c-1.327,0.242-2.318,0.666-3.115,1.235      c0.317-2.051,0.223-4.211-0.092-6.234c-0.081-0.515-0.535-1.056-1.12-0.95c-3.125,0.567-6.275,0.357-9.404,0.77      c-0.254-3.852-1.044-9.184-3.173-12.124c-0.204-0.283-0.733-0.216-0.77,0.17c-0.419,4.305,1.881,8.813,2.039,13.167      c0.018,0.503,0.551,0.99,1.064,0.902c3.125-0.536,6.268-0.295,9.396-0.675c0.312,4.006-0.967,6.822-2.28,10.688      c-0.188,0.553,0.437,1.32,0.994,0.83c0.163-0.143,0.313-0.295,0.463-0.447c0.04,0.008,0.084,0.014,0.114-0.024      c0.115-0.148,0.221-0.306,0.33-0.46c0.499-0.581,0.92-1.206,1.263-1.871c0.697-1.005,1.507-1.881,2.727-2.331      c-0.459,2.089-0.443,4.275-0.463,6.421c-0.01,1.153,1.562,1.483,2.223,0.699c4.058-4.808,8.287-4.566,11.727-0.873      c0.497,0.805,1.126,1.643,1.907,2.514c1.043,1.163,2.874-0.032,2.022-1.415c-0.852-1.379-1.768-2.545-2.73-3.506      c-0.296-0.55-0.506-1.113-0.588-1.677c5.882,0.037,12.716,2.358,18.189,3.471c8.476,1.723,16.834,2.964,25.512,2.784      c20.351-0.423,40.376-9.941,51.714-27.107C726.749,342.251,726.618,321.713,718.688,304.906z M662.268,382.606      c-9.37,0.2-18.5-1.774-27.649-3.484c-3.691-0.69-9.453-2.51-13.693-1.468c0.309-1.103,1.269-2.193,3.274-3.204      c2.344-1.182,5.154-1.304,7.725-1.394c0.6-0.021,0.927-0.399,1.018-0.854c5.697,4.557,14.934,4.19,21.708,3.453      c10.792-1.173,22.337-4.392,31.997-9.373c0.591-0.305,0.313-1.138-0.348-0.977c-17.056,4.145-40.335,16.292-56.004,2.844      c-0.252-0.216-0.525,0.042-0.487,0.31c-2.517-1.942-5.313-3.414-8.204-4.932c-0.524-0.275-5.951-2.347-4.433-3.77      c1.65-1.547,3.248-3.141,4.837-4.75c0.405-0.41,0.084-1.172-0.458-1.245c-4.697-0.631-7.867-1.967-11.926-4.346      c-0.025-0.015-0.063-0.005-0.091-0.016c7.12-13.695,15.116-26.066,26.039-37.148c10.643-10.798,23.813-19.082,33.999-30.228      c0.463-0.507-0.244-1.167-0.778-0.844c-13.343,8.049-25.723,19.676-36.585,30.821c-10.352,10.621-19.716,23.215-23.675,37.666      c-1.848,1.351-3.652,2.157-5.445,2.586c-1.202-4.101-3.198-8.131-4.29-12.236c-1.79-6.736-2.485-13.749-2.642-20.699      c-0.317-14.124,2.927-29.524,11.605-40.948c0.228-0.301-0.188-0.633-0.447-0.369c-9.94,10.109-12.982,24.158-13.576,37.909      c-0.312,7.201,0.333,14.58,1.848,21.625c1.004,4.667,2.12,10.642,4.757,15.117c-2.836,0.156-5.691-0.38-8.705-0.887      c-5.865-8.268-10.604-16.543-13.443-26.601c-2.902-10.277-3.556-21.211-2.387-31.796c2.304-20.853,14.015-39.618,34.307-46.771      c17.384-6.128,36.203,1.87,53.829,2.702c7.268,0.343,13.278-1.369,17.742-4.822c-2.441,3.49-5.152,6.777-8.006,9.361      c-0.873,0.791-0.253,2.529,1.029,1.995c7.963-3.32,16.284-7.218,22.692-13.158c-1.463,3.865-2.721,7.801-3.514,11.869      c-0.168,0.858,0.81,1.876,1.688,1.428c0.969-0.494,1.941-0.979,2.896-1.485c-1.948,9.326,1.839,21.279,5.361,28.686      c4.848,10.192,11.371,19.491,15.423,30.072c4.177,10.908,3.015,24.167-0.956,34.907      C709.824,371.071,685.282,382.115,662.268,382.606z"/>
				<path style="fill:#3B0F06;" d="M700.138,275.529c-0.107-0.697-1.223-0.842-1.299-0.061c-0.88,8.993-2.15,17.543-5.907,25.857      c-3.911,8.655-10.327,16.009-17.256,22.384c-6.605,6.076-14.08,11.18-21.666,15.939c-7.33,4.6-15.533,8.428-22.298,13.839      c-0.173,0.138-0.038,0.421,0.181,0.349c8.237-2.725,16.172-7.664,23.558-12.132c8.223-4.974,16.284-10.511,23.31-17.096      C692.109,312.096,703.073,294.571,700.138,275.529z"/>
				<path style="fill:#3B0F06;" d="M708.644,297.228c-0.097-0.521-0.868-0.625-0.967-0.045c-1.266,7.441-0.21,15.221-1.021,22.744      c-0.944,8.762-5.054,17.285-11.744,23.048c-10.212,8.797-24.51,9.892-36.355,15.434c-0.56,0.262-0.274,1.023,0.316,0.891      c12.974-2.897,29.208-5.726,39.18-15.296C710.324,332.226,711.602,313.128,708.644,297.228z"/>
				<path style="fill:#3B0F06;" d="M677.391,260.472c-9.08-5.181-23.124-7.884-33.464-6.224c-0.675,0.108-0.571,1.003,0.085,1.033      c8.77,0.404,17.929,2.065,26.234,4.872c3.483,1.177,7.696,2.753,9.881,5.885c2.752,3.946-6.01,7.919-8.05,9.983      c-0.406,0.411,0.02,1.174,0.572,1.097c4.399-0.618,9.346-3.947,10.543-8.438C684.2,264.901,680.135,262.038,677.391,260.472z"/>
			</g>
		</g>
	</g>
		</g>
</svg>