<?xml version="1.0" encoding="utf-8"?>
<!-- Generator: Adobe Illustrator 27.5.0, SVG Export Plug-In . SVG Version: 6.00 Build 0)  -->
<svg version="1.1" xmlns="http://www.w3.org/2000/svg" xmlns:xlink="http://www.w3.org/1999/xlink" x="0px" y="0px"
	 viewBox="0 0 800 800" style="enable-background:new 0 0 800 800;" xml:space="preserve">
<g id="objetcs">	<g>
		<path style="fill:#FF4C47;" d="M461.698,276.91c-3.085-3.349-6.913-5.421-11.46-4.165c-0.607-0.239-1.224-0.43-1.845-0.59
			c0.37-1.93,0.447-3.932,0.181-5.941c-0.795-5.978-6.785-9.134-11.843-8.518c-7.143-4.105-17.483-1.397-25.791,3.797
			c-0.961,0.327-1.911,0.687-2.85,1.079c-0.444-0.165-0.895-0.311-1.354-0.417c-4.453-1.019-10.699,0.046-16.164,2.601
			c-1.146,0.228-2.28,0.544-3.39,0.947c-2.237,0.471-4.168,1.574-5.822,3.091c-3.435,2.528-6.049,6.017-6.998,10.148
			c-0.384,1.364-0.519,2.829-0.384,4.286c-0.034,0.144-0.067,0.287-0.099,0.43c-0.528,0.478-1.02,1.064-1.453,1.779
			c-0.097,0.16-0.185,0.323-0.28,0.483c-0.176,0.253-0.354,0.505-0.51,0.774c-0.358,0.615-0.698,1.238-1.021,1.867
			c-2.201,3.914-4.155,7.933-5.786,12.141c-2.613,6.74-1.902,15.457-1.182,22.489c1.429,13.939,6.178,31.541,17.542,41.005
			c0.712,0.796,1.452,1.567,2.222,2.305c3.578,3.431,7.821,4.879,12.025,4.731c4.23,8.191,9.994,15.607,17.852,18.028
			c1.296,3.676,5.208,6.597,9.447,6.692c8.662,0.196,13.787-6.481,16.92-13.948c0.988-0.745,1.814-1.705,2.387-2.868
			c3.37,0.736,7.135-0.074,10.221-3.306c5.199-5.446,9.023-11.887,11.682-18.823c4.151-9.057,6.955-18.804,8.604-28.399
			C475.523,311.292,474.184,290.463,461.698,276.91z"/>
		<path style="fill:#6EAB81;" d="M427.311,268.981c-0.08-0.11-0.161-0.221-0.241-0.331c-1.054-1.45-2.605-2.119-4.259-2.064
			c-1.954-0.29-4.015,0.016-6.051,0.284c-0.093-0.011-0.184-0.021-0.276-0.032c-0.628-0.868-1.343-1.59-2.132-2.167
			c0.863-5.995,1.557-13.093,0.177-18.659c-0.169-2.402-0.596-4.777-1.474-7.101c-0.936-2.474-3.405-2.587-4.957-1.323
			c-3.406-1.286-7.425,2.928-4.781,6.056c2.76,3.265,2.173,8.59,2.063,12.568c-0.065,2.369-0.282,4.71-0.465,7.048
			c-1.481,0.376-2.965,0.968-4.389,1.777c-3.588,2.038-3.067,7.2-0.386,9.63c6.508,5.899,18.579,6.388,25.879,1.643
			C428.394,274.768,428.956,271.242,427.311,268.981z"/>
		<g>
			<g>
				<path style="fill:#3B0F06;" d="M426.649,388.595c-3.238,2.518-6.919,5.255-11.211,3.828c-4.233-1.408-7.218-5.658-9.542-9.21
					c-6.259-9.566-9.872-20.997-13.097-31.875c-2.722-9.18-4.873-18.565-6.564-27.987c-1.328-7.401-2.002-14.956-0.951-22.434
					c1.214-8.644,5.588-13.453,11.846-18.959c0.334-0.294,0.09-0.856-0.368-0.713c-15.015,4.658-14.862,26.243-13.51,38.544
					c1.271,11.565,4.13,23.173,7.368,34.339c3.49,12.04,7.783,25.11,15.758,35.003c6.037,7.488,15.491,9.594,21.706,1.018
					C428.761,389.217,427.646,387.82,426.649,388.595z"/>
				<path style="fill:#3B0F06;" d="M452.64,306.911c-0.298-5.997-2.075-12.866-6.584-17.121
					c-5.034-4.751-12.009-8.498-18.122-11.627c-0.336-0.172-0.61,0.242-0.44,0.527c2.88,4.796,9.141,7.364,13.562,10.521
					c6.504,4.644,8.282,11.905,8.544,19.51c0.348,10.08-2.77,19.946-3.464,29.977c-0.677,9.765-1.174,19.541-2.526,29.244
					c-0.971,6.962-2.056,17.458-8.548,21.75c-0.874,0.578-0.3,1.857,0.659,1.827c7.318-0.23,9.203-12.122,10.271-17.504
					c2.2-11.091,2.613-22.519,3.345-33.775C450.063,329.072,453.196,318.145,452.64,306.911z"/>
				<path style="fill:#3B0F06;" d="M400.159,255.299c-13.334-3.774-30.397,4.1-28.387,19.348
					c-7.73,1.512-15.539,4.491-19.122,10.572c-5.671,9.627-1.564,21.376-0.143,31.603c2.047,14.737,3.696,29.488,10.688,42.88
					c4.875,9.339,14.353,16.199,24.271,19.41c1.555,0.503,2.512-1.484,1.066-2.319c-8.853-5.11-16.729-8.388-22.246-17.558
					c-6.917-11.498-8.671-25.841-10.372-38.885c-1.256-9.628-4.767-20.086-2.551-29.763c2.911-12.711,20.836-12.693,30.637-16.281
					c0.608-0.223,0.403-1.133-0.235-1.095c-2.879,0.176-6.266,0.471-9.755,1.036c1.118-5.586,2.091-10.615,7.364-14.135
					c5.523-3.687,12.47-2.875,18.722-3.453C400.917,256.585,400.882,255.503,400.159,255.299z"/>
				<path style="fill:#3B0F06;" d="M410.922,232.856c0.324-0.839,0.519-1.727,0.56-2.613c0.023-0.489-0.575-0.988-1.052-0.892
					c-3.502,0.706-6.607,2.895-7.052,6.673c-0.001,0.011,0.006,0.016,0.006,0.026c-0.427,0.167-0.825,0.383-1.162,0.719
					c-0.226,0.225-0.134,0.603,0.076,0.794c0.297,0.273,0.641,0.44,1.012,0.529c-0.583,4.26,0.001,8.79,0.279,12.987
					c0.415,6.252-0.345,12.331-0.398,18.549c-0.005,0.547,0.767,0.602,0.982,0.173c2.347-4.667,2.087-10.079,1.864-15.178
					c-0.238-5.432-0.496-11.098-1.14-16.563c1.326-0.289,2.697-1.115,3.53-1.768c0.602-0.472,1.117-1.046,1.555-1.677
					c0.97,3.822,1.946,7.546,2.25,11.549c0.406,5.337-0.991,10.207-1.436,15.434c-0.077,0.902,1.007,1.212,1.463,0.457
					C416.831,254.493,415.831,240.346,410.922,232.856z M406.9,234.766c-0.683,0.515-1.505,0.714-2.313,0.919
					c-0.014-0.097-0.025-0.196-0.04-0.293c1.212-1.778,2.556-3.12,4.559-3.758C408.67,232.851,408.049,233.9,406.9,234.766z"/>
				<path style="fill:#3B0F06;" d="M423.049,262.521c-0.791,0.43-0.346,1.561,0.383,1.727c2.52,0.571,5.683,0.449,5.297,3.887
					c-0.285,2.537-2.4,4.777-4.301,6.254c-3.381,2.627-8.39,2.683-12.458,2.657c-3.97-0.025-8.117-0.332-12.023-1.021
					c-1.754-0.31-5.933-1.197-4.809-4.096c0.89-2.298,3.621-3.959,5.328-5.654c0.39-0.387-0.124-1.077-0.611-0.872
					c-3.106,1.302-10.525,6.215-6.337,10.325c4.836,4.746,15.14,4.067,21.431,3.982c6.579-0.088,14.455-2.937,16.344-10.018
					C432.724,264.322,428.386,259.619,423.049,262.521z"/>
				<path style="fill:#3B0F06;" d="M472.461,278.365c-7.329-11.825-21.982-8.727-32.8-4.005c-0.483,0.211-0.374,1.042,0.205,0.952
					c5.785-0.906,11.263-2.848,17.183-2.974c7.649-0.163,12.34,5.554,15.083,11.951c3.928,9.162,4.538,19.805,4.233,29.645
					c-0.349,11.242-2.364,22.574-6.27,33.128c-2.005,5.42-4.768,10.531-8.216,15.165c-3.369,4.528-7.828,7.773-11.983,11.49
					c-0.569,0.509-0.161,1.484,0.636,1.232c10.806-3.426,17.6-15.616,21.708-25.372c4.929-11.7,6.888-24.595,7.389-37.206
					C480.083,300.924,478.6,288.271,472.461,278.365z"/>
				<path style="fill:#3B0F06;" d="M444.121,250.06c-7.542-1.722-17.699,1.251-23.841,5.665c-0.231,0.166-0.113,0.617,0.201,0.557
					c6.443-1.221,12.491-3.665,19.137-3.796c3.295-0.065,6.518,0.663,9.029,2.879c3.568,3.15,2.625,8.561,3.447,12.719
					c0.145,0.733,1.23,1.122,1.566,0.276C456.791,260.483,452.21,251.907,444.121,250.06z"/>
			</g>
		</g>
	</g>
	
</g>
</svg>
