<?xml version="1.0" encoding="utf-8"?>
<!-- Generator: Adobe Illustrator 27.5.0, SVG Export Plug-In . SVG Version: 6.00 Build 0)  -->
<svg version="1.1" xmlns="http://www.w3.org/2000/svg" xmlns:xlink="http://www.w3.org/1999/xlink" x="0px" y="0px"
	viewBox="0 0 800 800" style="enable-background:new 0 0 800 800;" xml:space="preserve">
	<g id="objetcs">
		<g>
			<path style="fill:#CFB169;" d="M728.731,446.849c-2.077-2.821-4.553-5.463-7.445-7.868c-15.973-13.28-37.265-16.179-56.448-7.801
			c-2.21,0.965-4.192,2.092-5.981,3.356c-2.711-0.044-5.544,1.067-7.95,3.772c-6.723,7.556-13.027,15.803-18.205,24.637
			c-5.239,6.395-9.302,13.725-12.726,21.301c-3.271,7.237-5.923,14.893-7.33,22.741c-1.199,3.454-2.058,7.067-2.868,10.584
			c-2.652,11.504-6.695,33.513,2.643,43.445c0.112,3.984,2.089,7.979,6.038,9.859c15.948,7.593,34.25,4.268,49.616-3.112
			c14.104-6.775,27.571-16.724,37.323-29.175c0.701-0.807,1.39-1.622,2.062-2.449c1.137-1.022,2.255-2.048,3.351-3.075
			c14.356-13.444,30.756-32.506,31.818-53.191c0.073-1.428-0.012-2.822-0.277-4.14C744.811,462.782,741.691,450.055,728.731,446.849
			z" />
			<g>
				<g>
					<path style="fill:#3B0F06;" d="M732.528,446.398c-2.846-3.509-6.604-5.949-10.643-7.875c-1.287-0.614-2.259,1.444-1.101,2.194
					c18.93,12.265,19.392,34.618,13.485,54.356c-6.316,21.111-19.796,36.637-36.299,50.652
					c-19.524,16.581-44.25,33.398-70.366,36.223c-10.26,1.109-24.234,0.412-31.969-7.405c-5.842-5.905-5.086-15.299-3.438-22.721
					c3.015-13.577,10.093-25.983,15.648-38.623c6.258-14.238,12.516-28.48,20.107-42.073c7.495-13.42,16.437-26.713,28.579-36.36
					c12.567-9.985,27.415-11.861,42.504-6.952c0.785,0.255,1.123-0.838,0.413-1.181c-36.226-17.496-63.548,22.634-77.896,50.027
					c-7.775,14.847-13.959,30.405-20.997,45.595c-6.365,13.738-16.245,31.599-11.164,47.221
					c5.813,17.875,32.26,17.402,46.909,14.345c24.753-5.166,47.49-21.244,66.308-37.461c15.49-13.35,27.524-28.261,34.191-47.789
					C742.518,481.823,744.362,460.991,732.528,446.398z" />
					<path style="fill:#3B0F06;"
						d="M625.444,551.913c-0.3-8.261-9.475-17.622-17.716-17.382c-0.241,0.007-0.282,0.363-0.03,0.381
					c3.499,0.249,7.179,4.003,9.382,6.343c3.091,3.284,4.634,7.424,7.18,11.049C624.584,552.765,625.465,552.482,625.444,551.913z" />
					<path style="fill:#3B0F06;" d="M648.729,545.898c-2.307-3.661-5.438-6.723-9.407-8.489c-0.251-0.111-0.508,0.259-0.305,0.45
					c3.188,2.994,6.079,6.059,8.232,9.902c1.994,3.561,2.349,7.976,4.551,11.308c0.393,0.594,1.203,0.116,1.295-0.428
					C653.798,554.498,650.859,549.281,648.729,545.898z" />
					<path style="fill:#3B0F06;"
						d="M707.029,502.863c-0.681-0.354-1.57,0.438-0.955,1.081c2.383,2.494,4.687,4.801,6.358,7.864
					c1.763,3.231,2.325,6.861,3.86,10.171c0.292,0.629,1.13,0.373,1.235-0.23C718.771,514.615,713.23,506.077,707.029,502.863z" />
				</g>
			</g>
		</g>
			</g>
</svg>