<?xml version="1.0" encoding="utf-8"?>
<!-- Generator: Adobe Illustrator 27.5.0, SVG Export Plug-In . SVG Version: 6.00 Build 0)  -->
<svg version="1.1" xmlns="http://www.w3.org/2000/svg" xmlns:xlink="http://www.w3.org/1999/xlink" x="0px" y="0px"
	viewBox="0 0 800 800" style="enable-background:new 0 0 800 800;" xml:space="preserve">
	<g id="objetcs">
	</g>
	<g>
		<path style="fill:#FAC380;" d="M410.815,473.469c-0.806-0.841-1.637-1.629-2.483-2.38c-4.683-7.899-11.065-14.878-18.134-20.521
			c-15.751-12.574-35.159-20.398-55.117-22.628c-7.659-0.856-15.342-1.014-23.032-0.981c-0.489-0.156-0.994-0.277-1.518-0.351
			c-12.978-1.832-26.019-2.924-38.852,0.139c-0.487-0.053-0.98-0.09-1.481-0.1c-30.281-0.622-53.471,16.841-67.08,40.879
			c-8.266,5.984-13.162,16.097-15.812,25.904c-1.527,5.648-2.153,11.629-1.815,17.543c-4.283,17.816-3.373,36.829,6.117,52.905
			c0.575,0.974,1.26,1.775,2.018,2.432c8.015,17.059,30.737,24.029,49.285,25.3c5.506,0.377,11.035,0.475,16.568,0.362
			c0.928,0.689,1.888,1.346,2.877,1.965c8.127,5.085,18.395,5.868,27.732,5.741c12.636-0.173,26.595-2.925,38.989-8.074
			c4.358-0.815,8.71-1.874,13.052-3.237c13.319-4.183,25.93-11.025,37.455-18.824c10.997-7.441,21.667-16.191,29.952-26.619
			c7.449-9.377,13.308-20.865,14.512-32.903C425.438,496.145,420.369,483.445,410.815,473.469z" />
		<path style="fill:#6EAB81;"
			d="M329.412,392.547c-2.002,1.114-3.91,2.336-5.728,3.647c-2.376-1.741-5.693-0.295-8.622,1.777
			c-0.668-0.036-1.38,0.083-2.131,0.445c-4.568,2.199-8.434,4.957-11.76,8.21c-1.029,0.236-1.998,0.869-2.751,2.012
			c-0.92,1.394-1.772,2.825-2.599,4.27c-2.232,3.136-4.162,6.58-5.852,10.325c-2.548,5.647,5.925,11.465,9.474,5.952
			c0.264-0.41,0.513-0.828,0.763-1.245c0.005,0.002,0.01,0.004,0.015,0.007c0.016-0.037,0.033-0.073,0.049-0.111
			c0.046-0.078,0.096-0.154,0.143-0.232c1.827,0.854,4.053,0.782,5.767-0.656c1.362,5.193,9.642,5.931,10.972-0.377
			c0.147-0.694,0.272-1.393,0.387-2.094c2.25-10.179,9.42-17.407,18.236-22.841C341.945,397.831,335.542,389.137,329.412,392.547z" />
		<g>
			<g>
				<path style="fill:#3B0F06;" d="M414.673,477.067c-4.638-14.29-13.009-32.944-28.334-38.438
					c-6.472-2.319-13.082-1.734-19.346,0.951c-0.355,0.152-0.571,0.418-0.676,0.714c-4.136-4.573-9.147-8.411-14.734-10.046
					c-7.564-2.213-16.759,2.611-23.672,6.394c-2.403-2.329-5.106-4.292-8.004-5.873c1.189-5.501,0.774-10.744,3.274-16.034
					c3.086-6.531,12.931-10.373,13.821-17.821c0.008-0.064,0.002-0.13-0.01-0.195c0.324-0.207,0.531-0.615,0.539-0.982
					c0.027-1.421-1.474-2.478-2.384-3.436c-0.723-0.761-1.455-1.518-2.213-2.244c0.234-0.349,0.456-0.715,0.647-1.118
					c0.361-0.757-0.493-1.68-1.251-1.16c-0.396,0.272-0.792,0.521-1.187,0.76c-0.621-0.253-1.335,0.179-1.409,0.787
					c-4.207,2.166-8.451,2.792-13.288,4.023c-5.125,1.304-9.827,4.665-13.507,8.357c-3.91,3.921-6.558,9.142-9.323,13.87
					c-3.055,5.226-5.917,10.631-8.184,16.257c-11.827,7.347-17.83,22.498-21.6,35.283c-5.403,18.324-7.033,37.892-7.473,56.916
					c-0.472,20.408,1.394,42.115,10.775,60.57c2.198,4.324,4.961,8.023,8.154,11.093c-6.811,4.855-14.296,7.335-23.625,5.115
					c-3.704-0.881-6.908-2.616-9.701-4.905c0.034-0.029,0.07-0.058,0.104-0.088c0.655-0.591-0.106-1.769-0.915-1.464
					c-0.225,0.084-0.448,0.171-0.672,0.257c-5.953-5.583-9.889-13.716-12.762-21.056c-7.752-19.8-9.211-42.129-8.169-63.201
					c1.403-28.351,9.548-78.352,47.523-76.025c3.595,0.22,7.195,0.846,10.689,1.706c1.353,0.333,1.748-1.639,0.477-2.066
					c-14.453-4.866-29.015-2.552-39.824,8.174c-0.046-0.005-0.081-0.023-0.132-0.022c-41.966,0.606-50.495,49.352-50.996,82.384
					c-0.237,15.605,2.413,31.747,7.338,46.534c4.156,12.477,11.499,27.352,25.424,30.779c6.411,1.577,13.626-0.131,19.151-3.793
					c1.057,0.923,2.166,1.785,3.338,2.569c10.031,6.712,26.578,6.121,35.839-2.225c9.742,7.559,22.623,10.038,35.765,7.122
					c4.372-0.97,9.086-2.87,13.068-5.65c7.19,2.758,15.451,3.608,22.944,2.279c8.715-1.543,15.391-7.875,20.495-14.707
					c15.529-20.788,16.412-48.6,16.494-73.509c0.07-21.55-2.93-44.971-13.818-63.921c-1.575-2.741-3.495-5.549-5.694-8.181
					c0.008-0.003,0.016-0.003,0.024-0.006c18.55-6.982,31.323,7.525,38.809,22.881c7.427,15.235,10.757,32.292,11.326,49.132
					c0.573,16.938-2.58,34.755-9.565,50.218c-3.398,7.52-8.098,14.669-14.636,19.813c-7.346,5.777-15.231,6.221-24.151,6.741
					c-1.475,0.086-1.631,2.111-0.249,2.512c15.8,4.578,30.593-7.582,38.326-20.098c8.934-14.459,12.421-32.401,13.424-49.148
					C421.882,508.04,419.551,492.099,414.673,477.067z M218.585,598.011c-6.951-2.261-11.808-8.826-15.271-14.888
					c-8.289-14.506-11.409-32.375-12.651-48.832c-1.301-17.241,0.581-35.574,5.314-52.178c2.665-9.346,6.986-18.287,13.734-25.366
					c7.148-7.499,16.825-10.925,26.798-12.597c-10.423,11.776-14.91,28.399-17.571,43.506c-2.966,16.841-3.563,34.178-2.049,51.196
					c1.08,12.126,3.388,24.223,7.612,35.66c2.815,7.621,6.755,15.499,12.521,21.437
					C231.029,598.259,225.209,600.166,218.585,598.011z M305.859,402.602c4.622-4.52,10.589-6.491,16.795-7.557
					c3.095-0.532,6.313-1.248,8.64-3.179c0.581,0.728,1.182,1.439,1.776,2.158c0.771,0.934,1.494,2.099,2.575,2.593
					c-2.797,2.461-4.778,5.929-7.517,8.556c-3.055,2.931-5.627,5.821-7.356,9.728c-2.082,4.7-2.257,10.322-1.705,15.42
					c-9.115-4.674-20.081-5.517-30.178-1.277C293.972,419.866,298.39,409.907,305.859,402.602z M372.817,455.039
					c9.157,17.737,11.226,39.291,11.206,58.956c-0.023,22.894-0.945,48.234-13.699,68.08c-4.654,7.243-10.734,13.861-19.219,16.326
					c-6.958,2.021-13.901,0.321-20.796-1.056c2.704-2.529,4.788-5.583,5.744-9.148c0.166-0.62-0.669-1.04-1.089-0.573
					c-3.088,3.438-6.147,6.419-9.512,8.859c-0.108-0.016-0.217-0.034-0.325-0.05c-0.809-0.112-1.431,0.581-1.427,1.247
					c-3.716,2.406-7.844,4.181-12.807,5.197c-10.269,2.103-22.009,0.154-30.52-6.096c-0.084-0.062-0.161-0.131-0.244-0.193
					c1.487-1.696,2.714-3.641,3.582-5.85c0.352-0.896-0.663-1.689-1.396-0.983c-1.647,1.591-3.312,3.08-5.013,4.43
					c-7.572-7.238-11.551-18.009-14.162-27.849c-2.92-11.008-4.182-22.644-4.28-34.019c-0.164-18.9,1.278-37.996,5.352-56.476
					c3.229-14.647,8.619-31.16,20.483-41.03c0.27,0.168,0.707,0.141,0.906-0.174c0.218-0.344,0.428-0.695,0.642-1.044
					c1.695-1.268,3.508-2.41,5.462-3.396c0.183-0.093,0.267-0.245,0.288-0.409c7.857-1.997,15.509-2.569,23.421,0.846
					c4.069,1.757,7.299,4.346,10.141,7.339c-0.556,0.52,0.04,1.527,0.826,1.336c0.106-0.026,0.212-0.06,0.318-0.088
					c3.368,3.802,6.24,8.129,9.425,12.213c0.337,0.433,1.142,0.169,0.937-0.423c-1.681-4.852-4.281-9.11-7.516-12.676
					c6.992-2.525,13.895-7.123,21.429-5.45C360.759,435.06,368.525,446.725,372.817,455.039z" />
				<path style="fill:#3B0F06;" d="M353.228,514.394c0.234-17.476-2.438-38.576-12.714-53.267c-0.337-0.483-1.197-0.158-0.979,0.441
					c2.825,7.789,5.937,15.248,7.816,23.359c2.122,9.156,2.964,18.57,3.007,27.954c0.044,9.424-1.037,18.831-2.822,28.074
					c-1.641,8.494-5.116,16.636-6.567,25.119c-0.131,0.768,0.817,1.074,1.227,0.456c4.728-7.138,6.548-16.654,8.234-24.907
					C352.259,532.67,353.106,523.525,353.228,514.394z" />
			</g>
		</g>
	</g>
</svg>