<?xml version="1.0" encoding="utf-8"?>
<!-- Generator: Adobe Illustrator 27.5.0, SVG Export Plug-In . SVG Version: 6.00 Build 0)  -->
<svg version="1.1" xmlns="http://www.w3.org/2000/svg" xmlns:xlink="http://www.w3.org/1999/xlink" x="0px" y="0px"
	 viewBox="0 0 800 800" style="enable-background:new 0 0 800 800;" xml:space="preserve">
<g id="objetcs">

	<g>
		<path style="fill:#8BD95F;" d="M286.333,165.48c0.251-4.06-0.092-8.055-1.165-11.783c-0.58-2.017-1.618-3.537-2.927-4.606
			c-0.09-0.315-0.191-0.626-0.29-0.938c-1.729-6.173-3.609-12.217-6.222-18.008c-0.204-2.554-1.385-4.603-3.104-6.067
			c-0.21-0.366-0.4-0.737-0.619-1.101c-5.536-9.206-14.495-15.002-24.612-17.85c-3.401-2.98-9.63-2.058-11.395,2.444
			c-0.246,0.627-0.455,1.271-0.65,1.921c-1.114,1.974-1.673,4.309-1.527,6.61c-1.849,2.977-3.216,6.212-4.152,9.583
			c-3.622,6.733-2.847,16.119,0.173,23.954c-3.906,11.419-1.838,21.6,7.013,30.228c2.984,2.91,6.556,5.197,9.797,7.801
			c0.709,0.569,1.389,1.17,2.065,1.775c0.326,0.298,0.64,0.609,0.955,0.919c0.077,0.091,0.165,0.195,0.271,0.32
			c0.21,0.252,1.108,1.699,1.381,2.031c0.352,1.02,0.871,2.62,0.597,1.223c0.897,4.573,3.507,8.353,8.401,9.216
			c3.788,0.667,7.733-0.948,9.989-3.995c1.233-1.124,2.422-2.349,3.557-3.666c3.329-0.396,6.477-2.227,7.987-5.631
			C285.424,181.821,287.029,173.806,286.333,165.48z"/>
		<path style="fill:#8BD95F;" d="M380.473,191.092c1.061-2.403,1.869-4.708,2.356-6.773c1.493-6.33-4.474-11.982-10.546-11.573
			c-0.5,0.034-0.997,0.093-1.49,0.175c-1.532-2.175-4.105-3.728-6.531-4.285c-3.89-0.893-7.75-0.476-11.365,0.889
			c-3.362-0.461-6.6,0.058-9.663,1.19c3.955-3.207,6.994-7.871,9.473-11.915c5.502-8.977,6.024-18.968,3.803-29.01
			c-0.408-1.845-1.01-3.64-1.772-5.353c0.18-1.393,0.3-2.79,0.335-4.193c0.104-4.242-4.351-9.289-8.653-9.493
			c-1.579-0.075-3.119-0.01-4.625,0.163c-6.977-2.406-16.196,0.433-21.392,4.942c-3.171,2.752-5.62,6.076-7.417,9.732
			c-4.332,2.537-8.011,6.682-10.554,10.445c-3.101,4.588-5.576,9.539-7.434,14.724c-0.397,0.83-0.756,1.674-1.064,2.533
			c-0.65,1.814-1.092,3.771-1.329,5.788c-0.098,0.434-0.208,0.863-0.298,1.299c-2.087,10.164-0.984,22.372,8.954,27.958
			c10.162,5.712,20.495-2.058,27.015-9.444c0.38-0.431,0.734-0.89,1.105-1.33c0.521-0.144,1.042-0.299,1.563-0.487
			c1.909-0.689,3.664-1.661,5.289-2.826c0.143-0.034,0.283-0.06,0.427-0.095c-2.879,1.937-5.524,4.253-7.87,6.552
			c-5.89,5.772-11.071,14.505-10.184,23.033c0.967,9.29,9.167,17.353,18.812,15.757c2.609-0.432,5.073-1.313,7.402-2.499
			c0.896,0.332,1.792,0.575,2.689,0.739c5.45,5.775,14.639,6.563,22.138,2.591c8.67-4.592,15.017-13.441,15.11-23.313
			C384.783,194.126,382.884,192.043,380.473,191.092z"/>
		<path style="fill:#D886B6;" d="M294.251,271.381c-3.544-5.813-9.427-9.155-15.808-10.523c-4.174-5.225-9.305-9.755-15.283-12.279
			c-3.93-1.659-8.785-2.484-13.059-1.39c-0.427-0.093-0.857-0.182-1.297-0.259c-18.465-3.227-31.397,12.347-36.101,28.309
			c-0.024,0.084-0.043,0.17-0.067,0.254c-10.637,11.489-9.803,30.215-0.317,42.953c0.23,3.827,1.917,7.158,4.346,10.052
			c1.316,4.17,3.469,8.114,6.371,11.741c1.251,7.171,9.225,12.621,16.896,7.401c0.894-0.608,1.805-1.177,2.738-1.725
			c0.17-0.098,0.344-0.189,0.515-0.285c-0.043,0.039,1.456-0.745,1.732-0.878c3.135-1.507,6.354-2.842,9.559-4.19
			c7.117-2.993,14.134-6.071,20.965-9.682c11.889-6.284,23.239-17.303,21.934-31.632c0.399-1.273,0.749-2.582,1.036-3.933
			C300.153,287.096,298.598,278.51,294.251,271.381z"/>
		<g>
			<g>
				<path style="fill:#3B0F06;" d="M341.261,98.434c-8.692,2.186-13.846,11.349-18.237,18.362
					c-4.791,7.652-10.674,17.64-21.221,14.751c-0.788-0.216-1.581,0.298-1.64,1.131c-0.22,3.097,0.289,6.109,0.312,9.206
					c0.031,4.158-3.116,4.82-5.997,6.349c-2.719,1.443-5.018,4.043-4.686,7.241c0.435,4.192,2.864,8.356,4.185,12.31
					c2.118,6.335,1.167,13.649,1.898,20.237c0.117,1.057,1.685,0.833,1.778-0.136c0.625-6.441,0.272-12.985-0.829-19.362
					c-0.705-4.084-3.02-7.977-4.2-11.939c-1.71-5.741,5.381-6.393,8.438-9.287c3.155-2.985,1.728-8.822,1.593-12.981
					c12.147,2.284,18.631-9.915,24.303-18.926c3.518-5.59,7.604-11.928,14.133-14.241c9.166-3.247,20.285,3.207,23.163,12.068
					c1.762,5.423,0.79,11.598-2.148,16.382c-2.388,3.888-5.991,6.863-8.389,10.76c-1.83,2.975-2.525,6.771-1.641,10.155
					c0.397,1.518,1.373,2.829,2.263,4.089c0.621,0.879,1.253,1.721,1.759,2.676c1.609,3.037-2.734,5-4.831,5.332
					c-4.189,0.663-8.374-0.248-12.359,1.578c-3.877,1.777-6.281,6.015-8.173,9.592c-2.572,4.864-5.307,8.463-10.639,10.483
					c-5.282,2.002-10.74,3.133-16.109,4.829c-13.106,4.14-22.065,17.695-28.069,29.313c-2.926,5.661-5.184,11.851-7.342,17.839
					c-1.403,3.892-2.949,8.188-2.932,12.424c-2.01-1.151-4.042-2.169-6.075-3.021c5.665-5.879,7.833-15.199,8.644-22.955
					c0.398-3.802,0.51-8.622-0.152-13.259c0.537,0.184,1.247-0.147,1.35-0.843c1.592-10.707,11.381-16.41,17.494-24.46
					c4.67-6.149,2.436-9.542-0.533-15.723c-2.256-4.698-2.784-9.675-2.043-14.771c0.443-3.049,1.107-5.92,0.643-9.01
					c-0.552-3.675-3.367-6.682-5.931-9.121c-3.242-3.083-8.558-3.095-9.971-7.507c1.698-5.777,5.223-11.378,4.8-17.404
					c-0.279-3.978-2.248-4.284-5.339-5.786c-8.332-4.048-16.66-8.23-25.281-11.638c-3.752-1.483-7.952,2.163-9.763,5.251
					c-2.939,5.011-0.078,11.328-2.246,16.583c-2.188,5.303-5.393,10.17-7.362,15.567c-1.968,5.394,0.855,12.567,3.739,17.539
					c-0.303,3.058-0.435,6.105-1.069,9.167c-0.587,2.83-1.182,5.729-0.889,8.634c0.25,2.486,0.494,5.78,2.697,7.399
					c2.508,1.844,5.575,2.699,8.36,4.025c5.994,2.854-2.664,9.349,2.657,13.323c6.867,5.129,15.952,5.63,23.289,10.04
					c0.02,0.012,0.038,0.014,0.058,0.023c0.736,2.223,1.57,4.423,2.108,6.714c1.063,4.517,1.219,9.19,1.028,13.807
					c-0.337,8.188-2.824,15.268-6.827,22.061c-14.713-3.122-30.308-0.295-41.989,9.495c-10.614,8.896-15.253,22.879-14.867,36.409
					c0.216,7.554,2.154,14.92,5.034,21.873c3.456,8.345,9.112,15.52,12.985,23.652c2.986,6.27,0.713,11.27-2.37,17.013
					c-4.322,8.052-8.905,15.533-10.38,24.417c-0.819,2.448-0.987,5.192-0.211,8.374c0.113,0.464,0.899,0.447,0.868-0.066
					c-0.407-6.654,2.27-11.294,7.156-15.573c4.393-3.847,9.021-8.101,14.629-9.858c3.085-0.967,5.785-2.702,6.906-5.849
					c0.596-1.672,0.42-3.693,0.406-5.426c-0.024-2.897,0.372-3.781,2.65-5.61c4.581-3.679,10.949-4.39,16.533-5.367
					c5.268-0.922,10.337-2.33,15.31-4.295c8.052-3.181,15.352-8.283,20.382-15.384c14.656-20.688,0.961-47.656-18.202-62.852
					c7.503-5.881,12.006-14.542,18.15-21.758c8.25-9.688,19.462-13.441,31.773-14.806c11.966-1.328,24.09-0.237,36.095-0.313
					c6.694-0.042,14.049-0.122,18.34-6.034c5.661-7.799,1.91-18.588,9.485-25.178c4.211-3.663,8.947-11.027,1.293-14.219
					c-7.873-3.283-16.509,0.428-24.518-1.491c-7.877-1.888-15.045-5.343-22.543-0.549c-6.888,4.404-11.131,12.295-14.737,19.355
					c-4.645,9.095-8.869,17.874-16.114,25.265c-1.068,1.089,0.432,2.727,1.606,1.743c9.135-7.654,13.229-19.162,18.604-29.439
					c2.817-5.386,6.226-10.407,10.957-14.285c4.554-3.734,9.45-3.239,14.748-1.781c3.643,1.002,7.202,2.169,11.002,2.258
					c4.688,0.11,9.361-0.505,14.056-0.351c5.893,0.194,12.313,3.705,6.528,9.785c-3.015,3.169-5.665,4.925-7.407,9.081
					c-1.806,4.307-1.247,9.514-2.66,14.03c-1.344,4.295-3.811,7.424-8.212,8.701c-4.544,1.318-9.66,0.925-14.332,0.865
					c-6.079-0.078-12.155-0.351-18.235-0.407c-10.824-0.099-21.749,0.614-31.92,4.59c-10.309,4.03-16.771,12.646-22.874,21.433
					c-3.078,4.432-6.136,9.042-10.169,12.662c-1.925-1.467-3.902-2.807-5.904-4.017c0.918-8.739,5.921-17.56,9.193-25.433
					c4.865-11.702,13.933-25.65,25.689-31.189c8.772-4.132,20.017-3.561,27.022-11.097c2.711-2.916,4.124-6.829,6.187-10.18
					c3.75-6.093,9.037-5.939,15.415-6.305c3.615-0.208,6.134-1.476,7.931-4.702c1.527-2.741-0.587-5.446-2.153-7.568
					c-7.148-9.689,6.585-17.165,9.804-25.222c3.229-8.08,1.723-17.646-4.555-23.789C356.423,99.033,348.025,96.732,341.261,98.434z
					 M262.89,196.883c-0.438-0.458-1.284-0.069-1.128,0.581c0.07,0.294,0.151,0.586,0.232,0.878
					c-4.381-4.265-11.018-5.112-16.579-7.382c-2.229-0.91-5.755-2.464-4.915-5.271c0.419-1.399,1.037-2.725,1.439-4.134
					c0.516-1.808,0.26-3.494-0.989-4.86c-1.496-1.637-4.016-2.467-6.009-3.302c-1.483-0.621-2.945-1.23-4.331-2.056
					c-1.916-1.142-2.004-4.962-2.062-6.839c-0.2-6.518,3.336-12.627,1.184-19.151c-0.26-0.788-1.142-0.888-1.572-0.368
					c-1.867-4.875-2.965-10.537-0.78-15.09c2.135-4.449,4.574-8.756,6.619-13.247c1.859-4.081,1.359-8.227,1.489-12.586
					c0.112-3.761,1.98-6.018,5.309-7.636c0.91-0.442,1.632,0.06,2.778,0.539c7.536,3.151,14.955,6.617,22.42,9.933
					c1.282,0.569,2.563,1.14,3.844,1.712c1.767,0.789,0.853,0.21,1.449,2.188c1.938,6.429-4.576,12.704-4.261,19.222
					c0.028,0.579,0.713,0.937,1.147,0.732c0.593,1.091,1.564,1.951,2.998,2.66c4.674,2.309,8.409,4.424,10.942,9.275
					c1.756,3.363,0.622,7.341,0.023,10.839c-0.709,4.143-0.393,8.044,0.74,12.08c0.955,3.4,2.869,6.314,4.313,9.493
					c2.087,4.592-3.948,9.784-6.807,12.519c-4.765,4.558-12.41,10.746-13.071,17.983
					C266.445,202.213,265.045,199.131,262.89,196.883z M290.62,279.889c6.961,14.449,5.922,31.116-6.422,42.206
					c-7.763,6.974-18.265,10.405-28.334,12.24c-5.864,1.068-19.34,2.68-20.905,10.173c-0.916,4.386,1.168,8.791-3.695,11.529
					c-2.032,1.144-4.557,1.517-6.682,2.528c-2.072,0.986-3.809,2.973-5.577,4.395c-3.147,2.53-6.264,5.042-8.569,7.911
					c0.88-2.438,1.892-4.83,3.137-7.153c2.119-3.95,4.492-7.77,6.642-11.706c2.166-3.967,4.208-8.056,3.83-12.684
					c-0.476-5.833-4.838-11.575-7.708-16.41c-4.635-7.806-8.475-15.515-10.348-24.465c-2.944-14.064-0.158-29.36,9.631-40.199
					c9.796-10.846,24.075-13.504,38.019-13.502c0.042,0.047,0.087,0.092,0.152,0.129c1.075,0.607,2.14,1.226,3.199,1.851
					c0.002,0.39,0.453,0.68,0.838,0.503C271.426,255.366,283.543,265.201,290.62,279.889z"/>
				<path style="fill:#3B0F06;" d="M211.729,305.474c-0.244,0.074-0.172,0.42,0.081,0.387c11.165-1.469,21.235-3.33,31.559,2.53
					c0.389,0.221,0.699-0.302,0.365-0.574C234.727,300.499,222.092,302.356,211.729,305.474z"/>
				<path style="fill:#3B0F06;" d="M216.878,295.763c-0.261,0.019-0.295,0.424-0.022,0.416c6.307-0.18,12.458,0.445,18.558,2.096
					c6.742,1.824,12.364,5.665,18.546,8.703c0.296,0.146,0.697-0.226,0.405-0.484C244.219,297.552,229.978,294.81,216.878,295.763z"
					/>
				<path style="fill:#3B0F06;" d="M212.906,289.688c-0.1,0.095,0.014,0.256,0.137,0.196c9.847-4.79,20.411-2.69,29.844,1.63
					c0.487,0.223,0.832-0.473,0.525-0.822C237.249,283.671,219.637,283.303,212.906,289.688z"/>
			</g>
		</g>
	</g>

</g>
</svg>
