<svg xmlns="http://www.w3.org/2000/svg" xmlns:xlink="http://www.w3.org/1999/xlink" version="1.1" x="0px" y="0px" style="enable-background:new 0 0 800 800;" xml:space="preserve" viewBox="419.86 33.84 169.18 212.16">
	<g id="objetcs">
		<g>
			<path style="fill:#FF4C47;" d="M588.296,150.183c-0.635-9.075-9.642-11.731-16.054-8.915c-5.01-5.8-11.819-9.777-20.219-10.523    c-5.083-4.003-11.935-5.061-18.786-2.881c-1.824,0.581-3.522,1.422-5.081,2.467c-10.805,5.52-18.764,16.833-24.067,28.403    c-6.003,6.997-10.785,15.012-13.457,23.244c-4.701,8.778-7.766,18.368-7.9,28.267c-0.118,8.685,4.104,16.979,10.595,22.574    c2.262,1.949,4.766,3.467,7.417,4.668c6.039,5.814,14.513,8.663,23.818,8.511c12.819-0.209,26.171-6.452,36.54-13.587    c2.694-1.868,4.129-4.247,4.608-6.722c4.979-4.734,9.102-10.353,12.196-16.833c1.184-2.478,2.093-4.996,2.784-7.541    c3.105-5.867,5.443-12.065,6.853-18.774C589.761,172,589.041,160.843,588.296,150.183z"/>
			<path style="fill:#FF4C47;" d="M526.602,56.69c-3.521-2.938-7.582-5.626-11.951-7.955c-3.922-3.984-8.506-7.252-13.677-9.611    c-12.793-5.836-32.448-6.849-40.033,5.66c-4.362,1.337-8.508,3.51-12.207,6.649c-16.356,13.878-20.478,37.907-15.721,57.998    c1.25,5.28,3.294,10.151,5.976,14.468c1.285,3.268,2.85,6.423,4.725,9.411c3.059,4.871,7.366,9.051,12.36,12.028    c18.146,13.336,46.41,3.803,62.889-10.659c11.181-9.812,20.253-22.286,23.203-37.113C545.29,81.873,538.649,66.745,526.602,56.69z    "/>
			<path style="fill:#8BD95F;" d="M535.636,196.614c-2.707-3.835-9.125-4.336-13.139-6.526c-0.154-0.084-0.306-0.178-0.458-0.269    c0.104-1.073,0.189-2.148,0.256-3.225c3.677-3.052,6.924-6.702,9.462-9.542c4.653-5.206-4.123-12.479-8.346-6.901    c-0.033,0.044-0.068,0.087-0.102,0.131c-0.227,0.218-0.458,0.432-0.684,0.652c-0.071-3.309-0.223-6.613-0.475-9.872    c-0.05,0.011-0.101,0.021-0.15,0.032c-1.091-7.017-12.367-8.526-12.902-0.637c-0.315,4.642-0.329,9.204-0.367,13.736    c-0.593,2.005-1.298,4.005-1.864,6.012c-3.202,1.275-6.176,3.335-8.842,5.46c-1.399,1.116-2.823,2.198-4.369,3.106    c-0.726,0.426-1.251,0.609-1.832,1.272c-1.993,0.798-2.558,3.211-1.457,4.961c2.407,3.829,6.967,2.248,10.148-0.081    c1.376-1.007,2.655-2.124,3.9-3.278c0.394,0.218,0.812,0.408,1.274,0.532c0.646,0.174,1.292,0.291,1.936,0.357    c-0.287,1.883-0.633,3.771-1.103,5.67c-1.843,7.446,9.567,10.744,12.605,3.938c0.152-0.342,0.281-0.69,0.419-1.037    c5.07,3.088,11.936,5.514,15.88,0.756C536.653,200.384,536.746,198.187,535.636,196.614z"/>
			<path style="fill:#8BD95F;" d="M498.356,108.729c-0.891-2.405-2.029-4.896-3.38-7.392c-3.72-7.738-8.953-16.686-16.182-19.778    c-2.917-2.356-6.026-4.347-9.259-5.822c1.688-2.904,3.248-5.845,5.473-8.012c0.483-0.315,0.989-0.618,1.523-0.912    c0.673-0.362,1.184-0.795,1.561-1.269c0.974-0.468,2.046-0.826,3.274-1.011c2.532-0.38,4.099-3.152,2.535-5.398    c-3.7-5.314-10.268-4.702-14.773-0.748c-0.951,0.834-1.784,1.754-2.564,2.711c-1.541,1.255-2.876,2.66-4.023,4.21    c-0.103,0.126-0.195,0.263-0.298,0.39c-0.115-0.108-0.232-0.216-0.346-0.324c-1.975-1.864-3.471-4.388-4.98-6.619    c-3.263-4.821-5.344-9.782-9.612-13.828c-1.893-1.793-5.286-0.408-5.641,2.076c-1.039,7.282,2.744,13.44,6.99,19.126    c0.185,0.248,0.377,0.494,0.57,0.739c-9.273,2.619-18.625,9.752-20.145,18.278c-1.222,1.123-2.345,2.32-3.321,3.619    c-2.064,2.741,0.527,7.278,4.061,5.801c0.814-0.341,1.636-0.707,2.461-1.085c1.305,0.314,2.763-0.038,3.909-1.312    c0.323-0.359,0.627-0.729,0.932-1.098c4.367-2.346,8.675-5.138,12.488-8.215c0.132,1.601,0.275,3.207,0.425,4.825    c0.313,3.39,0.364,6.793,0.109,10.188c-0.295,3.921-1.845,7.542-1.492,11.493c-0.881,3.358-1.964,6.661-3.664,9.626    c-2.86,4.99,5.115,9.928,8.501,5.341c6.848-9.275,10.421-20.796,10.48-32.318c4.81,3.857,10.287,6.574,16.105,6.535    c3.112,4.322,5.697,8.998,7.739,13.933C490.528,119.138,500.869,115.514,498.356,108.729z"/>
			<g>
				<g>
					<path style="fill:#3B0F06;" d="M461.352,40.047c-1.184,0.888,0.144,2.606,1.389,2.059c11.397-5.01,21.78-6.31,33.398-1.132      c10.864,4.843,19.553,14.175,26.281,23.741c6.604,9.389,12.734,21.625,12.814,33.3c0.075,11.182-7.749,22.631-13.954,31.378      c-7.653,10.788-18.455,20.019-30.393,25.702c-0.471,0.224-0.942,0.426-1.413,0.626c-0.363-0.303-0.933-0.379-1.436-0.031      c-0.48,0.334-0.94,0.697-1.386,1.08c-8.126,2.632-16.313,1.901-24.781-0.36c-17.355-4.635-40.624-16.763-40.728-37.374      c-0.001-0.329-0.496-0.477-0.595-0.123c-4.857,17.377,16.973,30.683,29.934,36.446c8.324,3.701,17.654,6.267,26.816,6.19      c1.926-0.016,3.829-0.231,5.704-0.597c-3.723,5.495-5.609,12.838-6.477,18.8c-1.354,9.311,0.218,19.326,5.282,27.289      c0.111,0.174,0.45,0.103,0.375-0.128c-2.691-8.271-4.206-16.628-3.334-25.338c0.427-4.26,1.666-8.373,3.271-12.322      c1.485-3.656,3.863-6.555,5.997-9.699c6.665-2.313,12.875-6.334,18.338-10.456c10.658-8.039,18.501-18.293,25.022-29.811      c4.882-8.622,8.124-17.398,6.543-27.392c-3.379-21.351-20.117-43.541-39.105-53.439      C487.075,32.283,472.325,31.813,461.352,40.047z"/>
					<path style="fill:#3B0F06;" d="M473.42,53.962c-5.17,2.928-8.417,10.325-4.69,15.581c0.117,0.166,0.34,0.004,0.322-0.16      c-0.602-5.628,0.317-10.027,5.557-13.043c5.214-3.003,9.365-0.728,13.933,2.021c0.63,0.379,1.24-0.246,1.006-0.885      C487.184,51.038,478.461,51.107,473.42,53.962z"/>
					<path style="fill:#3B0F06;" d="M472.414,73.551c-0.02,0.175,0.225,0.315,0.353,0.175c2.162-2.354,3.689-5.209,5.919-7.543      c3.223-3.375,6.46-3.765,10.776-4.47c0.539-0.088,0.736-0.9,0.237-1.183C482.669,56.542,473.132,67.09,472.414,73.551z"/>
					<path style="fill:#3B0F06;" d="M472.447,79.151c-0.637-0.11-0.726,0.803-0.215,1.035c8.029,3.642,13.752,7.021,17.049,15.534      c2.478,6.397,2.479,14.049,5.968,19.989c0.237,0.405,1.037,0.375,1.008-0.199c-0.373-7.406-2.845-16.292-5.919-23.064      C487.09,85.29,480.088,80.473,472.447,79.151z"/>
					<path style="fill:#3B0F06;" d="M466.873,88.777c-0.059-0.253-0.105-0.508-0.172-0.759c-0.147-0.553-0.985-0.545-1.028,0.062      c-0.014,0.197-0.029,0.386-0.044,0.581c-0.847-0.05-1.699-0.051-2.555,0.016c-0.667,0.052-0.575,0.961-0.082,1.18      c0.833,0.37,1.655,0.72,2.468,1.062c-0.579,7.211-1.51,13.778-4.588,20.658c-3.591,8.026-10.145,13.696-14.437,21.126      c-0.276,0.478,0.222,1.249,0.782,0.889c6.614-4.24,11.849-12.583,15.173-19.528c3.227-6.742,5.776-14.727,4.974-22.351      c5.421,2.248,10.388,4.323,15.052,8.763c5.252,4.999,8.556,11.343,11.148,18.016c0.125,0.322,0.595,0.124,0.55-0.188      C492.328,105.993,480.361,90.443,466.873,88.777z"/>
					<path style="fill:#3B0F06;" d="M450.126,89.148c-1.966,6.417-1.365,13.817-1.78,20.467c-0.495,7.941-1.667,15.428-3.417,23.18      c-0.057,0.249,0.27,0.46,0.426,0.212c3.561-5.665,4.294-13.074,5.012-19.582c0.853-7.738,1.941-16.435,0.991-24.19      C451.279,88.599,450.308,88.557,450.126,89.148z"/>
					<path style="fill:#3B0F06;" d="M433.505,37.485c0.429,1.218,0.995,2.374,1.661,3.481c0.022,0.072,0.022,0.141,0.061,0.215      c4.863,9.371,8.887,21.748,16.801,29.56c-13.463,0.368-23.665,14.82-27.272,26.406c-0.04,0.129,0.131,0.274,0.235,0.158      c0.24-0.267,0.459-0.549,0.69-0.823c-0.064,0.398,0.201,0.843,0.657,0.864c3.951,0.186,8.077-2.144,11.584-3.764      c4.103-1.895,8.676-4.137,11.71-7.572c0.407-0.462-0.009-1.083-0.591-0.876c-3.889,1.384-7.454,3.766-11.197,5.516      c-3.69,1.725-8.405,2.637-11.615,5.179c3.616-4.493,6.206-9.737,10.206-13.958c4.686-4.945,11.155-6.067,16.485-9.842      c0.099-0.069,0.157-0.163,0.197-0.262c2.225,1.985,4.74,3.622,7.65,4.751c0.115,0.044,0.192-0.122,0.095-0.189      c-10.318-7.137-15.014-17.816-20.024-28.607c2.268,2.136,4.719,4.087,6.966,5.944c6.808,5.625,13.968,10.984,20.365,17.006      c0.249,0.235,0.712-0.017,0.525-0.354c-3.686-6.666-9.258-11.23-15.17-15.887c-6.929-5.46-12.895-11.349-19.079-17.579      C433.965,36.365,433.294,36.886,433.505,37.485z"/>
					<path style="fill:#3B0F06;" d="M499.915,186.251c2.701-2.898,6.132-3.72,9.679-5.05c0.817-0.306,0.415-1.434-0.303-1.537      c-13.427-1.932-15.356,17.068-24.581,22.128c-0.183,0.101-0.135,0.385,0.08,0.403c0.478,0.042,0.933,0.011,1.373-0.063      c-0.472,0.296-0.936,0.605-1.41,0.894c-0.282,0.171-0.079,0.566,0.226,0.453c11.319-4.207,21.275-12.652,30.647-20.066      c0.216-0.17-0.027-0.519-0.266-0.395c-8.673,4.515-16.486,10.618-24.617,16.125c1.192-1.391,2.184-3.017,3.044-4.354      C495.689,191.83,497.506,188.836,499.915,186.251z"/>
					<path style="fill:#3B0F06;" d="M517.081,154.595c0.006-0.035,0.014-0.069,0.018-0.104c0.103-0.685-0.719-0.895-1.172-0.582      c-6.768,4.689-5.92,18.989-4.086,25.956c0.037,0.137,0.272,0.19,0.309,0.021c0.8-3.791,0.594-7.719,0.892-11.574      c0.36-4.666,2.816-8.287,3.807-12.546c1.766,3.779,2.822,6.914,2.483,11.408c-0.283,3.749-1.839,7.677-1.05,11.424      c0.089,0.423,0.732,0.619,0.966,0.194c0.145-0.265,0.286-0.549,0.426-0.843c0.123,0.042,0.274,0.017,0.354-0.1      c2.447-3.628,4.955-6.518,8.843-8.662c3.302-1.82,7.186-1.76,10.436-3.465c-2.422,3.365-4.496,6.938-7.125,10.184      c-2.742,3.386-6.233,6.129-9.001,9.47c-0.096-0.127-0.193-0.251-0.289-0.379c-0.196-0.264-0.585,0.032-0.459,0.31      c0.095,0.211,0.202,0.417,0.302,0.626c-0.318,0.405-0.634,0.813-0.928,1.239c-0.314,0.458,0.226,1.122,0.732,0.832      c0.315-0.181,0.634-0.386,0.951-0.585c3.182,5.859,8.188,10.735,14.226,13.517c-7.187,0.058-12.994-3.22-19.754-6.586      c-0.476-0.236-0.858,0.46-0.546,0.813c6.049,6.828,17.011,8.469,25.597,7.494c1.118-0.127,1.239-1.921,0.155-2.206      c-7.998-2.097-13.858-7.314-18.832-13.581c7.063-4.772,14.452-13.829,16.33-21.729c0.101-0.422-0.411-0.707-0.686-0.342      c-0.091,0.121-0.177,0.245-0.267,0.366c0.047-0.314-0.094-0.649-0.45-0.758c-4.048-1.234-9.008,1.059-12.444,3.109      c-2.166,1.292-4.048,3.114-5.395,5.254C522.979,166.073,522.637,157.54,517.081,154.595z"/>
					<path style="fill:#3B0F06;" d="M515.61,194.986c-3.872,4.024-5.127,9.977-6.15,15.286c-0.698,3.62-0.954,7.322-1.118,10.999      c-0.028,0.63-0.082,1.313-0.125,2.018c-1.308-4.136-1.082-8.707-0.719-13.033c0.41-4.876,2.493-10.528,1.6-15.378      c-0.136-0.736-1.121-0.735-1.385-0.097c-2.311,5.579-2.472,13.49-2.522,19.459c-0.033,4.005,0.4,8.449,2.979,11.521      c0.05,1.28,0.257,2.52,0.846,3.535c0.236,0.407,0.8,0.374,0.98-0.063c0.815-1.967,0.353-4.256,0.354-6.358      c0.003-3.089,0.241-6.174,0.561-9.244c0.68-6.512,2.269-12.496,5.105-18.371C516.127,195.03,515.781,194.808,515.61,194.986z"/>
					<path style="fill:#3B0F06;" d="M539.065,121.113c-1.245,0.397-1.332,2.335,0.146,2.425c10.975,0.669,20.149,3.037,29.056,9.804      c7.011,5.328,11.681,13.147,14.25,21.461c5.066,16.39,1.856,34.624-4.557,50.15c-6.769,16.391-19.366,33.317-37.512,37.313      c-23.325,5.138-45.933-8.463-56.799-28.671c-0.222-0.413-0.811-0.105-0.643,0.322c8.7,22.013,32.339,33.886,55.267,31.381      c19.863-2.17,33.762-20.077,41.852-36.843c8.281-17.163,11.89-38.456,5.756-56.85c-2.89-8.664-8.198-16.024-15.279-21.742      C562.36,123.21,549.613,117.755,539.065,121.113z"/>
				</g>
			</g>
		</g>
	</g>
</svg>