<?xml version="1.0" encoding="utf-8"?>
<!-- Generator: Adobe Illustrator 27.5.0, SVG Export Plug-In . SVG Version: 6.00 Build 0)  -->
<svg version="1.1" xmlns="http://www.w3.org/2000/svg" xmlns:xlink="http://www.w3.org/1999/xlink" x="0px" y="0px"
	 viewBox="0 0 500 500" style="enable-background:new 0 0 500 500;" xml:space="preserve">
<g id="OBJECTS">


	<g>
		<g>
			<path style="fill:#2CCCB1;" d="M206.604,171.072c-42.478,16.801-98.748-2.679-129.53-34.81
				c-38.155-35.56,10.449-74.918,14.737-32.872c4.32,22.15,23.878,40.01,44.936,46.617c15.732,4.265,33.545,5.505,49.628,2.842
				c6.476-1.072,13.234-2.725,19.464-0.656C215.818,155.07,216.088,167.096,206.604,171.072z"/>
			<path style="fill:#FF4D6A;" d="M206.227,70.927c0.309,3.219,0.511,6.456,0.684,9.675c0.643,11.961,0.956,23.953,0.939,35.956
				c-0.011,7.952-0.173,16.373-3.511,23.84c-3.186,7.126-14.96,7.659-21.424,7.801c-14.208,0.313-28.567-3.12-41.375-9.477
				c-12.272-6.091-26.103-15.507-33.345-27.431c-4.077-6.713-5.573-14.636-2.192-21.974c2.179-4.731,6.16-8.334,10.077-11.719
				c18.941-16.368,40.157-29.658,63.329-38.564c2.997-1.152,6.145-2.247,9.281-1.909c5.886,0.634,10.002,6.064,12.399,11.55
				C204.132,55.636,205.487,63.227,206.227,70.927z"/>
		</g>
		<g>
			<path style="fill:none;stroke:#000000;stroke-width:3;stroke-linecap:round;stroke-linejoin:round;stroke-miterlimit:10;" d="
				M210.572,169.504c-1.858,1.769-4.594,2.877-6.878,3.383c-9.696,2.148-20.145,2.808-30.054,2.377
				c-19.141-0.832-37.818-6.436-54.805-15.173c-16.408-8.439-30.526-20.844-40.822-36.167c-4.131-6.149-7.645-12.707-10.532-19.528
				c-1.691-3.996-3.329-8.021-4.668-12.151c-1.408-4.342-3.083-14.118,4.7-13.182c3.311,0.398,4.252,3.084,5.276,5.793
				c1.282,3.392,2.713,6.727,4.286,9.993c3.927,8.151,8.706,15.91,14.431,22.921c9.488,11.619,21.39,21.092,34.721,27.948
				c10.022,5.155,20.628,9.213,31.591,11.85c5.53,1.33,11.148,2.298,16.808,2.858c5.002,0.495,9.994,0.665,15.016,0.454
				c5.209-0.219,10.09-2.024,15.231-2.679c4.093-0.521,7.961,2.609,7.851,6.807C212.677,166.82,211.824,168.312,210.572,169.504z"/>
			<path style="fill:none;stroke:#000000;stroke-width:3;stroke-linecap:round;stroke-linejoin:round;stroke-miterlimit:10;" d="
				M199.66,142.172c0.357,5.467-3.772,10.173-9.236,10.571c-15.401,1.122-36.216-1.022-59.838-13.171
				c-24.891-12.802-38.097-32.381-45.086-48.835c-2.027-4.772-0.079-10.298,4.508-12.715l88.395-46.584
				c6.371-3.357,14.087,0.961,14.556,8.148L199.66,142.172z"/>
			<g>
				<path style="fill:none;stroke:#000000;stroke-width:3;stroke-linecap:round;stroke-linejoin:round;stroke-miterlimit:10;" d="
					M144.548,73.912c-1.44,2.037-2.881,4.073-4.321,6.11"/>
				<path style="fill:none;stroke:#000000;stroke-width:3;stroke-linecap:round;stroke-linejoin:round;stroke-miterlimit:10;" d="
					M182.393,127.29c-0.326,2.473-0.653,4.946-0.979,7.419"/>
				<path style="fill:none;stroke:#000000;stroke-width:3;stroke-linecap:round;stroke-linejoin:round;stroke-miterlimit:10;" d="
					M107.041,85.455c-1.851,1.672-3.702,3.344-5.553,5.016"/>
				<path style="fill:none;stroke:#000000;stroke-width:3;stroke-linecap:round;stroke-linejoin:round;stroke-miterlimit:10;" d="
					M161.502,88.229c-0.905,2.598-1.811,5.197-2.716,7.795"/>
				<path style="fill:none;stroke:#000000;stroke-width:3;stroke-linecap:round;stroke-linejoin:round;stroke-miterlimit:10;" d="
					M130.921,93.16c-1.681,2.512-3.362,5.024-5.043,7.536"/>
				<path style="fill:none;stroke:#000000;stroke-width:3;stroke-linecap:round;stroke-linejoin:round;stroke-miterlimit:10;" d="
					M138.146,116.326c-1.496,2.74-2.992,5.48-4.488,8.221"/>
				<path style="fill:none;stroke:#000000;stroke-width:3;stroke-linecap:round;stroke-linejoin:round;stroke-miterlimit:10;" d="
					M183.561,99.296c0.268,2.709,0.537,5.419,0.805,8.129"/>
				<path style="fill:none;stroke:#000000;stroke-width:3;stroke-linecap:round;stroke-linejoin:round;stroke-miterlimit:10;" d="
					M161.962,115.273c-0.321,2.462-0.642,4.925-0.962,7.387"/>
				<path style="fill:none;stroke:#000000;stroke-width:3;stroke-linecap:round;stroke-linejoin:round;stroke-miterlimit:10;" d="
					M178.186,73.079c-0.649,3.054-1.298,6.108-1.948,9.161"/>
				<path style="fill:none;stroke:#000000;stroke-width:3;stroke-linecap:round;stroke-linejoin:round;stroke-miterlimit:10;" d="
					M183.166,52.055c-0.321,2.462-0.642,4.925-0.962,7.387"/>
				<path style="fill:none;stroke:#000000;stroke-width:3;stroke-linecap:round;stroke-linejoin:round;stroke-miterlimit:10;" d="
					M161.782,54.296c-1.655,1.851-3.31,3.702-4.965,5.553"/>
			</g>
		</g>
	</g>
	</g>
</g>
</svg>

