<svg xmlns="http://www.w3.org/2000/svg" viewBox="0 0 579 585">
    <defs>
        <style>
            .cls-1 {
                fill: #534741;
            }

            .cls-2 {
                fill: #c7b299;
            }

            .cls-3 {
                fill: #be8675;
            }

            .cls-4 {
                fill: none;
                stroke: #111112;
                stroke-miterlimit: 10;
                stroke-width: 2px;
            }

            .cls-5 {
                fill: #111112;
            }

            .cls-6 {
                fill: #fff;
            }
        </style>
    </defs>
    <g id="Calque_2" data-name="Calque 2">
        <path class="cls-1"
            d="M199.09,77.2c-41,30-68.21,47.77-80.91,93s-7.27,93.27-1.75,139.9c4.37,36.93,8.79,74.07,19.09,109.81s26.87,70.35,52.75,97.07a177.21,177.21,0,0,1-16.83-91.87c-4.27,38.85,21.85,78.9,59.12,90.66A167.1,167.1,0,0,1,224.23,414,265.92,265.92,0,0,0,299.11,567.2a172.32,172.32,0,0,1-1.36-118.48l4.9,84.1a133.27,133.27,0,0,0,43-97.42l-3.27,59.77c43-32.28,68.34-86.81,65.23-140.5L417,424.78c15.73-51.71,31.58-104.06,34.18-158s-9.42-110.65-44-152.2A163.89,163.89,0,0,0,199.11,77.46" />
        <path class="cls-2"
            d="M446.87,248.83c-1.51-5.13-3.11-10.43-6.56-14.53-5.57-6.61-14.7-8.73-23.17-10.48l-.9.09a128.53,128.53,0,0,0-247.86-13.46c-5.14.1-10.14,1-14.42,3.73-4.51,2.89-7.6,7.48-10.57,11.94-4.18,6.27-8.51,13-8.69,20.53A23.93,23.93,0,0,0,137,257.07a30.36,30.36,0,0,0,26.59,17.45h.69A128.53,128.53,0,0,0,413.12,289l.15,0a30.37,30.37,0,0,0,30.56-8.79,24.07,24.07,0,0,0,5.26-9.27C451.15,263.77,449,256.07,446.87,248.83Z" />
        <ellipse class="cls-3" cx="352" cy="253.5" rx="19" ry="8.5" />
        <ellipse class="cls-3" cx="219" cy="253.5" rx="19" ry="8.5" />
        <path class="cls-1"
            d="M243,141.82c-3.07,19.07-14.2,36.92-30.55,47.31a133.38,133.38,0,0,0,63.85-44.79l-9.11,28c10.25-3.61,20.52-7.4,29.81-13s17.64-13.25,22.51-23a225.76,225.76,0,0,1-20.55,50,217,217,0,0,0,51.7-54.26,72.32,72.32,0,0,1-12.44,46.41c21,1.11,42-12,50.27-31.29l-8.36,22.7c5.73-4.14,11.52-8.34,16.18-13.66s8.18-11.95,8.51-19c.38-7.87-3.25-15.56-8.56-21.39s-12.17-10-19.21-13.55c-38.85-19.57-86.23-21.37-126.45-4.8-7.56,3.11-15.77,8-17,16.1-1.11,7.43,4.21,14.06,7.08,21a32,32,0,0,1,2.24,8.7" />
    </g>
    <g id="Calque_1" data-name="Calque 1">
        <path class="cls-4"
            d="M377.44,144.26a138.23,138.23,0,0,1,39,96.94c0,74.66-57.62,135.19-128.69,135.19S159,315.86,159,241.2c0-51.26,25.94-94.28,66-117.2" />
        <ellipse class="cls-5" cx="337.8" cy="205.64" rx="11.52" ry="14.52" />
        <path class="cls-5"
            d="M314.1,180.45a94.28,94.28,0,0,1,52.51-1.61,92,92,0,0,1,14.43,5c1.75.78,3.28-1.8,1.52-2.59a97.64,97.64,0,0,0-54-7.32,94,94,0,0,0-15.26,3.6c-1.83.6-1,3.5.8,2.9Z" />
        <ellipse class="cls-5" cx="246.67" cy="203.64" rx="11.52" ry="14.52" />
        <path class="cls-5"
            d="M271.17,175.55a97.29,97.29,0,0,0-54.53-1.5,96.21,96.21,0,0,0-14.73,5.22c-1.76.78-.23,3.37,1.52,2.59a93.39,93.39,0,0,1,66.94-3.41c1.84.6,2.63-2.3.8-2.9Z" />
        <circle class="cls-6" cx="256.18" cy="198.13" r="5.01" />
        <circle class="cls-6" cx="347.31" cy="200.14" r="5.01" />
        <path class="cls-5"
            d="M293.83,229.76a178.68,178.68,0,0,0-12.94,28.41q-2.56,7.27-4.49,14.76c-.64,2.49-1.22,5-1.75,7.51-.43,2.06-1.12,4.62.58,6.31s4.38,1.16,6.52.75l9.44-1.83c1.89-.37,1.09-3.27-.8-2.9l-7.31,1.42c-1.13.22-2.26.48-3.4.65-.63.1-1.82.32-2.32-.22s-.13-1.82,0-2.49c.24-1.18.49-2.37.76-3.55.52-2.29,1.08-4.56,1.69-6.83a173.23,173.23,0,0,1,9.4-26.32q3.28-7.23,7.2-14.15a1.5,1.5,0,0,0-2.59-1.52Z" />
        <path class="cls-5"
            d="M264.05,321.86a60.61,60.61,0,0,0,26.39,7.85,58.94,58.94,0,0,0,26.29-4.85,69.33,69.33,0,0,0,14.3-8.34c1.49-1.12,0-3.66-1.48-2.53a63.78,63.78,0,0,1-24.48,11.59,54.37,54.37,0,0,1-25.52-.52,59.66,59.66,0,0,1-14-5.73c-1.65-.92-3.13,1.61-1.48,2.53Z" />
        <path class="cls-5"
            d="M326.06,313.23q.35,0,.69,0a2.21,2.21,0,0,1,.68,0c-.33-.12,0,0,.07,0l.33.07a6.36,6.36,0,0,1,.66.2.93.93,0,0,1,.33.12l-.09,0,.16.07q.3.15.6.33l.29.19c.07.05.35.18.07.05a2,2,0,0,1,.51.46,2.5,2.5,0,0,1,.46.51c-.12-.22,0,0,.05.07l.19.28c.12.2.23.4.33.61s.2.38,0,.07a3,3,0,0,1,.12.32,4.58,4.58,0,0,1,.19.66,1.27,1.27,0,0,1,.06.28s.07.42,0,.2,0,.16,0,.2,0,.23,0,.35a4.63,4.63,0,0,1,0,.74,1.48,1.48,0,0,0,1.47,1.46,1.5,1.5,0,0,0,1.46-1.46,8.07,8.07,0,0,0-8.71-8.69,1.5,1.5,0,0,0-1.46,1.47,1.47,1.47,0,0,0,1.46,1.46Z" />
        <path class="cls-5"
            d="M413.46,209.78a32.27,32.27,0,0,1,28.43,20.87A34.22,34.22,0,0,1,442.94,250c-1.35,6-3.88,12.74-8.65,16.9-5.85,5.1-14.05,6-21.45,6.72-1.43.15-1.44,2.4,0,2.25,7.18-.74,14.75-1.55,20.88-5.71,5.73-3.89,8.83-10.47,10.72-16.94a37.75,37.75,0,0,0,.26-21.3,34.42,34.42,0,0,0-10.39-16.11,34.79,34.79,0,0,0-20.85-8.31c-1.45-.08-1.45,2.17,0,2.25Z" />
        <path class="cls-5"
            d="M416.71,228.64c7.36,1.68,13.43,7.87,13.46,15.68a15.14,15.14,0,0,1-13.31,15c-.94.12-.95,1.62,0,1.5a16.67,16.67,0,0,0,14.81-16.09c.19-8.6-6.42-15.68-14.56-17.52-.94-.22-1.34,1.23-.4,1.44Z" />
        <path class="cls-5"
            d="M162.11,206.2a34.58,34.58,0,0,0-30.47,22.14,36.45,36.45,0,0,0-1.19,21c1.46,6.49,4.3,13.78,9.54,18.15,6.36,5.32,14.79,6.3,22.73,7.12,1.44.15,1.43-2.1,0-2.25-6.66-.69-13.65-1.44-19.4-5.18-5.53-3.61-8.42-10.1-10.14-16.26a35.24,35.24,0,0,1-.14-19.66,31.88,31.88,0,0,1,29.07-22.77c1.44-.08,1.45-2.33,0-2.25Z" />
        <path class="cls-5"
            d="M158.45,225.86c-8.13,1.85-14.74,8.92-14.56,17.53a16.68,16.68,0,0,0,14.81,16.09c1,.12,1-1.39,0-1.5a15.15,15.15,0,0,1-13.31-15c0-7.81,6.1-14,13.46-15.68.94-.21.54-1.66-.4-1.45Z" />
        <path class="cls-5"
            d="M204.93,95.53c-21.25,15.55-44.17,30.56-60.57,51.52-18.12,23.17-25.3,52.45-27.72,81.3-3,36.17,1.66,72.45,5.94,108.32s9,72.16,19.49,106.94c9.23,30.5,23.11,60.06,43.77,84.55,2.58,3.06,5.27,6,8,8.9.93,1,2.3-.26,1.77-1.37A177.19,177.19,0,0,1,179,444.4c.12-1.46-2.1-1.42-2.25,0-3.23,30.73,11.92,61.86,36.69,79.92a82,82,0,0,0,23.25,11.82,1.14,1.14,0,0,0,1.39-1.39,166.84,166.84,0,0,1-6.33-101.11l-2.21-.3a267.88,267.88,0,0,0,50.29,125,264.34,264.34,0,0,0,24.91,29c.75.75,2.3,0,1.88-1.09a172.11,172.11,0,0,1-8.27-92.2,170,170,0,0,1,6.92-25.69L303,468l4.9,84.1a1.14,1.14,0,0,0,1.92.79A134.9,134.9,0,0,0,350.93,479a132.76,132.76,0,0,0,2.3-24.28,1.13,1.13,0,0,0-2.25,0l-3.27,59.77a1.13,1.13,0,0,0,1.69,1c33.79-25.49,56.83-64.23,63.8-105.94a162,162,0,0,0,2-35.53h-2.25l9.33,70.11a1.13,1.13,0,0,0,2.21.3c11.89-39.08,23.82-78.36,30.1-118.81,5.58-36,6.46-72.76-1.09-108.51-7-33.29-21.47-65.34-44.75-90.45A165,165,0,0,0,217,89.5q-6.15,2.9-12,6.29a1.13,1.13,0,0,0,1.14,1.94A162.69,162.69,0,0,1,400,121c24.64,23.43,40.67,54.28,49.06,87,8.8,34.35,9.39,70.19,5,105.24-5,39.7-16,78.34-27.5,116.54q-2.12,7-4.25,14l2.21.3L415.19,374c-.19-1.39-2.34-1.49-2.25,0,2.3,41.67-12.28,83.69-39.25,115.47a158.72,158.72,0,0,1-25.43,24.06l1.7,1,3.27-59.77H351a132.91,132.91,0,0,1-26.44,78.71,129.69,129.69,0,0,1-16.27,17.91l1.92.8-4.9-84.1a1.13,1.13,0,0,0-2.21-.3,174.19,174.19,0,0,0-6.24,93.12,169.65,169.65,0,0,0,7.59,26l1.88-1.09a265.46,265.46,0,0,1-67-115.09,258.71,258.71,0,0,1-7.57-37.28c-.15-1.17-1.88-1.64-2.21-.3a169,169,0,0,0,6.33,102.31l1.38-1.38c-28.68-9.2-50.51-34.92-56.89-64.12A80,80,0,0,1,179,444.4h-2.25a179.48,179.48,0,0,0,17,92.43l1.76-1.36c-22.18-23-37.49-51.73-47.8-81.82-11.5-33.54-16.89-68.78-21.25-103.85s-9.29-70.38-8.38-105.74c.78-30.32,5.82-62.59,22.85-88.37C155.08,134.2,176.57,119,197.08,104l9-6.56c1.15-.84,0-2.8-1.14-1.94Z" />
    </g>
</svg>