<svg xmlns="http://www.w3.org/2000/svg" viewBox="0 0 579 585">
    <defs>
        <style>
            .cls-1 {
                fill: #c7b299;
            }

            .cls-2 {
                fill: #be8675;
            }

            .cls-3 {
                fill: #534741;
            }

            .cls-4 {
                fill: none;
                stroke: #111112;
                stroke-miterlimit: 10;
                stroke-width: 2px;
            }

            .cls-5 {
                fill: #111112;
            }

            .cls-6 {
                fill: #fff;
            }
        </style>
    </defs>
    <g id="Calque_2" data-name="Calque 2">
        <path class="cls-1"
            d="M451.87,306.83c-1.51-5.13-3.11-10.43-6.56-14.53-5.57-6.61-14.7-8.73-23.17-10.48l-.9.09a128.53,128.53,0,0,0-247.86-13.46c-5.14.1-10.14,1-14.42,3.73-4.51,2.89-7.6,7.48-10.57,11.94-4.18,6.27-8.51,13-8.69,20.53A23.93,23.93,0,0,0,142,315.07a30.36,30.36,0,0,0,26.59,17.45h.69A128.53,128.53,0,0,0,418.12,347l.15,0a30.37,30.37,0,0,0,30.56-8.79,24.07,24.07,0,0,0,5.26-9.27C456.15,321.77,454,314.07,451.87,306.83Z" />
        <ellipse class="cls-2" cx="345" cy="301.5" rx="19" ry="8.5" />
        <ellipse class="cls-2" cx="212" cy="301.5" rx="19" ry="8.5" />
        <path class="cls-3"
            d="M168.23,258.9c-5.63-14.65-7.49-31.77-2.9-46.83,5.48-18,21.61-31,36.37-26,2-24.22,18.91-43.58,37.65-49.53s38.69-.63,56.57,8.6,34.36,22.23,51.85,32.59,36.63,18.14,55.86,15.84,38.48-16.56,45.24-39.38c4.1,21.58-2.27,45.77-15.78,60s-33.53,17.79-49.65,8.86c5.83,11.16,17.61,16.78,27.84,13.26-24.53,14.42-56.14,6.48-74.41-18.68,3.9,16.68,13.95,30.9,26.65,37.7-30.31-1.19-59.75-21.73-76.65-53.47,3.49,4.17,7.1,8.6,8.58,14.36s-.05,13.23-4.5,15.5c-3,1.55-6.62.28-9.15-2.31-7-7.12-6.17-21.06-11.45-30.19a19.69,19.69,0,0,0-16.31-9.9c-6.24-.25-12.38,2.24-18,5.61-14.79,8.83-26.89,23.74-36.48,40.46s-27.43,42-34.68,60.55c-1.78-5.77,4.85-32.27,3.08-38" />
    </g>
    <g id="Calque_1" data-name="Calque 1">
        <path class="cls-4"
            d="M388.08,204.55a138.94,138.94,0,0,1,28.34,84.65c0,74.66-57.62,135.19-128.69,135.19S159,363.86,159,289.2A143.12,143.12,0,0,1,161.1,265" />
        <ellipse class="cls-5" cx="337.8" cy="253.64" rx="11.52" ry="14.52" />
        <path class="cls-5"
            d="M314.1,228.45a94.28,94.28,0,0,1,52.51-1.61,92,92,0,0,1,14.43,5c1.75.78,3.28-1.8,1.52-2.59a97.64,97.64,0,0,0-54-7.32,94,94,0,0,0-15.26,3.6c-1.83.6-1,3.5.8,2.9Z" />
        <ellipse class="cls-5" cx="246.67" cy="251.64" rx="11.52" ry="14.52" />
        <path class="cls-5"
            d="M271.17,223.55a97.29,97.29,0,0,0-54.53-1.5,96.21,96.21,0,0,0-14.73,5.22c-1.76.78-.23,3.37,1.52,2.59a93.39,93.39,0,0,1,66.94-3.41c1.84.6,2.63-2.3.8-2.9Z" />
        <circle class="cls-6" cx="256.18" cy="246.13" r="5.01" />
        <circle class="cls-6" cx="347.31" cy="248.14" r="5.01" />
        <path class="cls-5"
            d="M293.83,277.76a178.68,178.68,0,0,0-12.94,28.41q-2.56,7.27-4.49,14.76c-.64,2.49-1.22,5-1.75,7.51-.43,2.06-1.12,4.62.58,6.31s4.38,1.16,6.52.75l9.44-1.83c1.89-.37,1.09-3.27-.8-2.9l-7.31,1.42c-1.13.22-2.26.48-3.4.65-.63.1-1.82.32-2.32-.22s-.13-1.82,0-2.49c.24-1.18.49-2.37.76-3.55.52-2.29,1.08-4.56,1.69-6.83a173.23,173.23,0,0,1,9.4-26.32q3.28-7.23,7.2-14.15a1.5,1.5,0,0,0-2.59-1.52Z" />
        <path class="cls-5"
            d="M264.05,369.86a60.61,60.61,0,0,0,26.39,7.85,58.94,58.94,0,0,0,26.29-4.85,69.33,69.33,0,0,0,14.3-8.34c1.49-1.12,0-3.66-1.48-2.53a63.78,63.78,0,0,1-24.48,11.59,54.37,54.37,0,0,1-25.52-.52,59.66,59.66,0,0,1-14-5.73c-1.65-.92-3.13,1.61-1.48,2.53Z" />
        <path class="cls-5"
            d="M326.06,361.23q.35,0,.69,0a2.21,2.21,0,0,1,.68,0c-.33-.12,0,0,.07,0l.33.07a6.36,6.36,0,0,1,.66.2.93.93,0,0,1,.33.12l-.09,0,.16.07q.3.15.6.33l.29.19c.07.05.35.18.07.05a2,2,0,0,1,.51.46,2.5,2.5,0,0,1,.46.51c-.12-.22,0,0,.05.07l.19.28c.12.2.23.4.33.61s.2.38,0,.07a3,3,0,0,1,.12.32,4.58,4.58,0,0,1,.19.66,1.27,1.27,0,0,1,.06.28s.07.42,0,.2,0,.16,0,.2,0,.23,0,.35a4.63,4.63,0,0,1,0,.74,1.48,1.48,0,0,0,1.47,1.46,1.5,1.5,0,0,0,1.46-1.46,8.07,8.07,0,0,0-8.71-8.69,1.5,1.5,0,0,0-1.46,1.47,1.47,1.47,0,0,0,1.46,1.46Z" />
        <path class="cls-5"
            d="M413.46,257.78a32.27,32.27,0,0,1,28.43,20.87A34.22,34.22,0,0,1,442.94,298c-1.35,6-3.88,12.74-8.65,16.9-5.85,5.1-14.05,6-21.45,6.72-1.43.15-1.44,2.4,0,2.25,7.18-.74,14.75-1.55,20.88-5.71,5.73-3.89,8.83-10.47,10.72-16.94a37.75,37.75,0,0,0,.26-21.3,34.42,34.42,0,0,0-10.39-16.11,34.79,34.79,0,0,0-20.85-8.31c-1.45-.08-1.45,2.17,0,2.25Z" />
        <path class="cls-5"
            d="M416.71,276.64c7.36,1.68,13.43,7.87,13.46,15.68a15.14,15.14,0,0,1-13.31,15c-.94.12-.95,1.62,0,1.5a16.67,16.67,0,0,0,14.81-16.09c.19-8.6-6.42-15.68-14.56-17.52-.94-.22-1.34,1.23-.4,1.44Z" />
        <path class="cls-5"
            d="M158.93,254.5a34.56,34.56,0,0,0-28,23.73,37.24,37.24,0,0,0-.21,20.38c1.64,6.37,4.53,13.21,9.86,17.35,6.29,4.9,14.42,5.82,22.09,6.61,1.44.15,1.43-2.1,0-2.25-6.53-.67-13.36-1.4-19.05-5-5.45-3.41-8.34-9.44-10.17-15.39a35.85,35.85,0,0,1-.88-19.21,31.93,31.93,0,0,1,26.91-24.09c1.43-.2.82-2.37-.6-2.17Z" />
        <path class="cls-5"
            d="M158.45,273.86c-8.13,1.85-14.74,8.92-14.56,17.53a16.68,16.68,0,0,0,14.81,16.09c1,.12,1-1.39,0-1.5a15.15,15.15,0,0,1-13.31-15c0-7.81,6.1-14,13.46-15.68.94-.21.54-1.66-.4-1.45Z" />
        <path class="cls-5"
            d="M164.2,236.11c-4.83-12.65-6.85-26.78-4-40.14,2.35-11.08,8.65-22.07,19-27.41A20.37,20.37,0,0,1,195,167a1.48,1.48,0,0,0,1.85-1.4c1.52-17.53,11.65-34.18,27-43,18.08-10.38,40-6.19,58,2.2,20.19,9.43,37.49,23.85,56.71,35,17.53,10.13,38.53,18.43,59,13.56,16.65-4,30.66-16.27,37.36-31.92a59.11,59.11,0,0,0,2.34-6.45H434.4a70.78,70.78,0,0,1-6.18,44.22c-6.5,12.86-17.92,23.17-32.53,25.29a36.73,36.73,0,0,1-22.8-4.18,1.47,1.47,0,0,0-2,2c5.4,10.17,17.13,17.42,28.72,13.57l-1.12-2.67a49.56,49.56,0,0,1-29,6.6,55.32,55.32,0,0,1-28.24-10.89,62.26,62.26,0,0,1-13.17-13.36,1.46,1.46,0,0,0-2.66,1.12c3.59,15.16,12.6,30,26.59,37.55l.74-2.72c-24.13-1-45.94-14.61-61-32.89a110.51,110.51,0,0,1-12.26-18.4L277.18,182c4.93,5.9,10,12.87,8,21-.7,3-2.58,6.42-6.1,6.2s-6.11-3.56-7.59-6.51c-3.15-6.3-3.58-13.62-5.95-20.2-2.48-6.92-7.47-12.56-14.75-14.5-8.22-2.19-16.61,1.15-23.55,5.42a83.84,83.84,0,0,0-18,15.23c-10.54,11.6-17.81,25.44-26.07,38.64S166.38,253.42,160,267.54q-1,2.26-1.94,4.57h2.82a15.77,15.77,0,0,1-.14-5.07c.2-2.73.58-5.44,1-8.14.83-5.8,1.88-11.59,2.36-17.43a18.11,18.11,0,0,0-.19-6.36,1.46,1.46,0,0,0-2.82.78,15.77,15.77,0,0,1,.14,5.07c-.2,2.73-.58,5.44-1,8.14-.83,5.8-1.88,11.59-2.36,17.43a18.11,18.11,0,0,0,.19,6.36,1.48,1.48,0,0,0,2.82,0,151.69,151.69,0,0,1,10-19.82c4-7,8.3-13.83,12.58-20.67,3.83-6.12,7.68-12.23,11.3-18.49a137.74,137.74,0,0,1,14.78-21.15,84.78,84.78,0,0,1,17.95-16c6.95-4.48,15.56-8.38,23.88-5.52,15.78,5.44,11.13,25.28,19.75,36.28,2.17,2.77,5.51,5,9.18,4.59,3.4-.39,5.75-3,7-6,3.05-7.43.19-15.36-4.32-21.48-1.18-1.6-2.44-3.13-3.72-4.66-1.09-1.31-3,.37-2.29,1.77,12,22.41,31.68,41.5,56.24,49.28a75.38,75.38,0,0,0,19.59,3.46,1.47,1.47,0,0,0,.73-2.72c-13.35-7.23-21.82-21.34-25.25-35.8l-2.67,1.12a63.78,63.78,0,0,0,26.25,21.3,54.8,54.8,0,0,0,31.09,3.73,52,52,0,0,0,17-6.33c1.39-.81.48-3.2-1.12-2.66-10.4,3.45-20.62-3.17-25.44-12.24l-2,2a40.84,40.84,0,0,0,42.43-2.38c13-8.79,20.48-23.81,23.29-38.9a74.35,74.35,0,0,0,.07-27.34c-.27-1.48-2.42-1.29-2.81,0-5,16.7-18,30.51-34.85,35.57-20.31,6.12-41.62-2.19-59.16-12.26-19.26-11.06-36.54-25.48-56.69-35-18.16-8.57-40-13.11-58.78-3.79-15.5,7.67-26.69,23.23-30.07,40.07a62.33,62.33,0,0,0-1,6.81l1.85-1.41c-10.93-3.58-22,2.41-28.87,10.79-8.67,10.55-11.56,24.5-10.74,37.89a81.31,81.31,0,0,0,5.26,24c.66,1.74,3.48,1,2.81-.78Z" />
    </g>
</svg>