<svg xmlns="http://www.w3.org/2000/svg" viewBox="0 0 579 585">
    <defs>
        <style>
            .cls-1 {
                fill: #c7b299;
            }

            .cls-2 {
                fill: #be8675;
            }

            .cls-3 {
                fill: none;
                stroke: #111112;
                stroke-miterlimit: 10;
                stroke-width: 2px;
            }

            .cls-4 {
                fill: #111112;
            }

            .cls-5 {
                fill: #fff;
            }
        </style>
    </defs>
    <g id="Calque_2" data-name="Calque 2">
        <path class="cls-1"
            d="M457.87,304.83c-1.51-5.13-3.11-10.43-6.56-14.53-5.57-6.61-14.7-8.73-23.17-10.48l-.9.09a128.53,128.53,0,0,0-247.86-13.46c-5.14.1-10.14,1-14.42,3.73-4.51,2.89-7.6,7.48-10.57,11.94-4.18,6.27-8.51,13-8.69,20.53A23.93,23.93,0,0,0,148,313.07a30.36,30.36,0,0,0,26.59,17.45h.69A128.53,128.53,0,0,0,424.12,345l.15,0a30.37,30.37,0,0,0,30.56-8.79,24.07,24.07,0,0,0,5.26-9.27C462.15,319.77,460,312.07,457.87,304.83Z" />
        <ellipse class="cls-2" cx="351" cy="299.5" rx="19" ry="8.5" />
        <ellipse class="cls-2" cx="218" cy="299.5" rx="19" ry="8.5" />
    </g>
    <g id="Calque_1" data-name="Calque 1">
        <ellipse class="cls-3" cx="287.73" cy="289.2" rx="128.69" ry="135.2" />
        <ellipse class="cls-4" cx="337.8" cy="253.64" rx="11.52" ry="14.52" />
        <path class="cls-4"
            d="M314.1,228.45a94.28,94.28,0,0,1,52.51-1.61,92,92,0,0,1,14.43,5c1.75.78,3.28-1.8,1.52-2.59a97.64,97.64,0,0,0-54-7.32,94,94,0,0,0-15.26,3.6c-1.83.6-1,3.5.8,2.9Z" />
        <ellipse class="cls-4" cx="246.67" cy="251.64" rx="11.52" ry="14.52" />
        <path class="cls-4"
            d="M271.17,223.55a97.29,97.29,0,0,0-54.53-1.5,96.21,96.21,0,0,0-14.73,5.22c-1.76.78-.23,3.37,1.52,2.59a93.39,93.39,0,0,1,66.94-3.41c1.84.6,2.63-2.3.8-2.9Z" />
        <circle class="cls-5" cx="256.18" cy="246.13" r="5.01" />
        <circle class="cls-5" cx="347.31" cy="248.14" r="5.01" />
        <path class="cls-4"
            d="M293.83,277.76a178.68,178.68,0,0,0-12.94,28.41q-2.56,7.27-4.49,14.76c-.64,2.49-1.22,5-1.75,7.51-.43,2.06-1.12,4.62.58,6.31s4.38,1.16,6.52.75l9.44-1.83c1.89-.37,1.09-3.27-.8-2.9l-7.31,1.42c-1.13.22-2.26.48-3.4.65-.63.1-1.82.32-2.32-.22s-.13-1.82,0-2.49c.24-1.18.49-2.37.76-3.55.52-2.29,1.08-4.56,1.69-6.83a173.23,173.23,0,0,1,9.4-26.32q3.28-7.23,7.2-14.15a1.5,1.5,0,0,0-2.59-1.52Z" />
        <path class="cls-4"
            d="M264.05,369.86a60.61,60.61,0,0,0,26.39,7.85,58.94,58.94,0,0,0,26.29-4.85,69.33,69.33,0,0,0,14.3-8.34c1.49-1.12,0-3.66-1.48-2.53a63.78,63.78,0,0,1-24.48,11.59,54.37,54.37,0,0,1-25.52-.52,59.66,59.66,0,0,1-14-5.73c-1.65-.92-3.13,1.61-1.48,2.53Z" />
        <path class="cls-4"
            d="M326.06,361.23q.35,0,.69,0a2.21,2.21,0,0,1,.68,0c-.33-.12,0,0,.07,0l.33.07a6.36,6.36,0,0,1,.66.2.93.93,0,0,1,.33.12l-.09,0,.16.07q.3.15.6.33l.29.19c.07.05.35.18.07.05a2,2,0,0,1,.51.46,2.5,2.5,0,0,1,.46.51c-.12-.22,0,0,.05.07l.19.28c.12.2.23.4.33.61s.2.38,0,.07a3,3,0,0,1,.12.32,4.58,4.58,0,0,1,.19.66,1.27,1.27,0,0,1,.06.28s.07.42,0,.2,0,.16,0,.2,0,.23,0,.35a4.63,4.63,0,0,1,0,.74,1.48,1.48,0,0,0,1.47,1.46,1.5,1.5,0,0,0,1.46-1.46,8.07,8.07,0,0,0-8.71-8.69,1.5,1.5,0,0,0-1.46,1.47,1.47,1.47,0,0,0,1.46,1.46Z" />
        <path class="cls-4"
            d="M413.46,257.78a32.27,32.27,0,0,1,28.43,20.87A34.22,34.22,0,0,1,442.94,298c-1.35,6-3.88,12.74-8.65,16.9-5.85,5.1-14.05,6-21.45,6.72-1.43.15-1.44,2.4,0,2.25,7.18-.74,14.75-1.55,20.88-5.71,5.73-3.89,8.83-10.47,10.72-16.94a37.75,37.75,0,0,0,.26-21.3,34.42,34.42,0,0,0-10.39-16.11,34.79,34.79,0,0,0-20.85-8.31c-1.45-.08-1.45,2.17,0,2.25Z" />
        <path class="cls-4"
            d="M416.71,276.64c7.36,1.68,13.43,7.87,13.46,15.68a15.14,15.14,0,0,1-13.31,15c-.94.12-.95,1.62,0,1.5a16.67,16.67,0,0,0,14.81-16.09c.19-8.6-6.42-15.68-14.56-17.52-.94-.22-1.34,1.23-.4,1.44Z" />
        <path class="cls-4"
            d="M162.11,254.2a34.58,34.58,0,0,0-30.47,22.14,36.45,36.45,0,0,0-1.19,21c1.46,6.49,4.3,13.78,9.54,18.15,6.36,5.32,14.79,6.3,22.73,7.12,1.44.15,1.43-2.1,0-2.25-6.66-.69-13.65-1.44-19.4-5.18-5.53-3.61-8.42-10.1-10.14-16.26a35.24,35.24,0,0,1-.14-19.66,31.88,31.88,0,0,1,29.07-22.77c1.44-.08,1.45-2.33,0-2.25Z" />
        <path class="cls-4"
            d="M158.45,273.86c-8.13,1.85-14.74,8.92-14.56,17.53a16.68,16.68,0,0,0,14.81,16.09c1,.12,1-1.39,0-1.5a15.15,15.15,0,0,1-13.31-15c0-7.81,6.1-14,13.46-15.68.94-.21.54-1.66-.4-1.45Z" />
    </g>
</svg>