<svg xmlns="http://www.w3.org/2000/svg" viewBox="0 0 579 585">
    <defs>
        <style>
            .cls-1 {
                fill: #534741;
            }

            .cls-2 {
                fill: #c7b299;
            }

            .cls-3 {
                fill: #be8675;
            }

            .cls-4 {
                fill: none;
                stroke: #111112;
                stroke-miterlimit: 10;
                stroke-width: 2px;
            }

            .cls-5 {
                fill: #111112;
            }

            .cls-6 {
                fill: #fff;
            }
        </style>
    </defs>
    <g id="Calque_2" data-name="Calque 2">
        <path class="cls-1"
            d="M496.62,269.38c-.48-6.8-3.78-13.07-7.61-18.71a98.22,98.22,0,0,0-45.73-36.25,26.39,26.39,0,0,0,31.91-35.57C471,168.92,461,162.42,450.5,159.74c-8.46-2.17-17.26-2.21-26-1.83a16.51,16.51,0,0,0,11.1-13.15c1.08-8.13-3.67-16.24-10.35-21s-15-6.68-23.14-7.54a107.41,107.41,0,0,0-50.7,7c11.46-10.63,10.2-31.77-2.45-41-11.25-8.18-28.72-4.86-37.06,6-2.79-1.54-6.21-1.48-9.42-1.34L273.2,88.09l-8.71.38c-6.91.29-14.51.87-19.44,5.72-4.15,4.08-5.4,10.32-5.19,16.13s1.65,11.52,2,17.33c-4.64-8-10.65-15.62-19.08-19.34s-19.66-2.28-24.92,5.28c-8,11.49,1.74,27.14,1.19,41l-2.79,1.57c-6.5-7.8-19.67-7.35-27.35-.7s-10.37,17.68-9.38,27.79,5.14,19.6,9.24,28.9c-10.45-11-30.2-8.73-40.67,2.29s-12.68,27.92-9.44,42.77c3.2,14.63,10.94,27.79,18.64,40.65-3.43-5.07-13.08-.85-13.85,5.56-.79,6.63,4,12.51,8.4,17.5l24.45,27.41a24.77,24.77,0,0,0-37.63,10c-4.11,9.43-2,20.66,3.13,29.6,4,7.12,9.74,13.07,15.71,18.72-5.45-2.17-13.37.32-16.48,5.91-4.24,7.63-1.85,17.24,2,25.09a78.54,78.54,0,0,0,40.49,38c-10.73.47-16.43,15.24-10.93,24.46s17.93,12.35,28.44,10.15,19.61-8.58,28.36-14.81c-12.46,9.36-15.32,28.8-7,42s26.15,19,41,14.4,26.1-18.57,28.53-34c-3.08,15.19,9.34,31.63,24.79,32.82S327,537.48,326.27,522c1.77,12.67,7.09,25.22,16.7,33.66s23.91,12.05,35.71,7.12c11.07-4.63,18.49-17.54,15.79-29.06,4.68,13.48,21.18,21.91,34.78,17.2,14.14-4.89,21.95-20.88,22-35.84s-6-29.19-11.89-42.92c6.06,9.74,21.69,10.65,29.9,2.64s8.48-22.22,1.82-31.56c-5.33-7.47-14.23-11.81-23.42-12.68,17.8-1.5,34.43-14.72,39.05-32.11,5.06-19.05-4.87-40.91-22.35-49.89,8.19,3.24,18.36-3.55,21-12.29,2.8-9.32-.49-19.33-4.51-28.19s-8.9-17.71-9.43-27.43c1.84,6.56,10.73,9.3,16.75,6.11S497.1,276.18,496.62,269.38Z" />
        <path class="cls-2"
            d="M449.87,299.83c-1.51-5.13-3.11-10.43-6.56-14.53-5.57-6.61-14.7-8.73-23.17-10.48l-.9.09a128.53,128.53,0,0,0-247.86-13.46c-5.14.1-10.14,1-14.42,3.73-4.51,2.89-7.6,7.48-10.57,11.94-4.18,6.27-8.51,13-8.69,20.53A23.93,23.93,0,0,0,140,308.07a30.36,30.36,0,0,0,26.59,17.45h.69A128.53,128.53,0,0,0,416.12,340l.15,0a30.37,30.37,0,0,0,30.56-8.79,24.07,24.07,0,0,0,5.26-9.27C454.15,314.77,452,307.07,449.87,299.83Z" />
        <ellipse class="cls-3" cx="353" cy="301.5" rx="19" ry="8.5" />
        <ellipse class="cls-3" cx="220" cy="301.5" rx="19" ry="8.5" />
        <path class="cls-1" d="M290.34,162.73a1.5,1.5,0,0,0,0-3,1.5,1.5,0,0,0,0,3Z" />
        <path class="cls-1"
            d="M290.33,161.67c-3.09,14.22,2.47,29.29,11.73,40.52s21.83,19.2,34.59,26.2a370.13,370.13,0,0,0,65.21,28c13.1,4.2,27,7.69,40.51,5.29l-8.12-10.6c-16.72-21.81-34.05-44.18-57.8-58C348.4,176.74,314.7,174.16,282.31,172" />
        <path class="cls-1"
            d="M288.89,161.27c-2.55,12,.67,24.48,7,34.83,6.56,10.74,16.39,19,26.84,25.79a285.12,285.12,0,0,0,35.29,19,376.71,376.71,0,0,0,38.56,15.39c14.8,5,30.46,9.6,46.19,6.88a1.5,1.5,0,0,0,.9-2.2c-15.43-20.13-30.42-41.32-50.09-57.62a119.66,119.66,0,0,0-31.78-19,168,168,0,0,0-36.58-9.6c-14.21-2.24-28.56-3.28-42.9-4.25-1.92-.13-1.92,2.87,0,3,24.94,1.69,50.37,3.49,74.08,12a115.48,115.48,0,0,1,32.13,17.64,180.49,180.49,0,0,1,25.84,25.42c9.35,11,18,22.52,26.71,33.94l.9-2.2c-13.59,2.34-27.29-1.29-40.16-5.43a366.88,366.88,0,0,1-37.61-14.4,331.41,331.41,0,0,1-34.91-18c-10.34-6.19-20.42-13.52-27.7-23.27-7.84-10.48-12.59-24-9.81-37.11.4-1.89-2.49-2.69-2.89-.8Z" />
        <path class="cls-1"
            d="M151.4,258.64c9.56,6.93,22.82,6.86,33.88,2.76s20.44-11.69,29.55-19.19c21.73-17.89,43.34-36.12,62-57.24s34.25-45.34,42.32-72.31c.68-2.24,1.24-4.87-.12-6.78-1.22-1.71-3.64-2.19-5.68-1.69a15.53,15.53,0,0,0-5.47,3c-45,33.77-84.58,74.24-123.91,114.52-9.7,9.93-19.77,20.52-23.14,34" />
        <path class="cls-1"
            d="M150.37,260.42c12,8.56,28.12,6.75,40.76.72,7-3.35,13.31-8,19.37-12.77,6.3-5,12.48-10.2,18.64-15.38,12.55-10.55,24.88-21.39,36.43-33a274.52,274.52,0,0,0,30.16-35.67,187.48,187.48,0,0,0,21.56-39.95q2-5.28,3.68-10.72c1-3.39,1.71-7.58-1.44-10.11-2.92-2.35-6.9-1.73-9.95,0-3.42,2-6.51,4.72-9.63,7.13-13,10-25.51,20.59-37.72,31.52s-24.11,22.24-35.81,33.72S203.3,199,191.88,210.66c-5.46,5.58-11,11.08-16.29,16.84-4.92,5.39-9.6,11.16-13,17.68a47.85,47.85,0,0,0-3.84,10c-.65,2.57,3.31,3.66,4,1.1,3.53-13.79,13.95-24.2,23.58-34.07,11.09-11.35,22.18-22.7,33.41-33.91s22.49-22.16,34.07-32.89,23.5-21.25,35.76-31.28q9.14-7.45,18.55-14.57c2.18-1.64,5.45-4.61,8.4-3.12,2.77,1.39.36,6.51-.3,8.55a171.21,171.21,0,0,1-18.7,39.19,242.9,242.9,0,0,1-27.34,35A434,434,0,0,1,236,221.8c-6,5.16-12,10.23-18.11,15.26-5.85,4.85-11.66,9.8-17.92,14.12-11.23,7.76-25.11,13.67-38.91,9.8a27.41,27.41,0,0,1-8.58-4.11c-2.16-1.55-4.21,2-2.07,3.55Z" />
    </g>
    <g id="Calque_1" data-name="Calque 1">
        <path class="cls-4"
            d="M413,256c2.78,11.06,3.42,21.22,3.42,33.2,0,74.66-57.62,135.19-128.69,135.19S159,363.86,159,289.2a141.68,141.68,0,0,1,3.28-30.44" />
        <ellipse class="cls-5" cx="337.8" cy="253.64" rx="11.52" ry="14.52" />
        <path class="cls-5"
            d="M314.1,228.45a94.28,94.28,0,0,1,52.51-1.61,92,92,0,0,1,14.43,5c1.75.78,3.28-1.8,1.52-2.59a97.64,97.64,0,0,0-54-7.32,94,94,0,0,0-15.26,3.6c-1.83.6-1,3.5.8,2.9Z" />
        <ellipse class="cls-5" cx="246.67" cy="251.64" rx="11.52" ry="14.52" />
        <path class="cls-5"
            d="M271.17,223.55a97.29,97.29,0,0,0-54.53-1.5,96.21,96.21,0,0,0-14.73,5.22c-1.76.78-.23,3.37,1.52,2.59a93.39,93.39,0,0,1,66.94-3.41c1.84.6,2.63-2.3.8-2.9Z" />
        <circle class="cls-6" cx="256.18" cy="246.13" r="5.01" />
        <circle class="cls-6" cx="347.31" cy="248.14" r="5.01" />
        <path class="cls-5"
            d="M293.83,277.76a178.68,178.68,0,0,0-12.94,28.41q-2.56,7.27-4.49,14.76c-.64,2.49-1.22,5-1.75,7.51-.43,2.06-1.12,4.62.58,6.31s4.38,1.16,6.52.75l9.44-1.83c1.89-.37,1.09-3.27-.8-2.9l-7.31,1.42c-1.13.22-2.26.48-3.4.65-.63.1-1.82.32-2.32-.22s-.13-1.82,0-2.49c.24-1.18.49-2.37.76-3.55.52-2.29,1.08-4.56,1.69-6.83a173.23,173.23,0,0,1,9.4-26.32q3.28-7.23,7.2-14.15a1.5,1.5,0,0,0-2.59-1.52Z" />
        <path class="cls-5"
            d="M264.05,369.86a60.61,60.61,0,0,0,26.39,7.85,58.94,58.94,0,0,0,26.29-4.85,69.33,69.33,0,0,0,14.3-8.34c1.49-1.12,0-3.66-1.48-2.53a63.78,63.78,0,0,1-24.48,11.59,54.37,54.37,0,0,1-25.52-.52,59.66,59.66,0,0,1-14-5.73c-1.65-.92-3.13,1.61-1.48,2.53Z" />
        <path class="cls-5"
            d="M326.06,361.23q.35,0,.69,0a2.21,2.21,0,0,1,.68,0c-.33-.12,0,0,.07,0l.33.07a6.36,6.36,0,0,1,.66.2.93.93,0,0,1,.33.12l-.09,0,.16.07q.3.15.6.33l.29.19c.07.05.35.18.07.05a2,2,0,0,1,.51.46,2.5,2.5,0,0,1,.46.51c-.12-.22,0,0,.05.07l.19.28c.12.2.23.4.33.61s.2.38,0,.07a3,3,0,0,1,.12.32,4.58,4.58,0,0,1,.19.66,1.27,1.27,0,0,1,.06.28s.07.42,0,.2,0,.16,0,.2,0,.23,0,.35a4.63,4.63,0,0,1,0,.74,1.48,1.48,0,0,0,1.47,1.46,1.5,1.5,0,0,0,1.46-1.46,8.07,8.07,0,0,0-8.71-8.69,1.5,1.5,0,0,0-1.46,1.47,1.47,1.47,0,0,0,1.46,1.46Z" />
        <path class="cls-5"
            d="M413.46,257.78a32.27,32.27,0,0,1,28.43,20.87A34.22,34.22,0,0,1,442.94,298c-1.35,6-3.88,12.74-8.65,16.9-5.85,5.1-14.05,6-21.45,6.72-1.43.15-1.44,2.4,0,2.25,7.18-.74,14.75-1.55,20.88-5.71,5.73-3.89,8.83-10.47,10.72-16.94a37.75,37.75,0,0,0,.26-21.3,34.42,34.42,0,0,0-10.39-16.11,34.79,34.79,0,0,0-20.85-8.31c-1.45-.08-1.45,2.17,0,2.25Z" />
        <path class="cls-5"
            d="M416.71,276.64c7.36,1.68,13.43,7.87,13.46,15.68a15.14,15.14,0,0,1-13.31,15c-.94.12-.95,1.62,0,1.5a16.67,16.67,0,0,0,14.81-16.09c.19-8.6-6.42-15.68-14.56-17.52-.94-.22-1.34,1.23-.4,1.44Z" />
        <path class="cls-5"
            d="M162.5,258.37c-6.25.27-13.09-.53-18.82,2.53a22.93,22.93,0,0,0-7,6.49,35,35,0,0,0-4.87,8.58,36.32,36.32,0,0,0-1.43,20.89c1.42,6.64,4.29,14.12,9.64,18.59,6.36,5.32,14.79,6.3,22.73,7.12,1.44.15,1.43-2.1,0-2.25-6.72-.69-13.79-1.46-19.57-5.3-5.54-3.69-8.42-10.35-10.09-16.57a35,35,0,0,1,.1-19.62c1.75-5.6,5.24-11.48,10.05-15,5.47-4,12.94-2.94,19.29-3.21,1.44-.07,1.45-2.32,0-2.26Z" />
        <path class="cls-5"
            d="M158.45,273.86c-8.13,1.85-14.74,8.92-14.56,17.53a16.68,16.68,0,0,0,14.81,16.09c1,.12,1-1.39,0-1.5a15.15,15.15,0,0,1-13.31-15c0-7.81,6.1-14,13.46-15.68.94-.21.54-1.66-.4-1.45Z" />
        <path class="cls-5"
            d="M476.15,274.64c-.6-6.78-3.64-12.85-7.41-18.41a94.15,94.15,0,0,0-12.19-14.54,96,96,0,0,0-32.1-20.55l-.6,2.17c14.57,4,29.9-4.67,33.12-19.6,3.25-15.09-6.89-27.65-20.39-33-9.6-3.81-20.18-3.91-30.35-3.49l.3,2.21a16.91,16.91,0,0,0,11.4-13.63c.89-7.08-2.59-14.07-7.71-18.8-5.66-5.23-13.28-7.74-20.77-9a98.7,98.7,0,0,0-25-.69,104.74,104.74,0,0,0-28.23,6.76l1.1,1.88c8.14-7.76,9.85-20.47,5.49-30.62-4.75-11-16.33-16.32-27.94-14.22A27.85,27.85,0,0,0,298,101l1.37-.18a17.86,17.86,0,0,0-8.79-1.46c-3.86.12-7.71.33-11.57.5l-22.91,1c-5.67.25-11.61.3-16.89,2.62s-8.54,7-9.67,12.54c-1.6,7.84.82,15.64,1.35,23.44l2.1-.56c-6.23-10.57-15.75-21.41-29.13-20.86-5.47.23-11,2.41-14.34,6.84-3.67,4.82-4,10.91-3.23,16.71,1.09,7.88,4,15.52,3.77,23.56l.55-1L188,165.68l1.36.18c-6.82-7.84-19.52-7.33-27.21-1.05-9.55,7.79-11.24,21.49-9,32.89,1.6,8,4.93,15.5,8.2,22.92l1.77-1.36c-10.87-11.14-30.17-8.53-40.38,2.18-12.46,13.07-12.6,33.2-7.22,49.4,3.73,11.2,9.78,21.43,15.81,31.52l1.94-1.14c-2.72-3.65-7.6-3.16-11.05-.77-4.6,3.19-5.18,8.61-3.19,13.58,2.68,6.68,8.56,12,13.26,17.25l17.34,19.44L151,349a25,25,0,0,0-33.12,3.38c-9,9.79-7.68,24.27-1.69,35.25,3.9,7.18,9.64,13.16,15.52,18.74l1.1-1.88a14.71,14.71,0,0,0-15,3.58c-4.65,4.74-4.86,12.24-3.46,18.33,3,13.31,12.66,25.62,23,34.2A76.64,76.64,0,0,0,157,472.4l.3-2.21c-11,.75-16.33,14.32-12.14,23.6,5.48,12.13,21.6,14.18,32.93,10.63,8.66-2.72,16.19-8,23.51-13.25l-1.13-1.94C186.46,500,184.9,522,196.67,535c12.59,13.93,34.65,15,49.21,3.7a43.24,43.24,0,0,0,16-26.87c.23-1.41-1.9-2-2.17-.6-2.2,11.72,4.17,23.91,14.51,29.62,11,6.08,24.29,2.66,32.43-6.53a27.24,27.24,0,0,0,7.08-18.8l-2.21.3c2.2,15.1,9.67,30.47,23.73,37.72,12.81,6.61,29.32,5.46,38.5-6.53a25.29,25.29,0,0,0,5-20.61l-2.17.6c5.15,14.22,22.49,22.55,36.6,16.39,15.81-6.92,21.3-26.12,19.29-42-1.52-11.92-6.3-23.07-11-34l-1.94,1.14c6.33,9.73,21.17,10.79,29.66,3.31,9.92-8.73,8.95-25.1.6-34.46-5.46-6.12-13.34-9.37-21.37-10.22v2.25a44.83,44.83,0,0,0,35.1-23.25c6.7-12.71,5.58-28.14-1.52-40.44a42.87,42.87,0,0,0-17.09-16.61l-.86,2.06c5.27,1.92,10.92.13,15.13-3.32,5.17-4.23,7.42-10.48,7.29-17.06-.31-16.42-13.19-29.25-14.27-45.47l-2.21.3c2,6.41,9.66,9.35,15.82,7.27,7.45-2.51,10.81-11,10.42-18.31-.08-1.44-2.33-1.45-2.25,0,.33,6.06-2,13.19-8,15.84-5,2.24-12.08.12-13.82-5.4-.37-1.16-2.3-1-2.21.3.95,14.24,10.59,25.64,13.53,39.33,1.42,6.64,1.08,14.12-3.61,19.42-3.76,4.26-9.64,7-15.23,4.93-1.19-.43-2,1.47-.86,2.06a42.12,42.12,0,0,1,21.74,32.08c1.62,13.82-4.51,27.05-15.49,35.45a42.19,42.19,0,0,1-21.61,8.57,1.13,1.13,0,0,0,0,2.25c12.4,1.31,24.18,9.6,25.55,22.71,1.17,11.21-5.84,22-17.72,22.37-5.77.17-11.57-2.16-14.78-7.1a1.13,1.13,0,0,0-1.94,1.14c7,16.15,14.74,34.38,9.42,52.17-2.1,7-6.15,13.84-12.26,18.12a23.75,23.75,0,0,1-20.48,3.36c-7.83-2.27-14.64-8.08-17.44-15.81a1.13,1.13,0,0,0-2.17.6c2.8,12.9-7.11,25.51-19.61,27.93-14.18,2.74-28-5.56-35.41-17.3a57.26,57.26,0,0,1-7.85-22.41c-.18-1.26-2.25-1-2.21.3.45,14.3-12.92,27.51-27.35,26.16-14-1.31-24.83-16.16-22.25-29.85l-2.17-.6c-2.85,17.1-16.94,32.38-34.88,33-17,.6-33.13-11.44-33.77-29-.34-9.1,3.27-18.42,10.59-24.06,1.12-.86.07-2.8-1.13-1.94-10.33,7.35-22,15.64-35.32,14.51-10.73-.91-21.59-8.92-18.72-20.78,1.28-5.27,5.15-10.13,10.87-10.52a1.13,1.13,0,0,0,.29-2.21A74.26,74.26,0,0,1,129,449a69.88,69.88,0,0,1-9.82-15.53c-2.71-6-4.73-13.26-2.34-19.66a12.22,12.22,0,0,1,15.41-7.22c1.07.39,1.88-1.14,1.09-1.88-11.05-10.5-23.2-25-18.89-41.45a23,23,0,0,1,13.08-15.11c7.49-3.28,15.79-1.93,22.37,2.72,1.09.77,2.17-.86,1.36-1.76L138.1,334.38c-4.29-4.81-8.81-9.49-12.84-14.53-3.11-3.87-7.18-10.22-4.06-15.18,1.84-2.94,7.5-5.88,10.16-2.31.84,1.13,2.71.14,1.94-1.14-9.24-15.44-19.06-32.05-18.92-50.64.11-15.81,8.12-32,24.64-35.61,8-1.76,16.69-.11,22.53,5.88,1,1,2.26-.26,1.77-1.37-6-13.6-12.67-29.43-6.23-44.13,2.61-6,7.34-10.76,13.74-12.43,6-1.58,12.74-.3,16.94,4.53a1.15,1.15,0,0,0,1.37.18c1.1-.62,2.89-1.15,3.21-2.47.64-2.65-.33-6.39-.8-9-1.18-6.59-3.44-13.14-3.35-19.89.09-6.56,3.43-12.41,9.72-14.77a21.24,21.24,0,0,1,17.59,1.63c6.86,3.81,11.67,10.3,15.58,16.93a1.13,1.13,0,0,0,2.09-.57c-.54-7.89-3.2-16-1.2-23.86,2-8.07,8.75-11.26,16.48-12,7.89-.8,15.92-.8,23.84-1.14l13.05-.57c4.19-.18,9-1,12.92.94a1.15,1.15,0,0,0,1.36-.18,26.22,26.22,0,0,1,28.65-8.34c10.1,3.62,15.29,14.33,14.55,24.62a23.66,23.66,0,0,1-7.1,15.5c-.77.74,0,2.31,1.09,1.88a102.34,102.34,0,0,1,43.89-6.94c13.39.85,30.52,4.86,34.52,19.79,2,7.54-1.73,15.59-9.3,18.12-1.15.39-1,2.27.3,2.21,14.7-.61,31.23.21,42.12,11.52,9.6,10,9.3,26.86-1.71,35.77a25.11,25.11,0,0,1-22.19,4.39c-1.43-.39-1.92,1.65-.6,2.17a93.21,93.21,0,0,1,30.58,19.46,90.68,90.68,0,0,1,11.74,13.69c3.8,5.45,7.14,11.44,7.73,18.18C474,276.07,476.27,276.08,476.15,274.64Z" />
        <path class="cls-5"
            d="M278.45,155.07A292.87,292.87,0,0,1,239.59,203a294.59,294.59,0,0,1-47.44,38.29,308.77,308.77,0,0,1-30.22,17.26c-1.29.65-.16,2.59,1.14,1.94a306.76,306.76,0,0,0,52.33-33.08,293.29,293.29,0,0,0,44.19-42.95,295.66,295.66,0,0,0,20.8-28.24c.79-1.22-1.15-2.34-1.94-1.13Z" />
        <path class="cls-5"
            d="M278.19,155.13c9.26,20.15,25.69,36,42.56,49.88a311.69,311.69,0,0,0,56.54,37.08,313.08,313.08,0,0,0,35,15.2c1.36.5,1.95-1.68.6-2.17a309,309,0,0,1-60.12-29.65,309.94,309.94,0,0,1-27.36-19.58,242.51,242.51,0,0,1-24.3-22c-8.42-8.87-15.83-18.74-20.95-29.88-.6-1.32-2.54-.18-1.94,1.13Z" />
    </g>
</svg>